<svg xmlns="http://www.w3.org/2000/svg" viewBox="0 0 187.592 127.148">
  <defs>
    <style>
      .cls-1 {
        fill: #3ae5b1;
      }
    </style>
  </defs>
  <g id="cloudy" transform="translate(0 -6.455)">
    <g id="Group_181" data-name="Group 181" transform="translate(0 39.224)">
      <path id="Path_249" data-name="Path 249" class="cls-1" d="M119.946,107.832H30.166a30.163,30.163,0,0,1-.693-60.317,47.121,47.121,0,0,1,86.812-9.192,32.926,32.926,0,0,1,3.657-.215,34.862,34.862,0,1,1,0,69.725ZM30.166,52.193a25.476,25.476,0,1,0,0,50.952h89.781a30.177,30.177,0,1,0,0-60.355,30.716,30.716,0,0,0-4.641.389,2.348,2.348,0,0,1-2.444-1.278,42.446,42.446,0,0,0-79.334,8.569A2.378,2.378,0,0,1,31.2,52.249Z" transform="translate(0 -13.453)"/>
      <path id="Path_250" data-name="Path 250" class="cls-1" d="M46.731,88.435a2.341,2.341,0,1,1,0-4.683A30.177,30.177,0,1,0,23.983,33.737a2.34,2.34,0,1,1-3.526-3.076A34.863,34.863,0,1,1,46.731,88.435Z" transform="translate(73.215 5.944)"/>
    </g>
    <g id="Group_182" data-name="Group 182" transform="translate(60.818 6.455)">
      <path id="Path_251" data-name="Path 251" class="cls-1" d="M104.894,100.825a2.341,2.341,0,1,1,0-4.683,30.177,30.177,0,1,0,0-60.355,30.717,30.717,0,0,0-4.641.389A2.348,2.348,0,0,1,97.81,34.9a42.446,42.446,0,0,0-79.334,8.569,2.38,2.38,0,0,1-2.332,1.779l-.595-.033a2.552,2.552,0,0,1-2.561-2.351,2.268,2.268,0,0,1,1.4-2.229,47.121,47.121,0,0,1,86.845-9.309,32.925,32.925,0,0,1,3.657-.215,34.858,34.858,0,1,1,.009,69.715Z" transform="translate(-12.988 -6.455)"/>
      <path id="Path_252" data-name="Path 252" class="cls-1" d="M53.731,81.435a2.341,2.341,0,1,1,0-4.683A30.177,30.177,0,1,0,30.983,26.737a2.34,2.34,0,1,1-3.526-3.076A34.863,34.863,0,1,1,53.731,81.435Z" transform="translate(38.175 12.934)"/>
    </g>
  </g>
</svg>
