<?xml version="1.0" encoding="utf-8"?>
<!-- Generator: Adobe Illustrator 22.1.0, SVG Export Plug-In . SVG Version: 6.00 Build 0)  -->
<svg version="1.1" id="Warstwa_1" xmlns="http://www.w3.org/2000/svg" xmlns:xlink="http://www.w3.org/1999/xlink" x="0px" y="0px"
	 viewBox="0 0 1920 1080" style="enable-background:new 0 0 1920 1080;" xml:space="preserve">
<style type="text/css">
	.st0{clip-path:url(#SVGID_2_);fill:#39EAFD;}
	.st1{clip-path:url(#SVGID_2_);fill:#5677FC;}
	.st2{clip-path:url(#SVGID_2_);fill:#F4F3ED;}
	.st3{clip-path:url(#SVGID_2_);fill:#3E4354;}
	.st4{clip-path:url(#SVGID_2_);fill:#C16792;}
	.st5{clip-path:url(#SVGID_2_);fill:#E4E7E8;}
	.st6{clip-path:url(#SVGID_2_);fill:#424242;}
	.st7{opacity:0.4;clip-path:url(#SVGID_2_);enable-background:new    ;}
	.st8{clip-path:url(#SVGID_4_);fill:#E4E7E8;}
	.st9{clip-path:url(#SVGID_6_);fill:#E4E7E8;}
	.st10{clip-path:url(#SVGID_2_);fill:#D2D7D8;}
	.st11{clip-path:url(#SVGID_2_);fill:#6EBABA;}
	.st12{clip-path:url(#SVGID_2_);fill:#FFFAFD;}
	.st13{clip-path:url(#SVGID_2_);fill:#BCE3E6;}
	.st14{clip-path:url(#SVGID_8_);enable-background:new    ;}
	.st15{clip-path:url(#SVGID_10_);fill:#FFFAFD;}
	.st16{clip-path:url(#SVGID_12_);fill:#4D4B4C;}
	.st17{clip-path:url(#SVGID_14_);fill:#FFFAFD;}
	.st18{clip-path:url(#SVGID_16_);fill:#4D4B4C;}
	.st19{clip-path:url(#SVGID_18_);fill:#4D4B4C;}
	.st20{clip-path:url(#SVGID_20_);fill:#FFFAFD;}
	.st21{clip-path:url(#SVGID_22_);fill:#4D4B4C;}
	.st22{fill:#39EAFD;}
	.st23{fill:#5677FC;}
	.st24{opacity:0.2;enable-background:new    ;}
	.st25{clip-path:url(#SVGID_24_);fill:#39EAFD;}
	.st26{clip-path:url(#SVGID_26_);fill:#39EAFD;}
	.st27{fill:#3AE5B1;}
	.st28{fill-rule:evenodd;clip-rule:evenodd;fill:none;}
</style>
<g>
	<defs>
		<rect id="SVGID_1_" width="1920" height="1080"/>
	</defs>
	<clipPath id="SVGID_2_">
		<use xlink:href="#SVGID_1_"  style="overflow:visible;"/>
	</clipPath>
	<path class="st0" d="M-13.4,1053.3c8.5,2.1,12.9,22.3,20,24.6c1.5,0.4,12.3,3.7,15.6-13.9c0.8-4.4,0.8-8.9,0.2-13.5l-2.9-23.1
		c-1-34.8,37.7-30.4,33.7-1c-1.5,11-3.1,38.5,10.4,42.5c1.7,0.4,3.5,0.4,5.4,0c5.6-1.5,7.7-5.8,8.7-10.2
		c10.2-52,42.7-34.8,36.2-13.7c-3.7,12.5-21.6,30.4-11.7,42.9c2.3,2.9,5.8-0.8,6.7-2.9c12.9-33.3,32.7-20,23.7,0.2
		c-0.2,0.4-0.2,0.8-0.4,1.2c-5.2,14.4-19.1,23.5-34.3,23.1c-6-0.2-11.9-0.4-15.2-0.4l-83.5-2.7c-11-0.4-21.6-8.9-25.6-19.4
		C-31.3,1073.3-30.5,1049.4-13.4,1053.3z"/>
	<path class="st1" d="M213.6,901.2c-9.6,2.3-14.4,24.8-22.3,27.3c-1.5,0.4-13.7,4.2-17.3-15.6c-0.8-5-1-10-0.4-15l3.1-25.8
		c1-38.9-42.2-33.9-37.7-1c1.7,12.3,3.5,43.1-11.7,47.5c-1.9,0.6-4,0.6-6,0c-6.2-1.7-8.7-6.5-9.6-11.4
		c-11.4-58.3-47.7-38.7-40.6-15.4c4.2,13.9,24.1,33.9,12.9,47.9c-2.5,3.3-6.5-1-7.3-3.3c-14.4-37.3-36.4-22.5-26.6,0.2
		c0.2,0.4,0.2,0.8,0.4,1.2c5.8,16,21.4,26.4,38.5,25.8c6.7-0.2,13.1-0.4,17.1-0.6l93.2-2.9c12.3-0.4,24.1-10,28.5-21.6
		C233.6,923.5,232.8,896.6,213.6,901.2z"/>
	<path class="st0" d="M704.8,1083.9c-5,1-7.9,12.9-12.1,14.2c-0.8,0.2-7.3,2.1-8.9-8.3c-0.4-2.7-0.4-5.2,0-7.9l2.1-13.5
		c1-20.4-21.9-18.5-19.8-1c0.6,6.5,1.2,22.7-6.9,24.8c-1,0.2-2.1,0.2-3.1,0c-3.1-1-4.6-3.5-5-6c-5.2-30.8-24.6-21-21.2-8.5
		c2.1,7.3,12.3,18.1,6.2,25.4c-1.5,1.7-3.3-0.6-3.7-1.9c-7.1-19.8-18.9-12.3-13.9-0.2c0,0.2,0.2,0.4,0.2,0.6
		c2.9,8.5,10.8,14.2,20,14.2c3.5,0,6.9,0,8.9,0l49.1-0.4c6.5,0,12.9-5,15.4-11C715,1096,715,1081.9,704.8,1083.9z"/>
	<path class="st1" d="M758.5,944.9c-0.6,2.1-4,5.8-6.2,3.1c-10-11.9,6.7-29.6,10-41.6c5.6-20.4-26.4-36-34.5,14.4
		c-0.6,4.4-2.7,8.5-7.9,10c-1.7,0.4-3.5,0.6-5.2,0.2c-13.3-3.3-12.5-29.8-11.4-40.6c2.9-28.5-34.5-31.6-32.5,1.9l3.5,22.1
		c0.6,4.4,0.8,8.7,0.2,12.9c-0.2,1.2-0.4,2.5-0.8,3.5c-3.5,10-16.7,11.2-22.5,0c-0.2-1-0.6-2.3-0.8-3.5c-0.6-4.4-0.6-8.7,0.2-12.9
		l3.5-22.1c2.1-33.5-35.4-30.4-32.5-1.9c1,10.8,1.9,37.3-11.4,40.6c-1.7,0.4-3.5,0.4-5.2-0.2c-5.2-1.7-7.3-5.8-7.9-10
		c-8.1-50.4-40.2-34.8-34.5-14.4c3.3,12.1,20,30,10,41.6c-2.3,2.7-5.6-1-6.2-3.1c-11.2-32.5-30.8-20.4-22.9-0.6
		c0.2,0.4,0.2,0.6,0.4,1c4.6,13.9,17.7,23.3,32.5,23.3c5.8,0,11.2,0,14.6,0H654h17.3h63.3c3.3,0,8.9,0,14.6,0
		c14.8,0,27.9-9.4,32.5-23.3c0.2-0.4,0.2-0.8,0.4-1C789.3,924.7,770,912.4,758.5,944.9z"/>
	<path class="st0" d="M664.6,965.3c-0.6,1.7-3.1,4.6-5,2.5c-7.9-9.4,5.2-23.5,7.9-33.3c4.4-16.2-21-28.7-27.5,11.4
		c-0.6,3.3-2.1,6.7-6.5,8.1c-1.2,0.4-2.7,0.4-4.2,0.2c-10.6-2.7-10-23.7-8.9-32.3c2.3-22.7-27.5-25.2-25.8,1.7l2.7,17.5
		c0.6,3.3,0.6,6.9,0,10.4c-0.2,1-0.4,1.9-0.6,2.9c-2.9,8.1-13.3,8.9-17.9,0c-0.2-0.8-0.4-1.9-0.6-2.9c-0.4-3.3-0.4-6.9,0-10.4
		l2.7-17.5c1.7-26.6-28.3-24.1-25.8-1.7c0.8,8.5,1.5,29.6-8.9,32.3c-1.2,0.4-2.7,0.2-4.2-0.2c-4.2-1.2-5.8-4.6-6.5-8.1
		c-6.5-40.2-31.8-27.7-27.5-11.4c2.7,9.6,15.8,23.7,7.9,33.3c-1.9,2.1-4.4-0.8-5-2.5c-8.9-25.8-24.6-16.2-18.3-0.4
		c0,0.2,0.2,0.6,0.2,0.8c3.5,11,14.2,18.5,25.8,18.5c4.6,0,8.9,0,11.7,0h50.4h13.7h50.4c2.7,0,7.1,0,11.7,0
		c11.7,0,22.3-7.5,25.8-18.5c0.2-0.4,0.2-0.6,0.2-0.8C689.2,949.1,673.6,939.5,664.6,965.3z"/>
	<path class="st0" d="M330.4,1011.5c4.6,0,9.1,0.1,13.6,0.2c4.5,0.1,9,0.3,13.5,0.5c4.5,0.2,8.9,0.5,13.3,0.8
		c4.4,0.3,8.7,0.7,12.9,1.1c4.2,0.4,8.3,0.9,12.4,1.4c4,0.5,7.9,1.1,11.7,1.7c3.8,0.6,7.5,1.3,11,1.9c3.5,0.7,6.9,1.4,10.1,2.2
		c3.2,0.8,6.3,1.6,9.2,2.4c2.9,0.8,5.6,1.7,8.1,2.6s4.9,1.8,7,2.8c2.1,1,4.1,1.9,5.8,3c1.7,1,3.3,2,4.6,3.1s2.4,2.1,3.3,3.2
		c0.9,1.1,1.6,2.1,2,3.2c0.4,1.1,0.7,2.2,0.7,3.3c0,1.1-0.2,2.2-0.7,3.3c-0.4,1.1-1.1,2.2-2,3.2c-0.9,1.1-2,2.1-3.3,3.2
		s-2.9,2.1-4.6,3.1c-1.7,1-3.7,2-5.8,3c-2.1,1-4.5,1.9-7,2.8c-2.5,0.9-5.2,1.8-8.1,2.6c-2.9,0.8-6,1.7-9.2,2.4
		c-3.2,0.8-6.6,1.5-10.1,2.2c-3.5,0.7-7.2,1.3-11,1.9s-7.7,1.2-11.7,1.7c-4,0.5-8.1,1-12.4,1.4c-4.2,0.4-8.5,0.8-12.9,1.1
		c-4.4,0.3-8.8,0.6-13.3,0.8s-9,0.4-13.5,0.5c-4.5,0.1-9.1,0.2-13.6,0.2c-4.6,0-9.1-0.1-13.6-0.2c-4.5-0.1-9-0.3-13.5-0.5
		c-4.5-0.2-8.9-0.5-13.3-0.8c-4.4-0.3-8.7-0.7-12.9-1.1c-4.2-0.4-8.3-0.9-12.4-1.4s-7.9-1.1-11.7-1.7s-7.4-1.3-11-1.9
		c-3.5-0.7-6.9-1.4-10.1-2.2c-3.2-0.8-6.3-1.6-9.2-2.4c-2.9-0.8-5.6-1.7-8.1-2.6c-2.5-0.9-4.9-1.8-7-2.8c-2.1-1-4.1-1.9-5.8-3
		c-1.7-1-3.3-2-4.6-3.1s-2.4-2.1-3.3-3.2c-0.9-1.1-1.6-2.1-2-3.2s-0.7-2.2-0.7-3.3c0-1.1,0.2-2.2,0.7-3.3c0.4-1.1,1.1-2.2,2-3.2
		c0.9-1.1,2-2.1,3.3-3.2s2.9-2.1,4.6-3.1c1.7-1,3.7-2,5.8-3c2.1-1,4.5-1.9,7-2.8c2.5-0.9,5.2-1.8,8.1-2.6c2.9-0.8,6-1.7,9.2-2.4
		c3.2-0.8,6.6-1.5,10.1-2.2c3.5-0.7,7.2-1.3,11-1.9c3.8-0.6,7.7-1.2,11.7-1.7c4-0.5,8.1-1,12.4-1.4c4.2-0.4,8.5-0.8,12.9-1.1
		c4.4-0.3,8.8-0.6,13.3-0.8c4.5-0.2,9-0.4,13.5-0.5C321.3,1011.6,325.8,1011.5,330.4,1011.5z"/>
	<path class="st2" d="M208.9,618.1c0,0,13.7,1.2,13.7,5s-7.1,3.3-7.1,3.3l-11.2-1.2L208.9,618.1"/>
	<path class="st2" d="M400.3,559.7c0,0-1.7-11.7,4-14.2c5.6-2.3,2.1,10.8,2.1,10.8L400.3,559.7"/>
	<path class="st1" d="M351.8,412.9c2.7-12.5,3.3-25.4-2.3-36.6c-6.7-13.1-20-25.4-42.2-21.9c-26.4-8.1-48.3-8.9-72.8,3.7
		c-16.4,8.5-30.4,21-47.5,27.9c-21.9,8.7-46.2,7.1-69.7,7.1c-11,0-23.3,0.8-31.4,8.5c-13.1,12.7-7.5,35.6-16.9,51.2
		c-4.6,7.7-12.5,13.1-16.2,21.2c-6.7,14.8,3.5,32.3,16.7,41.8c13.5,10,30.6,15.2,47.2,14.6c19.8-0.8,38.5-9.4,58.3-9.6
		c8.5-0.2,16.9,1.2,25.4,1.7c36.2,1.7,53.1-40.6,87.6-40c17.9,0.2,36.4-7.7,46.6-22.7c5-7.7,8.3-16.2,11.2-25
		C347.9,427.5,350.2,420.2,351.8,412.9z"/>
	<path class="st2" d="M209.5,618.6l-2.1-23.9l-1.2-58.1c-0.4-4.8,59.3-18.3,59.3-18.3c3.7-8.3,1-23.5,0.8-32.1
		c-3.5-0.4-50,15.6-63.3,20.2c-12.9,4.4-24.4,11.4-22.1,25l11.4,69.5l3.7,22.5c0,0-2.9,25.2,14.2,22.5
		C227.6,643.1,217,625.6,209.5,618.6z"/>
	<path class="st2" d="M334.1,409c-1.9-32.3-17.9-45.6-36-43.1s-26.6,22.5-23.9,47c1.9,16.9,9.4,30.2,15.6,41.8
		c2.7,5-0.2,25.6-0.2,25.6l21,12.1c0,0-7.7-37.5-2.9-38.7C325,449.1,336,443.1,334.1,409z"/>
	<path class="st1" d="M295.2,367.8c0,0-15.2,44.7-29.1,46.6c0,0-27.5-10.6-40-5.8c-12.5,5,29.6-41.6,29.6-41.6l26.8-14.6
		L295.2,367.8z"/>
	<path class="st2" d="M271.9,411.3c0,0-12.7-11.4-14.2-0.6c-1.7,12.1,17.5,11.7,17.5,11.7"/>
	<path class="st1" d="M285.9,352.6c0,0-23.9,11.7-10,20.8s52.9-2.3,61.4,25.6c6.5,21.2,2.1,31.8,2.1,31.8l10.2-50.6l-23.9-23.9
		L285.9,352.6z"/>
	<path class="st2" d="M428.8,553.8c-6-16.2-23.7-2.9-29.1,5.8l-71.8,20.4l-7.1,23.7l86.2-32.1C407,571.7,434.9,570.1,428.8,553.8z"
		/>
	<path class="st0" d="M338.9,537.2c-4.8-13.7-28.5-56.2-28.5-56.2c-4,11-20.6-3.5-20.6-3.5s-21-1.2-57,17.3c2.1,5,5.8,14.6,9.6,30.6
		c0.6,2.3,11.4-2.5,12.1,0c6.9,30.6,7.3,75.8,7.3,75.8l-2.5,6.5l-10,15.2l-4.2,23.3l57,19.8l18.5-61.8l7.1-23.7l2.5-8.5
		C330.4,571.3,343.7,550.9,338.9,537.2z"/>
	<path class="st3" d="M296.7,732.8c-22.9-6.5-41.4-16.7-54.5-29.1c-0.6,30.2-7.7,108.2-47.9,137.6c-21.6,15.8-52.2,16.9-77.6,20.4
		l2.3,22.5c43.5-1.2,100.7-11,131.1-48.7c32.1-39.8,47.5-77,54.7-100.1C302.1,734.5,299.4,733.7,296.7,732.8z"/>
	<path class="st1" d="M332.9,1014.8l-2.9-2.9c0,0,48.7-159,40.6-187.1c0,0-13.5-90.7-60.4-148.6c0,0,0.6-21.6,0.6-38.3
		c-41.2-10.6-34.3-8.7-61.6-16c-2.3,2.5-4.4,4.8-6.5,6.7c-18.5,17.9-21.2,44.3-9.2,70.6c7.5,16.4,20.8,33.1,39.5,47.7
		c2.3,1.9,4.4,3.5,6.5,5.4c43.1,37.3,51.6,84.5,51.6,84.5l-19.1,174.6l1,2.9C317.1,1015,327.3,1015.3,332.9,1014.8z"/>
	<path class="st4" d="M349.3,985.1c-1.7-4-3.3-12.3,2.3-17.9c5.2-5-15.4-9.4-19.6,0.6C327.7,978,349.3,985.1,349.3,985.1z"/>
	<path class="st4" d="M305.4,978.2c-0.2,0-0.6,0-0.8-0.2c-1.2-0.6-1.9-1.7-1.7-2.9c0.2-2.3,2.7-5.2,7.3-6.5l0.2,1
		c-4,1-6.2,3.5-6.2,5.4c0,0.8,0.2,1.5,1,1.9c0.8,0.4,1.7-1,2.9-3.3c1.2-2.3,2.5-4.6,4.4-5l0.2,1.2c-1.5,0.2-2.5,2.5-3.5,4.4
		C307.9,976.1,306.9,978.2,305.4,978.2z"/>
	<path class="st0" d="M382.6,999.4l-2.7-0.8c-1.9,0-5-0.4-8.9-1.5l-2.5,5c-0.6,1.2-2.1,1.7-3.1,1l-0.4-0.2c-1.2-0.6-1.7-2.1-1-3.1
		l2.3-4.4c-1.5-0.6-2.7-1.2-4.2-2.1l-3.1,4.2c-0.8,1-2.3,1.2-3.3,0.6l-0.2-0.2c-1-0.8-1.2-2.3-0.6-3.3l2.9-4
		c-0.8-0.6-1.9-1.5-2.7-2.1l-3.5,3.5c-0.8,0.8-2.5,0.8-3.3,0l-0.2-0.2c-0.8-0.8-0.8-2.5,0-3.3l3.5-3.5c-0.8-1-1.9-2.1-2.7-3.1
		l-3.7,3.1c-1,0.8-2.5,0.6-3.3-0.4l-0.2-0.2c-0.8-1-0.6-2.5,0.4-3.3l4.2-3.3c-8.1-12.9-15.2-11.9-19.8-11.9
		c-4.8,0-15.4,1.9-16.9,3.1c1.2,2.3,2.7,6.9,2.7,15.6c0,3.5-1,6.9-2.1,10c0.6,0,1.2-0.2,1.9-0.2c8.9,0,16,7.3,16,16
		c0,1-0.2,2.1-0.2,3.1h61.2L382.6,999.4z"/>
	<path class="st4" d="M311.9,994.6c-0.6,0-1.2,0-1.9,0.2c-1.7,4.8-3.7,9.2-3.7,14.8c0,3.7,17.3,4.2,17.3,4.2h4
		c0.2-1,0.2-2.1,0.2-3.1C327.9,1001.7,320.6,994.6,311.9,994.6z"/>
	<path class="st5" d="M365.2,1002.8l0.4,0.2c1.2,0.6,2.5,0.2,3.1-1l2.5-5c-1.5-0.4-3.1-1-4.8-1.7l-2.3,4.4
		C363.5,1000.9,363.9,1002.1,365.2,1002.8z"/>
	<path class="st5" d="M355.6,998l0.2,0.2c1,0.8,2.5,0.4,3.3-0.6l3.1-4.2c-1.5-0.8-2.9-1.7-4.4-2.7l-2.9,4
		C354.1,995.7,354.5,997.1,355.6,998z"/>
	<path class="st5" d="M347.9,991.9l0.2,0.2c0.8,0.8,2.5,0.8,3.3,0l3.5-3.5c-1.2-1-2.5-2.3-3.7-3.5l-3.5,3.5
		C346.8,989.4,346.8,990.9,347.9,991.9z"/>
	<path class="st5" d="M341.4,984.4l0.2,0.2c0.8,1,2.3,1.2,3.3,0.4l3.7-3.1c-0.8-1-1.5-2.1-2.1-3.1c-0.2-0.4-0.4-0.8-0.6-1.2
		l-4.2,3.3C340.8,982,340.6,983.4,341.4,984.4z"/>
	<path class="st4" d="M331,979.2c1.2,0,2.3,0.2,3.4,0.7s2.1,1.1,2.9,1.9s1.5,1.8,1.9,2.9s0.7,2.2,0.7,3.4s-0.2,2.3-0.7,3.4
		s-1.1,2.1-1.9,2.9s-1.8,1.5-2.9,1.9s-2.2,0.7-3.4,0.7s-2.3-0.2-3.4-0.7s-2.1-1.1-2.9-1.9s-1.5-1.8-1.9-2.9s-0.7-2.2-0.7-3.4
		s0.2-2.3,0.7-3.4s1.1-2.1,1.9-2.9s1.8-1.5,2.9-1.9S329.8,979.2,331,979.2z"/>
	<polygon class="st2" points="331,981.7 333.1,985.7 337.7,986.5 334.4,989.7 335.2,994.2 331,992.1 326.9,994.2 327.7,989.7 
		324.4,986.5 328.9,985.7 	"/>
	<polygon class="st6" points="324.2,1018.6 334.1,1031.3 350.8,1018 	"/>
	<polygon class="st6" points="389.7,1018.6 379.5,1031.3 363.1,1018 	"/>
	<g class="st7">
		<g>
			<defs>
				<rect id="SVGID_3_" x="304" y="1011" width="89" height="10"/>
			</defs>
			<clipPath id="SVGID_4_">
				<use xlink:href="#SVGID_3_"  style="overflow:visible;"/>
			</clipPath>
			<path class="st8" d="M392,1016.1c0-2.5-2.1-4.6-4.6-4.6h-78.3c-2.5,0-4.6,2.1-4.6,4.6c0,1.7,0.8,3.1,2.1,4
				c1.2,0.4,2.7,0.8,4.2,0.8h76.8C389.9,1020.9,392,1018.8,392,1016.1z"/>
		</g>
	</g>
	<path class="st5" d="M392,1016.1c0,2.5-2.1,4.6-4.6,4.6h6c5.6,0,10.2-4,11-9.4h-17.1C389.9,1011.5,392,1013.6,392,1016.1z"/>
	<path class="st5" d="M393.2,998.6h-13.5v11h24.6C404.3,1003.4,399.3,998.6,393.2,998.6z"/>
	<polygon class="st6" points="379.7,1009.4 306.3,1009.4 306.3,1013.2 385.5,1011.5 379.7,1011.5 	"/>
	<path class="st6" d="M404.5,1009.4h-24.6v2.1h5.8h1.7h17.1c0-0.6,0.2-1.2,0.2-1.9C404.5,1009.6,404.5,1009.6,404.5,1009.4z"/>
	<path class="st5" d="M392,1016.1c0-2.5-2.1-4.6-4.6-4.6h-78.3c-2.5,0-4.6,2.1-4.6,4.6c0,1.7,0.8,3.1,2.1,4c1.2,0.4,2.7,0.8,4.2,0.8
		h76.8C389.9,1020.9,392,1018.8,392,1016.1z"/>
	<path class="st1" d="M309.4,1031.8c0.6-2,1.6-3.7,3-5.3c1.3-1.6,2.9-2.8,4.8-3.8s3.8-1.5,5.9-1.7c2.1-0.2,4.1,0.1,6.1,0.7
		c2,0.6,3.7,1.6,5.3,3s2.8,2.9,3.8,4.8s1.5,3.8,1.7,5.9c0.2,2.1-0.1,4.1-0.7,6.1s-1.6,3.7-3,5.3c-1.3,1.6-2.9,2.8-4.8,3.8
		s-3.8,1.5-5.9,1.7c-2.1,0.2-4.1-0.1-6.1-0.7c-2-0.6-3.7-1.6-5.3-3s-2.8-2.9-3.8-4.8s-1.5-3.8-1.7-5.9
		C308.6,1035.7,308.8,1033.7,309.4,1031.8z"/>
	<path class="st0" d="M329.4,1036.5c0,2.7-2.3,5-5,5s-5-2.3-5-5s2.3-5,5-5C327.1,1031.7,329.4,1033.8,329.4,1036.5z"/>
	<path class="st1" d="M373.3,1034.1c0.3-2,1-3.9,2.1-5.7c1.1-1.8,2.5-3.2,4.2-4.5c1.7-1.2,3.5-2.1,5.5-2.5c2-0.5,4-0.5,6.1-0.2
		s3.9,1,5.7,2.1c1.8,1.1,3.2,2.5,4.5,4.2c1.2,1.7,2.1,3.5,2.5,5.5c0.5,2,0.5,4,0.2,6.1c-0.3,2-1,3.9-2.1,5.7
		c-1.1,1.8-2.5,3.2-4.2,4.5c-1.7,1.2-3.5,2.1-5.5,2.5c-2,0.5-4,0.5-6.1,0.2c-2-0.3-3.9-1-5.7-2.1c-1.8-1.1-3.2-2.5-4.5-4.2
		c-1.2-1.7-2.1-3.5-2.5-5.5S372.9,1036.2,373.3,1034.1z"/>
	<path class="st0" d="M388.7,1031.5c0.7,0,1.3,0.1,1.9,0.4c0.6,0.3,1.2,0.6,1.6,1.1c0.5,0.5,0.8,1,1.1,1.6c0.3,0.6,0.4,1.2,0.4,1.9
		s-0.1,1.3-0.4,1.9c-0.3,0.6-0.6,1.2-1.1,1.6c-0.5,0.5-1,0.8-1.6,1.1c-0.6,0.3-1.2,0.4-1.9,0.4s-1.3-0.1-1.9-0.4
		c-0.6-0.3-1.2-0.6-1.6-1.1c-0.5-0.5-0.8-1-1.1-1.6s-0.4-1.2-0.4-1.9s0.1-1.3,0.4-1.9s0.6-1.2,1.1-1.6c0.5-0.5,1-0.8,1.6-1.1
		C387.4,1031.6,388,1031.5,388.7,1031.5z"/>
	<path class="st4" d="M113.1,891.4c2.9-2.9,12.1-1.7,19.1,1.5c6.7,2.9,2.7-17.7-8.1-17.9C113.1,874.8,113.1,891.4,113.1,891.4z"/>
	<path class="st4" d="M124.1,860c-0.2-1.5-2.5-2.5-4.4-3.5c-2.3-1.2-4.8-2.5-4-4.4c0.6-1.2,1.7-1.9,2.9-1.7c2.3,0.2,5.2,2.7,6.5,7.1
		l-1,0.4c-1-4-3.7-6-5.4-6.2c-0.8,0-1.5,0.2-1.9,1c-0.4,0.8,1,1.7,3.3,2.9s4.6,2.3,5,4.4H124.1z"/>
	<path class="st0" d="M95.6,930.3l0.8-2.7c0-1.9,0.4-5,1.5-8.9l-5-2.5c-1.2-0.6-1.7-1.9-1-3.1l0.2-0.4c0.6-1.2,1.9-1.7,3.1-1
		l4.4,2.1c0.6-1.5,1.2-2.7,1.9-4.2l-4.4-2.9c-1-0.8-1.2-2.3-0.6-3.3l0.2-0.2c0.8-1,2.3-1.2,3.3-0.6l4,2.7c0.6-1,1.2-1.9,2.1-2.7
		l-3.7-3.5c-0.8-0.8-1-2.3,0-3.3l0.2-0.2c0.8-0.8,2.3-1,3.3,0l3.5,3.5c1-0.8,2.1-1.9,3.1-2.7l-3.1-3.7c-0.8-1-0.6-2.5,0.2-3.3
		l0.2-0.2c1-0.8,2.5-0.6,3.3,0.2l3.5,4.2c12.7-8.3,11.4-15.4,11.4-20c0-4.8-2.1-15.4-3.3-16.9c-2.3,1.2-6.9,2.7-15.6,2.9
		c-3.5,0-6.9-0.8-10-1.9c0,0.6,0.2,1.2,0.2,1.9c0.2,8.9-6.9,16.2-15.8,16.2c-1,0-2.1,0-3.1-0.2l1,61.2L95.6,930.3z"/>
	<path class="st4" d="M99.2,859.6c0-0.6,0-1.2-0.2-1.9c-4.8-1.7-9.4-3.5-14.8-3.5c-3.7,0-4,17.5-4,17.5v4c1,0.2,2.1,0.2,3.1,0.2
		C92.3,875.6,99.4,868.3,99.2,859.6z"/>
	<path class="st5" d="M91.9,913.1l-0.2,0.4c-0.6,1.2,0,2.5,1,3.1l5,2.5c0.4-1.5,1-3.1,1.7-4.8l-4.4-2.1
		C93.8,911.4,92.5,911.8,91.9,913.1z"/>
	<path class="st5" d="M96.7,903.3l-0.2,0.2c-0.8,1-0.4,2.5,0.6,3.3l4.4,2.9c0.8-1.5,1.7-2.9,2.5-4.4l-4-2.7
		C98.8,902,97.3,902.2,96.7,903.3z"/>
	<path class="st5" d="M102.5,895.6l-0.2,0.2c-0.8,0.8-0.8,2.5,0,3.3l3.7,3.5c1-1.2,2.1-2.5,3.3-3.7l-3.5-3.5
		C105,894.5,103.5,894.5,102.5,895.6z"/>
	<path class="st5" d="M110,888.9l-0.2,0.2c-1,0.8-1,2.3-0.2,3.3l3.1,3.7c1-0.8,2.1-1.5,3.1-2.1c0.4-0.2,0.8-0.4,1-0.8l-3.5-4.2
		C112.5,888.3,110.8,888.1,110,888.9z"/>
	<path class="st4" d="M106,887.7c-5,0-8.9-4-9.2-8.7c-0.2-4.8,4-8.9,8.7-9.2c5,0,8.9,4,9.2,8.7C115,883.3,111,887.7,106,887.7z"/>
	<polygon class="st2" points="112.5,878.5 108.3,880.8 107.7,885.4 104.6,882.1 100,882.9 102.1,878.7 99.8,874.8 104.4,875.4 
		107.5,872.1 108.3,876.6 	"/>
	<polygon class="st6" points="75.4,872.3 63,882.5 76.5,898.9 	"/>
	<polygon class="st6" points="76.5,937.8 63.8,928 76.7,911.2 	"/>
	<g class="st7">
		<g>
			<defs>
				<rect id="SVGID_5_" x="72" y="852" width="12" height="89"/>
			</defs>
			<clipPath id="SVGID_6_">
				<use xlink:href="#SVGID_5_"  style="overflow:visible;"/>
			</clipPath>
			<path class="st9" d="M79,940.1c2.5,0,4.6-2.1,4.6-4.8l-1.2-78.3c0-2.5-2.1-4.6-4.8-4.6c-1.7,0-3.1,0.8-3.7,2.1
				c-0.4,1.2-0.8,2.7-0.8,4.2l1.2,76.8C74.2,938,76.5,940.1,79,940.1z"/>
		</g>
	</g>
	<path class="st5" d="M79,940.1c-2.5,0-4.8-2.1-4.8-4.6v6c0,5.6,4.2,10,9.6,10.8l-0.2-17.1C83.6,937.8,81.5,940.1,79,940.1z"/>
	<path class="st5" d="M96.7,941.2l-0.2-13.5l-11,0.2l0.4,24.6C91.9,952.2,96.7,947.2,96.7,941.2z"/>
	<polygon class="st6" points="85.4,927.8 84.2,854.2 80.4,854.2 83.6,933.7 83.3,927.8 	"/>
	<path class="st6" d="M85.8,952.4l-0.4-24.6h-2.1v5.8v1.7l0.2,17.1c0.6,0,1.2,0.2,1.9,0.2C85.6,952.4,85.8,952.4,85.8,952.4z"/>
	<path class="st5" d="M79,940.1c2.5,0,4.6-2.1,4.6-4.8l-1.2-78.3c0-2.5-2.1-4.6-4.8-4.6c-1.7,0-3.1,0.8-3.7,2.1
		c-0.4,1.2-0.8,2.7-0.8,4.2l1.2,76.8C74.2,938,76.5,940.1,79,940.1z"/>
	<path class="st1" d="M46.1,861.9c1.4-1.5,3.1-2.7,5-3.5c1.9-0.8,3.9-1.3,5.9-1.3c2.1-0.1,4.1,0.3,6,1s3.6,1.8,5.1,3.3
		c1.5,1.4,2.7,3.1,3.5,5s1.3,3.9,1.3,5.9c0.1,2.1-0.3,4.1-1,6c-0.7,1.9-1.8,3.6-3.3,5.1c-1.4,1.5-3.1,2.7-5,3.5
		c-1.9,0.8-3.9,1.3-5.9,1.3c-2.1,0.1-4.1-0.3-6-1c-1.9-0.7-3.6-1.8-5.1-3.3c-1.5-1.4-2.7-3.1-3.5-5c-0.8-1.9-1.3-3.9-1.3-5.9
		c-0.1-2.1,0.3-4.1,1-6S44.7,863.4,46.1,861.9z"/>
	<path class="st0" d="M57.5,877.7c-2.7,0-5-2.1-5-4.8c0-2.7,2.1-5,4.8-5c2.7,0,5,2.1,5,4.8C62.5,875.4,60.2,877.7,57.5,877.7z"/>
	<path class="st1" d="M58.8,952.8c-8.7,0.2-15.8-6.9-16-15.4c-0.2-8.7,6.9-15.8,15.4-16c8.7-0.2,15.8,6.9,16,15.4
		C74.4,945.5,67.5,952.8,58.8,952.8z"/>
	<path class="st0" d="M58.6,942.2c-2.7,0-5-2.1-5-4.8s2.1-5,4.8-5c2.7,0,5,2.1,5,4.8C63.6,939.9,61.3,942,58.6,942.2z"/>
	<path class="st2" d="M284.2,621.9c7.9-17.9-14.4-23.7-27.1-26.6c-12.9-2.9-27.1-7.3-34.1-19.4c-9.4-15.6,1-27.9,13.3-37
		c15.8-11.7,25.8-25.6,29.3-45.4c3.5-20.6,6.2-44.7,2.7-65.4c-0.4-1.9-3.3-1-2.9,0.8c2.1,11.9,1,23.9,0,35.8
		c-1,11.2-1.2,23.1-4,34.3c-3.1,12.1-9.2,23.1-18.9,31.2c-6.9,5.8-15,10-20.6,17.1c-9.2,11.4-6.5,26.2,3.3,36.2
		c5.8,6,13.7,9.6,21.6,12.1c10.6,3.3,43.3,5.4,34.8,24.6C280.7,622.1,283.4,623.6,284.2,621.9z"/>
	<path class="st0" d="M263.2,403.4c0,0,0-56.6,49.5-48.9c0,0-40.8-4.2-42.7,48.9H263.2z"/>
	<polygon class="st2" points="261.5,407.1 274.4,405.2 273.2,397.5 261.7,398.8 	"/>
	<path class="st0" d="M272.1,402.3c1,0,2,0.1,3,0.4c1,0.2,1.9,0.6,2.9,1.1c0.9,0.5,1.8,1,2.6,1.7s1.6,1.5,2.3,2.3
		c0.7,0.9,1.3,1.8,1.9,2.8s1,2.1,1.4,3.2c0.4,1.1,0.7,2.3,0.9,3.5c0.2,1.2,0.3,2.4,0.3,3.7s-0.1,2.4-0.3,3.7
		c-0.2,1.2-0.5,2.4-0.9,3.5c-0.4,1.1-0.8,2.2-1.4,3.2s-1.2,2-1.9,2.8s-1.5,1.6-2.3,2.3c-0.8,0.7-1.7,1.3-2.6,1.7
		c-0.9,0.5-1.9,0.8-2.9,1.1c-1,0.2-2,0.4-3,0.4c-1,0-2-0.1-3-0.4c-1-0.2-1.9-0.6-2.9-1.1c-0.9-0.5-1.8-1-2.6-1.7
		c-0.8-0.7-1.6-1.5-2.3-2.3s-1.3-1.8-1.9-2.8c-0.6-1-1-2.1-1.4-3.2c-0.4-1.1-0.7-2.3-0.9-3.5c-0.2-1.2-0.3-2.4-0.3-3.7
		s0.1-2.4,0.3-3.7c0.2-1.2,0.5-2.4,0.9-3.5c0.4-1.1,0.8-2.2,1.4-3.2c0.6-1,1.2-2,1.9-2.8c0.7-0.9,1.5-1.6,2.3-2.3s1.7-1.3,2.6-1.7
		c0.9-0.5,1.9-0.8,2.9-1.1C270.1,402.4,271.1,402.3,272.1,402.3z"/>
	<path class="st0" d="M284.6,419c0,10.4-8.9,19.6-17.3,19.6c-8.3,0-15.8-8.3-15.8-18.5c0-10.4,10.8-17.9,19.4-17.9
		C279.2,401.9,284.6,408.6,284.6,419z"/>
	<path class="st2" d="M270,426.3c-4.6,2.3-10.6,0.2-12.5-3.5c-1.9-3.7,0.2-8.7,4.8-11c4.6-2.3,10.4,0.8,12.1,4.6
		C276.5,420,274.6,424,270,426.3z"/>
	<path class="st10" d="M417.4,548.8c-5.4,1.2-10,4-13.7,8.1c-0.2,0.4-0.4,1,0.2,1.2c4.6,2.1,10.2-0.4,14.8-1.5
		c-0.2-0.4-0.2-1-0.4-1.5c-1.7,0.6-13.7,4.4-12.3,7.7c0.6,1.5,3.7,1,5,1c3.7-0.4,7.1-2.3,10.2-4c0.8-0.4,0.2-1.7-0.8-1.2
		c-3.3,1.5-11.4,3.5-11.9,8.3c0,0.2,0.2,0.6,0.4,0.6c5,2.7,12.5-0.6,16.4-3.7c0.8-0.6,0-1.9-0.8-1.2c-2.3,1.7-10.4,6.5-12.7,3.3
		c-1-1.2,0-1.5,1.2-2.1c0.6-0.4,1.5-0.6,2.1-1c2.1-0.8,4-1.9,6-2.7c-0.2-0.4-0.6-0.8-0.8-1.2c-2.9,1.5-8.7,5.4-12.3,3.7
		c-1.5,0-1-0.6,1.2-1.7c1-0.6,2.3-1.2,3.5-1.7c1.9-0.8,3.7-1.5,5.6-2.3c0.8-0.4,0.6-1.7-0.4-1.5c-4,1-9.6,3.3-13.7,1.7
		c0,0.4,0.2,0.8,0.2,1.2c3.5-4,7.9-6.5,12.9-7.7C418.9,550.1,418.4,548.6,417.4,548.8z"/>
	<path class="st2" d="M243.8,625.2l7.9-9.8l61.4,15.4l-1.7,14.2C311.2,645,267.5,638.5,243.8,625.2z"/>
	<path class="st11" d="M281.1,617.5c0.4-1,1.5-1.5,2.5-1l1.9,0.8c1,0.4,1.5,1.5,1,2.5l-1.7,4.2c-0.4,1-1.5,1.5-2.5,1l-1.9-0.8
		c-1-0.4-1.5-1.5-1-2.5L281.1,617.5z"/>
	<path class="st12" d="M278.6,641.2c0.2-0.6,1-1,1.9-0.8l2.9,1.2c0.6,0.2,1,1,0.8,1.9l-1.9,4.8c-0.2,0.6-1,1-1.9,0.8l-2.9-1.2
		c-0.6-0.2-1-1-0.8-1.9L278.6,641.2z"/>
	<path class="st0" d="M283.6,632.7c0.2-0.6,1-1,1.9-0.8l2.9,1.2c0.6,0.2,1,1,0.8,1.9l-1.9,4.8c-0.2,0.6-1,1-1.9,0.8l-2.9-1.2
		c-0.6-0.2-1-1-0.8-1.9L283.6,632.7z"/>
	<path class="st0" d="M276.9,650.2c0.2-0.6,1-1,1.9-0.8l2.9,1.2c0.6,0.2,1,1,0.8,1.9l-1.9,4.8c-0.2,0.6-1,1-1.9,0.8l-2.9-1.2
		c-0.6-0.2-1-1-0.8-1.9L276.9,650.2z"/>
	<path class="st0" d="M272.7,658.9c0.2-0.6,1-1,1.9-0.8l2.9,1.2c0.6,0.2,1,1,0.8,1.9l-1.9,4.8c-0.2,0.6-1,1-1.9,0.8l-2.9-1.2
		c-0.6-0.2-1-1-0.8-1.9L272.7,658.9z"/>
	<path class="st0" d="M244.4,656.6c-0.4,0.8,0,1.9,1,2.3l23.9,9.8c0.8,0.4,1.9,0,2.3-1L285,635l-27.3-11L244.4,656.6z"/>
	<path class="st13" d="M287.5,623.8l-23.9-9.8c-0.8-0.4-1.9,0-2.3,1l-3.5,8.7l27.3,11l3.5-8.7C288.8,625.2,288.4,624.2,287.5,623.8z
		"/>
	<path class="st11" d="M264.8,620.6c0.4-1,1.5-1.5,2.5-1l13.3,5.4c1,0.4,1.5,1.5,1,2.5c-0.4,1-1.5,1.5-2.5,1l-13.3-5.4
		C265,622.7,264.4,621.7,264.8,620.6z"/>
</g>
<g>
	<defs>
		<path id="SVGID_7_" d="M260.9,634.4c0.4-1,1.5-1.5,2.5-1l11.7,4.8c1,0.4,1.5,1.5,1,2.5l-8.1,20.2c-0.4,1-1.5,1.5-2.5,1l-11.7-4.8
			c-1-0.4-1.5-1.5-1-2.5L260.9,634.4z"/>
	</defs>
	<clipPath id="SVGID_8_">
		<use xlink:href="#SVGID_7_"  style="overflow:visible;"/>
	</clipPath>
	<g class="st14">
		<g>
			<defs>
				<rect id="SVGID_9_" x="252" y="632" width="25" height="31"/>
			</defs>
			<clipPath id="SVGID_10_">
				<use xlink:href="#SVGID_9_"  style="overflow:visible;"/>
			</clipPath>
			<path class="st15" d="M260.9,634.4c0.4-1,1.5-1.5,2.5-1l11.7,4.8c1,0.4,1.5,1.5,1,2.5l-8.1,20.2c-0.4,1-1.5,1.5-2.5,1l-11.7-4.8
				c-1-0.4-1.5-1.5-1-2.5L260.9,634.4z"/>
		</g>
	</g>
	<g class="st14">
		<g>
			<defs>
				<rect id="SVGID_11_" x="252" y="632" width="25" height="31"/>
			</defs>
			<clipPath id="SVGID_12_">
				<use xlink:href="#SVGID_11_"  style="overflow:visible;"/>
			</clipPath>
			<path class="st16" d="M260.7,635c1.7-4.2,6.5-6.2,10.6-4.6s6.2,6.5,4.6,10.6c-1.7,4.2-6.5,6.2-10.6,4.6
				C261.1,644,259,639.2,260.7,635z"/>
		</g>
	</g>
	<g class="st14">
		<g>
			<defs>
				<rect id="SVGID_13_" x="252" y="632" width="25" height="31"/>
			</defs>
			<clipPath id="SVGID_14_">
				<use xlink:href="#SVGID_13_"  style="overflow:visible;"/>
			</clipPath>
			<path class="st17" d="M265,636.7c0.8-1.9,2.7-2.7,4.6-1.9c1.9,0.8,2.7,2.7,1.9,4.6c-0.8,1.9-2.7,2.7-4.6,1.9
				C265.3,640.6,264.2,638.5,265,636.7z"/>
		</g>
	</g>
	<g class="st14">
		<g>
			<defs>
				<rect id="SVGID_15_" x="252" y="632" width="25" height="31"/>
			</defs>
			<clipPath id="SVGID_16_">
				<use xlink:href="#SVGID_15_"  style="overflow:visible;"/>
			</clipPath>
			<path class="st18" d="M266.9,637.5c0.2-0.8,1-1,1.9-0.8c0.8,0.2,1,1,0.8,1.9c-0.2,0.8-1,1-1.9,0.8S266.7,638.3,266.9,637.5z"/>
		</g>
	</g>
	<g class="st14">
		<g>
			<defs>
				<rect id="SVGID_17_" x="252" y="632" width="25" height="31"/>
			</defs>
			<clipPath id="SVGID_18_">
				<use xlink:href="#SVGID_17_"  style="overflow:visible;"/>
			</clipPath>
			<path class="st19" d="M255.9,652.3c1.2-3.1,4.8-4.6,7.9-3.3c3.1,1.2,4.6,4.8,3.3,7.9c-1.2,3.1-4.8,4.6-7.9,3.3
				C256.1,658.9,254.6,655.4,255.9,652.3z"/>
		</g>
	</g>
	<g class="st14">
		<g>
			<defs>
				<rect id="SVGID_19_" x="252" y="632" width="25" height="31"/>
			</defs>
			<clipPath id="SVGID_20_">
				<use xlink:href="#SVGID_19_"  style="overflow:visible;"/>
			</clipPath>
			<path class="st20" d="M258.4,653.3c0.8-1.9,2.7-2.7,4.6-1.9c1.9,0.8,2.7,2.7,1.9,4.6c-0.8,1.9-2.7,2.7-4.6,1.9
				C258.6,657.1,257.6,655,258.4,653.3z"/>
		</g>
	</g>
	<g class="st14">
		<g>
			<defs>
				<rect id="SVGID_21_" x="252" y="632" width="25" height="31"/>
			</defs>
			<clipPath id="SVGID_22_">
				<use xlink:href="#SVGID_21_"  style="overflow:visible;"/>
			</clipPath>
			<path class="st21" d="M260.3,653.9c0.2-0.8,1-1,1.9-0.8c0.8,0.2,1,1,0.8,1.9c-0.2,0.8-1,1-1.9,0.8
				C260.3,655.6,260,654.8,260.3,653.9z"/>
		</g>
	</g>
</g>
<path class="st22" d="M301.3,429.4c4,6,11.7,8.3,18.3,5.4c0.8-0.4,0.2-1.7-0.8-1.2c-5.8,2.5-12.7,0.4-16-4.8
	C302.1,427.7,300.6,428.3,301.3,429.4z"/>
<path class="st22" d="M309.6,406.5c0.4,4,1,8.1,2.7,11.7c0.4,1,1,2.1,1.9,2.9c0.2,0.2,0.6,0.4,1,0.8c0.4,0.2,0.6,0.4,1,0.4
	c1.7,0.6,1,2.3-1.9,4.8c-1,0-1,1.5,0,1.7c2.9,0,7.7-2.3,5.6-6c-1-1.7-3.1-1.5-4.6-2.7c-3.1-2.9-3.7-9.6-4.2-13.5
	C311,405.4,309.4,405.4,309.6,406.5z"/>
<path class="st23" d="M293.4,410.4c2.9,3.5,7.7,4.8,11.4,2.1c1.7-1.2,0-4-1.7-2.7c-2.7,2.1-5.6,1-7.7-1.5
	C294.4,406.7,292.1,408.8,293.4,410.4z"/>
<path class="st23" d="M317.5,412.5c4.2,2.3,8.9,1.7,11.7-2.5c1-1.7-1.7-3.3-2.7-1.7c-1.7,2.7-4.8,2.9-7.5,1.5
	C317.5,408.8,315.8,411.5,317.5,412.5z"/>
<g class="st24">
	<g>
		<defs>
			<rect id="SVGID_23_" x="291" y="418" width="13" height="8"/>
		</defs>
		<clipPath id="SVGID_24_">
			<use xlink:href="#SVGID_23_"  style="overflow:visible;"/>
		</clipPath>
		<path class="st25" d="M303.1,421.5c0.2,2.1-2.1,4-5.2,4.4c-3.1,0.4-5.8-1-6-3.1c-0.2-2.1,0.8-4.2,4-4.6
			C299,417.7,302.9,419.4,303.1,421.5z"/>
	</g>
</g>
<g class="st24">
	<g>
		<defs>
			<rect id="SVGID_25_" x="321" y="417" width="10" height="8"/>
		</defs>
		<clipPath id="SVGID_26_">
			<use xlink:href="#SVGID_25_"  style="overflow:visible;"/>
		</clipPath>
		<path class="st26" d="M321,420.8c0-1.9,2.1-3.5,4.6-3.5c2.7-0.2,4.8,1.2,5,3.1c0,1.9-1,3.7-3.5,4
			C324.4,424.4,321.2,422.7,321,420.8z"/>
	</g>
</g>
<path class="st23" d="M293.1,400.4c2.1-0.6,4-1,6-1.2s2.1-3.3,0-3.1c-2.3,0.2-4.6,0.6-6.9,1.2C290.4,398.2,291.1,401.1,293.1,400.4z
	"/>
<path class="st23" d="M318.5,399.4c1.7,0.2,3.5,0.4,5.2,0.6c0.8,0,1.5-0.8,1.7-1.7c0-0.8-0.6-1.5-1.7-1.7c-1.7-0.2-3.5-0.4-5.2-0.6
	c-0.8,0-1.5,0.8-1.7,1.7C316.9,398.8,317.7,399.2,318.5,399.4z"/>
<path class="st23" d="M61.3,407.3c10.4-10.6,23.1-18.5,37.7-21.9c17.3-4.2,35.2-1.5,52.4,0.8c23.3,3.1,48.3,5.2,68.7-8.9
	c0.8-0.6,0-1.9-0.8-1.2c-27.5,19.1-60.6,8.1-91,6c-25.8-1.9-49.7,5.4-68.1,24.1C59.6,407.1,60.7,408.1,61.3,407.3z"/>
<path class="st23" d="M328.3,460.6c12.3-10.2,24.8-22.9,26.6-39.8c1.9-17.1-7.9-32.5-17.5-45.6c-0.6-0.8-1.9,0-1.2,0.8
	c10.2,13.5,20.4,29.8,16.9,47.7c-2.9,15-14.4,26.4-25.8,35.8C326.4,460.2,327.5,461.2,328.3,460.6z"/>
<path class="st23" d="M83.1,533c16.2,4.6,31.8,7.3,48.1,1c15.6-6,28.1-15.2,45.6-14.6c1,0,1-1.5,0-1.7c-13.5-0.4-24.4,4.4-36.2,10.2
	c-19.6,9.6-36,9.4-56.8,3.3C82.5,531.1,82.1,532.6,83.1,533z"/>
<path class="st22" d="M-12.8,168.4c-14.1,0-25.5,11.4-25.5,25.5s11.4,25.5,25.5,25.5h89.8c16.6,0,30.2-13.5,30.2-30.2
	c0-16.6-13.5-30.2-30.2-30.2c-1.4,0-2.9,0.1-4.6,0.4c-1,0.1-2-0.4-2.4-1.3c-7.2-14.7-21.8-23.8-38.1-23.8
	c-19.6,0-36.5,13.3-41.2,32.3c-0.3,1.1-1.2,1.8-2.3,1.8L-12.8,168.4z M76.9,224h-89.8c-16.6,0-30.2-13.5-30.2-30.2
	c0-16.4,13.2-29.8,29.5-30.2c5.8-20.1,24.2-34.1,45.3-34.1c17.5,0,33.3,9.5,41.5,24.9c1.3-0.1,2.5-0.2,3.7-0.2
	c19.2,0,34.9,15.6,34.9,34.9C111.8,208.4,96.2,224,76.9,224z"/>
<path class="st22" d="M76.9,224c-1.3,0-2.3-1-2.3-2.3s1-2.3,2.3-2.3c16.6,0,30.2-13.5,30.2-30.2c0-16.6-13.5-30.2-30.2-30.2
	c-8.7,0-17,3.8-22.7,10.3c-0.8,1-2.3,1.1-3.3,0.2c-1-0.8-1.1-2.3-0.2-3.3c6.6-7.6,16.2-11.9,26.3-11.9c19.2,0,34.9,15.6,34.9,34.9
	C111.8,208.3,96.2,224,76.9,224z"/>
<path class="st22" d="M109.7,191.2c-1.3,0-2.3-1-2.3-2.3s1-2.3,2.3-2.3c16.6,0,30.2-13.5,30.2-30.2c0-16.6-13.5-30.2-30.2-30.2
	c-1.4,0-2.9,0.1-4.6,0.4c-1,0.1-2-0.4-2.4-1.3c-7.2-14.7-21.8-23.8-38.1-23.8c-19.6,0-36.5,13.3-41.2,32.3c-0.3,1.1-1.2,1.8-2.3,1.8
	l-0.6,0c-1.3,0-2.6-1.1-2.6-2.4c0-1,0.5-1.9,1.4-2.2c5.8-20.2,24.2-34.2,45.3-34.2c17.5,0,33.3,9.5,41.5,24.9
	c1.3-0.1,2.5-0.2,3.7-0.2c19.2,0,34.9,15.6,34.9,34.9C144.6,175.6,129,191.2,109.7,191.2z"/>
<path class="st22" d="M109.7,191.2c-1.3,0-2.3-1-2.3-2.3c0-1.3,1-2.3,2.3-2.3c16.6,0,30.2-13.5,30.2-30.2
	c0-16.6-13.5-30.2-30.2-30.2c-8.7,0-17,3.8-22.7,10.3c-0.8,1-2.3,1.1-3.3,0.2c-1-0.8-1.1-2.3-0.2-3.3c6.6-7.6,16.2-11.9,26.3-11.9
	c19.2,0,34.9,15.6,34.9,34.9C144.6,175.6,129,191.2,109.7,191.2z"/>
<path class="st27" d="M1834.2,476.4c-14.1,0-25.5,11.4-25.5,25.5c0,14,11.4,25.5,25.5,25.5h89.8c16.6,0,30.2-13.5,30.2-30.2
	c0-16.6-13.5-30.2-30.2-30.2c-1.4,0-2.9,0.1-4.6,0.4c-1,0.1-2-0.4-2.4-1.3c-7.2-14.7-21.8-23.8-38.1-23.8
	c-19.6,0-36.5,13.3-41.2,32.3c-0.3,1.1-1.2,1.8-2.3,1.8L1834.2,476.4z M1923.9,532h-89.8c-16.6,0-30.2-13.5-30.2-30.2
	c0-16.4,13.2-29.8,29.5-30.2c5.8-20.1,24.2-34.1,45.3-34.1c17.5,0,33.3,9.5,41.5,24.9c1.3-0.1,2.5-0.2,3.7-0.2
	c19.2,0,34.9,15.6,34.9,34.9C1958.8,516.3,1943.2,532,1923.9,532z"/>
<path class="st27" d="M1923.9,532c-1.3,0-2.3-1-2.3-2.3s1-2.3,2.3-2.3c16.6,0,30.2-13.5,30.2-30.2c0-16.6-13.5-30.2-30.2-30.2
	c-8.7,0-17,3.8-22.7,10.3c-0.8,1-2.3,1.1-3.3,0.2c-1-0.8-1.1-2.3-0.2-3.3c6.6-7.6,16.2-11.9,26.3-11.9c19.2,0,34.9,15.6,34.9,34.9
	C1958.8,516.3,1943.2,532,1923.9,532z"/>
<path class="st27" d="M1956.7,499.2c-1.3,0-2.3-1-2.3-2.3c0-1.3,1-2.3,2.3-2.3c16.6,0,30.2-13.5,30.2-30.2
	c0-16.6-13.5-30.2-30.2-30.2c-1.4,0-2.9,0.1-4.6,0.4c-1,0.1-2-0.4-2.4-1.3c-7.2-14.7-21.8-23.8-38.1-23.8
	c-19.6,0-36.5,13.3-41.2,32.3c-0.3,1.1-1.2,1.8-2.3,1.8l-0.6,0c-1.3,0-2.6-1.1-2.6-2.4c0-1,0.5-1.9,1.4-2.2
	c5.8-20.2,24.2-34.2,45.3-34.2c17.5,0,33.3,9.5,41.5,24.9c1.3-0.1,2.5-0.2,3.7-0.2c19.2,0,34.9,15.6,34.9,34.9
	C1991.6,483.6,1976,499.2,1956.7,499.2z"/>
<rect class="st28" width="1920" height="1080"/>
</svg>
