<svg xmlns="http://www.w3.org/2000/svg" xmlns:xlink="http://www.w3.org/1999/xlink" viewBox="0 0 812.628 767.09">
  <defs>
    <style>
      .cls-1, .cls-15 {
        fill: #39eafd;
      }

      .cls-2 {
        fill: #5677fc;
      }

      .cls-3 {
        fill: #f4f3ed;
      }

      .cls-4 {
        fill: #3e4354;
      }

      .cls-5 {
        fill: #c16792;
      }

      .cls-6, .cls-8 {
        fill: #e4e7e8;
      }

      .cls-7 {
        fill: #424242;
      }

      .cls-8 {
        opacity: 0.4;
      }

      .cls-9 {
        fill: #d2d7d8;
      }

      .cls-10 {
        fill: #6ebaba;
      }

      .cls-11 {
        fill: #fffafd;
      }

      .cls-12 {
        fill: #bce3e6;
      }

      .cls-13 {
        clip-path: url(#clip-path);
      }

      .cls-14 {
        fill: #4d4b4c;
      }

      .cls-15 {
        opacity: 0.2;
      }
    </style>
    <clipPath id="clip-path">
      <path id="Path_1304" data-name="Path 1304" d="M223.8,200.824a1.837,1.837,0,0,1,2.5-1.041l11.655,4.787a1.837,1.837,0,0,1,1.041,2.5l-8.117,20.188a1.837,1.837,0,0,1-2.5,1.041l-11.655-4.787a1.837,1.837,0,0,1-1.041-2.5Z" transform="translate(-215.523 -199.623)"/>
    </clipPath>
  </defs>
  <g id="login-bcg" transform="translate(-80.218 -62.831)">
    <g id="Group_1053" data-name="Group 1053" transform="translate(80.218 62.831)">
      <g id="Group_1013" data-name="Group 1013" transform="translate(0 496.114)">
        <g id="Group_1011" data-name="Group 1011">
          <path id="Path_1232" data-name="Path 1232" class="cls-1" d="M95.79,427.783c8.533,2.081,12.9,22.27,19.98,24.559,1.457.416,12.279,3.746,15.61-13.945a42.065,42.065,0,0,0,.208-13.528l-2.914-23.1c-1.041-34.757,37.671-30.387,33.717-1.041-1.457,11.031-3.122,38.5,10.406,42.458a11.871,11.871,0,0,0,5.411,0c5.619-1.457,7.7-5.828,8.741-10.2,10.2-52.032,42.666-34.757,36.214-13.736-3.746,12.488-21.645,30.387-11.655,42.874,2.289,2.914,5.828-.833,6.66-2.914,12.9-33.3,32.676-19.98,23.726.208-.208.416-.208.833-.416,1.249a35.357,35.357,0,0,1-34.341,23.1c-6.036-.208-11.863-.416-15.193-.416l-83.459-2.706c-11.031-.416-21.645-8.949-25.6-19.356C77.891,447.763,78.723,423.829,95.79,427.783Z" transform="translate(-80.218 -219.038)"/>
          <path id="Path_1233" data-name="Path 1233" class="cls-2" d="M282.938,357.808c-9.574,2.289-14.361,24.767-22.27,27.265-1.457.416-13.736,4.163-17.275-15.609a51.71,51.71,0,0,1-.416-14.985L246.1,328.67c1.041-38.92-42.25-33.925-37.671-1.041,1.665,12.279,3.538,43.082-11.655,47.453a9.952,9.952,0,0,1-6.036,0c-6.244-1.665-8.741-6.452-9.574-11.447-11.447-58.276-47.661-38.712-40.585-15.4,4.163,13.945,24.143,33.925,12.9,47.869-2.5,3.33-6.452-1.041-7.284-3.33-14.361-37.255-36.422-22.478-26.64.208.208.416.208.832.416,1.249a39.418,39.418,0,0,0,38.5,25.808c6.66-.208,13.112-.416,17.066-.624l93.241-2.914c12.279-.416,24.143-9.99,28.513-21.645C302.918,380.077,302.086,353.229,282.938,357.808Z" transform="translate(-40.301 -301.203)"/>
          <path id="Path_1234" data-name="Path 1234" class="cls-1" d="M478.292,431.96c-4.995,1.041-7.909,12.9-12.071,14.153-.832.208-7.284,2.081-8.949-8.325a25.2,25.2,0,0,1,0-7.909l2.081-13.528c1.041-20.4-21.853-18.523-19.772-1.041.624,6.452,1.249,22.686-6.868,24.767a7.883,7.883,0,0,1-3.122,0,7.336,7.336,0,0,1-4.995-6.036c-5.2-30.8-24.559-21.021-21.229-8.533,2.081,7.284,12.279,18.107,6.244,25.391-1.457,1.665-3.33-.624-3.746-1.873-7.076-19.772-18.94-12.279-13.945-.208,0,.208.208.416.208.624a20.884,20.884,0,0,0,19.98,14.153h8.949l49.118-.416c6.452,0,12.9-5,15.4-11.031C488.491,444.032,488.491,429.879,478.292,431.96Z" transform="translate(255.524 -192.62)"/>
        </g>
        <g id="Group_1012" data-name="Group 1012" transform="translate(520.3 23.458)">
          <path id="Path_1235" data-name="Path 1235" class="cls-2" d="M571.355,389.327c-.624,2.081-3.954,5.828-6.244,3.122-9.99-11.863,6.66-29.554,9.99-41.625,5.62-20.4-26.432-36.006-34.549,14.361-.624,4.371-2.706,8.533-7.909,9.99a11.023,11.023,0,0,1-5.2.208c-13.32-3.33-12.488-29.762-11.447-40.585,2.914-28.513-34.549-31.635-32.468,1.873l3.538,22.061a44.809,44.809,0,0,1,.208,12.9,17.63,17.63,0,0,1-.832,3.538c-3.538,9.99-16.65,11.239-22.478,0-.208-1.041-.624-2.289-.833-3.538a38.3,38.3,0,0,1,.208-12.9l3.538-22.061c2.081-33.508-35.382-30.386-32.468-1.873,1.041,10.823,1.873,37.255-11.447,40.585a8.887,8.887,0,0,1-5.2-.208c-5.2-1.665-7.284-5.828-7.909-9.99-8.117-50.367-40.168-34.757-34.549-14.361,3.33,12.071,19.98,29.97,9.99,41.625-2.289,2.706-5.62-1.041-6.244-3.122-11.239-32.468-30.8-20.4-22.894-.624.208.416.208.624.416,1.041a34.064,34.064,0,0,0,32.468,23.31H561.99a34.064,34.064,0,0,0,32.468-23.31c.208-.416.208-.832.416-1.041C602.158,369.139,582.8,356.859,571.355,389.327Z" transform="translate(-304.142 -312.474)"/>
          <path id="Path_1236" data-name="Path 1236" class="cls-1" d="M503.559,390.909c-.624,1.665-3.122,4.579-4.995,2.5-7.909-9.366,5.2-23.518,7.909-33.3,4.371-16.234-21.021-28.721-27.473,11.447-.624,3.33-2.081,6.66-6.452,8.117a9.242,9.242,0,0,1-4.163.208c-10.614-2.706-9.99-23.726-8.949-32.26,2.289-22.686-27.473-25.183-25.808,1.665l2.706,17.483a29.134,29.134,0,0,1,0,10.406c-.208,1.041-.416,1.873-.624,2.914-2.914,8.117-13.32,8.949-17.9,0-.208-.833-.416-1.873-.624-2.914a43.5,43.5,0,0,1,0-10.406l2.706-17.483c1.665-26.64-28.305-24.143-25.808-1.665.833,8.533,1.457,29.554-8.949,32.26a7.192,7.192,0,0,1-4.163-.208c-4.163-1.249-5.828-4.579-6.452-8.117-6.452-40.168-31.843-27.681-27.473-11.447,2.706,9.574,15.818,23.726,7.909,33.3-1.873,2.081-4.371-.832-4.995-2.5-8.949-25.808-24.559-16.234-18.315-.416,0,.208.208.624.208.833a27.131,27.131,0,0,0,25.808,18.523h137.78a27.131,27.131,0,0,0,25.808-18.523,1.573,1.573,0,0,0,.208-.833C528.117,374.675,512.508,365.1,503.559,390.909Z" transform="translate(-330.21 -293.659)"/>
        </g>
      </g>
      <g id="Group_1052" data-name="Group 1052" transform="translate(64.361)">
        <ellipse id="Ellipse_29" data-name="Ellipse 29" class="cls-1" cx="139.237" cy="33.3" rx="139.237" ry="33.3" transform="translate(155.799 663.026)"/>
        <g id="Group_1051" data-name="Group 1051">
          <g id="Group_1047" data-name="Group 1047">
            <path id="Path_1237" data-name="Path 1237" class="cls-3" d="M196.879,192.4s13.736,1.249,13.736,5-7.076,3.33-7.076,3.33L192.3,199.476l4.579-7.076" transform="translate(-23.389 77.267)"/>
            <path id="Path_1238" data-name="Path 1238" class="cls-3" d="M286.62,171.792s-1.665-11.655,3.954-14.153c5.619-2.289,2.081,10.823,2.081,10.823l-6.036,3.33" transform="translate(78.347 39.391)"/>
            <path id="Path_1239" data-name="Path 1239" class="cls-2" d="M419.667,127.285c2.706-12.488,3.33-25.391-2.289-36.63-6.66-13.112-19.98-25.391-42.25-21.853-26.432-8.117-48.285-8.949-72.844,3.746-16.442,8.533-30.387,21.021-47.453,27.889-21.853,8.741-46.2,7.076-69.722,7.076-11.031,0-23.31.833-31.427,8.533-13.112,12.7-7.493,35.59-16.858,51.2-4.579,7.7-12.488,13.112-16.234,21.229-6.66,14.777,3.538,32.26,16.65,41.833a75.722,75.722,0,0,0,47.245,14.569c19.772-.832,38.5-9.366,58.275-9.574,8.533-.208,16.858,1.249,25.391,1.665,36.214,1.665,53.072-40.585,87.621-39.96,17.9.208,36.422-7.7,46.62-22.686,5-7.7,8.325-16.234,11.239-24.975C415.713,141.854,418,134.57,419.667,127.285Z" transform="translate(-103.194 -62.832)"/>
            <g id="Group_1027" data-name="Group 1027" transform="translate(0 3.889)">
              <path id="Path_1240" data-name="Path 1240" class="cls-3" d="M209.766,261.373l-2.081-23.935-1.249-58.067c-.416-4.787,59.316-18.315,59.316-18.315,3.746-8.325,1.041-23.518.832-32.052-3.538-.416-49.95,15.609-63.271,20.188-12.9,4.371-24.351,11.447-22.061,24.975L192.7,243.682l3.746,22.478s-2.914,25.183,14.153,22.478C227.873,285.932,217.259,268.449,209.766,261.373Z" transform="translate(-35.652 4.821)"/>
              <g id="Group_1014" data-name="Group 1014" transform="translate(188.447)">
                <path id="Path_1241" data-name="Path 1241" class="cls-3" d="M286.1,114.435c-1.873-32.26-17.9-45.58-36.006-43.082s-26.64,22.478-23.935,47.037c1.873,16.858,9.366,30.178,15.61,41.833,2.706,5-.208,25.6-.208,25.6l21.021,12.071s-7.7-37.463-2.914-38.712C276.938,154.6,287.969,148.568,286.1,114.435Z" transform="translate(-175.76 -57.825)"/>
                <path id="Path_1242" data-name="Path 1242" class="cls-2" d="M273.1,80.1s-15.193,44.747-29.138,46.62c0,0-27.473-10.614-39.96-5.828-12.488,5,29.554-41.625,29.554-41.625L260.406,64.7Z" transform="translate(-201.686 -64.7)"/>
                <path id="Path_1243" data-name="Path 1243" class="cls-3" d="M232.206,95.742s-12.7-11.447-14.153-.624c-1.665,12.071,17.483,11.655,17.483,11.655" transform="translate(-184.1 -36.842)"/>
                <path id="Path_1244" data-name="Path 1244" class="cls-2" d="M238.957,64.8s-23.935,11.655-9.99,20.813,52.864-2.289,61.4,25.6c6.452,21.229,2.081,31.843,2.081,31.843l10.2-50.575L278.709,68.546Z" transform="translate(-176.907 -64.592)"/>
              </g>
              <g id="Group_1015" data-name="Group 1015" transform="translate(197.425 125.067)">
                <path id="Path_1245" data-name="Path 1245" class="cls-3" d="M356.318,165.475c-6.036-16.234-23.726-2.914-29.138,5.828l-71.8,20.4L248.3,215.425l86.164-32.052S362.353,181.709,356.318,165.475Z" transform="translate(-160.262 -89.075)"/>
                <path id="Path_1246" data-name="Path 1246" class="cls-1" d="M312.145,184.542c-4.787-13.736-28.513-56.194-28.513-56.194-3.954,11.031-20.6-3.538-20.6-3.538S242.006,123.56,206,142.084a187.889,187.889,0,0,1,9.574,30.595c.624,2.289,11.447-2.5,12.071,0,6.868,30.595,7.284,75.758,7.284,75.758l-2.5,6.452-9.99,15.193-4.163,23.31,57.027,19.772,18.523-61.814,7.076-23.726,2.5-8.533C303.611,218.674,316.932,198.278,312.145,184.542Z" transform="translate(-206 -124.792)"/>
              </g>
              <g id="Group_1026" data-name="Group 1026" transform="translate(0 269.524)">
                <path id="Path_1247" data-name="Path 1247" class="cls-4" d="M330.23,262.638c-22.894-6.452-41.417-16.65-54.529-29.138-.624,30.178-7.7,108.226-47.869,137.572-21.645,15.818-52.24,16.858-77.631,20.4l2.289,22.478c43.5-1.249,100.733-11.031,131.12-48.7,32.052-39.752,47.453-77.007,54.737-100.109Z" transform="translate(-68.91 -151.706)"/>
                <path id="Path_1248" data-name="Path 1248" class="cls-2" d="M309.483,587.143l-2.914-2.914s48.7-159.009,40.585-187.106c0,0-13.528-90.743-60.357-148.6,0,0,.624-21.645.624-38.3-41.209-10.614-34.341-8.741-61.606-16.026-2.289,2.5-4.371,4.787-6.452,6.66-18.523,17.9-21.229,44.331-9.158,70.555,7.493,16.442,20.813,33.092,39.544,47.661,2.289,1.873,4.371,3.538,6.452,5.411,43.082,37.255,51.615,84.5,51.615,84.5L288.67,583.605l1.041,2.914C293.665,587.351,303.863,587.56,309.483,587.143Z" transform="translate(-11.949 -194.2)"/>
                <g id="Group_1020" data-name="Group 1020" transform="translate(267.524 339.89)">
                  <path id="Path_1249" data-name="Path 1249" class="cls-5" d="M271.277,380.8c-1.665-3.954-3.33-12.279,2.289-17.9,5.2-5-15.4-9.366-19.564.624C249.632,373.724,271.277,380.8,271.277,380.8Z" transform="translate(-224.826 -357.509)"/>
                  <g id="Group_1016" data-name="Group 1016" transform="translate(0 6.849)">
                    <path id="Path_1250" data-name="Path 1250" class="cls-5" d="M242.218,370.374a1.251,1.251,0,0,1-.832-.208,2.676,2.676,0,0,1-1.665-2.914c.208-2.289,2.706-5.2,7.284-6.452l.208,1.041c-3.954,1.041-6.244,3.538-6.244,5.411a1.82,1.82,0,0,0,1.041,1.873c.832.416,1.665-1.041,2.914-3.33s2.5-4.579,4.371-5l.208,1.249c-1.457.208-2.5,2.5-3.538,4.371C244.716,368.293,243.675,370.374,242.218,370.374Z" transform="translate(-239.681 -360.8)"/>
                  </g>
                  <g id="Group_1017" data-name="Group 1017" transform="translate(3.369 4.123)">
                    <path id="Path_1251" data-name="Path 1251" class="cls-1" d="M316.061,393.019l-2.706-.833a38.365,38.365,0,0,1-8.949-1.457l-2.5,5a2.247,2.247,0,0,1-3.122,1.041l-.416-.208a2.247,2.247,0,0,1-1.041-3.122l2.289-4.371a38.807,38.807,0,0,1-4.163-2.081l-3.122,4.163a2.6,2.6,0,0,1-3.33.624l-.208-.208a2.6,2.6,0,0,1-.624-3.33l2.914-3.954c-.833-.624-1.873-1.457-2.706-2.081l-3.538,3.538a2.532,2.532,0,0,1-3.33,0l-.208-.208a2.532,2.532,0,0,1,0-3.33l3.538-3.538c-.832-1.041-1.873-2.081-2.706-3.122l-3.746,3.122a2.346,2.346,0,0,1-3.33-.416l-.208-.208a2.345,2.345,0,0,1,.416-3.33l4.163-3.33c-8.117-12.9-15.193-11.863-19.772-11.863-4.787,0-15.4,1.873-16.858,3.122,1.249,2.289,2.706,6.868,2.706,15.609a31.651,31.651,0,0,1-2.081,9.99c.624,0,1.249-.208,1.873-.208a16.032,16.032,0,0,1,16.026,16.026c0,1.041-.208,2.081-.208,3.122H322.3Z" transform="translate(-239.678 -359.49)"/>
                    <path id="Path_1252" data-name="Path 1252" class="cls-5" d="M246.919,373.3a5.762,5.762,0,0,0-1.873.208c-1.665,4.787-3.746,9.158-3.746,14.777,0,3.746,17.275,4.163,17.275,4.163h3.954A16.508,16.508,0,0,0,246.919,373.3Z" transform="translate(-241.3 -344.558)"/>
                    <path id="Path_1253" data-name="Path 1253" class="cls-6" d="M270.29,381.093l.416.208a2.2,2.2,0,0,0,3.122-1.041l2.5-5c-1.457-.416-3.122-1.041-4.787-1.665l-2.289,4.371A2.2,2.2,0,0,0,270.29,381.093Z" transform="translate(-211.39 -344.234)"/>
                    <path id="Path_1254" data-name="Path 1254" class="cls-6" d="M265.554,378.684l.208.208a2.387,2.387,0,0,0,3.33-.624l3.122-4.163a49.791,49.791,0,0,1-4.371-2.706l-2.914,3.954A2.387,2.387,0,0,0,265.554,378.684Z" transform="translate(-216.228 -346.613)"/>
                    <path id="Path_1255" data-name="Path 1255" class="cls-6" d="M261.72,375.568l.208.208a2.532,2.532,0,0,0,3.33,0l3.538-3.538c-1.249-1.041-2.5-2.289-3.746-3.538l-3.538,3.538A2.339,2.339,0,0,0,261.72,375.568Z" transform="translate(-220.095 -349.532)"/>
                    <path id="Path_1256" data-name="Path 1256" class="cls-6" d="M258.467,371.968l.208.208a2.346,2.346,0,0,0,3.33.416l3.746-3.122a27.116,27.116,0,0,1-2.081-3.122l-.624-1.249-4.163,3.33A2.619,2.619,0,0,0,258.467,371.968Z" transform="translate(-223.293 -353.425)"/>
                  </g>
                  <circle id="Ellipse_30" data-name="Ellipse 30" class="cls-5" cx="8.949" cy="8.949" r="8.949" transform="translate(19.187 17.463)"/>
                  <path id="Path_1257" data-name="Path 1257" class="cls-3" d="M256.66,367.1l2.081,3.954,4.579.833-3.33,3.122.832,4.579-4.163-2.081-4.163,2.081.833-4.579L250,371.887l4.579-.833Z" transform="translate(-228.524 -347.139)"/>
                  <g id="Group_1019" data-name="Group 1019" transform="translate(1.704 36.819)">
                    <path id="Path_1258" data-name="Path 1258" class="cls-7" d="M249.9,385.124l9.99,12.7,16.65-13.32Z" transform="translate(-230.336 -365.144)"/>
                    <path id="Path_1259" data-name="Path 1259" class="cls-7" d="M295.24,385.124l-10.2,12.7L268.6,384.5Z" transform="translate(-210.116 -365.144)"/>
                    <path id="Path_1260" data-name="Path 1260" class="cls-8" d="M327.913,385.979a4.619,4.619,0,0,0-4.579-4.579H245.079a4.619,4.619,0,0,0-4.579,4.579,4.736,4.736,0,0,0,2.081,3.954,13.456,13.456,0,0,0,4.163.832h76.8A4.636,4.636,0,0,0,327.913,385.979Z" transform="translate(-240.5 -368.496)"/>
                    <g id="Group_1018" data-name="Group 1018" transform="translate(1.665)">
                      <path id="Path_1261" data-name="Path 1261" class="cls-6" d="M284.879,386.087a4.619,4.619,0,0,1-4.579,4.579h6.036a11.017,11.017,0,0,0,11.031-9.366H280.3A4.953,4.953,0,0,1,284.879,386.087Z" transform="translate(-199.131 -368.604)"/>
                      <path id="Path_1262" data-name="Path 1262" class="cls-6" d="M290.128,375.2H276.6v11.031h24.559A10.97,10.97,0,0,0,290.128,375.2Z" transform="translate(-203.131 -375.2)"/>
                      <path id="Path_1263" data-name="Path 1263" class="cls-7" d="M314.769,380.4H241.3v3.746l79.3-1.665h-5.828Z" transform="translate(-241.3 -369.577)"/>
                      <path id="Path_1264" data-name="Path 1264" class="cls-7" d="M301.259,380.4H276.7v2.081h24.559c0-.624.208-1.249.208-1.873C301.259,380.608,301.259,380.608,301.259,380.4Z" transform="translate(-203.023 -369.577)"/>
                    </g>
                    <path id="Path_1265" data-name="Path 1265" class="cls-6" d="M327.913,385.979a4.619,4.619,0,0,0-4.579-4.579H245.079a4.619,4.619,0,0,0-4.579,4.579,4.736,4.736,0,0,0,2.081,3.954,13.456,13.456,0,0,0,4.163.832h76.8A4.636,4.636,0,0,0,327.913,385.979Z" transform="translate(-240.5 -368.496)"/>
                    <circle id="Ellipse_31" data-name="Ellipse 31" class="cls-2" cx="15.61" cy="15.61" r="15.61" transform="matrix(0.305, -0.952, 0.952, 0.305, 0.083, 48.024)"/>
                    <path id="Path_1266" data-name="Path 1266" class="cls-1" d="M257.59,396a5,5,0,1,1-5-4.995A5.21,5.21,0,0,1,257.59,396Z" transform="translate(-232.823 -358.116)"/>
                    <circle id="Ellipse_32" data-name="Ellipse 32" class="cls-2" cx="15.61" cy="15.61" r="15.61" transform="translate(66.189 50.918) rotate(-80.782)"/>
                    <circle id="Ellipse_33" data-name="Ellipse 33" class="cls-1" cx="4.995" cy="4.995" r="4.995" transform="translate(79.088 32.884)"/>
                  </g>
                </g>
                <g id="Group_1025" data-name="Group 1025" transform="translate(0 228.484)">
                  <path id="Path_1267" data-name="Path 1267" class="cls-5" d="M148.5,332.243c2.914-2.914,12.071-1.665,19.148,1.457,6.66,2.914,2.706-17.691-8.117-17.9C148.5,315.593,148.5,332.243,148.5,332.243Z" transform="translate(-70.748 -291.203)"/>
                  <g id="Group_1021" data-name="Group 1021" transform="translate(80.293)">
                    <path id="Path_1268" data-name="Path 1268" class="cls-5" d="M158.21,313.594c-.208-1.457-2.5-2.5-4.371-3.538-2.289-1.249-4.787-2.5-3.954-4.371a2.676,2.676,0,0,1,2.914-1.665c2.289.208,5.2,2.706,6.452,7.076l-1.041.416c-1.041-3.954-3.746-6.036-5.411-6.244a1.82,1.82,0,0,0-1.873,1.041c-.416.833,1.041,1.665,3.33,2.914s4.579,2.289,5,4.371Z" transform="translate(-149.721 -303.981)"/>
                  </g>
                  <g id="Group_1022" data-name="Group 1022" transform="translate(44.868 3.786)">
                    <path id="Path_1269" data-name="Path 1269" class="cls-1" d="M147.993,380.785l.832-2.706a38.366,38.366,0,0,1,1.457-8.949l-5-2.5a2.2,2.2,0,0,1-1.041-3.122l.208-.416a2.2,2.2,0,0,1,3.122-1.041l4.371,2.081c.624-1.457,1.249-2.706,1.873-4.163l-4.371-2.914a2.6,2.6,0,0,1-.624-3.33l.208-.208a2.6,2.6,0,0,1,3.33-.624l3.954,2.706A13.361,13.361,0,0,1,158.4,352.9l-3.746-3.538a2.322,2.322,0,0,1,0-3.33l.208-.208a2.322,2.322,0,0,1,3.33,0l3.538,3.538c1.041-.832,2.081-1.873,3.122-2.706l-3.122-3.746a2.529,2.529,0,0,1,.208-3.33l.208-.208a2.529,2.529,0,0,1,3.33.208l3.538,4.163c12.7-8.325,11.447-15.4,11.447-19.98,0-4.787-2.081-15.4-3.33-16.858-2.289,1.249-6.868,2.706-15.61,2.914a31.518,31.518,0,0,1-9.99-1.873c0,.624.208,1.249.208,1.873A16.3,16.3,0,0,1,132.8,325.84l1.041,61.189Z" transform="translate(-132.592 -304.611)"/>
                    <path id="Path_1270" data-name="Path 1270" class="cls-5" d="M151.64,311.211a5.762,5.762,0,0,0-.208-1.873c-4.787-1.665-9.366-3.538-14.777-3.538-3.746,0-3.954,17.483-3.954,17.483v3.954a15.748,15.748,0,0,0,3.122.208A16.03,16.03,0,0,0,151.64,311.211Z" transform="translate(-132.7 -305.8)"/>
                    <path id="Path_1271" data-name="Path 1271" class="cls-6" d="M138.538,334.758l-.208.416a2.364,2.364,0,0,0,1.041,3.122l5,2.5c.416-1.457,1.041-3.122,1.665-4.787l-4.371-2.081A2.009,2.009,0,0,0,138.538,334.758Z" transform="translate(-126.882 -275.858)"/>
                    <path id="Path_1272" data-name="Path 1272" class="cls-6" d="M140.938,329.907l-.208.208a2.387,2.387,0,0,0,.624,3.33l4.371,2.914,2.5-4.371-3.954-2.706A2.505,2.505,0,0,0,140.938,329.907Z" transform="translate(-124.496 -280.789)"/>
                    <path id="Path_1273" data-name="Path 1273" class="cls-6" d="M143.833,326.12l-.208.208a2.532,2.532,0,0,0,0,3.33l3.746,3.538c1.041-1.249,2.081-2.5,3.33-3.746l-3.538-3.538A2.339,2.339,0,0,0,143.833,326.12Z" transform="translate(-121.563 -284.703)"/>
                    <path id="Path_1274" data-name="Path 1274" class="cls-6" d="M147.528,322.775l-.208.208a2.324,2.324,0,0,0-.208,3.33l3.122,3.746a27.116,27.116,0,0,1,3.122-2.081,2.078,2.078,0,0,0,1.041-.833l-3.538-4.163A2.544,2.544,0,0,0,147.528,322.775Z" transform="translate(-117.766 -288.018)"/>
                  </g>
                  <path id="Path_1275" data-name="Path 1275" class="cls-5" d="M149.861,331.2a9.162,9.162,0,0,1-9.158-8.741c-.208-4.787,3.954-8.949,8.741-9.158a9.162,9.162,0,0,1,9.158,8.741A8.883,8.883,0,0,1,149.861,331.2Z" transform="translate(-79.186 -293.905)"/>
                  <path id="Path_1276" data-name="Path 1276" class="cls-3" d="M154.8,320.852l-4.163,2.289-.624,4.579-3.122-3.33-4.579.833,2.081-4.163-2.289-3.954,4.579.624,3.122-3.33.832,4.579Z" transform="translate(-77.669 -292.715)"/>
                  <g id="Group_1024" data-name="Group 1024" transform="translate(0 0.229)">
                    <path id="Path_1277" data-name="Path 1277" class="cls-7" d="M136.888,314.5,124.4,324.7l13.528,16.442Z" transform="translate(-96.807 -292.836)"/>
                    <path id="Path_1278" data-name="Path 1278" class="cls-7" d="M137.5,359.84l-12.7-9.782L137.7,333.2Z" transform="translate(-96.374 -272.616)"/>
                    <path id="Path_1279" data-name="Path 1279" class="cls-8" d="M135.236,392.621a4.667,4.667,0,0,0,4.579-4.787l-1.249-78.256A4.667,4.667,0,0,0,133.779,305a4.124,4.124,0,0,0-3.746,2.081,13.456,13.456,0,0,0-.832,4.163l1.249,76.8A4.8,4.8,0,0,0,135.236,392.621Z" transform="translate(-91.617 -303.108)"/>
                    <g id="Group_1023" data-name="Group 1023" transform="translate(38.832 3.557)">
                      <path id="Path_1280" data-name="Path 1280" class="cls-6" d="M134.587,349.587a4.8,4.8,0,0,1-4.787-4.579v6.036a10.988,10.988,0,0,0,9.574,10.823l-.208-17.066A4.8,4.8,0,0,1,134.587,349.587Z" transform="translate(-129.8 -263.631)"/>
                      <path id="Path_1281" data-name="Path 1281" class="cls-6" d="M146.439,354.628l-.208-13.528-11.031.208.416,24.559A11.245,11.245,0,0,0,146.439,354.628Z" transform="translate(-123.961 -267.631)"/>
                      <path id="Path_1282" data-name="Path 1282" class="cls-7" d="M137.8,379.477,136.546,305.8H132.8l3.122,79.5-.208-5.828Z" transform="translate(-126.556 -305.8)"/>
                      <path id="Path_1283" data-name="Path 1283" class="cls-7" d="M136.7,365.759l-.416-24.559H134.2v7.492l.208,17.066c.624,0,1.249.208,1.873.208A.645.645,0,0,1,136.7,365.759Z" transform="translate(-125.042 -267.523)"/>
                    </g>
                    <path id="Path_1284" data-name="Path 1284" class="cls-6" d="M135.236,392.621a4.667,4.667,0,0,0,4.579-4.787l-1.249-78.256A4.667,4.667,0,0,0,133.779,305a4.124,4.124,0,0,0-3.746,2.081,13.456,13.456,0,0,0-.832,4.163l1.249,76.8A4.8,4.8,0,0,0,135.236,392.621Z" transform="translate(-91.617 -303.108)"/>
                    <circle id="Ellipse_34" data-name="Ellipse 34" class="cls-2" cx="15.61" cy="15.61" r="15.61" transform="translate(0 22.615) rotate(-46.422)"/>
                    <path id="Path_1285" data-name="Path 1285" class="cls-1" d="M124.4,322.182a4.892,4.892,0,1,1,4.787-5A4.758,4.758,0,0,1,124.4,322.182Z" transform="translate(-102.213 -295.106)"/>
                    <path id="Path_1286" data-name="Path 1286" class="cls-2" d="M130.728,369.53a15.717,15.717,0,1,1,15.4-16.026A15.509,15.509,0,0,1,130.728,369.53Z" transform="translate(-107.298 -267.32)"/>
                    <path id="Path_1287" data-name="Path 1287" class="cls-1" d="M124.9,353.182a4.892,4.892,0,1,1,4.787-4.995C129.89,350.893,127.6,352.974,124.9,353.182Z" transform="translate(-101.673 -261.587)"/>
                  </g>
                </g>
              </g>
            </g>
            <g id="Group_1028" data-name="Group 1028" transform="translate(180.987 78.591)">
              <path id="Path_1288" data-name="Path 1288" class="cls-3" d="M265.947,295.415c7.909-17.9-14.361-23.726-27.056-26.64-12.9-2.914-27.056-7.284-34.133-19.356-9.366-15.609,1.041-27.889,13.32-37.047,15.818-11.655,25.808-25.6,29.346-45.372,3.538-20.6,6.244-44.747,2.706-65.352-.416-1.873-3.33-1.041-2.914.833,2.081,11.863,1.041,23.935,0,35.8-1.041,11.239-1.249,23.1-3.954,34.341-3.122,12.071-9.158,23.1-18.94,31.219-6.868,5.828-14.985,9.99-20.6,17.066-9.158,11.447-6.452,26.224,3.33,36.214,5.828,6.036,13.736,9.574,21.645,12.071,10.615,3.33,43.29,5.411,34.757,24.559-1.041,1.873,1.665,3.33,2.5,1.665Z" transform="translate(-198.102 -100.593)"/>
            </g>
            <path id="Path_1289" data-name="Path 1289" class="cls-1" d="M220.6,114.984s0-56.61,49.534-48.91c0,0-40.793-4.163-42.666,48.91Z" transform="translate(7.211 -60.104)"/>
            <path id="Path_1290" data-name="Path 1290" class="cls-3" d="M219.8,95.974,232.7,94.1l-1.249-7.7-11.447,1.249Z" transform="translate(6.346 -37.348)"/>
            <ellipse id="Ellipse_35" data-name="Ellipse 35" class="cls-1" cx="15.193" cy="18.731" rx="15.193" ry="18.731" transform="translate(221.567 53.839)"/>
            <path id="Path_1291" data-name="Path 1291" class="cls-1" d="M248.092,105.461c0,10.406-8.949,19.564-17.275,19.564S215,116.7,215,106.5c0-10.406,10.823-17.9,19.356-17.9C242.681,88.394,248.092,95.054,248.092,105.461Z" transform="translate(1.156 -34.971)"/>
            <path id="Path_1292" data-name="Path 1292" class="cls-3" d="M230.744,108.174c-4.579,2.289-10.614.208-12.488-3.538s.208-8.741,4.787-11.031,10.406.833,12.071,4.579C237.2,101.93,235.323,105.885,230.744,108.174Z" transform="translate(3.935 -30.4)"/>
            <g id="Group_1029" data-name="Group 1029" transform="translate(368.088 200.34)">
              <path id="Path_1293" data-name="Path 1293" class="cls-9" d="M301.945,159.11a25.917,25.917,0,0,0-13.736,8.117c-.208.416-.416,1.041.208,1.249,4.579,2.081,10.2-.416,14.777-1.457-.208-.416-.208-1.041-.416-1.457-1.665.624-13.736,4.371-12.279,7.7.624,1.457,3.746,1.041,5,1.041,3.746-.416,7.076-2.289,10.2-3.954.833-.416.208-1.665-.832-1.249-3.33,1.457-11.447,3.538-11.863,8.325,0,.208.208.624.416.624,4.995,2.706,12.488-.624,16.442-3.746.833-.624,0-1.873-.832-1.249-2.289,1.665-10.406,6.452-12.7,3.33-1.041-1.249,0-1.457,1.249-2.081.624-.416,1.457-.624,2.081-1.041,2.081-.832,3.954-1.873,6.036-2.706-.208-.416-.624-.832-.832-1.249-2.914,1.457-8.741,5.411-12.279,3.746-1.457,0-1.041-.624,1.249-1.665a18.448,18.448,0,0,1,3.538-1.665c1.873-.832,3.746-1.457,5.619-2.289.833-.416.624-1.665-.416-1.457-3.954,1.041-9.574,3.33-13.736,1.665,0,.416.208.832.208,1.249a25.093,25.093,0,0,1,12.9-7.7c1.457-.833,1.041-2.289,0-2.081Z" transform="translate(-288 -159.09)"/>
            </g>
            <path id="Path_1294" data-name="Path 1294" class="cls-3" d="M211.3,200.882l7.909-9.782,61.4,15.4-1.665,14.153C278.733,220.654,235.026,214.2,211.3,200.882Z" transform="translate(-2.845 75.861)"/>
            <g id="Group_1039" data-name="Group 1039" transform="translate(208.92 265.345)">
              <path id="Path_1295" data-name="Path 1295" class="cls-10" d="M230.148,192.724a1.837,1.837,0,0,1,2.5-1.041l1.873.833a1.837,1.837,0,0,1,1.041,2.5l-1.665,4.163a1.837,1.837,0,0,1-2.5,1.041l-1.873-.833a1.837,1.837,0,0,1-1.041-2.5Z" transform="translate(-193.358 -189.026)"/>
              <path id="Path_1296" data-name="Path 1296" class="cls-11" d="M229,203.961a1.563,1.563,0,0,1,1.873-.832l2.914,1.249a1.563,1.563,0,0,1,.833,1.873l-1.873,4.787a1.563,1.563,0,0,1-1.873.832l-2.914-1.249a1.563,1.563,0,0,1-.832-1.873Z" transform="translate(-194.709 -176.537)"/>
              <path id="Path_1297" data-name="Path 1297" class="cls-1" d="M231.4,199.861a1.563,1.563,0,0,1,1.873-.833l2.914,1.249a1.563,1.563,0,0,1,.832,1.873l-1.873,4.787a1.563,1.563,0,0,1-1.873.832l-2.914-1.249a1.563,1.563,0,0,1-.832-1.873Z" transform="translate(-192.114 -180.97)"/>
              <path id="Path_1298" data-name="Path 1298" class="cls-1" d="M228.2,208.261a1.563,1.563,0,0,1,1.873-.833l2.914,1.249a1.563,1.563,0,0,1,.832,1.873l-1.873,4.787a1.563,1.563,0,0,1-1.873.832l-2.914-1.249a1.563,1.563,0,0,1-.832-1.873Z" transform="translate(-195.574 -171.887)"/>
              <path id="Path_1299" data-name="Path 1299" class="cls-1" d="M226.2,212.461a1.563,1.563,0,0,1,1.873-.832l2.914,1.249a1.563,1.563,0,0,1,.832,1.873l-1.873,4.787a1.563,1.563,0,0,1-1.873.832l-2.914-1.249a1.563,1.563,0,0,1-.832-1.873Z" transform="translate(-197.737 -167.346)"/>
              <g id="Group_1030" data-name="Group 1030">
                <path id="Path_1300" data-name="Path 1300" class="cls-1" d="M211.683,227.876a1.684,1.684,0,0,0,1.041,2.289l23.935,9.782a1.684,1.684,0,0,0,2.289-1.041l13.32-32.676L225,195.2Z" transform="translate(-211.523 -185.05)"/>
                <path id="Path_1301" data-name="Path 1301" class="cls-12" d="M247.762,200.265l-23.935-9.782a1.684,1.684,0,0,0-2.289,1.041L218,200.265,245.265,211.3l3.538-8.741A2.092,2.092,0,0,0,247.762,200.265Z" transform="translate(-204.52 -190.323)"/>
              </g>
              <path id="Path_1302" data-name="Path 1302" class="cls-10" d="M221.469,194.224a1.837,1.837,0,0,1,2.5-1.041l13.32,5.411a1.837,1.837,0,0,1,1.041,2.5h0a1.837,1.837,0,0,1-2.5,1.041l-13.32-5.411a2.012,2.012,0,0,1-1.041-2.5Z" transform="translate(-200.913 -187.404)"/>
              <g id="Group_1038" data-name="Group 1038" transform="translate(8.325 19.356)">
                <g id="Group_1031" data-name="Group 1031" class="cls-13">
                  <path id="Path_1303" data-name="Path 1303" class="cls-11" d="M223.8,200.824a1.837,1.837,0,0,1,2.5-1.041l11.655,4.787a1.837,1.837,0,0,1,1.041,2.5l-8.117,20.188a1.837,1.837,0,0,1-2.5,1.041l-11.655-4.787a1.837,1.837,0,0,1-1.041-2.5Z" transform="translate(-215.523 -199.623)"/>
                </g>
                <g id="Group_1032" data-name="Group 1032" class="cls-13">
                  <path id="Path_1305" data-name="Path 1305" class="cls-14" d="M219.7,203.177a8.174,8.174,0,1,1,4.579,10.614A8.214,8.214,0,0,1,219.7,203.177Z" transform="translate(-211.63 -201.353)"/>
                </g>
                <g id="Group_1033" data-name="Group 1033" class="cls-13">
                  <path id="Path_1307" data-name="Path 1307" class="cls-11" d="M221.652,202.441a3.5,3.5,0,1,1,1.873,4.579A3.45,3.45,0,0,1,221.652,202.441Z" transform="translate(-209.213 -198.951)"/>
                </g>
                <g id="Group_1034" data-name="Group 1034" class="cls-13">
                  <path id="Path_1309" data-name="Path 1309" class="cls-14" d="M222.439,202.172c.208-.832,1.041-1.041,1.873-.832s1.041,1.041.832,1.873-1.041,1.041-1.873.832S222.231,203,222.439,202.172Z" transform="translate(-208.127 -197.849)"/>
                </g>
                <g id="Group_1035" data-name="Group 1035" class="cls-13">
                  <path id="Path_1311" data-name="Path 1311" class="cls-14" d="M217.332,210.762a6.068,6.068,0,1,1,3.33,7.909A6.054,6.054,0,0,1,217.332,210.762Z" transform="translate(-214.05 -191.663)"/>
                </g>
                <g id="Group_1036" data-name="Group 1036" class="cls-13">
                  <path id="Path_1313" data-name="Path 1313" class="cls-11" d="M218.452,210.441a3.5,3.5,0,1,1,1.873,4.579C218.66,214.187,217.62,212.106,218.452,210.441Z" transform="translate(-212.673 -190.301)"/>
                </g>
                <g id="Group_1037" data-name="Group 1037" class="cls-13">
                  <path id="Path_1315" data-name="Path 1315" class="cls-14" d="M219.239,210.072c.208-.832,1.041-1.041,1.873-.832s1.041,1.041.832,1.873-1.041,1.041-1.873.833S219.031,210.9,219.239,210.072Z" transform="translate(-211.587 -189.307)"/>
                </g>
              </g>
            </g>
            <g id="Group_1046" data-name="Group 1046" transform="translate(255.833 47.586)">
              <g id="Group_1040" data-name="Group 1040" transform="translate(9.913 32.151)">
                <path id="Path_1317" data-name="Path 1317" class="cls-1" d="M238.979,102.3a14.757,14.757,0,0,0,18.315,5.411c.833-.416.208-1.665-.832-1.249a13.038,13.038,0,0,1-16.026-4.787c-.624-1.041-2.081-.416-1.457.624Z" transform="translate(-238.827 -101.143)"/>
              </g>
              <g id="Group_1041" data-name="Group 1041" transform="translate(18.373 9.636)">
                <path id="Path_1318" data-name="Path 1318" class="cls-1" d="M242.909,91.105c.416,3.954,1.041,8.117,2.706,11.655a8.73,8.73,0,0,0,1.873,2.914c.208.208.624.416,1.041.833.416.208.624.416,1.041.416,1.665.624,1.041,2.289-1.873,4.787-1.041,0-1.041,1.457,0,1.665,2.914,0,7.7-2.289,5.619-6.036-1.041-1.665-3.122-1.457-4.579-2.706-3.122-2.914-3.746-9.574-4.163-13.528-.208-1.041-1.873-1.041-1.665,0Z" transform="translate(-242.891 -90.325)"/>
              </g>
              <g id="Group_1042" data-name="Group 1042" transform="translate(1.794 11.677)">
                <path id="Path_1319" data-name="Path 1319" class="cls-2" d="M235.289,94c2.914,3.538,7.7,4.787,11.447,2.081,1.665-1.249,0-3.954-1.665-2.706-2.706,2.081-5.619,1.041-7.7-1.457-1.041-1.665-3.33.416-2.081,2.081Z" transform="translate(-234.926 -91.306)"/>
              </g>
              <g id="Group_1043" data-name="Group 1043" transform="translate(25.605 11.6)">
                <path id="Path_1320" data-name="Path 1320" class="cls-2" d="M247.061,96.121c4.163,2.289,8.949,1.665,11.655-2.5,1.041-1.665-1.665-3.33-2.706-1.665-1.665,2.706-4.787,2.914-7.493,1.457-1.457-1.041-3.122,1.665-1.457,2.706Z" transform="translate(-246.366 -91.269)"/>
              </g>
              <path id="Path_1321" data-name="Path 1321" class="cls-15" d="M245.652,99.663c.208,2.081-2.081,3.954-5.2,4.371s-5.828-1.041-6.036-3.122.832-4.163,3.954-4.579S245.444,97.582,245.652,99.663Z" transform="translate(-233.713 -74.262)"/>
              <path id="Path_1322" data-name="Path 1322" class="cls-15" d="M248.4,99.448c0-1.873,2.081-3.538,4.579-3.538,2.706-.208,4.787,1.249,5,3.122a3.708,3.708,0,0,1-3.538,3.954C251.73,102.987,248.608,101.322,248.4,99.448Z" transform="translate(-218.562 -74.671)"/>
              <g id="Group_1044" data-name="Group 1044">
                <path id="Path_1323" data-name="Path 1323" class="cls-2" d="M236.012,90.076a31.138,31.138,0,0,1,6.036-1.249c2.081-.208,2.081-3.33,0-3.122a39.739,39.739,0,0,0-6.868,1.249c-1.873.832-1.249,3.746.833,3.122Z" transform="translate(-234.064 -85.695)"/>
              </g>
              <g id="Group_1045" data-name="Group 1045" transform="translate(25.675 0.01)">
                <path id="Path_1324" data-name="Path 1324" class="cls-2" d="M248.065,89.03c1.665.208,3.538.416,5.2.624.833,0,1.457-.833,1.665-1.665,0-.833-.624-1.457-1.665-1.665-1.665-.208-3.538-.416-5.2-.624-.832,0-1.457.833-1.665,1.665,0,1.041.833,1.457,1.665,1.665Z" transform="translate(-246.4 -85.7)"/>
              </g>
            </g>
          </g>
          <g id="Group_1048" data-name="Group 1048" transform="translate(24.695 27.445)">
            <path id="Path_1325" data-name="Path 1325" class="cls-2" d="M124.241,107.407c10.406-10.614,23.1-18.523,37.671-21.853,17.275-4.163,35.173-1.457,52.448.833,23.31,3.122,48.285,5.2,68.682-8.949.832-.624,0-1.873-.833-1.249-27.473,19.148-60.565,8.117-90.951,6.036-25.808-1.873-49.742,5.411-68.057,24.143-.624.833.416,1.873,1.041,1.041Z" transform="translate(-123.007 -76.018)"/>
          </g>
          <g id="Group_1049" data-name="Group 1049" transform="translate(291.608 26.438)">
            <path id="Path_1326" data-name="Path 1326" class="cls-2" d="M252.6,161.211c12.279-10.2,24.767-22.894,26.64-39.752,1.873-17.066-7.909-32.468-17.483-45.58-.624-.833-1.873,0-1.249.833,10.2,13.528,20.4,29.762,16.858,47.661-2.914,14.985-14.361,26.432-25.808,35.8-.832.624.208,1.665,1.041,1.041Z" transform="translate(-251.253 -75.534)"/>
          </g>
          <g id="Group_1050" data-name="Group 1050" transform="translate(47.192 169.324)">
            <path id="Path_1327" data-name="Path 1327" class="cls-2" d="M134.406,159.406c16.234,4.579,31.843,7.284,48.077,1.041,15.609-6.036,28.1-15.193,45.58-14.569,1.041,0,1.041-1.457,0-1.665-13.528-.416-24.351,4.371-36.214,10.2-19.564,9.574-36.006,9.366-56.819,3.33-1.249-.208-1.665,1.249-.624,1.665Z" transform="translate(-133.817 -144.188)"/>
          </g>
        </g>
      </g>
    </g>
  </g>
</svg>
