<svg xmlns="http://www.w3.org/2000/svg" viewBox="0 0 1212.903 1259.602">
  <defs>
    <style>
      .cls-1, .cls-3 {
        fill: #39c9fd;
      }

      .cls-1 {
        opacity: 0.3;
      }

      .cls-2 {
        fill: #6a9304;
      }

      .cls-4, .cls-5 {
        fill: #814b1b;
      }

      .cls-4 {
        opacity: 0.5;
      }

      .cls-6 {
        fill: #5661fc;
      }

      .cls-7 {
        fill: #39eafd;
      }

      .cls-8 {
        fill: #f9cdb9;
      }

      .cls-9 {
        fill: #5677fc;
      }

      .cls-10 {
        fill: #fff;
      }

      .cls-11 {
        fill: #d9d9d9;
      }

      .cls-12 {
        fill: #ebebeb;
      }

      .cls-13 {
        fill: #364167;
      }
    </style>
  </defs>
  <g id="registration-user-bcg-1" transform="translate(-25.383 -11.4)">
    <path id="Path_1466" data-name="Path 1466" class="cls-1" d="M179.472,469.711c-11.747-13.616-30.168-21.892-51.259-24.028-9.611-77.422,446.379-20.824,512.588-4.805l-91.3-45.652c63.273,0,342.259-12.815,347.065,61.671-47.521,27.5-77.155,32.3-10.679,65.141,25.629,12.548,117.468,24.562,130.283,50.992,40.847,84.1-228.529,53.929-266.706,50.191-115.065-11.213-232.533-22.96-348.4-28.566-111.328-5.607-217.583,2.4-320.634-32.838C-76.288,508.422,148.236,509.49,179.472,469.711Z" transform="translate(0 639.482)"/>
    <g id="Group_1134" data-name="Group 1134" transform="translate(204.301 11.4)">
      <g id="Group_1133" data-name="Group 1133">
        <g id="Group_1132" data-name="Group 1132">
          <path id="Path_1467" data-name="Path 1467" class="cls-2" d="M112.957,474.621h-2.136A23.029,23.029,0,0,1,92.4,463.942c4.539-5.873,11.48-9.878,19.222-9.611h.534a34,34,0,0,1-3.471-5.073,33.245,33.245,0,0,1-1.6-28.833,27.334,27.334,0,0,1,13.349,5.072,27.025,27.025,0,0,1,.534-8.009c0-.534.267-.8.267-1.335a19.8,19.8,0,0,1-5.339-4.272c-3.738-4.539-4.539-10.412-3.471-15.751a16.583,16.583,0,0,1,14.15,6.407.932.932,0,0,1,.267.534,34.347,34.347,0,0,1,5.073-5.606,34.535,34.535,0,0,1-.267-13.883c.267-1.068.267-1.869.534-2.937-.267-.267-.534-.534-.534-.8a18.217,18.217,0,0,1-2.67-16.018,18.2,18.2,0,0,1,10.145,3.2c.534-.534,1.068-1.335,1.6-1.869a18.881,18.881,0,0,1-3.2-4.806,33.245,33.245,0,0,1-1.6-28.833,29.741,29.741,0,0,1,19.222,10.145,20.709,20.709,0,0,1,7.742-6.674,31.014,31.014,0,0,1-11.747-11.747,33.245,33.245,0,0,1-1.6-28.833,29.383,29.383,0,0,1,14.951,6.14,32.212,32.212,0,0,1,17.62-14.417,36.289,36.289,0,0,1-4.539-10.412,10.817,10.817,0,0,1-2.937,0,23.029,23.029,0,0,1-18.421-10.679,24.278,24.278,0,0,1,19.222-9.611c1.068,0,2.136.267,3.471.267a68.281,68.281,0,0,1,2.937-6.407,11.614,11.614,0,0,1-1.6-1.869,19.23,19.23,0,0,1-2.937-16.018,15.718,15.718,0,0,1,9.077,2.67,11.609,11.609,0,0,1-1.068-1.869,33.245,33.245,0,0,1-1.6-28.833,29.991,29.991,0,0,1,22.96,15.484,28.935,28.935,0,0,1,4,14.684,5.879,5.879,0,0,1,2.136.267,32.746,32.746,0,0,1,4.538-8.543,9.367,9.367,0,0,1-1.335-2.136,33.245,33.245,0,0,1-1.6-28.833,29.977,29.977,0,0,1,18.421,9.344,22.239,22.239,0,0,1,1.068-4c2.67-7.742,8.276-13.349,15.217-15.484a25.617,25.617,0,0,1,2.67,22.159,28.847,28.847,0,0,1-4.272,8.009c11.747,2.937,20.824,13.349,22.426,25.9a22.047,22.047,0,0,1,10.412-8.009,21.379,21.379,0,0,1-4-5.606,33.245,33.245,0,0,1-1.6-28.833,29.983,29.983,0,0,1,13.082,4.806,20.2,20.2,0,0,1-.267-4,26.232,26.232,0,0,1,2.937-10.412,23.257,23.257,0,0,1-13.616-23.227,26.164,26.164,0,0,1,4.272-12.815c-.267-.534-.534-.8-.8-1.335a33.245,33.245,0,0,1-1.6-28.833,31.053,31.053,0,0,1,18.421,9.077,33.208,33.208,0,0,1,1.068-4.272c2.67-7.742,8.276-13.349,15.217-15.484a25.865,25.865,0,0,1-4.539,33.1,22.933,22.933,0,0,1,10.679,11.213,31.821,31.821,0,0,1,5.339-2.136,20.886,20.886,0,0,1-1.6-10.145,21.4,21.4,0,0,1,9.344-17.086,22.34,22.34,0,0,1,7.475,18.154,24.993,24.993,0,0,1-2.937,9.878,21.587,21.587,0,0,1,9.878,6.941,22.947,22.947,0,0,1,15.217-8.81,21.379,21.379,0,0,1-4-5.606,33.245,33.245,0,0,1-1.6-28.833,28.322,28.322,0,0,1,14.15,5.606c2.67-7.475,8.276-13.082,15.217-15.217a25.617,25.617,0,0,1,2.67,22.159,23.6,23.6,0,0,1-6.407,10.145,37.2,37.2,0,0,1,1.068,9.344,56.966,56.966,0,0,1,33.372-26.7A30.583,30.583,0,0,1,414.9,110.2a33.1,33.1,0,0,1,13.616-25.1,33.252,33.252,0,0,1,7.475,9.611c0-.267.267-.8.267-1.068,2.67-7.742,8.276-13.349,15.217-15.484a25.617,25.617,0,0,1,2.67,22.159,13.013,13.013,0,0,0-.8,1.869h1.6c12.281.534,22.693,9.344,26.43,20.824a34.742,34.742,0,0,1,20.29-12.548,33.381,33.381,0,0,1,12.548-35.507,32.325,32.325,0,0,1,10.946,26.43,31.4,31.4,0,0,1-2.67,11.213,34.043,34.043,0,0,1,6.674,4v-.534a32.06,32.06,0,0,1,13.349-24.295,25.7,25.7,0,0,1-.534-17.887c2.67-7.742,8.276-13.349,15.217-15.484a25.617,25.617,0,0,1,2.67,22.159,43.42,43.42,0,0,1-2.937,6.14H560.4a28.278,28.278,0,0,1,9.611,2.4,20.2,20.2,0,0,1-.267-4,20.956,20.956,0,0,1,9.611-17.086,22.34,22.34,0,0,1,7.475,18.154,18.028,18.028,0,0,1-.534,3.738,15.224,15.224,0,0,1,3.471-.267,20.479,20.479,0,0,1,7.208,1.869A26.4,26.4,0,0,1,621.54,77.632c12.014.8,21.892,9.611,24.562,21.625.8.267,1.869.267,2.67.534V97.922a33.1,33.1,0,0,1,13.616-25.1,32.325,32.325,0,0,1,10.946,26.43,34.644,34.644,0,0,1-2.4,10.946H672.8a31.656,31.656,0,0,1,11.213,2.937v-2.4a32.887,32.887,0,0,1,8.81-20.557,21.331,21.331,0,0,1-5.339-16.018,21.4,21.4,0,0,1,9.344-17.086,21.359,21.359,0,0,1,6.407,10.145,30.529,30.529,0,0,1,6.941-8.543,25.413,25.413,0,0,1,8.009,9.611l.8-3.2c2.67-7.742,8.276-13.349,15.217-15.484a25.617,25.617,0,0,1,2.67,22.159A25.08,25.08,0,0,1,726.727,84.84a28.245,28.245,0,0,1,10.145,9.344c.267-.534.267-1.335.534-1.869,2.67-7.742,8.276-13.349,15.217-15.484a25.617,25.617,0,0,1,2.67,22.159,19.282,19.282,0,0,1-3.738,6.941h.534a26.84,26.84,0,0,1,8.276,1.869,32.072,32.072,0,0,1,12.548-17.353,36.67,36.67,0,0,1,6.407,7.742v-.8A21.4,21.4,0,0,1,788.665,80.3l2.4,2.4a21.159,21.159,0,0,1,9.077-13.883,21.11,21.11,0,0,1,6.674,10.946,41.057,41.057,0,0,1,3.471-3.2,23.071,23.071,0,0,1,5.607,7.742A32,32,0,0,1,827.91,68.021a32.325,32.325,0,0,1,10.946,26.43,33.014,33.014,0,0,1-7.208,18.955h1.068a34.18,34.18,0,0,1,9.344,2.136A22.854,22.854,0,0,1,845,109.135c4-5.873,10.145-9.344,16.552-9.344a22.783,22.783,0,0,1-2.67,19.756,19.429,19.429,0,0,1-5.072,5.339,30.9,30.9,0,0,1,5.339,10.679,29.742,29.742,0,0,1,20.824-8.543,32.641,32.641,0,0,1-4.805,28.3,46.473,46.473,0,0,1-3.2,3.738,27.921,27.921,0,0,1,12.815,8.543,21.318,21.318,0,0,1,1.335-6.941c2.67-7.742,8.276-13.349,15.217-15.484A25.617,25.617,0,0,1,904,167.335a20.037,20.037,0,0,1-2.136,4.806,25.877,25.877,0,0,1,6.14-.8,32.641,32.641,0,0,1-4.805,28.3,25.786,25.786,0,0,1-5.873,6.14,35.413,35.413,0,0,1,7.208,6.941,56.978,56.978,0,0,1,25.1-23.227,26.4,26.4,0,0,1,1.068-12.014c2.67-7.742,8.276-13.349,15.217-15.484a25.617,25.617,0,0,1,2.67,22.159.932.932,0,0,1-.267.534,25.73,25.73,0,0,1,6.407,0,26.3,26.3,0,0,1,4.539.534,15.141,15.141,0,0,1,2.136-3.471,29.577,29.577,0,0,1,24.562-12.815,32.789,32.789,0,0,1-3.2,25.9,53.554,53.554,0,0,1,16.018,17.62,29.263,29.263,0,0,1,17.353-5.606,32.641,32.641,0,0,1-4.805,28.3,38.827,38.827,0,0,1-4.272,4.805v6.14a61.441,61.441,0,0,1-.8,6.941h.534a57.1,57.1,0,0,1,14.951,2.937,26.376,26.376,0,0,1,6.14-12.548,22.651,22.651,0,0,1,20.023-7.208,26,26,0,0,1-2.67,16.018c10.412-.534,18.154,28.566,8.81,34.706a61.126,61.126,0,0,1,4.806,27.231v.534a23.811,23.811,0,0,1,15.751,3.2,26.614,26.614,0,0,1-16.018,15.217l-2.4.8a26.383,26.383,0,0,1,2.67,12.014,15.117,15.117,0,0,1-.8,4.806,16.058,16.058,0,0,1,3.471,2.4,19.329,19.329,0,0,1,3.2-7.208c4-5.873,10.145-9.344,16.552-9.344a22.782,22.782,0,0,1-2.67,19.756,21.368,21.368,0,0,1-9.611,8.009,23.162,23.162,0,0,1,1.335,7.475c8.543-1.869,16.819-.534,23.227,3.471-3.2,8.543-10.679,15.751-20.29,19.222a35.584,35.584,0,0,1-11.48,1.869,29.6,29.6,0,0,1,4.539,8.009,25.723,25.723,0,0,1,19.222,8.276,22.936,22.936,0,0,1-11.213,8.009c5.606,2.937,10.145,7.475,12.281,13.082-5.339,3.738-12.548,4.805-19.756,2.937a29.017,29.017,0,0,1,.267,4.806,23.473,23.473,0,0,1-2.67,9.611,55.242,55.242,0,0,1,5.873,1.068c8.81,2.67,15.218,9.611,18.154,18.154a25.887,25.887,0,0,1-24.028,4.806v.8a28.665,28.665,0,0,1-2.136,8.543c8.276,3.738,13.883,12.815,13.349,22.693a23.435,23.435,0,0,1-8.009,16.552,24.342,24.342,0,0,1,10.679,12.014,25.571,25.571,0,0,1-21.358,2.67,25.1,25.1,0,0,1-9.344-5.339c-2.136,9.077-8.81,16.018-17.62,17.887a23.657,23.657,0,0,1,9.878,20.824c0,.8-.267,1.335-.267,2.136a29.734,29.734,0,0,1,6.407,4.272,29.432,29.432,0,0,1,9.344,24.295,26.773,26.773,0,0,1-24.295-6.407,32.482,32.482,0,0,1-4-4.539,21.322,21.322,0,0,1-10.946,2.4,13.4,13.4,0,0,1-3.2-.534,20.6,20.6,0,0,1,1.6,16.285,18.7,18.7,0,0,1-14.95-8.543c-.534-.8-.8-1.6-1.335-2.4h0a27.725,27.725,0,0,1,1.068,2.67,34.466,34.466,0,0,1-3.2,29.1,29.123,29.123,0,0,1-12.815-7.742,27,27,0,0,1-4.805,13.616A23.3,23.3,0,0,1,966.2,625.994a26.02,26.02,0,0,1-8.009,10.412,25.2,25.2,0,0,1-9.878-20.557,29.53,29.53,0,0,1,1.869-9.878,29.237,29.237,0,0,1-2.937-2.67,44.743,44.743,0,0,1-29.634,9.344c-.8,0-1.6-.267-2.4-.267a32.858,32.858,0,0,1,.534,5.339,26.908,26.908,0,0,1-9.878,20.824,25.568,25.568,0,0,1-9.878-20.557,24.415,24.415,0,0,1,2.4-10.946c-.534-.267-.8-.534-1.335-.8a22.137,22.137,0,0,1-16.552,6.674c-6.941-.267-12.548-4-16.285-9.344l-.8.8a15.139,15.139,0,0,1,2.136,3.471,33.245,33.245,0,0,1,1.6,28.833,29.991,29.991,0,0,1-22.96-15.484,29.356,29.356,0,0,1-3.2-8.81,27.663,27.663,0,0,1-10.145-2.937,25.763,25.763,0,0,1,0,4.539,33.952,33.952,0,0,1-14.416,26.163,34.076,34.076,0,0,1-11.48-27.5,36.225,36.225,0,0,1,4.806-16.018,19.826,19.826,0,0,1-11.48-4.539,32.375,32.375,0,0,1-13.616,23.494,32.857,32.857,0,0,1-10.946-24.028h-.8c-7.208,1.335-19.489,8.009-22.159-3.738-5.873,1.6-10.412,4.806-15.484,7.475a19.343,19.343,0,0,1,1.869,8.81,21.536,21.536,0,0,1-10.679,18.688A21.536,21.536,0,0,1,715.782,604.1a9.083,9.083,0,0,1,.267-2.67c-3.2.8-6.941,1.869-10.412,1.6a10.713,10.713,0,0,1-.8,4,21.345,21.345,0,0,1-15.751,14.683,21.8,21.8,0,0,1-5.072-20.824,18.9,18.9,0,0,1,4.272-7.475c-7.208-.267-15.751,4.806-22.96,5.339-3.471.267-7.208.534-10.946.534a.261.261,0,0,0,.267.267,14.5,14.5,0,0,1-4.272,14.15,15.158,15.158,0,0,1-10.145-10.679,11.97,11.97,0,0,1-.267-2.937,19.037,19.037,0,0,1-6.941-.267c-3.471-1.068-2.136-4.805-6.407-6.14a9.485,9.485,0,0,0-2.67-.534v.267a32.289,32.289,0,0,1-23.494,22.159,31.352,31.352,0,0,1-8.276-27.5c-1.6,0-3.738.8-6.407,2.937-11.48,8.543-17.353,11.48-32.571,12.014-6.941.267-12.281.267-17.887,4.539-3.471,2.67-5.607,8.009-9.344,9.611-3.2,1.6-6.941,1.869-10.679,1.869,0,.267,0,.267-.267.534a7.794,7.794,0,0,1-2.4-.534h-6.674a32.659,32.659,0,0,1-1.335,20.824,29.844,29.844,0,0,1-13.349-4.805v.534a21.4,21.4,0,0,1-9.344,17.086,23.159,23.159,0,0,1-7.475-15.484h-.8a33.7,33.7,0,0,1-14.417,25.629,34.076,34.076,0,0,1-11.48-27.5,26.841,26.841,0,0,1,1.068-6.674,21.7,21.7,0,0,1-5.873.267h0V630a18.651,18.651,0,0,1-8.276,14.951,18.672,18.672,0,0,1-6.407-15.751,25.778,25.778,0,0,1,.8-4.805c-.267-.267-.534-.267-.8-.534a50.5,50.5,0,0,1-1.335,6.14,30.6,30.6,0,0,1-19.489,19.756,32.006,32.006,0,0,1-5.072-17.086,25.315,25.315,0,0,1-7.208,4.539,34.809,34.809,0,0,1-7.475-18.955,22.5,22.5,0,0,1-9.344,5.606,25.617,25.617,0,0,1-2.67-22.159,22.742,22.742,0,0,1,5.072-8.543,44.232,44.232,0,0,1-11.213-13.082,20.437,20.437,0,0,1-8.009,12.281,22.217,22.217,0,0,1-5.072-6.941,24.709,24.709,0,0,1-10.412,6.941,25.617,25.617,0,0,1-2.67-22.159c.534-1.335,1.068-2.67,1.6-3.738a59.981,59.981,0,0,1-5.606-3.2,28.984,28.984,0,0,1-16.552,4.272,28.616,28.616,0,0,1-10.679-2.67,14.583,14.583,0,0,1,.267,4.806,18.651,18.651,0,0,1-8.276,14.951,18.672,18.672,0,0,1-6.407-15.751,15.611,15.611,0,0,1,1.068-5.073,28.733,28.733,0,0,1-11.747,2.136,35.037,35.037,0,0,1,2.136,14.15,33.525,33.525,0,0,1-14.417,26.163,34.076,34.076,0,0,1-11.48-27.5,32.778,32.778,0,0,1,6.941-18.955,31.679,31.679,0,0,1-9.344-12.548c-1.335.267-2.4.534-3.738.8a17.512,17.512,0,0,1,.267,5.339,18.533,18.533,0,0,1-8.276,13.883,18.165,18.165,0,0,1-5.606-15.217,19.149,19.149,0,0,1,1.869-6.674c-.8-.534-1.335-.8-2.136-1.335a34.317,34.317,0,0,1-15.484,9.878v3.2A18.533,18.533,0,0,1,219.479,571a18.164,18.164,0,0,1-5.606-15.217,2.018,2.018,0,0,1,.267-1.068h-.534a29.86,29.86,0,0,1-9.344-3.2v2.136a18.651,18.651,0,0,1-8.276,14.951,18.672,18.672,0,0,1-6.407-15.751c0-.8.267-1.869.267-2.67a28.747,28.747,0,0,1-14.951,3.471,34.46,34.46,0,0,1,2.136,13.883,33.525,33.525,0,0,1-14.417,26.163,34.076,34.076,0,0,1-11.48-27.5,31.966,31.966,0,0,1,6.941-18.688,29.481,29.481,0,0,1-6.14-6.674,28.388,28.388,0,0,1-8.276.267v.267a18.533,18.533,0,0,1-8.276,13.883,16.618,16.618,0,0,1-4.806-8.009.261.261,0,0,1-.267.267,15.978,15.978,0,0,1-15.217,2.937,18.469,18.469,0,0,1,4.806-12.548,21.5,21.5,0,0,1-15.217.8,25.187,25.187,0,0,1,9.344-20.023l2.4-1.6a37.3,37.3,0,0,1-.534-14.417,31.416,31.416,0,0,1,6.14-14.683C119.9,484.5,115.36,480.227,112.957,474.621Z" transform="translate(-92.4 52.384)"/>
          <path id="Path_1468" data-name="Path 1468" class="cls-3" d="M112.957,474.621h-2.136A23.029,23.029,0,0,1,92.4,463.942c4.539-5.873,11.48-9.878,19.222-9.611h.534a34,34,0,0,1-3.471-5.073,33.245,33.245,0,0,1-1.6-28.833,27.334,27.334,0,0,1,13.349,5.072,27.025,27.025,0,0,1,.534-8.009c0-.534.267-.8.267-1.335a19.8,19.8,0,0,1-5.339-4.272c-3.738-4.539-4.539-10.412-3.471-15.751a16.583,16.583,0,0,1,14.15,6.407.932.932,0,0,1,.267.534,34.347,34.347,0,0,1,5.073-5.606,34.535,34.535,0,0,1-.267-13.883c.267-1.068.267-1.869.534-2.937-.267-.267-.534-.534-.534-.8a18.217,18.217,0,0,1-2.67-16.018,18.2,18.2,0,0,1,10.145,3.2c.534-.534,1.068-1.335,1.6-1.869a18.881,18.881,0,0,1-3.2-4.806,33.245,33.245,0,0,1-1.6-28.833,29.741,29.741,0,0,1,19.222,10.145,20.709,20.709,0,0,1,7.742-6.674,31.014,31.014,0,0,1-11.747-11.747,33.245,33.245,0,0,1-1.6-28.833,29.383,29.383,0,0,1,14.951,6.14,32.212,32.212,0,0,1,17.62-14.417,36.289,36.289,0,0,1-4.539-10.412,10.817,10.817,0,0,1-2.937,0,23.029,23.029,0,0,1-18.421-10.679,24.278,24.278,0,0,1,19.222-9.611c1.068,0,2.136.267,3.471.267a68.281,68.281,0,0,1,2.937-6.407,11.614,11.614,0,0,1-1.6-1.869,19.23,19.23,0,0,1-2.937-16.018,15.718,15.718,0,0,1,9.077,2.67,11.609,11.609,0,0,1-1.068-1.869,33.245,33.245,0,0,1-1.6-28.833,29.991,29.991,0,0,1,22.96,15.484,28.935,28.935,0,0,1,4,14.684,5.879,5.879,0,0,1,2.136.267,32.746,32.746,0,0,1,4.538-8.543,9.367,9.367,0,0,1-1.335-2.136,33.245,33.245,0,0,1-1.6-28.833,29.977,29.977,0,0,1,18.421,9.344,22.239,22.239,0,0,1,1.068-4c2.67-7.742,8.276-13.349,15.217-15.484a25.617,25.617,0,0,1,2.67,22.159,28.847,28.847,0,0,1-4.272,8.009c11.747,2.937,20.824,13.349,22.426,25.9a22.047,22.047,0,0,1,10.412-8.009,21.379,21.379,0,0,1-4-5.606,33.245,33.245,0,0,1-1.6-28.833,29.983,29.983,0,0,1,13.082,4.806,20.2,20.2,0,0,1-.267-4,26.232,26.232,0,0,1,2.937-10.412,23.257,23.257,0,0,1-13.616-23.227,26.164,26.164,0,0,1,4.272-12.815c-.267-.534-.534-.8-.8-1.335a33.245,33.245,0,0,1-1.6-28.833,31.053,31.053,0,0,1,18.421,9.077,33.208,33.208,0,0,1,1.068-4.272c2.67-7.742,8.276-13.349,15.217-15.484a25.865,25.865,0,0,1-4.539,33.1,22.933,22.933,0,0,1,10.679,11.213,31.821,31.821,0,0,1,5.339-2.136,20.886,20.886,0,0,1-1.6-10.145,21.4,21.4,0,0,1,9.344-17.086,22.34,22.34,0,0,1,7.475,18.154,24.993,24.993,0,0,1-2.937,9.878,21.587,21.587,0,0,1,9.878,6.941,22.947,22.947,0,0,1,15.217-8.81,21.379,21.379,0,0,1-4-5.606,33.245,33.245,0,0,1-1.6-28.833,28.322,28.322,0,0,1,14.15,5.606c2.67-7.475,8.276-13.082,15.217-15.217a25.617,25.617,0,0,1,2.67,22.159,23.6,23.6,0,0,1-6.407,10.145,37.2,37.2,0,0,1,1.068,9.344,56.966,56.966,0,0,1,33.372-26.7A30.583,30.583,0,0,1,414.9,110.2a33.1,33.1,0,0,1,13.616-25.1,33.252,33.252,0,0,1,7.475,9.611c0-.267.267-.8.267-1.068,2.67-7.742,8.276-13.349,15.217-15.484a25.617,25.617,0,0,1,2.67,22.159,13.013,13.013,0,0,0-.8,1.869h1.6c12.281.534,22.693,9.344,26.43,20.824a34.742,34.742,0,0,1,20.29-12.548,33.381,33.381,0,0,1,12.548-35.507,32.325,32.325,0,0,1,10.946,26.43,31.4,31.4,0,0,1-2.67,11.213,34.043,34.043,0,0,1,6.674,4v-.534a32.06,32.06,0,0,1,13.349-24.295,25.7,25.7,0,0,1-.534-17.887c2.67-7.742,8.276-13.349,15.217-15.484a25.617,25.617,0,0,1,2.67,22.159,43.42,43.42,0,0,1-2.937,6.14H560.4a28.278,28.278,0,0,1,9.611,2.4,20.2,20.2,0,0,1-.267-4,20.956,20.956,0,0,1,9.611-17.086,22.34,22.34,0,0,1,7.475,18.154,18.028,18.028,0,0,1-.534,3.738,15.224,15.224,0,0,1,3.471-.267,20.479,20.479,0,0,1,7.208,1.869A26.4,26.4,0,0,1,621.54,77.632c12.014.8,21.892,9.611,24.562,21.625.8.267,1.869.267,2.67.534V97.922a33.1,33.1,0,0,1,13.616-25.1,32.325,32.325,0,0,1,10.946,26.43,34.644,34.644,0,0,1-2.4,10.946H672.8a31.656,31.656,0,0,1,11.213,2.937v-2.4a32.887,32.887,0,0,1,8.81-20.557,21.331,21.331,0,0,1-5.339-16.018,21.4,21.4,0,0,1,9.344-17.086,21.359,21.359,0,0,1,6.407,10.145,30.529,30.529,0,0,1,6.941-8.543,25.413,25.413,0,0,1,8.009,9.611l.8-3.2c2.67-7.742,8.276-13.349,15.217-15.484a25.617,25.617,0,0,1,2.67,22.159A25.08,25.08,0,0,1,726.727,84.84a28.245,28.245,0,0,1,10.145,9.344c.267-.534.267-1.335.534-1.869,2.67-7.742,8.276-13.349,15.217-15.484a25.617,25.617,0,0,1,2.67,22.159,19.282,19.282,0,0,1-3.738,6.941h.534a26.84,26.84,0,0,1,8.276,1.869,32.072,32.072,0,0,1,12.548-17.353,36.67,36.67,0,0,1,6.407,7.742v-.8A21.4,21.4,0,0,1,788.665,80.3l2.4,2.4a21.159,21.159,0,0,1,9.077-13.883,21.11,21.11,0,0,1,6.674,10.946,41.057,41.057,0,0,1,3.471-3.2,23.071,23.071,0,0,1,5.607,7.742A32,32,0,0,1,827.91,68.021a32.325,32.325,0,0,1,10.946,26.43,33.014,33.014,0,0,1-7.208,18.955h1.068a34.18,34.18,0,0,1,9.344,2.136A22.854,22.854,0,0,1,845,109.135c4-5.873,10.145-9.344,16.552-9.344a22.783,22.783,0,0,1-2.67,19.756,19.429,19.429,0,0,1-5.072,5.339,30.9,30.9,0,0,1,5.339,10.679,29.742,29.742,0,0,1,20.824-8.543,32.641,32.641,0,0,1-4.805,28.3,46.473,46.473,0,0,1-3.2,3.738,27.921,27.921,0,0,1,12.815,8.543,21.318,21.318,0,0,1,1.335-6.941c2.67-7.742,8.276-13.349,15.217-15.484A25.617,25.617,0,0,1,904,167.335a20.037,20.037,0,0,1-2.136,4.806,25.877,25.877,0,0,1,6.14-.8,32.641,32.641,0,0,1-4.805,28.3,25.786,25.786,0,0,1-5.873,6.14,35.413,35.413,0,0,1,7.208,6.941,56.978,56.978,0,0,1,25.1-23.227,26.4,26.4,0,0,1,1.068-12.014c2.67-7.742,8.276-13.349,15.217-15.484a25.617,25.617,0,0,1,2.67,22.159.932.932,0,0,1-.267.534,25.73,25.73,0,0,1,6.407,0,26.3,26.3,0,0,1,4.539.534,15.141,15.141,0,0,1,2.136-3.471,29.577,29.577,0,0,1,24.562-12.815,32.789,32.789,0,0,1-3.2,25.9,53.554,53.554,0,0,1,16.018,17.62,29.263,29.263,0,0,1,17.353-5.606,32.641,32.641,0,0,1-4.805,28.3,38.827,38.827,0,0,1-4.272,4.805v6.14a61.441,61.441,0,0,1-.8,6.941h.534a57.1,57.1,0,0,1,14.951,2.937,26.376,26.376,0,0,1,6.14-12.548,22.651,22.651,0,0,1,20.023-7.208,26,26,0,0,1-2.67,16.018c10.412-.534,18.154,28.566,8.81,34.706a61.126,61.126,0,0,1,4.806,27.231v.534a23.811,23.811,0,0,1,15.751,3.2,26.614,26.614,0,0,1-16.018,15.217l-2.4.8a26.383,26.383,0,0,1,2.67,12.014,15.117,15.117,0,0,1-.8,4.806,16.058,16.058,0,0,1,3.471,2.4,19.329,19.329,0,0,1,3.2-7.208c4-5.873,10.145-9.344,16.552-9.344a22.782,22.782,0,0,1-2.67,19.756,21.368,21.368,0,0,1-9.611,8.009,23.162,23.162,0,0,1,1.335,7.475c8.543-1.869,16.819-.534,23.227,3.471-3.2,8.543-10.679,15.751-20.29,19.222a35.584,35.584,0,0,1-11.48,1.869,29.6,29.6,0,0,1,4.539,8.009,25.723,25.723,0,0,1,19.222,8.276,22.936,22.936,0,0,1-11.213,8.009c5.606,2.937,10.145,7.475,12.281,13.082-5.339,3.738-12.548,4.805-19.756,2.937a29.017,29.017,0,0,1,.267,4.806,23.473,23.473,0,0,1-2.67,9.611,55.242,55.242,0,0,1,5.873,1.068c8.81,2.67,15.218,9.611,18.154,18.154a25.887,25.887,0,0,1-24.028,4.806v.8a28.665,28.665,0,0,1-2.136,8.543c8.276,3.738,13.883,12.815,13.349,22.693a23.435,23.435,0,0,1-8.009,16.552,24.342,24.342,0,0,1,10.679,12.014,25.571,25.571,0,0,1-21.358,2.67,25.1,25.1,0,0,1-9.344-5.339c-2.136,9.077-8.81,16.018-17.62,17.887a23.657,23.657,0,0,1,9.878,20.824c0,.8-.267,1.335-.267,2.136a29.734,29.734,0,0,1,6.407,4.272,29.432,29.432,0,0,1,9.344,24.295,26.773,26.773,0,0,1-24.295-6.407,32.482,32.482,0,0,1-4-4.539,21.322,21.322,0,0,1-10.946,2.4,13.4,13.4,0,0,1-3.2-.534,20.6,20.6,0,0,1,1.6,16.285,18.7,18.7,0,0,1-14.95-8.543c-.534-.8-.8-1.6-1.335-2.4h0a27.725,27.725,0,0,1,1.068,2.67,34.466,34.466,0,0,1-3.2,29.1,29.123,29.123,0,0,1-12.815-7.742,27,27,0,0,1-4.805,13.616A23.3,23.3,0,0,1,966.2,625.994a26.02,26.02,0,0,1-8.009,10.412,25.2,25.2,0,0,1-9.878-20.557,29.53,29.53,0,0,1,1.869-9.878,29.237,29.237,0,0,1-2.937-2.67,44.743,44.743,0,0,1-29.634,9.344c-.8,0-1.6-.267-2.4-.267a32.858,32.858,0,0,1,.534,5.339,26.908,26.908,0,0,1-9.878,20.824,25.568,25.568,0,0,1-9.878-20.557,24.415,24.415,0,0,1,2.4-10.946c-.534-.267-.8-.534-1.335-.8a22.137,22.137,0,0,1-16.552,6.674c-6.941-.267-12.548-4-16.285-9.344l-.8.8a15.139,15.139,0,0,1,2.136,3.471,33.245,33.245,0,0,1,1.6,28.833,29.991,29.991,0,0,1-22.96-15.484,29.356,29.356,0,0,1-3.2-8.81,27.663,27.663,0,0,1-10.145-2.937,25.763,25.763,0,0,1,0,4.539,33.952,33.952,0,0,1-14.416,26.163,34.076,34.076,0,0,1-11.48-27.5,36.225,36.225,0,0,1,4.806-16.018,19.826,19.826,0,0,1-11.48-4.539,32.375,32.375,0,0,1-13.616,23.494,32.857,32.857,0,0,1-10.946-24.028h-.8c-7.208,1.335-19.489,8.009-22.159-3.738-5.873,1.6-10.412,4.806-15.484,7.475a19.343,19.343,0,0,1,1.869,8.81,21.536,21.536,0,0,1-10.679,18.688A21.536,21.536,0,0,1,715.782,604.1a9.083,9.083,0,0,1,.267-2.67c-3.2.8-6.941,1.869-10.412,1.6a10.713,10.713,0,0,1-.8,4,21.345,21.345,0,0,1-15.751,14.683,21.8,21.8,0,0,1-5.072-20.824,18.9,18.9,0,0,1,4.272-7.475c-7.208-.267-15.751,4.806-22.96,5.339-3.471.267-7.208.534-10.946.534a.261.261,0,0,0,.267.267,14.5,14.5,0,0,1-4.272,14.15,15.158,15.158,0,0,1-10.145-10.679,11.97,11.97,0,0,1-.267-2.937,19.037,19.037,0,0,1-6.941-.267c-3.471-1.068-2.136-4.805-6.407-6.14a9.485,9.485,0,0,0-2.67-.534v.267a32.289,32.289,0,0,1-23.494,22.159,31.352,31.352,0,0,1-8.276-27.5c-1.6,0-3.738.8-6.407,2.937-11.48,8.543-17.353,11.48-32.571,12.014-6.941.267-12.281.267-17.887,4.539-3.471,2.67-5.607,8.009-9.344,9.611-3.2,1.6-6.941,1.869-10.679,1.869,0,.267,0,.267-.267.534a7.794,7.794,0,0,1-2.4-.534h-6.674a32.659,32.659,0,0,1-1.335,20.824,29.844,29.844,0,0,1-13.349-4.805v.534a21.4,21.4,0,0,1-9.344,17.086,23.159,23.159,0,0,1-7.475-15.484h-.8a33.7,33.7,0,0,1-14.417,25.629,34.076,34.076,0,0,1-11.48-27.5,26.841,26.841,0,0,1,1.068-6.674,21.7,21.7,0,0,1-5.873.267h0V630a18.651,18.651,0,0,1-8.276,14.951,18.672,18.672,0,0,1-6.407-15.751,25.778,25.778,0,0,1,.8-4.805c-.267-.267-.534-.267-.8-.534a50.5,50.5,0,0,1-1.335,6.14,30.6,30.6,0,0,1-19.489,19.756,32.006,32.006,0,0,1-5.072-17.086,25.315,25.315,0,0,1-7.208,4.539,34.809,34.809,0,0,1-7.475-18.955,22.5,22.5,0,0,1-9.344,5.606,25.617,25.617,0,0,1-2.67-22.159,22.742,22.742,0,0,1,5.072-8.543,44.232,44.232,0,0,1-11.213-13.082,20.437,20.437,0,0,1-8.009,12.281,22.217,22.217,0,0,1-5.072-6.941,24.709,24.709,0,0,1-10.412,6.941,25.617,25.617,0,0,1-2.67-22.159c.534-1.335,1.068-2.67,1.6-3.738a59.981,59.981,0,0,1-5.606-3.2,28.984,28.984,0,0,1-16.552,4.272,28.616,28.616,0,0,1-10.679-2.67,14.583,14.583,0,0,1,.267,4.806,18.651,18.651,0,0,1-8.276,14.951,18.672,18.672,0,0,1-6.407-15.751,15.611,15.611,0,0,1,1.068-5.073,28.733,28.733,0,0,1-11.747,2.136,35.037,35.037,0,0,1,2.136,14.15,33.525,33.525,0,0,1-14.417,26.163,34.076,34.076,0,0,1-11.48-27.5,32.778,32.778,0,0,1,6.941-18.955,31.679,31.679,0,0,1-9.344-12.548c-1.335.267-2.4.534-3.738.8a17.512,17.512,0,0,1,.267,5.339,18.533,18.533,0,0,1-8.276,13.883,18.165,18.165,0,0,1-5.606-15.217,19.149,19.149,0,0,1,1.869-6.674c-.8-.534-1.335-.8-2.136-1.335a34.317,34.317,0,0,1-15.484,9.878v3.2A18.533,18.533,0,0,1,219.479,571a18.164,18.164,0,0,1-5.606-15.217,2.018,2.018,0,0,1,.267-1.068h-.534a29.86,29.86,0,0,1-9.344-3.2v2.136a18.651,18.651,0,0,1-8.276,14.951,18.672,18.672,0,0,1-6.407-15.751c0-.8.267-1.869.267-2.67a28.747,28.747,0,0,1-14.951,3.471,34.46,34.46,0,0,1,2.136,13.883,33.525,33.525,0,0,1-14.417,26.163,34.076,34.076,0,0,1-11.48-27.5,31.966,31.966,0,0,1,6.941-18.688,29.481,29.481,0,0,1-6.14-6.674,28.388,28.388,0,0,1-8.276.267v.267a18.533,18.533,0,0,1-8.276,13.883,16.618,16.618,0,0,1-4.806-8.009.261.261,0,0,1-.267.267,15.978,15.978,0,0,1-15.217,2.937,18.469,18.469,0,0,1,4.806-12.548,21.5,21.5,0,0,1-15.217.8,25.187,25.187,0,0,1,9.344-20.023l2.4-1.6a37.3,37.3,0,0,1-.534-14.417,31.416,31.416,0,0,1,6.14-14.683C119.9,484.5,115.36,480.227,112.957,474.621Z" transform="translate(-92.4 52.384)"/>
          <g id="Group_1131" data-name="Group 1131" transform="translate(19.756)">
            <path id="Path_1469" data-name="Path 1469" class="cls-4" d="M190.6,278.946l18.955-9.878s62.2,36.842,98.78,55.263c0,0-43.517-57.933-82.495-68.078L246.4,238.9s26.163,29.9,47.521,50.992l15.751,14.951s9.077-72.617-7.742-124.142l18.154,30.7s.267,2.4.534,6.674l2.136-17.887,3.2,111.328,49.657,128.414,13.883,66.743L361.73,524.828c-.534-23.227-43.25-159.116-43.25-159.116a79.635,79.635,0,0,0-11.213-20.824C292.851,334.476,238.388,293.629,190.6,278.946Z" transform="translate(51.811 271.285)"/>
            <g id="Group_1130" data-name="Group 1130" transform="translate(242.411 451.985)">
              <path id="Path_1470" data-name="Path 1470" class="cls-5" d="M351.56,329.435,435.389,182.6l15.484,33.1L375.587,335.575c25.362-3.738,66.476-18.955,102.251-76.354l14.683,6.14S432.452,354.8,354.763,368.68l-21.892,34.707L281.346,520.054,272.8,497.361l-2.4-28.3,58.467-108.124Z" transform="translate(-57.356 -177.528)"/>
              <path id="Path_1471" data-name="Path 1471" class="cls-5" d="M190.6,278.946l18.955-9.878s62.2,36.842,98.78,55.263c0,0-43.517-57.933-82.495-68.078L246.4,238.9s26.163,29.9,47.521,50.992l15.751,14.951s9.077-72.617-7.742-124.142l18.154,30.7s.267,2.4.534,6.674l2.136-17.887,3.2,111.328,49.657,128.414,13.883,66.743L361.73,524.828c-.534-23.227-43.25-159.116-43.25-159.116a79.635,79.635,0,0,0-11.213-20.824C292.851,334.476,238.388,293.629,190.6,278.946Z" transform="translate(-190.6 -180.7)"/>
              <path id="Path_1472" data-name="Path 1472" class="cls-6" d="M190.6,278.946l18.955-9.878s62.2,36.842,98.78,55.263c0,0-43.517-57.933-82.495-68.078L246.4,238.9s26.163,29.9,47.521,50.992l15.751,14.951s9.077-72.617-7.742-124.142l18.154,30.7s.267,2.4.534,6.674l2.136-17.887,3.2,111.328,49.657,128.414,13.883,66.743L361.73,524.828c-.534-23.227-43.25-159.116-43.25-159.116a79.635,79.635,0,0,0-11.213-20.824C292.851,334.476,238.388,293.629,190.6,278.946Z" transform="translate(-190.6 -180.7)"/>
              <path id="Path_1473" data-name="Path 1473" class="cls-6" d="M351.56,329.435,435.389,182.6l15.484,33.1L375.587,335.575c25.362-3.738,66.476-18.955,102.251-76.354l14.683,6.14S432.452,354.8,354.763,368.68l-21.892,34.707L281.346,520.054,272.8,497.361l-2.4-28.3,58.467-108.124Z" transform="translate(-57.356 -177.528)"/>
              <path id="Path_1474" data-name="Path 1474" class="cls-5" d="M270.3,288.6l.267,3.471-.267.534Z" transform="translate(-57.523 -0.536)"/>
            </g>
            <path id="Path_1475" data-name="Path 1475" class="cls-6" d="M383.448,328.775l90.771-103.318,11.747,9.344-86.5,95.843s-14.417,44.584-20.29,52.06L368.5,428.355l-9.611,83.829v69.947s16.819,21.358,16.285,58.734L368.5,709.745s-8.276,169.528,25.629,209.574H225.4s52.861-20.557,52.06-136.957L282.8,756.2l-5.873-41.114,7.742-33.639,5.072-37.109-.534-37.91L299.618,579.2l21.625-261.633-30.7-129.749L303.89,176.6l36.842,127.079,6.941-115.866,17.62-7.742-5.339,129.749,8.81,21.892,43.783-135.088h11.48Z" transform="translate(109.918 264.439)"/>
            <path id="Path_1476" data-name="Path 1476" class="cls-7" d="M100.334,418a29.65,29.65,0,0,1,19.222-17.353,22.237,22.237,0,0,1,5.873-.8,24.275,24.275,0,0,1-2.136-9.878,32.709,32.709,0,0,1,.534-5.072,25.606,25.606,0,0,1-20.023-4,26.674,26.674,0,0,1,13.349-12.548,25.533,25.533,0,0,1-10.946-8.81,25.816,25.816,0,0,1,20.023-7.208,21.685,21.685,0,0,1,5.073-7.742,39.117,39.117,0,0,1-11.747-2.67A35.505,35.505,0,0,1,99.8,321.355a31.328,31.328,0,0,1,23.761-2.4,23.668,23.668,0,0,1,1.869-7.475,22.021,22.021,0,0,1-9.344-8.543,23.178,23.178,0,0,1-1.6-20.023,21.351,21.351,0,0,1,16.285,10.412,21.049,21.049,0,0,1,2.67,7.475,17.021,17.021,0,0,1,3.738-2.136,29.571,29.571,0,0,1-.534-5.072,27.076,27.076,0,0,1,3.2-12.281l-2.4-.8a27.3,27.3,0,0,1-15.484-16.285c4.539-2.67,10.412-3.471,16.285-2.4v-.534a61.076,61.076,0,0,1,6.407-27.231,47.775,47.775,0,0,1-18.688-27.765,43.591,43.591,0,0,1,29.367-6.941,26.4,26.4,0,0,1-1.869-16.285,23.5,23.5,0,0,1,20.023,8.543,24.028,24.028,0,0,1,5.606,13.082,56.624,56.624,0,0,1,15.217-2.136h.534a60.747,60.747,0,0,1-.534-6.941,45.247,45.247,0,0,1,.267-6.14,28.832,28.832,0,0,1-4.272-5.339,34.153,34.153,0,0,1-3.2-29.1,30.481,30.481,0,0,1,17.353,6.674,56.972,56.972,0,0,1,17.086-16.819,33.811,33.811,0,0,1-1.869-26.43,31.566,31.566,0,0,1,24.295,14.417c.8,1.335,1.335,2.4,2.136,3.738a25.9,25.9,0,0,1,4.539-.267,61.022,61.022,0,0,1,6.674.534.932.932,0,0,0-.267-.534,26.357,26.357,0,0,1,4-22.426,24.185,24.185,0,0,1,14.684,16.552A27.344,27.344,0,0,1,276,142.751a59.562,59.562,0,0,1,24.295,25.1,26.4,26.4,0,0,1,7.742-6.674,27.568,27.568,0,0,1-5.606-6.674,34.153,34.153,0,0,1-3.2-29.1,26.8,26.8,0,0,1,6.407,1.068,28.931,28.931,0,0,1-2.136-5.072,26.357,26.357,0,0,1,4-22.426,24.185,24.185,0,0,1,14.684,16.552,33.137,33.137,0,0,1,.8,7.208,32.549,32.549,0,0,1,13.349-8.009,38.207,38.207,0,0,1-2.937-4,34.057,34.057,0,0,1-3.2-29.1,29.593,29.593,0,0,1,20.557,9.878,29.091,29.091,0,0,1,6.14-10.412,24.28,24.28,0,0,1-4.806-5.606,23.114,23.114,0,0,1-1.6-20.023,21.352,21.352,0,0,1,16.285,10.412,20.594,20.594,0,0,1,2.67,6.674,29.045,29.045,0,0,1,9.611-1.6h1.068a32.992,32.992,0,0,1-6.407-19.756,33.457,33.457,0,0,1,12.548-26.163A32.7,32.7,0,0,1,397.475,42.1a21.034,21.034,0,0,1,6.14-7.475,21.34,21.34,0,0,1,3.471,3.471,21.727,21.727,0,0,1,7.475-10.679A23.644,23.644,0,0,1,423.1,42.1l2.4-2.4a22.282,22.282,0,0,1,8.543,17.887v.8a30.856,30.856,0,0,1,6.941-7.475,34.514,34.514,0,0,1,11.747,18.421,23.125,23.125,0,0,1,8.543-1.6h.534a27.657,27.657,0,0,1-3.471-7.475,27.3,27.3,0,0,1,4-22.426,24.185,24.185,0,0,1,14.683,16.552c.267.534.267,1.335.534,2.136a31.957,31.957,0,0,1,10.946-8.81c-4.539-3.2-7.742-8.009-9.611-13.883a26.356,26.356,0,0,1,4-22.426,24.185,24.185,0,0,1,14.683,16.552,13.4,13.4,0,0,1,.534,3.2,29.488,29.488,0,0,1,8.81-9.344,28.614,28.614,0,0,1,6.674,9.077,22.68,22.68,0,0,1,7.208-9.878,23.162,23.162,0,0,1,2.4,34.173,32.689,32.689,0,0,1,7.742,21.358v2.4a27.648,27.648,0,0,1,11.48-2.4h1.869a30.919,30.919,0,0,1-1.869-11.213,33.457,33.457,0,0,1,12.548-26.163,32.662,32.662,0,0,1,12.548,26.163v2.136a8.231,8.231,0,0,1,2.67-.267c3.2-12.014,13.616-20.557,26.163-20.557,10.412,0,19.489,6.14,24.028,15.484a23.161,23.161,0,0,1,7.475-1.335,18.028,18.028,0,0,1,3.738.534,17.622,17.622,0,0,1-.267-3.738A22.681,22.681,0,0,1,639.886,39.7a22.282,22.282,0,0,1,8.543,17.887,20.6,20.6,0,0,1-.534,4,30.863,30.863,0,0,1,9.878-1.869,17.626,17.626,0,0,1,3.738.267,23.111,23.111,0,0,1-2.67-6.407,26.357,26.357,0,0,1,4-22.426,24.185,24.185,0,0,1,14.684,16.552,26.254,26.254,0,0,1-1.6,18.154,32.162,32.162,0,0,1,12.281,25.629v.534a30.652,30.652,0,0,1,7.208-3.738,32.487,32.487,0,0,1-2.136-11.48,33.457,33.457,0,0,1,12.548-26.163A33.815,33.815,0,0,1,716.774,87.22,37.636,37.636,0,0,1,736.8,101.1c4.539-11.747,15.218-19.756,28.032-19.756h1.6a4.948,4.948,0,0,1-.534-1.869,26.357,26.357,0,0,1,4-22.426A24.185,24.185,0,0,1,784.585,73.6c0,.267.267.8.267,1.068a27.913,27.913,0,0,1,8.276-9.344,33.457,33.457,0,0,1,12.548,26.163,37.178,37.178,0,0,1-2.67,13.349,56.767,56.767,0,0,1,32.571,28.833,27.5,27.5,0,0,1,1.6-9.344,24.56,24.56,0,0,1-5.873-10.679,26.357,26.357,0,0,1,4-22.426,25.608,25.608,0,0,1,14.683,16.285,29.932,29.932,0,0,1,14.684-4.806,34.056,34.056,0,0,1-3.2,29.1,44.321,44.321,0,0,1-4.272,5.606,22.783,22.783,0,0,1,14.95,9.611,22.658,22.658,0,0,1,10.412-6.674,21.093,21.093,0,0,1-2.4-10.145,23.639,23.639,0,0,1,8.543-18.154c5.34,4,8.543,10.679,8.543,18.154a21.093,21.093,0,0,1-2.4,10.145,19.27,19.27,0,0,1,5.339,2.4,25.257,25.257,0,0,1,11.48-10.946,27.222,27.222,0,0,1-6.674-11.48,26.357,26.357,0,0,1,4-22.426,24.185,24.185,0,0,1,14.684,16.552c.267,1.335.534,2.937.8,4.272a29.3,29.3,0,0,1,19.222-8.276,34.056,34.056,0,0,1-3.2,29.1,4.689,4.689,0,0,1-1.068,1.335,24.176,24.176,0,0,1,3.738,13.082c0,10.412-6.407,19.489-15.217,22.693a24.084,24.084,0,0,1,2.4,10.679c0,1.335-.267,2.67-.267,4a30.935,30.935,0,0,1,13.616-4,34.057,34.057,0,0,1-3.2,29.1,28.834,28.834,0,0,1-4.272,5.339,24.644,24.644,0,0,1,10.145,8.81c2.4-12.815,12.014-22.96,24.295-25.1a23.824,23.824,0,0,1-4-8.276,26.357,26.357,0,0,1,4-22.426,24.185,24.185,0,0,1,14.683,16.552c.267,1.335.534,2.67.8,4.272a29.865,29.865,0,0,1,19.222-8.276,34.057,34.057,0,0,1-3.2,29.1c-.534.8-1.068,1.335-1.6,2.136a26.387,26.387,0,0,1,4,8.81h2.136a33.35,33.35,0,0,1,5.072-14.684,30.745,30.745,0,0,1,24.295-14.417,34.057,34.057,0,0,1-3.2,29.1,11.3,11.3,0,0,0-1.335,1.869,17.016,17.016,0,0,1,9.611-2.136,18.374,18.374,0,0,1-3.738,16.018L1035.54,245a29.071,29.071,0,0,1,2.67,6.674,14.1,14.1,0,0,1,3.471-.267,22.934,22.934,0,0,1,18.955,10.679c-4.539,6.14-11.48,10.145-19.489,9.878a10.01,10.01,0,0,1-2.937-.267,37.68,37.68,0,0,1-5.073,10.412,33.277,33.277,0,0,1,17.086,15.484,29.208,29.208,0,0,1,15.484-5.339,34.057,34.057,0,0,1-3.2,29.1,32.148,32.148,0,0,1-12.548,11.48,21.433,21.433,0,0,1,7.475,7.208c5.606-5.606,12.548-9.077,20.023-9.344a34.056,34.056,0,0,1-3.2,29.1,58.642,58.642,0,0,1-3.738,4.806,14.8,14.8,0,0,1,1.6,2.136,16.116,16.116,0,0,1,10.412-2.67,18.374,18.374,0,0,1-3.738,16.018l-.8.8c.267,1.068.267,1.869.534,2.937a39.739,39.739,0,0,1-1.068,13.883,27.171,27.171,0,0,1,4.805,6.14c0-.267.267-.267.267-.534a16.978,16.978,0,0,1,14.683-5.873,18.666,18.666,0,0,1-4.272,16.018,20.862,20.862,0,0,1-5.606,4.272c0,.534.267.8.267,1.335a42.842,42.842,0,0,1,0,8.276,29.12,29.12,0,0,1,13.883-4.272,34.057,34.057,0,0,1-3.2,29.1,23.015,23.015,0,0,1-3.738,4.806h.534a23.307,23.307,0,0,1,18.955,10.679c-4.539,6.14-11.48,10.145-19.489,9.878a5.878,5.878,0,0,1-2.136-.267,20.946,20.946,0,0,1-13.616,11.48,32.492,32.492,0,0,1,5.339,15.217,38.293,38.293,0,0,1-1.335,14.684,14.669,14.669,0,0,1,2.4,1.869c6.14,5.339,8.81,13.082,8.543,20.824a22.269,22.269,0,0,1-15.484-1.6,19.326,19.326,0,0,1,4.272,13.082,16.948,16.948,0,0,1-15.217-3.738.262.262,0,0,0-.267-.267,18.452,18.452,0,0,1-5.339,8.009,18.7,18.7,0,0,1-7.742-14.417v-.267a21.368,21.368,0,0,1-8.276-.8,36.392,36.392,0,0,1-6.407,6.407,34.926,34.926,0,0,1,5.874,19.489,34.053,34.053,0,0,1-13.082,27.231,34.054,34.054,0,0,1-13.082-27.231,35.3,35.3,0,0,1,2.937-14.15,27.313,27.313,0,0,1-14.95-4.539c0,.8.267,1.869.267,2.67a20.3,20.3,0,0,1-7.475,15.751,19.51,19.51,0,0,1-7.475-15.751,5.879,5.879,0,0,1,.267-2.136,28.513,28.513,0,0,1-9.611,2.67h-.534v1.068a18.927,18.927,0,0,1-6.674,15.217A18.7,18.7,0,0,1,968,553.622a13,13,0,0,1,.267-3.2,35.962,35.962,0,0,1-15.217-10.679c-.8.534-1.335.8-2.136,1.335a27.113,27.113,0,0,1,1.6,6.674,18.046,18.046,0,0,1-6.674,14.951,18.7,18.7,0,0,1-7.742-14.417,32.859,32.859,0,0,1,.534-5.339c-1.335-.267-2.67-.534-3.738-.8a31.786,31.786,0,0,1-10.145,12.014,35.349,35.349,0,0,1,6.14,19.756A34.054,34.054,0,0,1,917.8,601.143a34.054,34.054,0,0,1-13.082-27.231A37.6,37.6,0,0,1,907.66,559.5a28.114,28.114,0,0,1-11.747-2.67,17.212,17.212,0,0,1,.8,5.339,20.3,20.3,0,0,1-7.475,15.751,19.9,19.9,0,0,1-7.475-15.751,29.419,29.419,0,0,1,.534-4.806,30.709,30.709,0,0,1-10.946,2.136,29.564,29.564,0,0,1-16.552-5.072,41.254,41.254,0,0,1-5.873,3.2l1.6,4a26.356,26.356,0,0,1-4,22.426,24.079,24.079,0,0,1-10.145-7.742,21.841,21.841,0,0,1-5.339,6.674,17.927,17.927,0,0,1-7.208-12.815,41.524,41.524,0,0,1-12.014,12.548,22.408,22.408,0,0,1,4.539,9.077,26.357,26.357,0,0,1-4,22.426,23.568,23.568,0,0,1-9.077-6.407,34.422,34.422,0,0,1-8.543,18.955,30.771,30.771,0,0,1-6.941-5.073,34.776,34.776,0,0,1-6.14,17.086A31.634,31.634,0,0,1,762.961,617.7a59.534,59.534,0,0,1-1.068-6.14c-.267.267-.534.267-.8.534a15.6,15.6,0,0,1,.534,5.072,20.3,20.3,0,0,1-7.475,15.751,19.51,19.51,0,0,1-7.475-15.751v-1.335h0a47.662,47.662,0,0,1-6.14-.534,28.508,28.508,0,0,1,.8,6.674A34.054,34.054,0,0,1,728.254,649.2a35.1,35.1,0,0,1-12.548-21.091q-3.6,3.2-9.611,9.611a22.512,22.512,0,0,1-8.81-17.887V619.3a31.3,31.3,0,0,1-13.616,4.272,34.687,34.687,0,0,1,.267-23.227,42.952,42.952,0,0,1-9.878,1.869,44.605,44.605,0,0,1,1.6-33.639,26.841,26.841,0,0,1-6.674,1.068,33.473,33.473,0,0,1,3.2-28.833,22.821,22.821,0,0,1-5.072-5.072,31.608,31.608,0,0,1-8.009,8.81,34.053,34.053,0,0,1-13.082-27.231,15.224,15.224,0,0,1,.267-3.471,31.5,31.5,0,0,1-12.281-15.751c-.8.8-1.6,1.335-2.4,2.136a23.2,23.2,0,0,1-7.742,24.028,23.6,23.6,0,0,1-6.941-9.077,24.285,24.285,0,0,1-6.14,7.475,22.282,22.282,0,0,1-8.543-17.887,24.8,24.8,0,0,1,1.335-7.742,28.385,28.385,0,0,1-2.4-2.937,20.2,20.2,0,0,1-4,.267,29.475,29.475,0,0,1-18.154-6.407,26.084,26.084,0,0,1-4.805,18.421,24.185,24.185,0,0,1-14.683-16.552,11.566,11.566,0,0,0-.267-1.335,20.771,20.771,0,0,1-7.208,9.878,24.284,24.284,0,0,1-6.14-7.475,23.642,23.642,0,0,1-6.407,8.009,22.282,22.282,0,0,1-8.543-17.887,19.344,19.344,0,0,1,1.869-8.81,21.062,21.062,0,0,1-7.742-4.806,47.232,47.232,0,0,1-12.281,10.679,22.808,22.808,0,0,1,4,12.815,21.4,21.4,0,0,1-8.276,17.353,22.27,22.27,0,0,1-6.407-8.276,33.109,33.109,0,0,1-12.281,22.159,32.813,32.813,0,0,1-10.679-14.684,36.6,36.6,0,0,1-8.81,10.412,34.316,34.316,0,0,1-12.815-22.693,22.406,22.406,0,0,1-11.747,3.471c-1.068,0-1.869-.267-2.937-.267v.534a17.624,17.624,0,0,1-.267,3.738,26.946,26.946,0,0,1,6.674,7.742,34.153,34.153,0,0,1,3.2,29.1,30.583,30.583,0,0,1-20.29-9.344,45.9,45.9,0,0,1-22.159,16.018,32.384,32.384,0,0,1,1.869,11.48,33.457,33.457,0,0,1-12.548,26.163A33.143,33.143,0,0,1,386.8,559.228a22.946,22.946,0,0,1-11.747,4,35.329,35.329,0,0,1-9.077,43.784,34.053,34.053,0,0,1-13.082-27.231,29.014,29.014,0,0,1,.267-4.805,33,33,0,0,1-10.412,2.4,36.434,36.434,0,0,1-3.738,8.81,30.074,30.074,0,0,1-24.295,14.417,34.057,34.057,0,0,1,3.2-29.1,39.082,39.082,0,0,1,2.4-3.471l-.8-.8a21.183,21.183,0,0,1-33.372.8c-.534.267-.8.534-1.335.534a26.457,26.457,0,0,1-9.344,31.5,27.47,27.47,0,0,1-9.077-21.625,32.031,32.031,0,0,1,.8-5.339c-.8,0-1.6.267-2.67.267a45.842,45.842,0,0,1-29.634-11.213,15.486,15.486,0,0,1-3.2,2.67,26.946,26.946,0,0,1-9.878,30.435,28.6,28.6,0,0,1-7.475-10.946A25,25,0,0,1,201.25,594.2a29.237,29.237,0,0,1-4.272-14.15,32.589,32.589,0,0,1-13.349,7.208,33.89,33.89,0,0,1-1.6-29.634,12.47,12.47,0,0,1,1.335-2.67h0c-.534.8-.8,1.6-1.335,2.4-4,5.339-9.611,8.009-15.484,7.742a20.344,20.344,0,0,1,2.4-16.552,13,13,0,0,1-3.2.267A21.642,21.642,0,0,1,154.8,545.88a21.572,21.572,0,0,1-4.272,4.272,27.052,27.052,0,0,1-25.1,5.073,30.18,30.18,0,0,1,10.946-24.295,34.037,34.037,0,0,1,6.674-4c0-.8-.267-1.335-.267-2.136A24.247,24.247,0,0,1,154,504.232a24.031,24.031,0,0,1-16.819-19.222,30.926,30.926,0,0,1-9.878,4.806c-8.009,2.136-16.018.534-21.625-3.738a27.064,27.064,0,0,1,11.48-11.747,24.6,24.6,0,0,1-7.208-17.353,23.908,23.908,0,0,1,14.684-22.426,24.538,24.538,0,0,1-1.6-8.81v-.8C115.551,426.276,106.741,423.606,100.334,418Z" transform="translate(-99.8 -11.4)"/>
          </g>
        </g>
      </g>
    </g>
    <g id="Group_1135" data-name="Group 1135" transform="translate(209.492 789.388)">
      <path id="Path_1477" data-name="Path 1477" class="cls-7" d="M241.326,428.815s-29.1,2.937-45.385,0c0,0-39.512-11.213-46.72-2.4,0,0-16.819,13.082-17.62,18.688,0,0,7.475,16.552,38.711,18.955,0,0,29.367.534,42.716,3.2C212.76,467.259,240.525,438.96,241.326,428.815Z" transform="translate(-32.138 -102.069)"/>
      <path id="Path_1478" data-name="Path 1478" class="cls-8" d="M209.558,454.7s4.272,12.281,2.937,20.023l-53.928,4s-38.444,8.543-64.073,2.4c0,0-3.471-16.819,23.227-16.552l42.182-29.1L176.453,422.4l21.625,13.082Z" transform="translate(-94.345 -103.13)"/>
      <path id="Path_1479" data-name="Path 1479" class="cls-7" d="M212.494,468.048l-53.928,4s-38.444,8.543-64.073,2.4c0,0-3.471-16.819,23.227-16.552L159.9,428.8l2.937-2.4a60.7,60.7,0,0,1,14.951,15.218s15.217,10.679,32.3,6.14C209.558,448.025,214.1,460.306,212.494,468.048Z" transform="translate(-94.345 -96.451)"/>
      <path id="Path_1480" data-name="Path 1480" class="cls-6" d="M183.871,469.684s-9.611-1.335-21.091-9.611c0,0-18.421-16.552,18.421-30.7a58.4,58.4,0,0,1,15.484-4.272C196.953,425.367,214.306,454.734,183.871,469.684Z" transform="translate(12.235 -98.622)"/>
      <path id="Path_1481" data-name="Path 1481" class="cls-9" d="M430.684,525.666s-1.335,17.086-46.72,18.955l-104.92,13.616s-32.037,4.539-41.381-6.674c0,0-5.606-14.417,2.136-29.1,0,0,7.475-8.276,10.679-9.344,0,0-3.471-14.417,52.06-13.349L238.2,433.56s-2.136,7.475-10.679,12.815c0,0-23.227,34.44-41.114,47.254,0,0-1.335,19.756-24.562,25.9,0,0,2.67,4.806-3.471,6.14,0,0,4,4.539,0,8.009,0,0-25.1-7.475-33.372-32.3l4.539-5.073s-1.335-5.873,3.471-8.543c0,0-1.335-9.611,5.339-12.281,0,0,35.24-35.24,52.327-61.671,0,0,20.824-34.44,38.711-38.444,0,0,24.295-4.805,63.54,27.231,0,0,37.376,34.706,46.987,47.254l44.05,39.779Z" transform="translate(-43.159 -182.101)"/>
      <path id="Path_1482" data-name="Path 1482" class="cls-3" d="M153,396.122l6.14-8.543L170.353,347.8l85.7,57.933-5.606,34.973Z" transform="translate(3.594 -227.692)"/>
      <path id="Path_1483" data-name="Path 1483" class="cls-3" d="M176.227,364.7,153,367.9l57.666,43.25h37.643Z" transform="translate(3.594 -199.473)"/>
      <path id="Path_1484" data-name="Path 1484" class="cls-10" d="M161.7,368.039l4.539-5.339,72.617,46.453-3.738,5.873Z" transform="translate(18.12 -202.813)"/>
      <path id="Path_1485" data-name="Path 1485" class="cls-11" d="M175.088,384.74H156.4l9.077-35.24,81.694,54.729h0l-4,23.761Z" transform="translate(9.271 -224.853)"/>
      <path id="Path_1486" data-name="Path 1486" class="cls-12" d="M175.225,368.039,153.6,370.976l7.475-8.276h18.688Z" transform="translate(4.596 -202.813)"/>
      <path id="Path_1487" data-name="Path 1487" class="cls-6" d="M170.784,457.283s7.475-8.276,10.679-9.344c0,0-3.471-14.417,52.06-13.349l33.372-6.941L304,414.3l10.946,9.611,46.72,36.041s-1.335,17.086-46.72,18.955l-104.92,13.616s-32.037,4.539-41.381-6.674C168.381,486.116,162.775,471.7,170.784,457.283Z" transform="translate(26.123 -116.655)"/>
      <path id="Path_1488" data-name="Path 1488" class="cls-8" d="M282.306,378.068a72.175,72.175,0,0,0,11.48,32.571s18.421,3.2,23.761,13.349c0,0,10.145,4.539,10.145,9.611,0,0,12.281,3.471,9.611,14.95l.267,30.435a28.1,28.1,0,0,1-2.937,13.616l.8,21.091s2.67,12.281-1.869,19.756c0,0,2.67,18.955-4.272,26.964,0,0,1.869,5.607-4.538,10.946,0,0,1.335,23.227-4.539,42.716a20.606,20.606,0,0,1-3.2,7.475s1.6,15.484-7.475,24.562c0,0-55-14.149-94.775-71.816,0,0,.8-5.339,9.344-4,0,0,6.941-6.674,14.15-6.674,0,0,3.2-17.62,6.674-23.227,0,0-17.62-53.395,9.344-100.382,0,0-4.806-18.421-10.145-24.562,0,0-18.154,12.815-29.1-19.489l-8.276-1.335-2.136-19.489-4.539-4.539-2.67-20.824s-4-29.9,26.43-41.381c0,0,39.245-21.625,56.865,20.29C280.971,329.212,291.116,355.642,282.306,378.068Z" transform="translate(77.454 -302.811)"/>
      <path id="Path_1489" data-name="Path 1489" class="cls-7" d="M306.585,356.716s10.145,4.539,10.145,9.611c0,0,12.281,3.471,9.611,14.95l.267,30.435a28.1,28.1,0,0,1-2.937,13.616l.8,21.091s2.67,12.281-1.869,19.756c0,0,2.67,18.955-4.272,26.964,0,0,1.869,5.607-4.539,10.946,0,0,1.335,23.227-4.539,42.716a20.606,20.606,0,0,1-3.2,7.475s1.6,15.484-7.475,24.561c0,0-55-14.149-94.775-71.816,0,0,.8-5.339,9.344-4,0,0,6.941-6.674,14.15-6.674,0,0,3.2-17.62,6.674-23.227,0,0-17.62-53.395,9.344-100.382,42.182-14.15,39.245-29.634,39.245-29.634S301.245,346.571,306.585,356.716Z" transform="translate(88.416 -235.539)"/>
      <path id="Path_1490" data-name="Path 1490" class="cls-7" d="M229.6,459.223c.8-4,3.738-4.539,3.738-4.539-2.4-5.072-.267-11.213-.267-11.213a12.857,12.857,0,0,1,0-13.349c-3.738-10.412.267-22.96.267-22.96-.8-4.805.534-12.815.534-12.815-2.67-13.883,6.14-24.562,6.14-24.562,25.9-31.5,43.25-6.674,43.25-6.674l.267,30.435a28.1,28.1,0,0,1-2.937,13.616l.8,21.091s2.67,12.281-1.869,19.756c0,0,2.67,18.955-4.272,26.964,0,0,1.869,5.606-4.539,10.946C247.22,489.925,229.6,459.223,229.6,459.223Z" transform="translate(131.495 -217.642)"/>
      <path id="Path_1491" data-name="Path 1491" class="cls-13" d="M223.939,308.588s39.245-21.625,56.865,20.29c0,0,10.145,26.43,1.335,48.856,0,0-12.815-2.136-20.824-25.629,0,0-3.738-8.543-16.285-1.869,0,0-7.208,7.742-2.67,23.761l-5.339,1.869s-6.14-10.946-6.14-18.421c0,0-17.887,3.738-21.625-9.611,0,0-8.009,11.747-11.48,4.272l-.267-1.869C197.509,349.969,193.5,320.068,223.939,308.588Z" transform="translate(77.621 -302.477)"/>
      <path id="Path_1492" data-name="Path 1492" class="cls-8" d="M175.926,385.936c1.335-3.2,5.339-1.068,5.339-1.068A67.456,67.456,0,0,0,210.1,395.013c-32.571-21.358-24.028-21.892-24.028-21.892,5.072-2.937,26.964,13.349,26.964,13.349,18.688-1.869,33.906,17.086,33.906,17.086,21.892,12.281,73.151,24.295,73.151,24.295s17.353,30.7,41.381,27.231c-9.077,24.028-30.168,9.611-30.168,9.611-26.964-4.272-75.553-32.571-75.553-32.571-6.14.267-12.815-4.272-12.815-4.272l-20.023-2.937c-20.023-1.335-18.955-11.747-18.955-11.747-14.95-4-10.679-11.747-10.679-11.747l-8.543-5.072C172.188,389.407,175.926,385.936,175.926,385.936Z" transform="translate(41.004 -186.003)"/>
    </g>
  </g>
</svg>
