<svg xmlns="http://www.w3.org/2000/svg" viewBox="0 0 897.112 1168.3">
  <defs>
    <style>
      .cls-1 {
        fill: #39eafd;
      }

      .cls-2 {
        fill: #118c80;
      }

      .cls-3 {
        fill: #5677fc;
      }

      .cls-4 {
        fill: #6dc6bb;
      }

      .cls-5 {
        fill: #4754fc;
      }

      .cls-6 {
        fill: #2f5274;
      }

      .cls-7 {
        fill: #5cbfb3;
      }

      .cls-8 {
        fill: #f9cdb9;
      }

      .cls-9 {
        fill: #81d9d0;
      }

      .cls-10 {
        fill: #bde4f4;
        opacity: 0.35;
      }
    </style>
  </defs>
  <g id="registration-bcg-1" transform="translate(-49.187 -50.445)">
    <g id="Group_1066" data-name="Group 1066" transform="translate(487.46 50.445)">
      <g id="Group_1065" data-name="Group 1065">
        <path id="Path_1342" data-name="Path 1342" class="cls-1" d="M321.041,290.118c-46.8-2.478-17.345,30.56-43.224,69.654s-29.458,91.954-8.81,134.077c2.478,5.231,5.506,10.462,5.506,16.243,0,9.085-7.158,16.243-13.215,22.576a197.6,197.6,0,0,0-50.657,103.517c-4.68,29.183-2.478,60.293,10.187,87,22.851,49.006,79.84,77.913,133.526,72.958,53.961-4.956,102.416-40.746,128.3-88.375,4.956-9.085,10.737-19.822,20.924-21.474,5.506-.826,11.012,1.377,16.243,3.3,41.3,15.418,94.432,20.1,123.34-13.49,12.664-14.591,17.9-33.863,20.924-52.86a266.282,266.282,0,0,0-11.288-127.194c-7.709-22.3-18.446-44.05-22.576-67.176-11.012-63.046,27.807-125.542,22.576-189.139-2.753-33.037-17.345-63.872-33.588-92.78C594.15,101.529,557.258,53.625,505.224,50.6c-50.382-3.028-93.881,39.92-109.849,87.549-2.478,7.158-4.68,14.867-9.636,20.648-9.361,10.462-25.6,10.737-39.094,14.592-23.4,6.607-42.673,26.705-48.18,50.657C292.683,247.444,302.595,273.6,321.041,290.118Z" transform="translate(-208.378 -50.445)"/>
      </g>
      <path id="Path_1343" data-name="Path 1343" class="cls-2" d="M218.242,204.136a506.418,506.418,0,0,0,7.158,81.492c2.2,13.49,5.231,26.705,8.535,39.92,3.3,12.94,7.984,25.6,15.693,35.791,7.433,10.187,18.171,17.9,29.458,25.053,11.288,6.883,23.4,13.49,35.515,19.547A613.465,613.465,0,0,0,371.04,431.82c-.551-3.029-.826-5.782-1.377-8.81-6.057-36.066-13.49-71.856-19.547-108.2s-11.288-72.958-12.664-109.574c-1.377-36.892-10.462-19.547-1.377-55.338-7.158,36.066,3.854,18.446,7.158,54.787s10.462,72.132,18.446,107.647,16.794,71.306,24.227,107.372c2.2,10.737,4.4,21.474,6.332,32.212A209.9,209.9,0,0,1,406,418.329c7.158-13.766,16.243-26.43,25.053-38.544,8.81-12.389,17.9-24.227,25.6-37.167A148.118,148.118,0,0,0,474.832,301.6a149.518,149.518,0,0,1-14.591,42.949c-6.883,13.49-14.867,26.705-22.576,39.37-7.709,12.94-15.142,25.879-20.924,39.37a186.54,186.54,0,0,0-12.114,41.847,275.838,275.838,0,0,0-3.579,45.426c.551,6.332,1.1,12.94,1.1,19.547h-.826c.275,7.709.551,15.693,1.1,23.4l5.782,90.3,23.952,361.485-62.221,1.377L377.1,644.36l1.927-90.578c.275-13.215,1.1-26.705,2.2-40.2-.551-12.114-1.927-24.5-3.3-36.892-.826-7.433-1.927-14.591-3.028-22.025a748.308,748.308,0,0,1-67.451-35.515c-11.838-7.158-23.4-14.316-34.965-22.3-11.288-7.984-22.851-17.345-30.835-29.734s-11.838-26.43-14.592-39.92-4.68-27.256-6.057-40.746A458.339,458.339,0,0,1,218.242,204.136Z" transform="translate(-192.303 123.911)"/>
    </g>
    <g id="Group_1068" data-name="Group 1068" transform="translate(49.187 73.954)">
      <g id="Group_1067" data-name="Group 1067">
        <path id="Path_1344" data-name="Path 1344" class="cls-3" d="M359.5,77.749c-53.411,12.664-91.954,56.99-102.416,110.951-2.2,11.012-8.535,20.924-24.778,30.009-27.807,15.417-61.945,14.592-92.23,24.5C71.523,265.512,31.052,350.583,57.207,417.76c8.535,22.3,23.126,42.123,27.807,65.524,3.579,19.272.275,39.094,1.927,58.366,3.854,46.8,38.268,88.1,81.492,107.1,42.949,19,93.055,18.171,138.207,4.956,14.316-4.13,28.908-9.636,43.775-8.259,10.462.826,20.1,4.956,29.734,8.81a614.726,614.726,0,0,0,159.681,39.92c15.693,1.652,32.211,2.753,46.528-3.854,18.171-8.535,28.632-28.632,31.936-48.455s.551-40.2-1.1-60.293c-.826-9.636-1.1-19.547,1.927-28.632,4.13-11.563,13.215-20.648,21.2-30.009,55.338-65.249,49.556-173.447-12.389-232.639-11.563-11.012-25.053-20.924-33.313-34.965-11.563-20.1-9.361-44.876-11.838-68-4.68-47.078-29.734-91.679-67.451-120.036C492.475,49.943,421.72,62.882,359.5,77.749Z" transform="translate(-49.187 -58.984)"/>
      </g>
      <path id="Path_1345" data-name="Path 1345" class="cls-4" d="M386.291,238.673a506.418,506.418,0,0,1-7.158,81.492c-2.2,13.49-5.231,26.705-8.535,39.92-3.3,12.94-7.984,25.6-15.693,35.791-7.433,10.187-18.171,17.9-29.458,25.053-11.288,6.883-23.4,13.49-35.515,19.547a613.457,613.457,0,0,1-56.439,25.879c.551-3.029.826-5.782,1.377-8.81,6.057-36.066,13.49-71.856,19.547-108.2s11.288-72.958,12.664-109.574c1.377-36.892-1.377-73.784-10.462-109.574,7.158,36.066,7.984,72.682,4.68,109.024s-10.462,72.132-18.446,107.647-16.794,71.306-24.227,107.372c-2.2,10.737-4.405,21.474-6.332,32.212a209.9,209.9,0,0,0-13.766-33.588c-7.158-13.766-16.243-26.43-25.053-38.544-8.81-12.389-17.9-24.227-25.6-37.167A148.117,148.117,0,0,1,129.7,336.133a149.518,149.518,0,0,0,14.592,42.949c6.883,13.49,14.867,26.705,22.576,39.37,7.709,12.94,15.142,25.879,20.924,39.37A186.538,186.538,0,0,1,199.9,499.669a275.835,275.835,0,0,1,3.579,45.427c-.551,6.332-1.1,12.94-1.1,19.547h.826c-.275,7.709-.551,15.693-1.1,23.4l-5.782,90.3-23.952,361.485,62.221,1.377L227.436,678.9l-1.927-90.578c-.275-13.215-1.1-26.705-2.2-40.2.551-12.114,1.927-24.5,3.3-36.892.826-7.433,1.927-14.591,3.028-22.025a748.3,748.3,0,0,0,67.451-35.515c11.838-7.158,23.4-14.316,34.965-22.3,11.288-7.984,22.851-17.345,30.835-29.734s11.838-26.43,14.592-39.92,4.68-27.256,6.057-40.746A458.328,458.328,0,0,0,386.291,238.673Z" transform="translate(91.962 65.866)"/>
    </g>
    <g id="Group_1076" data-name="Group 1076" transform="translate(152.465 804.464)">
      <path id="Path_1346" data-name="Path 1346" class="cls-3" d="M808.568,481.427c0,13.215-161.608,24.227-360.934,24.227S86.7,494.918,86.7,481.427c0-13.215,161.608-24.227,360.934-24.227S808.568,467.937,808.568,481.427Z" transform="translate(-86.7 -91.374)"/>
      <g id="Group_1075" data-name="Group 1075" transform="translate(104.56)">
        <path id="Path_1347" data-name="Path 1347" class="cls-5" d="M196.9,346.009l6.332-15.968S221.4,314.9,264.076,333.9c42.673,18.721,45.151,31.11,45.151,31.11L304.822,381.8Z" transform="translate(1.933 -324.323)"/>
        <path id="Path_1348" data-name="Path 1348" class="cls-1" d="M372.105,416.978c-7.709,21.2-57.815,22.576-112.052,3.028s-92.23-52.585-84.521-73.784,57.816-22.576,112.052-3.028C341.821,363.016,379.814,395.779,372.105,416.978Z" transform="translate(-37.268 -315.451)"/>
        <path id="Path_1349" data-name="Path 1349" class="cls-6" d="M273.27,354.345s4.68,35.791-41.3,25.053c-46.252-10.737-121.688,31.386-62.221,82.043S233.9,473,257.3,478.235s98.011,43.224,156.928-9.085c59.192-52.309-40.2-31.11-41.3-89.752-1.377-58.641-99.663-27.256-99.663-27.256" transform="translate(-84.073 -290.26)"/>
        <path id="Path_1350" data-name="Path 1350" class="cls-7" d="M205.963,513.575a4.608,4.608,0,0,1,1.1-4.13c14.867-13.49,121.137-107.372,175.1-110.125,52.86-2.478,39.094,139.033,36.066,164.912a4.01,4.01,0,0,1-4.405,3.579l-14.316-1.652a3.882,3.882,0,0,1-3.3-2.753c-3.854-11.563-19.272-61.945-22.576-102.967-.275-3.854-5.231-4.956-7.433-1.927-10.462,15.142-34.689,44.6-81.217,75.435C225.51,573.593,208.992,525.413,205.963,513.575Z" transform="translate(17.648 -192.9)"/>
        <path id="Path_1351" data-name="Path 1351" class="cls-3" d="M315.8,463.142s51.759-8.535,60.844-12.94,17.345,10.462,17.345,24.5-1.927,28.357-19.272,24.5S312.5,482.964,312.5,482.964Z" transform="translate(204.594 -105.024)"/>
        <path id="Path_1352" data-name="Path 1352" class="cls-3" d="M240.726,377.359s-41.3.551-66.626,11.563l10.462,27.256s31.11-10.462,33.588-5.782-47.9,135.729-22.576,218.6c0,0,17.345-1.377,51.208-41.3,33.588-40.2,94.432-54.236,94.432-54.236l-20.1-64.7,18.721-7.709s-31.661-65.249-53.686-85.9C264.127,353.957,240.726,377.359,240.726,377.359Z" transform="translate(-38.038 -250.779)"/>
        <path id="Path_1353" data-name="Path 1353" class="cls-8" d="M221.614,337.626a32.3,32.3,0,0,0-27.807,36.341c.826,5.506,1.1,11.013.551,14.591-1.927,9.636-13.49,34.965,34.414,44.05s68,.551,66.625-44.6C294.3,354.7,254.652,333.5,221.614,337.626Z" transform="translate(-7.088 -301.899)"/>
        <g id="Group_1070" data-name="Group 1070" transform="translate(181.893 68.893)">
          <g id="Group_1069" data-name="Group 1069">
            <path id="Path_1354" data-name="Path 1354" class="cls-6" d="M218.424,352.8l-15.417-3.3a8.074,8.074,0,0,0-9.361,6.057l-2.753,12.664a8.074,8.074,0,0,0,6.057,9.361l15.417,3.3a8.225,8.225,0,0,0,9.361-6.057l2.753-12.664A8.225,8.225,0,0,0,218.424,352.8Zm4.4,9.085-2.753,12.664a6.16,6.16,0,0,1-6.057,4.956h-1.377l-15.417-3.3a5.692,5.692,0,0,1-3.854-2.753,6.861,6.861,0,0,1-.826-4.68L195.3,356.1a6.16,6.16,0,0,1,6.057-4.956h1.377l15.417,3.3A6.244,6.244,0,0,1,222.829,361.882Z" transform="translate(-190.747 -349.347)"/>
            <path id="Path_1355" data-name="Path 1355" class="cls-6" d="M233.925,356.1l-15.417-3.3a8.074,8.074,0,0,0-9.361,6.057l-2.753,12.664a8.074,8.074,0,0,0,6.057,9.361l15.417,3.3a8.225,8.225,0,0,0,9.361-6.057l2.753-12.664A7.93,7.93,0,0,0,233.925,356.1Zm4.68,9.085-2.753,12.664a6.16,6.16,0,0,1-6.057,4.956h-1.377L213,379.5a5.692,5.692,0,0,1-3.854-2.753,6.86,6.86,0,0,1-.826-4.68l2.753-12.664a6.16,6.16,0,0,1,6.057-4.956h1.377l15.417,3.3a5.692,5.692,0,0,1,3.854,2.753A6.86,6.86,0,0,1,238.6,365.182Z" transform="translate(-163.573 -343.561)"/>
          </g>
        </g>
        <path id="Path_1356" data-name="Path 1356" class="cls-5" d="M304.791,397.233a61.475,61.475,0,0,0-29.734,17.9c-7.984,8.81-20.373,11.838-31.11,7.158a85.072,85.072,0,0,0-69.1,0c-39.37,17.62-59.467,63.6-45.977,104.343,15.417,46.252,66.35,69.929,111.226,52.309a85.648,85.648,0,0,0,47.078-44.876c4.68-10.462,15.417-17.345,26.705-15.968a59.029,59.029,0,0,0,28.908-3.854,61.9,61.9,0,0,0,32.487-86.173C361.781,403.29,332.322,390.075,304.791,397.233Z" transform="translate(-124.679 -199.898)"/>
        <path id="Path_1357" data-name="Path 1357" class="cls-9" d="M181.8,509.337H541.357s8.535-13.49,3.3-20.1S316.978,428.946,250.353,435,181.8,509.337,181.8,509.337Z" transform="translate(-24.539 -131.122)"/>
        <path id="Path_1358" data-name="Path 1358" class="cls-5" d="M240,423.2s-7.709-25.329-22.3-41.3c0,0,18.446,36.341,18.446,43.5Z" transform="translate(38.398 -223.384)"/>
        <path id="Path_1359" data-name="Path 1359" class="cls-6" d="M239.69,344.475s35.24,12.389,36.341,41.021c1.1,28.908-11.012,49.556,8.81,61.67,19.822,12.389,34.965-17.345,34.965-17.345s-21.75-6.883-23.677-28.908,3.579-50.382-52.034-62.221-51.759,31.936-51.759,31.936,5.506-21.75,20.924-22.576C228.953,347.228,232.257,354.662,239.69,344.475Z" transform="translate(-6.167 -302.691)"/>
        <path id="Path_1360" data-name="Path 1360" class="cls-10" d="M221.75,360.737,219,373.4a6.16,6.16,0,0,1-6.057,4.956h-1.377l-15.417-3.3a5.692,5.692,0,0,1-3.854-2.753,6.861,6.861,0,0,1-.826-4.68l2.753-12.664A6.16,6.16,0,0,1,200.276,350h1.377l15.417,3.3A6.244,6.244,0,0,1,221.75,360.737Z" transform="translate(-7.774 -279.308)"/>
        <path id="Path_1361" data-name="Path 1361" class="cls-10" d="M237.35,364.037,234.6,376.7a6.16,6.16,0,0,1-6.057,4.956h-1.377l-15.418-3.3a5.692,5.692,0,0,1-3.854-2.753,6.86,6.86,0,0,1-.826-4.68l2.753-12.664a6.16,6.16,0,0,1,6.057-4.956h1.377l15.417,3.3a5.692,5.692,0,0,1,3.854,2.753A6.86,6.86,0,0,1,237.35,364.037Z" transform="translate(19.574 -273.523)"/>
        <g id="Group_1071" data-name="Group 1071" transform="translate(181.764 66.562)">
          <path id="Path_1362" data-name="Path 1362" class="cls-6" d="M224.013,364.193l-32.487-6.883c-.551,0-.826-.551-.826-1.1l1.377-6.883c0-.551.551-.826,1.1-.826l32.487,6.883c.551,0,.826.551.826,1.1l-1.377,6.883C225.114,363.917,224.563,364.468,224.013,364.193Z" transform="translate(-190.7 -348.5)"/>
          <path id="Path_1363" data-name="Path 1363" class="cls-6" d="M207.926,360.81l32.487,6.883c.551,0,1.1-.275,1.1-.826l1.377-6.883c0-.551-.275-1.1-.826-1.1L209.578,352c-.551,0-1.1.275-1.1.826l-1.377,6.607C207.1,360.259,207.375,360.81,207.926,360.81Z" transform="translate(-161.949 -342.364)"/>
          <rect id="Rectangle_38" data-name="Rectangle 38" class="cls-6" width="13.49" height="4.13" transform="translate(34.165 9.381) rotate(11.847)"/>
        </g>
        <path id="Path_1364" data-name="Path 1364" class="cls-1" d="M304.791,393.613a61.474,61.474,0,0,0-29.734,17.9c-7.984,8.81-20.373,11.838-31.11,7.158a85.073,85.073,0,0,0-69.1,0c-39.37,17.62-59.467,63.6-45.977,104.343,15.417,46.252,66.35,69.929,111.226,52.309a85.649,85.649,0,0,0,47.078-44.876c4.68-10.462,15.417-17.345,26.705-15.968a59.029,59.029,0,0,0,28.908-3.854,61.9,61.9,0,0,0,32.487-86.173C361.781,399.394,332.322,386.179,304.791,393.613Z" transform="translate(-124.679 -206.464)"/>
        <g id="Group_1074" data-name="Group 1074" transform="translate(62.179 151.083)">
          <g id="Group_1073" data-name="Group 1073">
            <path id="Path_1365" data-name="Path 1365" class="cls-5" d="M467.474,379.2,159.4,498.41a22.174,22.174,0,0,1,9.911,27.531l308.9-119.485Z" transform="translate(-125.987 -379.2)"/>
            <g id="Group_1072" data-name="Group 1072" transform="translate(0 116.375)">
              <path id="Path_1366" data-name="Path 1366" class="cls-6" d="M180.676,424.305a22.733,22.733,0,0,0-19-1.377,22.4,22.4,0,0,0,15.968,41.847,22.87,22.87,0,0,0,12.664-12.664,22.058,22.058,0,0,0,0-16.243A20.2,20.2,0,0,0,180.676,424.305Z" transform="translate(-147.264 -421.47)"/>
            </g>
          </g>
        </g>
        <path id="Path_1367" data-name="Path 1367" class="cls-8" d="M233.525,375.5s-62.771,27.807-87.274,71.03c-24.778,43.224,45.977,69.654,45.977,69.654s6.332,21.474,19.272,24.227c12.94,2.478,13.49,4.405,15.142.826s-14.592-8.259-16.794-12.114,17.345,10.737,22.851,5.231,15.968-15.417,1.377-18.446a202.968,202.968,0,0,1-26.43-7.433s14.316.826,14.592-5.506c.551-6.332-12.114,3.579-28.357-3.029S111.837,458.919,242.06,397.8Z" transform="translate(-96.086 -234.604)"/>
        <path id="Path_1368" data-name="Path 1368" class="cls-8" d="M227.8,443.126s5.231,73.508,48.455,61.67c43.224-11.563,28.908-92.78,28.908-92.78s2.478-16.794-2.478-21.474c-5.231-4.68-8.259-5.231-6.332,1.652,1.652,6.883,1.377,6.883-4.405,6.883-5.506,0-16.794,5.231-13.766,12.389,3.028,7.433,7.709,12.94,16.519,11.288,0,0-3.029,62.5-19.823,60.018s-26.155-47.629-26.155-47.629Z" transform="translate(56.105 -214.405)"/>
        <path id="Path_1369" data-name="Path 1369" class="cls-5" d="M334.678,412.712l-57.265,22.025a4.9,4.9,0,0,1-6.607-3.028l-11.563-29.734a4.9,4.9,0,0,1,3.028-6.607l57.265-22.025a4.9,4.9,0,0,1,6.607,3.028L337.706,406.1A4.9,4.9,0,0,1,334.678,412.712Z" transform="translate(110.56 -239.053)"/>
      </g>
    </g>
  </g>
</svg>
