<svg xmlns="http://www.w3.org/2000/svg" viewBox="0 0 1111.625 1045.682">
  <defs>
    <style>
      .cls-1 {
        fill: #5677fc;
      }

      .cls-2 {
        fill: #39eafd;
      }

      .cls-3 {
        fill: #111;
      }

      .cls-4 {
        fill: #399afd;
      }

      .cls-5 {
        fill: #5661fc;
      }

      .cls-6 {
        fill: #f9cdb9;
      }

      .cls-7 {
        fill: #fef2eb;
      }

      .cls-8 {
        fill: #2f5274;
      }

      .cls-9 {
        fill: #5955b7;
      }
    </style>
  </defs>
  <g id="registration-company-bcg-1" transform="translate(-11.535 -80.664)">
    <g id="Group_1084" data-name="Group 1084" transform="translate(690.158 80.664)">
      <g id="Group_1083" data-name="Group 1083">
        <path id="Path_1370" data-name="Path 1370" class="cls-1" d="M582.767,570.553c-2.029-25.5-16.519-49.848-13.331-75.352,6.086-49.848,74.482-76.8,74.482-126.939,0-38.545-39.994-63.759-56.8-98.247-19.128-39.7-6.376-89.552-28.112-127.808-20.577-36.517-65.788-50.717-107.231-58.253C426.847,79.609,398.155,77,378.448,93.23c-26.373,21.446-22.026,62.02-29.851,95.059-9.854,42.6-41.154,76.221-66.657,111.578s-46.37,80.858-31.01,121.722c10.433,28.4,36.517,48.4,51.007,75.062,15.07,27.242,17.1,59.7,25.793,89.552,9.274,32.459,27.822,63.759,56.8,81.438C442.207,703,589.723,649.673,582.767,570.553Z" transform="translate(-245.693 -80.664)"/>
        <g id="Group_1080" data-name="Group 1080" transform="translate(202.6 116.319)">
          <path id="Path_1371" data-name="Path 1371" class="cls-2" d="M322.556,925.9a5.2,5.2,0,0,1-5.217-5.217L315.6,126.017a5.2,5.2,0,0,1,5.217-5.217h0a5.2,5.2,0,0,1,5.217,5.217l1.739,794.67a5.2,5.2,0,0,1-5.217,5.217Z" transform="translate(-315.6 -120.8)"/>
        </g>
        <g id="Group_1081" data-name="Group 1081" transform="translate(102.511 196.815)">
          <path id="Path_1372" data-name="Path 1372" class="cls-2" d="M385.211,266.022,282.906,181.4a5.14,5.14,0,1,1,6.666-7.825l95.059,78.54L483.458,150.1a5.123,5.123,0,0,1,7.245,7.245Z" transform="translate(-281.064 -148.575)"/>
        </g>
        <g id="Group_1082" data-name="Group 1082" transform="translate(95.677 322.684)">
          <path id="Path_1373" data-name="Path 1373" class="cls-2" d="M389.687,336.9l-109.26-91.581a5.14,5.14,0,1,1,6.666-7.825l101.725,85.205L501.266,193.727a5.14,5.14,0,0,1,7.825,6.666Z" transform="translate(-278.706 -192.006)"/>
        </g>
      </g>
    </g>
    <g id="Group_1091" data-name="Group 1091" transform="translate(11.535 349.617)">
      <g id="Group_1085" data-name="Group 1085" transform="translate(220.738 271.074)">
        <path id="Path_1374" data-name="Path 1374" class="cls-3" d="M440.114,484.071l-12.752-.29.29-11.593L87.7,461.175l6.956-193.306,12.752.58L100.742,449l326.91,10.723L432.289,267h333l8.984,216.781L440.114,472.768Zm.58-24.344L761.227,470.16l-7.825-190.7H445.33Z" transform="translate(-87.7 -267)"/>
      </g>
      <path id="Path_1375" data-name="Path 1375" class="cls-4" d="M73.14,260.3l847.416,14.491,8.984,154.181L57.2,411Z" transform="translate(75.144 -8.644)"/>
      <g id="Group_1086" data-name="Group 1086" transform="translate(142.951 284.1)">
        <rect id="Rectangle_40" data-name="Rectangle 40" class="cls-5" width="3.188" height="854.661" transform="translate(0 3.187) rotate(-88.918)"/>
      </g>
      <g id="Group_1087" data-name="Group 1087" transform="translate(139.526 327.299)">
        <rect id="Rectangle_41" data-name="Rectangle 41" class="cls-5" width="3.188" height="854.661" transform="translate(0 3.187) rotate(-88.919)"/>
      </g>
      <g id="Group_1088" data-name="Group 1088" transform="translate(139.407 370.307)">
        <rect id="Rectangle_42" data-name="Rectangle 42" class="cls-5" width="3.188" height="854.661" transform="translate(0 3.187) rotate(-88.919)"/>
      </g>
      <path id="Path_1376" data-name="Path 1376" class="cls-6" d="M200.679,235.346s4.347,38.545,3.188,42.023c-.29,1.159-20.867,0-20.867,0s13.042,59.992,32.169,63.469c19.417,3.188,52.746-7.535,53.616-15.07,1.159-7.535,3.768-45.211,3.768-45.211a154.012,154.012,0,0,1-16.23-3.188c-2.029-.58-6.956-63.469-6.956-63.469Z" transform="translate(313.93 -96.717)"/>
      <path id="Path_1377" data-name="Path 1377" class="cls-2" d="M239.651,235.836c-10.143-.29-20.287-2.608-29.561,1.159-16.23,6.376-26.083,23.185-30.72,39.994s-5.506,34.488-10.723,51.3c-3.188,10.143-7.825,19.707-11.593,29.561A172.549,172.549,0,0,0,146.041,413.2c-.29,8.4.29,17.1,4.927,24.055a22.656,22.656,0,0,0,13.911,8.984c11.013,2.029,21.446-4.637,31.3-10.143,18.258-11.013,38.545-20.287,59.7-20.867,22.026-.58,43.182,7.825,63.469,16.23,21.446,8.984,44.631,19.418,55.065,39.994,4.927-4.347,4.637-11.882,2.9-18.258-1.449-6.376-3.768-13.042-1.449-19.128,3.478,12.172,15.94,21.446,28.4,21.156A30.017,30.017,0,0,0,432.087,433.2c3.188-12.752-2.318-25.793-4.927-38.545-6.086-27.822,0-56.514,0-84.915,0-4.057-1.159-12.172-2.318-20.577a50.529,50.529,0,0,0-36.517-40.574c-18.258-4.927-40.284-10.723-55.644-10.143A89.506,89.506,0,0,1,320.8,261.919c-6.376,8.694-19.418,22.9-28.981,18.548-3.188-1.449-10.723-9.854-13.042-12.752-6.956-8.4-11.882-30.72-13.042-31.01C260.517,236.125,248.345,236.125,239.651,235.836Z" transform="translate(243.659 -56.923)"/>
      <path id="Path_1378" data-name="Path 1378" class="cls-3" d="M282.13,252.074a52.577,52.577,0,1,1-38.255-63.759A52.677,52.677,0,0,1,282.13,252.074Z" transform="translate(305.512 -148.223)"/>
      <path id="Path_1379" data-name="Path 1379" class="cls-3" d="M249.7,214.138a32.72,32.72,0,1,1-23.765-39.7A32.773,32.773,0,0,1,249.7,214.138Z" transform="translate(318.232 -173.466)"/>
      <path id="Path_1380" data-name="Path 1380" class="cls-7" d="M170.664,263.427s53.616,7.245,61.73,7.825,27.242,3.768,28.981,11.013c.869,0,18.548-9.854,39.125-12.752s46.37-11.013,46.37-11.013l6.376,7.825-76.8,32.459L263.4,306.03s-18.548-6.376-20-6.376-81.727-17.1-81.727-17.1l-.58-7.245Z" transform="translate(272.361 -12.06)"/>
      <path id="Path_1381" data-name="Path 1381" class="cls-6" d="M181.433,237.087c-2.029,12.172,0,24.344,3.188,36.227,2.9,10.433,24.634,56.514,54.775,49.268,29.561-6.956,37.966-67.237,33.908-87.234-4.057-19.128-22.026-44.921-44.052-44.342C206.067,191.586,185.2,215.93,181.433,237.087Z" transform="translate(309.412 -140.191)"/>
      <path id="Path_1382" data-name="Path 1382" class="cls-6" d="M185.865,210.1c-2.029-.869-4.347-1.159-6.086,0-2.318,1.739-2.608,4.637-2.318,7.535a54.45,54.45,0,0,0,6.376,23.185c1.739,3.188,4.637,6.376,8.115,6.086,3.768-.58,5.506-4.927,6.086-8.694C199.2,228.359,195.429,215.028,185.865,210.1Z" transform="translate(303.24 -105.38)"/>
      <path id="Path_1383" data-name="Path 1383" class="cls-8" d="M165.591,266.626l81.148,17.679a5.6,5.6,0,0,1,4.057,3.188c1.159,2.608,4.057,6.666,12.172,6.376s11.593-5.217,12.752-8.115a6.27,6.27,0,0,1,3.478-3.188L356,261.41a5.613,5.613,0,0,1,6.956,5.506l-4.347,101.145a5.232,5.232,0,0,1-4.057,4.927c-15.65,4.057-74.772,19.418-75.931,19.418s-89.842-16.23-110.129-20a5.207,5.207,0,0,1-4.347-4.927l-4.347-94.769A4.9,4.9,0,0,1,165.591,266.626Z" transform="translate(269.609 -6.855)"/>
      <path id="Path_1384" data-name="Path 1384" class="cls-3" d="M232.3,252.71c-16.519,9.274-35.357,14.2-54.2,17.679.869-6.666,1.739-13.331,2.319-20,1.159-9.274,2.319-19.128,7.245-27.242a53.914,53.914,0,0,1,10.723-12.172c10.143-8.694,22.316-20.577,35.647-21.446,11.3-.869,35.647,10.433,34.778,25.214C267.942,229.815,243.888,246.334,232.3,252.71Z" transform="translate(304.63 -143.063)"/>
      <path id="Path_1385" data-name="Path 1385" class="cls-6" d="M160.147,273.7a5.65,5.65,0,0,0-2.319.29,3.983,3.983,0,0,0-1.449,2.318,14.357,14.357,0,0,0-.58,4.927,3.123,3.123,0,0,0,.58,2.318,6.063,6.063,0,0,0,1.739,1.159c6.086,2.318,12.752,2.029,19.418,2.029a5.732,5.732,0,0,0,3.188-.58,5.283,5.283,0,0,0,2.9-6.086C181.593,272.831,165.654,273.99,160.147,273.7Z" transform="translate(262.301 16.791)"/>
      <path id="Path_1386" data-name="Path 1386" class="cls-6" d="M152.412,300.661c-2.9,3.478-3.768,8.4-3.478,13.042a30.279,30.279,0,0,0,4.347,13.042,10.091,10.091,0,0,0,3.188,3.768c1.449.869,2.9.869,4.347,1.159,4.057.29,8.4.58,12.172-.869,3.768-1.739,6.086-4.927,7.825-8.694a32.937,32.937,0,0,0-1.449-30.72,10.852,10.852,0,0,0-3.478-3.768C169.221,284.142,156.18,295.734,152.412,300.661Z" transform="translate(249.169 41.997)"/>
      <path id="Path_1387" data-name="Path 1387" class="cls-6" d="M158.828,278.3c-2.9,1.159-5.217,4.057-4.927,7.245a20.3,20.3,0,0,1,.869,4.057c0,2.029-1.739,4.057-1.449,6.086.29,1.159,1.159,2.029,1.449,2.9.869,2.029,0,4.347-.29,6.666a12.137,12.137,0,0,0,14.781,13.621c4.347-.869,7.825-4.057,12.172-4.927,2.608-.58,5.217,0,8.115.29a37.483,37.483,0,0,0,20.867-4.637c1.739-.869,3.188-2.318,3.188-4.057,0-2.029-2.319-3.188-4.347-3.768a137.915,137.915,0,0,0-34.2-6.956,2.325,2.325,0,0,1,1.159-3.478,6.368,6.368,0,0,1,4.057-.29c5.506.869,11.013,1.449,16.519,2.318,3.188.58,7.245.29,8.4-2.608.869-2.029-.29-4.347-2.029-5.506a13.891,13.891,0,0,0-5.8-2.029c-6.956-1.159-14.2-2.608-21.156-3.768-2.9-.58-5.8-1.449-8.4-2.029C164.334,277.141,161.726,278.3,158.828,278.3Z" transform="translate(257.534 23.784)"/>
      <path id="Path_1388" data-name="Path 1388" class="cls-6" d="M229.323,273.058c-1.739.29-3.478.869-4.347,2.318-2.029,2.608-.29,6.376,2.608,7.825s6.086,1.159,9.274.58a52.193,52.193,0,0,0,9.274-1.739c2.608-.869,5.506-2.608,5.506-5.217C251.928,267.841,233.67,271.9,229.323,273.058Z" transform="translate(391.938 11.927)"/>
      <path id="Path_1389" data-name="Path 1389" class="cls-2" d="M253.915,428.619c2.319,4.347,7.245,10.433,10.723,14.2,9.854,10.143,18.838,9.274,33.039,8.984,5.506,0,11.013-.29,16.23-2.029s10.143-5.506,11.882-10.723c2.608-6.955-1.159-15.07-6.666-20.287S306.371,410.651,300,406.883c-10.433-5.8-21.736-11.593-29.271-20.867-6.376-7.825-14.491-19.418-24.344-20.287-10.723-.87-21.156,11.013-18.258,20.867,1.739,6.086,10.143,13.042,13.042,18.838C244.931,413.259,249.857,421.374,253.915,428.619Z" transform="translate(398.646 191.391)"/>
      <g id="Group_1089" data-name="Group 1089" transform="translate(169.73 455.106)">
        <path id="Path_1390" data-name="Path 1390" class="cls-3" d="M836.078,547.57,801.59,356.293,113.282,342.962,82.272,523.806,70.1,521.777,103.139,330.5l708.595,13.621L848.25,545.252Z" transform="translate(-70.1 -330.5)"/>
      </g>
      <g id="Group_1090" data-name="Group 1090" transform="translate(79.019 470.466)">
        <path id="Path_1391" data-name="Path 1391" class="cls-3" d="M1005.909,610.254,965.335,358.406,101.11,348.262,50.682,571.709,38.8,568.81,91.256,335.8l884.8,10.433,42.023,262.281Z" transform="translate(-38.8 -335.8)"/>
      </g>
      <path id="Path_1392" data-name="Path 1392" class="cls-6" d="M228.009,278.815c-2.029.29-4.347.29-6.086,1.449a5.519,5.519,0,0,0-2.9,5.217,4.714,4.714,0,0,0,3.478,3.478,16.047,16.047,0,0,0,5.217.58,257.564,257.564,0,0,0,25.793-2.029c1.449-.29,3.188-.58,4.347-1.739,3.768-4.637-4.637-7.825-7.825-8.115C242.789,276.5,234.964,278.235,228.009,278.815Z" transform="translate(382.239 23.559)"/>
      <path id="Path_1393" data-name="Path 1393" class="cls-4" d="M48.7,322.3v55.644l925.955,6.086s24.634-47.24,16.519-47.24C982.77,336.791,48.7,322.3,48.7,322.3Z" transform="translate(59.01 109.041)"/>
      <path id="Path_1394" data-name="Path 1394" class="cls-6" d="M221.319,284.183c-2.608.29-6.086.869-6.666,3.478s2.029,4.927,4.637,5.506a34.613,34.613,0,0,0,9.564,1.159c9.274.29,18.838,0,28.112-.29a16.874,16.874,0,0,0,5.506-.869,5.374,5.374,0,0,0,3.768-4.057c1.739-9.564-14.2-6.376-18.548-6.376C238.708,283.314,230.014,283.6,221.319,284.183Z" transform="translate(373.858 32.971)"/>
      <path id="Path_1395" data-name="Path 1395" class="cls-6" d="M230.105,318.5c-.869,4.927-1.739,10.143-.869,15.07s4.057,9.854,8.984,11.593c4.057,1.159,8.115.29,12.172-1.449,5.506-2.318,11.013-5.8,13.042-11.3,2.319-5.8.29-12.752-2.608-18.258-3.188-5.506-7.245-10.433-9.854-16.23-1.739-3.478-2.608-7.245-5.217-10.143s-7.245-4.347-10.143-2.029c-2.029,1.739-2.608,4.637-2.608,7.535A149.418,149.418,0,0,1,230.105,318.5Z" transform="translate(401.009 37.488)"/>
      <path id="Path_1396" data-name="Path 1396" class="cls-6" d="M227.141,288.352c-2.9.29-6.086.869-6.956,3.478-.58,2.029.869,4.057,2.608,4.927a12.976,12.976,0,0,0,5.8,1.159,107.534,107.534,0,0,0,19.417-1.449c1.739-.29,3.768-.869,4.637-2.318a4.129,4.129,0,0,0-1.449-4.927C245.689,285.454,233.227,288.062,227.141,288.352Z" transform="translate(384.266 42.423)"/>
      <path id="Path_1397" data-name="Path 1397" class="cls-9" d="M276.749,342.694s12.172,25.5-3.478,31.01c-15.94,5.506-41.443-15.36-41.443-15.36S195.6,308.207,197.34,307.337s17.1-4.637,17.1-4.637l29.851,8.115S267.185,307.337,276.749,342.694Z" transform="translate(341.034 71.837)"/>
      <path id="Path_1398" data-name="Path 1398" class="cls-6" d="M184.7,391.306l.87,75.641s4.927,12.172,13.621,9.564c8.694-2.318,20-90.712,20-90.712Z" transform="translate(317.157 229.573)"/>
      <path id="Path_1399" data-name="Path 1399" class="cls-5" d="M184.513,325.571s-9.564,18.548-8.115,60.861c1.739,45.5,17.389,181.134,17.389,181.134l42.023,9.274s24.055-200.551,24.055-227.214C260.154,322.963,242.186,269.057,184.513,325.571Z" transform="translate(301.115 68.094)"/>
      <path id="Path_1400" data-name="Path 1400" class="cls-6" d="M256.591,433.9c5.217,8.694,11.013,17.679,19.128,23.765s19.418,9.564,28.981,5.8a11.793,11.793,0,0,0,5.8-4.057c2.608-3.768,1.739-8.984-.869-12.752s-6.376-6.376-10.143-8.984a144.332,144.332,0,0,1-51.877-72.743c-1.159-3.478-2.029-7.245-4.347-10.143-2.029-2.9-5.8-5.506-9.564-4.927a11.028,11.028,0,0,0-4.927,2.318c-13.911,10.723-2.608,23.765,2.9,35.647A501.3,501.3,0,0,0,256.591,433.9Z" transform="translate(388.145 161.186)"/>
      <path id="Path_1401" data-name="Path 1401" class="cls-6" d="M241.606,281.106a22.865,22.865,0,0,1,5.217,8.4,90.255,90.255,0,0,1,6.086,24.634,15.454,15.454,0,0,1-.58,7.245c-1.739,4.347-7.245,6.666-11.882,5.506s-8.115-5.217-10.143-9.564c-1.739-4.347-2.029-9.274-1.739-14.2.29-4.637.869-9.564.58-14.2,0-2.029-.29-4.057.29-5.8C230.883,276.469,237.838,277.339,241.606,281.106Z" transform="translate(400.232 25.325)"/>
      <path id="Path_1402" data-name="Path 1402" class="cls-1" d="M192.748,311.186s-37.966,25.793-37.966,41.154-2.608,57.963,15.94,61.73c19.418,4.057,47.819,2.029,47.819,2.029s-3.188-35.068,11.3-43.182a251.876,251.876,0,0,1,27.822-13.331l92.74,141.429,28.981-17.679s-26.083-89.842-33.329-108.39-29.851-78.25-46.37-83.177C283.17,286.552,256.507,271.191,192.748,311.186Z" transform="translate(260.131 37.268)"/>
      <path id="Path_1403" data-name="Path 1403" class="cls-6" d="M230.478,288.24a9.657,9.657,0,0,0,7.245,6.086c.58,0,1.159.29,1.739,0,1.159-.58,1.449-2.318,1.739-3.768.29-5.217.58-10.143.58-15.36v-1.159c-.29-1.159-2.029-1.739-3.478-1.739-2.608,0-8.984,1.739-9.564,4.927-.29,1.159.58,3.188.58,4.637C229.608,283.892,229.608,286.211,230.478,288.24Z" transform="translate(400.637 14.134)"/>
      <path id="Path_1404" data-name="Path 1404" class="cls-3" d="M213.874,231.6c3.188,9.274,7.535,18.548,15.36,24.344,3.768-7.245,7.245-14.491,8.694-22.605,1.739-7.825,1.159-16.519-2.9-23.475a30.266,30.266,0,0,0-6.666-8.115,50.744,50.744,0,0,0-13.911-9.274c-9.854-4.347-11.882,6.086-9.274,13.042C208.947,213.919,210.976,222.9,213.874,231.6Z" transform="translate(354.06 -139.339)"/>
      <path id="Path_1405" data-name="Path 1405" class="cls-3" d="M179.658,228.272c-1.159,4.057-2.319,8.115-2.029,12.172.29,6.376,2.608,12.172,5.217,18.258,1.159,2.9,2.9,6.086,5.8,6.376,1.739.29,3.478-.58,4.927-1.449a91.276,91.276,0,0,0,26.373-21.736c6.956-8.4,12.752-18.548,12.752-29.271,0-14.491-11.3-28.981-25.214-19.707C194.439,201.319,184.3,213.781,179.658,228.272Z" transform="translate(303.651 -142.099)"/>
      <path id="Path_1406" data-name="Path 1406" class="cls-6" d="M222.359,209.5c2.029-.869,4.347-1.159,6.086,0,2.318,1.739,2.608,4.637,2.318,7.535a54.45,54.45,0,0,1-6.376,23.185c-1.739,3.188-4.637,6.376-8.115,6.086-3.768-.58-5.506-4.927-6.086-8.694C208.738,228.049,212.8,214.428,222.359,209.5Z" transform="translate(364.993 -106.519)"/>
      <path id="Path_1407" data-name="Path 1407" class="cls-6" d="M184.2,471.154c-1.739,6.376-4.057,13.042-2.9,19.418.58,2.9,1.739,5.8,4.347,7.245a18.927,18.927,0,0,0,5.8,1.449c3.768.29,7.245.58,11.013.869,6.086.58,13.042.869,17.968-2.9,4.347-3.478,6.086-9.274,5.8-14.491-.29-5.506-2.029-10.723-3.768-15.94a224.047,224.047,0,0,1-9.564-43.472c-.869-6.086-1.449-12.752-5.506-17.389-14.2-15.94-14.781,9.854-15.36,17.1A208.467,208.467,0,0,1,184.2,471.154Z" transform="translate(310.12 258.115)"/>
      <path id="Path_1408" data-name="Path 1408" class="cls-2" d="M221.377,461.472a11.593,11.593,0,0,0,5.217-3.767c3.478-4.347,2.9-10.723,1.739-16.52l-3.478-20c10.723,13.621,12.462,32.459,11.882,49.848-.29,4.057-.58,8.694-3.478,11.3-2.9,2.9-7.535,3.188-11.593,3.478-7.245.29-14.781.58-22.026-1.159s-14.2-5.506-18.258-11.593c-3.478-5.506-4.347-12.172-3.478-18.548s3.478-12.462,6.086-17.968c3.188-6.376,6.666-13.042,11.013-18.548,2.029,11.3-9.854,22.605-6.086,33.618C193.265,464.08,211.524,466.109,221.377,461.472Z" transform="translate(303.665 290.693)"/>
      <path id="Path_1409" data-name="Path 1409" class="cls-1" d="M39.546,440.273c1.739-7.535,0-15.36-.29-22.9s.58-16.23,6.376-21.446c2.608-2.608,6.956-3.768,10.143-2.318s4.637,5.506,5.8,8.984c2.608,8.115,4.927,16.23,7.535,24.344,5.217-2.318,4.347-9.854,7.825-14.491,4.637-6.086,15.07-3.478,19.128,2.608,4.347,6.086,4.347,14.2,4.057,21.736a45.8,45.8,0,0,1,24.055-17.679,41.378,41.378,0,0,1,7.825,34.2c2.319-7.825,14.2-8.4,20-2.9s6.666,14.491,6.376,22.605a6.383,6.383,0,0,1-1.449,4.637c-1.449,1.159-3.478,1.159-5.217,1.159-36.517-2.029-83.466,3.188-118.824-6.666C21,468.675,8.246,462.3,12.3,447.229,16.941,430.42,41,437.665,39.546,440.273Z" transform="translate(-11.535 243.206)"/>
      <path id="Path_1410" data-name="Path 1410" class="cls-1" d="M370.114,454.536c.869-7.535-1.449-15.36-2.318-22.9-1.159-7.535-.869-16.229,4.637-21.736,2.608-2.608,6.376-4.637,9.854-3.188,3.478,1.159,5.217,4.927,6.376,8.4,3.188,7.825,6.376,15.65,9.854,23.475,4.927-2.9,3.478-10.433,6.666-15.07,4.057-6.376,14.491-4.927,19.418.869s5.506,13.911,6.086,21.446a44.263,44.263,0,0,1,22.605-19.707c8.115,8.984,12.462,21.446,11.013,33.329,1.739-7.825,13.331-9.854,19.707-4.637s8.115,13.911,8.115,22.026c0,1.739,0,3.478-1.159,4.637-1.159,1.449-3.188,1.449-5.217,1.739-36.517,1.159-82.887,10.723-118.824,3.767-12.172-2.318-25.214-7.825-22.605-23.185C346.639,446.421,370.983,451.638,370.114,454.536Z" transform="translate(619.5 268.358)"/>
      <path id="Path_1411" data-name="Path 1411" class="cls-1" d="M71.667,396.626a16.8,16.8,0,0,1,19.418,3.768c0-6.956,8.115-11.593,14.781-9.854,6.666,1.449,11.593,7.535,14.781,13.621,1.159,2.029,2.029,4.347,4.347,5.217,2.029.869,4.057.29,6.086-.58,10.433-4.637,20.867-15.65,31.01-10.433,5.8,3.188,8.4,10.723,14.491,12.462,3.478.869,6.956-.29,10.433-1.449,6.086-1.739,13.042-2.029,18.838.58s10.433,8.4,10.143,14.781c-9.274,4.927-20.577,4.927-31.01,4.637-32.749-.869-65.208-2.318-97.667-4.057C72.247,424.448,47.033,408.8,71.667,396.626Z" transform="translate(82.993 237.874)"/>
      <path id="Path_1412" data-name="Path 1412" class="cls-1" d="M315.467,401.526a16.805,16.805,0,0,1,19.418,3.767c0-6.955,8.115-11.593,14.781-9.854,6.666,1.449,11.593,7.535,14.781,13.621,1.159,2.029,2.029,4.347,4.347,5.217,2.029.869,4.057.29,6.086-.58,10.433-4.637,20.867-15.65,31.01-10.433,5.8,3.188,8.4,10.723,14.491,12.462,3.478.87,6.956-.29,10.433-1.449,6.086-1.739,13.042-2.029,18.838.58s10.433,8.4,10.143,14.781c-9.274,4.927-20.577,4.927-31.01,4.637-32.749-.869-65.208-2.318-97.667-4.057C316.047,429.348,290.833,413.7,315.467,401.526Z" transform="translate(545.76 247.175)"/>
    </g>
  </g>
</svg>
