<svg xmlns="http://www.w3.org/2000/svg" xmlns:xlink="http://www.w3.org/1999/xlink" viewBox="0 0 813.317 455.145">
  <defs>
    <style>
      .cls-1 {
        fill: #39eafd;
      }

      .cls-2 {
        fill: #5677fc;
      }

      .cls-3 {
        fill: #de6287;
      }

      .cls-4 {
        fill: #3e4354;
      }

      .cls-5 {
        fill: #f4f3ed;
      }

      .cls-6 {
        clip-path: url(#clip-path);
      }
    </style>
    <clipPath id="clip-path">
      <path id="Path_1340" data-name="Path 1340" d="M453.673,216.586s1.357,43.8-12.791,65.313-23.645,22.869-13.179,30.04,10.078.581,44.77,38.374S537.2,416.6,568.214,419.7s43.413,16.861,48.452,23.645,3.295,24.226-3.682,28.684-17.443-6.4-17.249-15.892c.388-9.5-2.713-17.443-5.039-18.218-2.326-.581,3.1,10.853-.581,11.047-3.682.388-5.427-15.5-9.5-17.443s-22.869,5.039-64.926-17.443-72.678-73.065-76.748-75.391,33.335,124.037,33.335,124.037-24.42,25.2-54.848,25.2-62.018-26.939-62.018-26.939,37.4-124.618,33.335-122.293S354.056,391.594,312,414.076s-61.049,15.5-64.926,17.443c-4.07,1.938-5.814,17.83-9.5,17.443s1.744-11.822-.581-11.047c-2.326.581-5.427,8.721-5.039,18.218s-10.078,20.156-17.249,15.892c-7.171-4.458-8.721-21.9-3.682-28.684S228.469,422.8,259.478,419.7s61.049-31.591,95.741-69.383,34.3-31.4,44.77-38.374c10.466-7.171-1.357-10.466-15.5-31.978S373.437,216.2,373.437,216.2c4.651-13.179,7.171-29.265,45.545-26.552C456.968,192.36,453.673,216.586,453.673,216.586Z" transform="translate(-208.08 -189.344)"/>
    </clipPath>
  </defs>
  <g id="reset-bcg" transform="translate(-19.149 -156.757)">
    <g id="Group_1057" data-name="Group 1057" transform="translate(19.149 227.861)">
      <g id="Group_1055" data-name="Group 1055" transform="translate(129.448)">
        <path id="Path_1328" data-name="Path 1328" class="cls-1" d="M411.458,243.361c-20.156-36.823-61.825-56.592-102.912-47.871-33.529,6.977-66.088,19.187-94.966,36.63-11.241,6.783-22.094,14.342-29.653,25.195-14.729,21.125-12.985,49.615-7.365,74.81.969,4.264,1.744,9.69-1.744,12.4a12.207,12.207,0,0,1-5.233,1.938c-35.079,7.558-63.957,35.854-76.166,69.577s-8.721,71.9,5.039,105.044c2.326,5.427,5.039,11.047,9.884,14.148,5.039,3.1,11.241,3.295,17.249,3.295,61.049-.194,122.293-.581,183.342-1.55,45.739-.775,92.059-1.744,136.441-12.6,5.62-1.357,11.241-2.907,15.892-6.2,14.923-10.659,12.791-33.529,5.62-50.39a139.238,139.238,0,0,0-64.732-69.771c27.327-9.109,41.475-40.7,39.924-69.383s-15.311-55.041-28.877-80.43A11.991,11.991,0,0,0,411.458,243.361Z" transform="translate(-85.941 -193.445)"/>
      </g>
      <g id="Group_1056" data-name="Group 1056" transform="translate(0 162.818)">
        <path id="Path_1329" data-name="Path 1329" class="cls-2" d="M70.219,309.521c16.667-23.645,51.359-36.242,85.275-30.815a306.352,306.352,0,0,1,78.686,23.451c9.3,4.264,18.412,9.3,24.42,16.086,12.21,13.567,10.659,31.978,6.008,48.064-.775,2.713-1.357,6.2,1.55,7.946a9.932,9.932,0,0,0,4.264,1.163c29.071,4.845,52.91,23.063,62.988,44.576,10.078,21.706,7.365,46.126-4.264,67.445-1.938,3.488-4.07,6.977-8.334,9.109-4.07,2.132-9.3,2.132-14.342,2.132q-75.876,0-151.751-.969c-37.986-.388-76.166-1.163-113.184-8.14a41.857,41.857,0,0,1-13.179-4.07c-12.21-6.783-10.659-21.513-4.651-32.366,10.272-19.187,29.653-35.273,53.491-44.77-22.482-5.814-34.5-26.164-33.141-44.576S56.846,328.32,67.894,312.04A7.257,7.257,0,0,0,70.219,309.521Z" transform="translate(-19.149 -277.455)"/>
      </g>
    </g>
    <g id="Group_1063" data-name="Group 1063" transform="translate(378.955 156.757)">
      <path id="Path_1330" data-name="Path 1330" class="cls-1" d="M658.31,390.089c0,13.954-101.555,25.389-226.755,25.389S204.8,404.043,204.8,390.089,306.355,364.7,431.555,364.7,658.31,376.135,658.31,390.089Z" transform="translate(-204.8 38.31)"/>
      <g id="Group_1062" data-name="Group 1062" transform="translate(0.417)">
        <g id="Group_1059" data-name="Group 1059" transform="translate(147.458 301.353)">
          <g id="Group_1058" data-name="Group 1058">
            <path id="Path_1331" data-name="Path 1331" class="cls-2" d="M400.292,340.258s116.091-43.219,157.566-22.288-16.667,77.135-78.492,98.261c-61.825,20.931-122.293,21.706-122.293,21.706L281.1,353.825Z" transform="translate(-281.1 -312.247)"/>
          </g>
        </g>
        <path id="Path_1332" data-name="Path 1332" class="cls-3" d="M326.728,376.173a7.452,7.452,0,0,1,6.783-2.326c11.628,1.938,44.188,7.946,48.646,12.4a22.929,22.929,0,0,1,3.682,4.651c3.489,5.427-.775,12.6-7.171,11.822-13.373-1.55-34.11-5.233-50.2-14.729a7.559,7.559,0,0,1-1.744-11.822Z" transform="translate(-92.831 46.8)"/>
        <path id="Path_1333" data-name="Path 1333" class="cls-3" d="M343.753,383.718a8,8,0,0,1-5.427,4.845c-11.435,2.713-43.8,9.884-49.615,7.558a23.569,23.569,0,0,1-5.233-2.907,7.679,7.679,0,0,1,1.938-13.76c12.985-3.876,33.529-8.528,51.94-6.008,5.039.775,8.14,5.814,6.4,10.272Z" transform="translate(-134.664 45.844)"/>
        <path id="Path_1334" data-name="Path 1334" class="cls-4" d="M319.1,396.8s78.88-56.592,116.478-72.1c0,0-14.729,1.938-37.017,9.5C376.467,341.561,319.1,396.8,319.1,396.8Z" transform="translate(-97.995 0.787)"/>
        <path id="Path_1335" data-name="Path 1335" class="cls-2" d="M446.082,434.711s-52.522-80.818-129.27-110.083-97.1-5.039-110.083,23.257c-13.179,28.3,51.553,76.748,127.525,86.051S439.3,445.758,439.3,445.758Z" transform="translate(-205.015 -11.739)"/>
        <path id="Path_1336" data-name="Path 1336" class="cls-3" d="M389.4,315.3s12.4,2.326,15.892,1.938,6.589.969,7.558,5.233,3.295,11.241,5.427,10.853c2.326-.388-1.55-11.628-.194-11.628s3.489,2.907,4.07,6.008c.388,2.907,3.295,21.513,6.4,25.389s11.435,9.5,16.28-.388-7.171-33.916-24.614-38.18A57.274,57.274,0,0,0,389.4,315.3Z" transform="translate(-32.048 -10.361)"/>
        <path id="Path_1337" data-name="Path 1337" class="cls-3" d="M275,314.746s-12.21,3.295-22.094,3.682-12.791.388-13.179,2.713-4.07,13.76-5.814,13.954,2.132-14.536.388-14.536-3.876,5.039-4.845,9.109c-.969,3.876.194,12.016-1.938,16.667s-7.365,14.342-12.791,12.21,6.977-41.475,24.226-45.739c17.249-4.07,33.723.581,33.723.581Z" transform="translate(-197.117 -11.935)"/>
        <g id="Group_1061" data-name="Group 1061" transform="translate(5.939 63.157)">
          <path id="Path_1338" data-name="Path 1338" class="cls-5" d="M453.673,216.586s1.357,43.8-12.791,65.313-23.645,22.869-13.179,30.04,10.078.581,44.77,38.374S537.2,416.6,568.214,419.7s43.413,16.861,48.452,23.645,3.295,24.226-3.682,28.684-17.443-6.4-17.249-15.892c.388-9.5-2.713-17.443-5.039-18.218-2.326-.581,3.1,10.853-.581,11.047-3.682.388-5.427-15.5-9.5-17.443s-22.869,5.039-64.926-17.443-72.678-73.065-76.748-75.391,33.335,124.037,33.335,124.037-24.42,25.2-54.848,25.2-62.018-26.939-62.018-26.939,37.4-124.618,33.335-122.293S354.056,391.594,312,414.076s-61.049,15.5-64.926,17.443c-4.07,1.938-5.814,17.83-9.5,17.443s1.744-11.822-.581-11.047c-2.326.581-5.427,8.721-5.039,18.218s-10.078,20.156-17.249,15.892c-7.171-4.458-8.721-21.9-3.682-28.684S228.469,422.8,259.478,419.7s61.049-31.591,95.741-69.383,34.3-31.4,44.77-38.374c10.466-7.171-1.357-10.466-15.5-31.978S373.437,216.2,373.437,216.2c4.651-13.179,7.171-29.265,45.545-26.552C456.968,192.36,453.673,216.586,453.673,216.586Z" transform="translate(-208.08 -189.344)"/>
          <g id="Group_1060" data-name="Group 1060" class="cls-6">
            <path id="Path_1339" data-name="Path 1339" class="cls-1" d="M331.572,251.788s-2.519,34.11,18.024,34.692S366.652,251.4,366.652,251.4l4.458.581s-.388,30.622,8.334,46.126,37.792,120.548,40.118,120.548-10.466,31.591-75.779,22.482-66.282-31.4-66.282-31.4l43.025-118.61s9.69-19.187,5.427-33.723Z" transform="translate(-142.958 -131.131)"/>
          </g>
        </g>
        <path id="Path_1341" data-name="Path 1341" class="cls-2" d="M363.8,235.527c4.458-8.334-2.326,13.373,9.884,25.2s5.039,30.234,5.039,30.234,5.233-9.5,9.69-27.715c4.264-18.218,8.334-56.2-24.42-58.918s-25.195-4.264-24.807-12.6,10.659-39.924-29.653-34.3-30.04,26.552-14.148,36.436,36.242,9.69,31.591,14.923-19.768,7.171-23.257,17.055-3.876,44.188,2.326,52.522c6.4,8.334,1.163-11.435,17.443-18.218C339.19,253.357,355.47,251.419,363.8,235.527Z" transform="translate(-133.396 -156.757)"/>
      </g>
    </g>
  </g>
</svg>
