<?xml version="1.0" encoding="utf-8"?>
<!-- Generator: Adobe Illustrator 22.1.0, SVG Export Plug-In . SVG Version: 6.00 Build 0)  -->
<svg version="1.1" id="Warstwa_1" xmlns="http://www.w3.org/2000/svg" xmlns:xlink="http://www.w3.org/1999/xlink" x="0px" y="0px"
	 viewBox="0 0 1920 1080" style="enable-background:new 0 0 1920 1080;" xml:space="preserve">
<style type="text/css">
	.st0{fill:#39EAFD;}
	.st1{fill:#5677FC;}
	.st2{fill:#DE6287;}
	.st3{fill:#3E4354;}
	.st4{fill:#F4F3ED;}
	.st5{clip-path:url(#SVGID_2_);enable-background:new    ;}
	.st6{clip-path:url(#SVGID_4_);fill:#39EAFD;}
	.st7{fill:#3AE5B1;}
</style>
<path class="st0" d="M220,729.7c-20.2-36.8-61.8-56.6-102.9-47.9c-33.5,7-66.1,19.2-95,36.6C10.8,725.3,0,732.8-7.6,743.7
	c-14.7,21.1-13,49.6-7.4,74.8c1,4.3,1.7,9.7-1.7,12.4c-1.6,1.2-3.3,1.6-5.2,1.9c-35.1,7.6-64,35.9-76.2,69.6
	c-12.2,33.7-8.7,71.9,5,105c2.3,5.4,5,11,9.9,14.1c5,3.1,11.2,3.3,17.2,3.3c61-0.2,122.3-0.6,183.3-1.6
	c45.7-0.8,92.1-1.7,136.4-12.6c5.6-1.4,11.2-2.9,15.9-6.2c14.9-10.7,12.8-33.5,5.6-50.4c-12.4-29.8-35.9-55-64.7-69.8
	c27.3-9.1,41.5-40.7,39.9-69.4c-1.6-28.7-15.3-55-28.9-80.4C221.5,732.6,220.7,731.1,220,729.7z"/>
<path class="st1" d="M-183.9,874.7c16.7-23.6,51.4-36.2,85.3-30.8c27.7,4.5,54.7,12.4,78.7,23.5c9.3,4.3,18.4,9.3,24.4,16.1
	c12.2,13.6,10.7,32,6,48.1c-0.8,2.7-1.4,6.2,1.6,7.9c1.2,0.8,2.7,1,4.3,1.2c29.1,4.8,52.9,23.1,63,44.6c10.1,21.7,7.4,46.1-4.3,67.4
	c-1.9,3.5-4.1,7-8.3,9.1c-4.1,2.1-9.3,2.1-14.3,2.1c-50.6,0-101.2-0.4-151.8-1c-38-0.4-76.2-1.2-113.2-8.1
	c-4.7-0.8-9.3-1.9-13.2-4.1c-12.2-6.8-10.7-21.5-4.7-32.4c10.3-19.2,29.7-35.3,53.5-44.8c-22.5-5.8-34.5-26.2-33.1-44.6
	c1.4-18.4,12.8-35.5,23.8-51.7C-185.3,876.6-184.5,875.7-183.9,874.7z"/>
<ellipse class="st0" cx="351.6" cy="1037.1" rx="226.8" ry="25.4"/>
<path class="st1" d="M391.9,938.1c0,0,116.1-43.2,157.6-22.3c41.5,20.9-16.7,77.1-78.5,98.3c-61.8,20.9-122.3,21.7-122.3,21.7
	l-76-84.1L391.9,938.1z"/>
<path class="st2" d="M359.1,1031.7c1.7-1.9,4.3-2.7,6.8-2.3c11.6,1.9,44.2,7.9,48.6,12.4c1.4,1.2,2.5,2.9,3.7,4.7
	c3.5,5.4-0.8,12.6-7.2,11.8c-13.4-1.6-34.1-5.2-50.2-14.7C356.6,1041,355.6,1035.2,359.1,1031.7z"/>
<path class="st2" d="M334.3,1038.3c-1,2.3-2.9,4.3-5.4,4.8c-11.4,2.7-43.8,9.9-49.6,7.6c-1.7-0.6-3.5-1.7-5.2-2.9
	c-5.4-3.7-4.3-11.8,1.9-13.8c13-3.9,33.5-8.5,51.9-6C333,1028.8,336.1,1033.8,334.3,1038.3z"/>
<path class="st3" d="M346.3,1006.3c0,0,78.9-56.6,116.5-72.1c0,0-14.7,1.9-37,9.5C403.7,951,346.3,1006.3,346.3,1006.3z"/>
<path class="st1" d="M366.3,1031.7c0,0-52.5-80.8-129.3-110.1c-76.7-29.3-97.1-5-110.1,23.3c-13.2,28.3,51.6,76.7,127.5,86.1
	c76,9.3,105,11.8,105,11.8L366.3,1031.7z"/>
<path class="st2" d="M482.6,913.6c0,0,12.4,2.3,15.9,1.9c3.5-0.4,6.6,1,7.6,5.2s3.3,11.2,5.4,10.9c2.3-0.4-1.6-11.6-0.2-11.6
	c1.4,0,3.5,2.9,4.1,6c0.4,2.9,3.3,21.5,6.4,25.4c3.1,3.9,11.4,9.5,16.3-0.4c4.8-9.9-7.2-33.9-24.6-38.2
	C496.3,908.6,482.6,913.6,482.6,913.6z"/>
<path class="st2" d="M203.1,911.5c0,0-12.2,3.3-22.1,3.7c-9.9,0.4-12.8,0.4-13.2,2.7c-0.4,2.3-4.1,13.8-5.8,14
	c-1.7,0.2,2.1-14.5,0.4-14.5c-1.7,0-3.9,5-4.8,9.1c-1,3.9,0.2,12-1.9,16.7s-7.4,14.3-12.8,12.2c-5.4-2.1,7-41.5,24.2-45.7
	c17.2-4.1,33.7,0.6,33.7,0.6L203.1,911.5z"/>
<path class="st4" d="M376.8,699.1c0,0,1.4,43.8-12.8,65.3c-14.1,21.5-23.6,22.9-13.2,30c10.5,7.2,10.1,0.6,44.8,38.4
	c34.7,37.8,64.7,66.3,95.7,69.4c31,3.1,43.4,16.9,48.5,23.6s3.3,24.2-3.7,28.7c-7,4.5-17.4-6.4-17.2-15.9c0.4-9.5-2.7-17.4-5-18.2
	c-2.3-0.6,3.1,10.9-0.6,11c-3.7,0.4-5.4-15.5-9.5-17.4c-4.1-1.9-22.9,5-64.9-17.4c-42.1-22.5-72.7-73.1-76.7-75.4
	c-4.1-2.3,33.3,124,33.3,124s-24.4,25.2-54.8,25.2s-62-26.9-62-26.9s37.4-124.6,33.3-122.3c-4.1,2.3-34.7,52.9-76.7,75.4
	c-42.1,22.5-61,15.5-64.9,17.4c-4.1,1.9-5.8,17.8-9.5,17.4s1.7-11.8-0.6-11c-2.3,0.6-5.4,8.7-5,18.2c0.4,9.5-10.1,20.2-17.2,15.9
	c-7.2-4.5-8.7-21.9-3.7-28.7c5-6.8,17.4-20.5,48.5-23.6c31-3.1,61-31.6,95.7-69.4c34.7-37.8,34.3-31.4,44.8-38.4
	c10.5-7.2-1.4-10.5-15.5-32c-14.1-21.5-11-63.8-11-63.8c4.7-13.2,7.2-29.3,45.5-26.6C380.1,674.9,376.8,699.1,376.8,699.1z"/>
<g>
	<defs>
		<path id="SVGID_1_" d="M376.8,699.1c0,0,1.4,43.8-12.8,65.3c-4.7,7.2-8.9,12.1-12.1,15.8c-6.2,7.3-8.1,9.5-1.1,14.2
			c10.5,7.2,10.1,0.6,44.8,38.4c34.7,37.8,64.7,66.3,95.7,69.4c31,3.1,43.4,16.9,48.5,23.6s3.3,24.2-3.7,28.7
			c-7,4.5-17.4-6.4-17.2-15.9c0.4-9.5-2.7-17.4-5-18.2c-1-0.3-0.6,1.8,0,4.1c0.7,3.1,1.5,6.8-0.6,6.9c-1.9,0.2-3.3-3.9-4.7-8.2
			c-1.4-4.1-2.8-8.3-4.8-9.3c-0.9-0.4-2.6-0.4-5.2-0.4c-8.7,0.1-27.3,0.3-59.8-17.1c-42.1-22.5-72.7-73.1-76.7-75.4
			c-4.1-2.3,33.3,124,33.3,124s-24.4,25.2-54.8,25.2s-62-26.9-62-26.9s37.4-124.6,33.3-122.3c-4.1,2.3-34.7,52.9-76.7,75.4
			c-32.5,17.4-51.2,17.2-59.9,17.1c-2.5,0-4.2,0-5.1,0.4c-2,0.9-3.4,5.2-4.8,9.3c-1.4,4.3-2.8,8.4-4.7,8.2c-2.1-0.2-1.2-4-0.5-7.1
			c0.5-2.3,1-4.3,0-3.9c-2.3,0.6-5.4,8.7-5,18.2c0.4,9.5-10.1,20.2-17.2,15.9c-7.2-4.5-8.7-21.9-3.7-28.7c5-6.8,17.4-20.5,48.5-23.6
			c31-3.1,61-31.6,95.7-69.4c34.7-37.8,34.3-31.4,44.8-38.4c6.8-4.7,4.2-7.7-2.4-15.2c-3.5-4-8.2-9.3-13.1-16.8
			c-14.1-21.5-11-63.8-11-63.8c0.3-0.9,0.6-1.8,0.9-2.7c4.2-12.6,8.9-26.3,44.6-23.8C380.1,674.9,376.8,699.1,376.8,699.1z"/>
	</defs>
	<clipPath id="SVGID_2_">
		<use xlink:href="#SVGID_1_"  style="overflow:visible;"/>
	</clipPath>
	<g class="st5">
		<g>
			<defs>
				<rect id="SVGID_3_" x="129" y="669" width="416" height="302"/>
			</defs>
			<clipPath id="SVGID_4_">
				<use xlink:href="#SVGID_3_"  style="overflow:visible;"/>
			</clipPath>
			<path class="st6" d="M319.8,792.5c0,0-2.5,34.1,18,34.7c20.5,0.6,17.1-35.1,17.1-35.1l4.5,0.6c0,0-0.4,30.6,8.3,46.1
				c8.7,15.5,37.8,120.5,40.1,120.5c2.3,0-10.5,31.6-75.8,22.5s-66.3-31.4-66.3-31.4l43-118.6c0,0,9.7-19.2,5.4-33.7L319.8,792.5z"
				/>
		</g>
	</g>
</g>
<path class="st1" d="M355.6,687.5c4.5-8.3-2.3,13.4,9.9,25.2c12.2,11.8,5,30.2,5,30.2s5.2-9.5,9.7-27.7c4.3-18.2,8.3-56.2-24.4-58.9
	c-32.8-2.7-25.2-4.3-24.8-12.6s10.7-39.9-29.7-34.3c-40.3,5.6-30,26.6-14.1,36.4c15.9,9.9,36.2,9.7,31.6,14.9
	c-4.7,5.2-19.8,7.2-23.3,17.1s-3.9,44.2,2.3,52.5c6.4,8.3,1.2-11.4,17.4-18.2C331,705.3,347.3,703.4,355.6,687.5z"/>
<path class="st0" d="M-12.8,168.4c-14.1,0-25.5,11.4-25.5,25.5s11.4,25.5,25.5,25.5h89.8c16.6,0,30.2-13.5,30.2-30.2
	c0-16.6-13.5-30.2-30.2-30.2c-1.4,0-2.9,0.1-4.6,0.4c-1,0.1-2-0.4-2.4-1.3c-7.2-14.7-21.8-23.8-38.1-23.8
	c-19.6,0-36.5,13.3-41.2,32.3c-0.3,1.1-1.2,1.8-2.3,1.8L-12.8,168.4z M76.9,224h-89.8c-16.6,0-30.2-13.5-30.2-30.2
	c0-16.4,13.2-29.8,29.5-30.2c5.8-20.1,24.2-34.1,45.3-34.1c17.5,0,33.3,9.5,41.5,24.9c1.3-0.1,2.5-0.2,3.7-0.2
	c19.2,0,34.9,15.6,34.9,34.9C111.8,208.4,96.2,224,76.9,224z"/>
<path class="st0" d="M76.9,224c-1.3,0-2.3-1-2.3-2.3s1-2.3,2.3-2.3c16.6,0,30.2-13.5,30.2-30.2c0-16.6-13.5-30.2-30.2-30.2
	c-8.7,0-17,3.8-22.7,10.3c-0.8,1-2.3,1.1-3.3,0.2c-1-0.8-1.1-2.3-0.2-3.3c6.6-7.6,16.2-11.9,26.3-11.9c19.2,0,34.9,15.6,34.9,34.9
	C111.8,208.3,96.2,224,76.9,224z"/>
<path class="st0" d="M109.7,191.2c-1.3,0-2.3-1-2.3-2.3s1-2.3,2.3-2.3c16.6,0,30.2-13.5,30.2-30.2c0-16.6-13.5-30.2-30.2-30.2
	c-1.4,0-2.9,0.1-4.6,0.4c-1,0.1-2-0.4-2.4-1.3c-7.2-14.7-21.8-23.8-38.1-23.8c-19.6,0-36.5,13.3-41.2,32.3c-0.3,1.1-1.2,1.8-2.3,1.8
	l-0.6,0c-1.3,0-2.6-1.1-2.6-2.4c0-1,0.5-1.9,1.4-2.2c5.8-20.2,24.2-34.2,45.3-34.2c17.5,0,33.3,9.5,41.5,24.9
	c1.3-0.1,2.5-0.2,3.7-0.2c19.2,0,34.9,15.6,34.9,34.9C144.6,175.6,129,191.2,109.7,191.2z"/>
<path class="st0" d="M109.7,191.2c-1.3,0-2.3-1-2.3-2.3c0-1.3,1-2.3,2.3-2.3c16.6,0,30.2-13.5,30.2-30.2c0-16.6-13.5-30.2-30.2-30.2
	c-8.7,0-17,3.8-22.7,10.3c-0.8,1-2.3,1.1-3.3,0.2c-1-0.8-1.1-2.3-0.2-3.3c6.6-7.6,16.2-11.9,26.3-11.9c19.2,0,34.9,15.6,34.9,34.9
	C144.6,175.6,129,191.2,109.7,191.2z"/>
<path class="st7" d="M1834.2,476.4c-14.1,0-25.5,11.4-25.5,25.5s11.4,25.5,25.5,25.5h89.8c16.6,0,30.2-13.5,30.2-30.2
	c0-16.6-13.5-30.2-30.2-30.2c-1.4,0-2.9,0.1-4.6,0.4c-1,0.1-2-0.4-2.4-1.3c-7.2-14.7-21.8-23.8-38.1-23.8
	c-19.6,0-36.5,13.3-41.2,32.3c-0.3,1.1-1.2,1.8-2.3,1.8L1834.2,476.4z M1923.9,532h-89.8c-16.6,0-30.2-13.5-30.2-30.2
	c0-16.4,13.2-29.8,29.5-30.2c5.8-20.1,24.2-34.1,45.3-34.1c17.5,0,33.3,9.5,41.5,24.9c1.3-0.1,2.5-0.2,3.7-0.2
	c19.2,0,34.9,15.6,34.9,34.9C1958.8,516.4,1943.2,532,1923.9,532z"/>
<path class="st7" d="M1923.9,532c-1.3,0-2.3-1-2.3-2.3s1-2.3,2.3-2.3c16.6,0,30.2-13.5,30.2-30.2c0-16.6-13.5-30.2-30.2-30.2
	c-8.7,0-17,3.8-22.7,10.3c-0.8,1-2.3,1.1-3.3,0.2c-1-0.8-1.1-2.3-0.2-3.3c6.6-7.6,16.2-11.9,26.3-11.9c19.2,0,34.9,15.6,34.9,34.9
	C1958.8,516.3,1943.2,532,1923.9,532z"/>
<path class="st7" d="M1956.7,499.2c-1.3,0-2.3-1-2.3-2.3c0-1.3,1-2.3,2.3-2.3c16.6,0,30.2-13.5,30.2-30.2
	c0-16.6-13.5-30.2-30.2-30.2c-1.4,0-2.9,0.1-4.6,0.4c-1,0.1-2-0.4-2.4-1.3c-7.2-14.7-21.8-23.8-38.1-23.8
	c-19.6,0-36.5,13.3-41.2,32.3c-0.3,1.1-1.2,1.8-2.3,1.8l-0.6,0c-1.3,0-2.6-1.1-2.6-2.4c0-1,0.5-1.9,1.4-2.2
	c5.8-20.2,24.2-34.2,45.3-34.2c17.5,0,33.3,9.5,41.5,24.9c1.3-0.1,2.5-0.2,3.7-0.2c19.2,0,34.9,15.6,34.9,34.9
	C1991.6,483.6,1976,499.2,1956.7,499.2z"/>
</svg>
