<svg xmlns="http://www.w3.org/2000/svg" viewBox="0 0 854.965 635">
  <defs>
    <style>
      .cls-1 {
        fill: #fff;
      }

      .cls-2 {
        fill: #f2f1f9;
      }

      .cls-3 {
        opacity: 0.15;
      }

      .cls-4 {
        fill: #4754fc;
      }

      .cls-5 {
        fill: #5677fc;
      }

      .cls-6 {
        fill: #39cdfd;
      }

      .cls-7 {
        fill: #f9cdb9;
      }

      .cls-8 {
        fill: #39eafd;
      }

      .cls-9 {
        fill: #f4a480;
      }

      .cls-10 {
        fill: #384c82;
      }

      .cls-11 {
        fill: #f6b190;
      }

      .cls-12 {
        fill: #f8c3a9;
      }

      .cls-13 {
        fill: #f090a9;
      }
    </style>
  </defs>
  <g id="search-bcg-blue" transform="translate(-30 -62.2)">
    <g id="BACKGROUND" transform="translate(457.482 205.407)">
      <rect id="Rectangle_34" data-name="Rectangle 34" class="cls-1" width="314.325" height="314.325"/>
    </g>
    <g id="OBJECTS" transform="translate(30 62.2)">
      <ellipse id="Ellipse_25" data-name="Ellipse 25" class="cls-2" cx="427.482" cy="80.593" rx="427.482" ry="80.593" transform="translate(0 473.814)"/>
      <g id="Group_861" data-name="Group 861" class="cls-3" transform="translate(132.205)">
        <g id="Group_850" data-name="Group 850" transform="translate(425.534)">
          <g id="Group_848" data-name="Group 848">
            <path id="Path_998" data-name="Path 998" class="cls-4" d="M940.523,62.2a23.323,23.323,0,1,0,23.323,23.323A23.315,23.315,0,0,0,940.523,62.2Zm0,39.416a16.093,16.093,0,1,1,16.093-16.093A16.084,16.084,0,0,1,940.523,101.616Z" transform="translate(-917.2 -62.2)"/>
          </g>
          <g id="Group_849" data-name="Group 849" transform="translate(23.826 0.063)">
            <path id="Path_999" data-name="Path 999" class="cls-4" d="M970.691,85.309h7.229A23.27,23.27,0,0,0,955.1,62.3v7.229A16.045,16.045,0,0,1,970.691,85.309Z" transform="translate(-955.1 -62.3)"/>
          </g>
        </g>
        <g id="Group_851" data-name="Group 851" transform="translate(395.861 133.903)">
          <rect id="Rectangle_35" data-name="Rectangle 35" class="cls-4" width="7.921" height="51.235"/>
          <rect id="Rectangle_36" data-name="Rectangle 36" class="cls-4" width="7.921" height="34.01" transform="translate(12.384 17.225)"/>
          <rect id="Rectangle_37" data-name="Rectangle 37" class="cls-4" width="7.921" height="17.791" transform="translate(24.832 33.444)"/>
        </g>
        <g id="Group_852" data-name="Group 852" transform="translate(236.938 20.557)">
          <path id="Path_1000" data-name="Path 1000" class="cls-4" d="M750.61,94.9H678.692a7.3,7.3,0,0,0-7.292,7.292v33.256a7.3,7.3,0,0,0,7.292,7.292h62.8l7.8,16.534V142.74h1.32a7.3,7.3,0,0,0,7.292-7.292V102.192A7.338,7.338,0,0,0,750.61,94.9Z" transform="translate(-637.327 -94.9)"/>
          <path id="Path_1001" data-name="Path 1001" class="cls-4" d="M624.492,129.6H696.41a7.3,7.3,0,0,1,7.292,7.292v33.256a7.3,7.3,0,0,1-7.292,7.292h-62.8l-7.8,16.534V177.44h-1.32a7.3,7.3,0,0,1-7.292-7.292V136.892A7.3,7.3,0,0,1,624.492,129.6Z" transform="translate(-617.2 -107.786)"/>
        </g>
        <g id="Group_855" data-name="Group 855" transform="translate(0 55.007)">
          <g id="Group_853" data-name="Group 853" transform="translate(0 19.802)">
            <path id="Path_1002" data-name="Path 1002" class="cls-4" d="M283.174,201.631l-.88-5.155-5.218.88a16.6,16.6,0,0,0-3.9-6.287l3.08-4.338-4.275-3.018-3.08,4.338a15.649,15.649,0,0,0-7.229-1.634l-.943-5.218-5.155.88.88,5.218a16.6,16.6,0,0,0-6.286,3.9l-4.338-3.08-3.018,4.275,4.338,3.08a15.649,15.649,0,0,0-1.634,7.229l-5.218.943.88,5.155,5.218-.88a16.6,16.6,0,0,0,3.9,6.286l-3.08,4.338,4.275,3.018,3.08-4.338a15.65,15.65,0,0,0,7.229,1.634l.943,5.218,5.155-.88-.88-5.218a16.6,16.6,0,0,0,6.286-3.9l4.338,3.08,3.018-4.275-4.338-3.08a15.649,15.649,0,0,0,1.634-7.229Zm-20.683,5.784a4.883,4.883,0,1,1,3.96-5.658A4.787,4.787,0,0,1,262.491,207.415Z" transform="translate(-240.3 -181.2)"/>
          </g>
          <g id="Group_854" data-name="Group 854" transform="translate(39.291)">
            <path id="Path_1003" data-name="Path 1003" class="cls-4" d="M355.732,179.5V172.96h-6.6a19.9,19.9,0,0,0-3.458-8.487l4.652-4.652-4.589-4.589-4.652,4.652A20.911,20.911,0,0,0,332.6,156.3v-6.6H326.06v6.6a19.9,19.9,0,0,0-8.487,3.458l-4.652-4.652-4.589,4.589,4.652,4.652a20.911,20.911,0,0,0-3.583,8.487h-6.6v6.538h6.6a19.9,19.9,0,0,0,3.458,8.487l-4.652,4.652L312.8,197.1l4.652-4.652a20.911,20.911,0,0,0,8.487,3.583v6.6h6.538v-6.6a19.9,19.9,0,0,0,8.487-3.458l4.652,4.652,4.589-4.589-4.652-4.652a20.912,20.912,0,0,0,3.583-8.487Zm-26.466,2.7a6.035,6.035,0,1,1,6.035-6.035A6.037,6.037,0,0,1,329.266,182.2Z" transform="translate(-302.8 -149.7)"/>
          </g>
        </g>
        <g id="Group_858" data-name="Group 858" transform="translate(488.839 55.007)">
          <g id="Group_856" data-name="Group 856" transform="translate(49.349 19.802)">
            <path id="Path_1004" data-name="Path 1004" class="cls-4" d="M1101.618,202.574a16.477,16.477,0,0,0,1.635,7.229l-4.338,3.08,3.017,4.275,4.338-3.08a15.431,15.431,0,0,0,6.286,3.9l-.88,5.218,5.155.88.943-5.218a16.478,16.478,0,0,0,7.229-1.634l3.08,4.338,4.275-3.018-3.08-4.338a15.431,15.431,0,0,0,3.9-6.286l5.218.88.88-5.155-5.218-.943a16.479,16.479,0,0,0-1.634-7.229l4.338-3.08-3.018-4.275-4.338,3.08a15.433,15.433,0,0,0-6.286-3.9l.88-5.218-5.155-.88-.943,5.218a16.478,16.478,0,0,0-7.229,1.634l-3.08-4.338-4.275,3.018,3.08,4.338a15.432,15.432,0,0,0-3.9,6.287l-5.218-.88-.88,5.155Zm11.442-.754a4.884,4.884,0,1,1,3.961,5.658A4.944,4.944,0,0,1,1113.059,201.82Z" transform="translate(-1096.4 -181.2)"/>
          </g>
          <g id="Group_857" data-name="Group 857">
            <path id="Path_1005" data-name="Path 1005" class="cls-4" d="M1024.5,179.5a19.325,19.325,0,0,0,3.583,8.487l-4.652,4.652,4.589,4.589,4.652-4.652a19.9,19.9,0,0,0,8.487,3.458v6.6h6.538v-6.6a19.323,19.323,0,0,0,8.487-3.583l4.652,4.652,4.589-4.589-4.652-4.652a19.9,19.9,0,0,0,3.458-8.487h6.6v-6.538h-6.6a19.325,19.325,0,0,0-3.583-8.487l4.652-4.652-4.589-4.589-4.652,4.652a19.9,19.9,0,0,0-8.487-3.458v-6.6h-6.538v6.6a19.324,19.324,0,0,0-8.487,3.583l-4.652-4.652-4.589,4.589,4.652,4.652a19.9,19.9,0,0,0-3.458,8.487h-6.6V179.5Zm13.83-3.332a6.035,6.035,0,1,1,6.035,6.035A6.037,6.037,0,0,1,1038.331,176.166Z" transform="translate(-1017.9 -149.7)"/>
          </g>
        </g>
        <path id="Path_1006" data-name="Path 1006" class="cls-4" d="M893.892,186.877l1.257,4.275a.567.567,0,0,0,.377.377l4.275,1.257a.524.524,0,0,1,0,1.006l-4.275,1.257a.567.567,0,0,0-.377.377l-1.257,4.275a.524.524,0,0,1-1.006,0l-1.257-4.275a.567.567,0,0,0-.377-.377l-4.275-1.257a.524.524,0,0,1,0-1.006l4.275-1.257a.567.567,0,0,0,.377-.377l1.257-4.275A.524.524,0,0,1,893.892,186.877Z" transform="translate(-480.303 -108.359)"/>
        <path id="Path_1007" data-name="Path 1007" class="cls-4" d="M473.3,95.394l1.823,6.161a.682.682,0,0,0,.5.5l6.161,1.823a.745.745,0,0,1,0,1.446l-6.161,1.823a.682.682,0,0,0-.5.5l-1.823,6.161a.745.745,0,0,1-1.446,0l-1.823-6.161a.682.682,0,0,0-.5-.5l-6.161-1.823a.745.745,0,0,1,0-1.446l6.161-1.823a.682.682,0,0,0,.5-.5l1.823-6.161A.763.763,0,0,1,473.3,95.394Z" transform="translate(-322.925 -74.334)"/>
        <path id="Path_1008" data-name="Path 1008" class="cls-4" d="M400.192,265.777l1.257,4.275a.567.567,0,0,0,.377.377l4.275,1.257a.524.524,0,0,1,0,1.006l-4.275,1.257a.567.567,0,0,0-.377.377l-1.257,4.275a.524.524,0,0,1-1.006,0l-1.257-4.275a.567.567,0,0,0-.377-.377l-4.275-1.257a.524.524,0,0,1,0-1.006l4.275-1.257a.567.567,0,0,0,.377-.377l1.257-4.275A.524.524,0,0,1,400.192,265.777Z" transform="translate(-296.968 -137.658)"/>
        <path id="Path_1009" data-name="Path 1009" class="cls-4" d="M872.792,418.777l1.257,4.275a.567.567,0,0,0,.377.377l4.275,1.257a.524.524,0,0,1,0,1.006l-4.275,1.257a.567.567,0,0,0-.377.377l-1.257,4.275a.524.524,0,0,1-1.006,0l-1.257-4.275a.566.566,0,0,0-.377-.377l-4.275-1.257a.524.524,0,0,1,0-1.006l4.275-1.257a.566.566,0,0,0,.377-.377l1.257-4.275A.524.524,0,0,1,872.792,418.777Z" transform="translate(-472.468 -194.475)"/>
        <path id="Path_1010" data-name="Path 1010" class="cls-4" d="M529.674,464.061l.88,3.018a.491.491,0,0,0,.251.251l3.018.88a.353.353,0,0,1,0,.692l-3.018.88a.491.491,0,0,0-.251.251l-.88,3.018a.353.353,0,0,1-.692,0l-.88-3.018a.491.491,0,0,0-.251-.251l-3.018-.88a.353.353,0,0,1,0-.692l3.018-.88a.491.491,0,0,0,.251-.251l.88-3.018C529.045,463.746,529.548,463.746,529.674,464.061Z" transform="translate(-345.856 -211.343)"/>
        <path id="Path_1011" data-name="Path 1011" class="cls-4" d="M1005.874,288.933l.88,3.018a.491.491,0,0,0,.251.251l3.017.88a.353.353,0,0,1,0,.692l-3.017.88a.491.491,0,0,0-.251.251l-.88,3.018a.353.353,0,0,1-.692,0l-.88-3.018a.491.491,0,0,0-.251-.251l-3.018-.88a.353.353,0,0,1,0-.692l3.018-.88a.491.491,0,0,0,.251-.251l.88-3.018A.353.353,0,0,1,1005.874,288.933Z" transform="translate(-522.693 -146.292)"/>
        <path id="Path_1012" data-name="Path 1012" class="cls-4" d="M588.974,304.661l.88,3.018a.491.491,0,0,0,.251.251l3.018.88a.353.353,0,0,1,0,.692l-3.018.88a.491.491,0,0,0-.251.251l-.88,3.018a.353.353,0,0,1-.692,0l-.88-3.018a.491.491,0,0,0-.251-.251l-3.018-.88a.353.353,0,0,1,0-.692l3.018-.88a.491.491,0,0,0,.251-.251l.88-3.018C588.345,304.346,588.848,304.346,588.974,304.661Z" transform="translate(-367.877 -152.15)"/>
        <path id="Path_1013" data-name="Path 1013" class="cls-4" d="M421.073,368.833l.88,3.018a.491.491,0,0,0,.251.251l3.018.88a.353.353,0,0,1,0,.691l-3.018.88a.491.491,0,0,0-.251.251l-.88,3.018a.353.353,0,0,1-.691,0l-.88-3.018a.491.491,0,0,0-.251-.251l-3.018-.88a.353.353,0,0,1,0-.691l3.018-.88a.491.491,0,0,0,.251-.251l.88-3.018A.353.353,0,0,1,421.073,368.833Z" transform="translate(-305.528 -175.963)"/>
        <g id="Group_860" data-name="Group 860" transform="translate(149.662 117.708)">
          <g id="Group_859" data-name="Group 859" transform="translate(5.392 12.577)">
            <path id="Path_1014" data-name="Path 1014" class="cls-4" d="M512.189,279.287a12.793,12.793,0,1,0-15.465,15.4c.251.691.754,4.841,1.572,6.224.377.629.88.692,1.634.566.629,2.137,3.143,4.149,5.218,3.9a3.57,3.57,0,0,0,3.018-2.515,19.889,19.889,0,0,0,.88-3.458c1.006,0,1.509-.126,1.446-1.069-.063-1.634-1.823-6.1-1.886-6.789A12.917,12.917,0,0,0,512.189,279.287Z" transform="translate(-486.946 -269.446)"/>
            <path id="Path_1015" data-name="Path 1015" class="cls-4" d="M509.993,283.793a1.423,1.423,0,0,0-1.634-1.006,1.4,1.4,0,0,0-1.006,1.634,1.529,1.529,0,0,0,.817.943c-.251,1.823-.629,3.583-.754,5.406a32.508,32.508,0,0,1-.629,4.966c-2.012-3.018-4.023-6.035-6.224-8.927a.971.971,0,0,0-.88-1.634c-1.194.314-.754,2.2.44,1.886h0a88.723,88.723,0,0,1,6.412,10.121.485.485,0,0,0,.88-.063,24.233,24.233,0,0,0,.943-5.6c.126-2.075.566-4.086.691-6.1A1.425,1.425,0,0,0,509.993,283.793Z" transform="translate(-491.414 -274.392)"/>
          </g>
          <path id="Path_1016" data-name="Path 1016" class="cls-4" d="M486.875,264.2c-2.577-1.257-5.218-2.577-7.8-3.835-.5-.251-1.006.5-.5.817,2.515,1.383,5.092,2.766,7.607,4.149C486.938,265.714,487.63,264.582,486.875,264.2Z" transform="translate(-478.369 -253.48)"/>
          <path id="Path_1017" data-name="Path 1017" class="cls-4" d="M499.252,250.775c-.189-.44-.817-.126-.754.314a49.66,49.66,0,0,0,2.075,7.984c.189.629,1.194.44,1.006-.251A54.187,54.187,0,0,0,499.252,250.775Z" transform="translate(-485.842 -249.856)"/>
          <path id="Path_1018" data-name="Path 1018" class="cls-4" d="M517.271,249.54a7.917,7.917,0,0,0-1.509,2.263c-.44.817-.817,1.634-1.194,2.515-.314.692.817,1.069,1.132.314a18.073,18.073,0,0,1,1.132-2.515,12.08,12.08,0,0,0,1.132-2.2A.42.42,0,0,0,517.271,249.54Z" transform="translate(-491.791 -249.439)"/>
        </g>
      </g>
      <g id="Group_877" data-name="Group 877" transform="translate(332.579 136.859)">
        <g id="Group_865" data-name="Group 865" transform="translate(20.345 220.151)">
          <g id="Group_863" data-name="Group 863" transform="translate(6.098 33.947)">
            <path id="Path_1019" data-name="Path 1019" class="cls-5" d="M698.088,795.748,693.624,684.1h-6.161L683,795.748Z" transform="translate(-631.513 -684.1)"/>
            <g id="Group_862" data-name="Group 862" transform="translate(0 0.629)">
              <path id="Path_1020" data-name="Path 1020" class="cls-5" d="M616.691,781.912l18.482-95.492-6.035-1.32L601.1,781.912Z" transform="translate(-601.1 -685.1)"/>
              <path id="Path_1021" data-name="Path 1021" class="cls-5" d="M768.71,781.912,740.735,685.1l-6.035,1.32,18.419,95.492Z" transform="translate(-650.712 -685.1)"/>
            </g>
          </g>
          <g id="Group_864" data-name="Group 864">
            <path id="Path_1022" data-name="Path 1022" class="cls-4" d="M721.656,647.074c0-9.367-29.169-16.974-65.128-16.974S591.4,637.707,591.4,647.074v6.6c0,9.367,29.169,16.974,65.128,16.974s65.128-7.607,65.128-16.974Z" transform="translate(-591.4 -630.1)"/>
            <ellipse id="Ellipse_26" data-name="Ellipse 26" class="cls-5" cx="65.128" cy="16.974" rx="65.128" ry="16.974"/>
          </g>
        </g>
        <g id="Group_876" data-name="Group 876" transform="translate(0)">
          <g id="Group_872" data-name="Group 872" transform="translate(27.383)">
            <path id="Path_1023" data-name="Path 1023" class="cls-5" d="M727.637,370.3a47.328,47.328,0,0,0-9.744-25.523,59.979,59.979,0,0,0-10.561-10.561c-2.326-1.823-6.035-4.149-7.481-6.915-1.634-3.143.314-7.984.754-11.5a32.163,32.163,0,0,0-25.46-35.016,38.585,38.585,0,0,0-5.406-.754c-21.5-1.572-42.874,11.944-40.045,35.77.44,3.52,2.326,8.361.754,11.5-1.446,2.766-5.155,5.092-7.481,6.915A57.924,57.924,0,0,0,612.4,344.778a46.838,46.838,0,0,0-9.744,25.523,39.227,39.227,0,0,0,29.169,40.548c12.95,3.395,28.666,2.515,42.057,2.326,13.956-.189,30.49-1.509,41.177-11.316A40.03,40.03,0,0,0,727.637,370.3Z" transform="translate(-602.595 -279.904)"/>
            <path id="Path_1024" data-name="Path 1024" class="cls-6" d="M718.017,449.825c.566-3.52,1.194-7.041,1.76-10.561,1.509-9.43,2.326-21.626-6.035-28.352-4.9-3.96-11.253-4.212-17.288-4.212H676.338a36.832,36.832,0,0,0-9.493.817c-7.921,2.137-12.762,11.316-13.893,18.922-1.823,12.007,2.766,23.072,4.652,34.7a118.152,118.152,0,0,1-.691,42.308c-.251,1.257-2.577,13.265-3.458,13.265,11.127,0,22.191-.063,33.318-.063s22.191.063,33.318.063c-1.76,0-4.526-19.614-4.778-21.688C713.365,479.372,715.566,464.787,718.017,449.825Z" transform="translate(-621.139 -326.989)"/>
            <path id="Path_1025" data-name="Path 1025" class="cls-1" d="M709.548,511.073s5.784-45.577,7.544-55.824c.189-.943-30.678-5.406-50.292,0,3.269,18.545,5.406,37.09,7.292,55.761C685.722,509.061,697.792,510.255,709.548,511.073Z" transform="translate(-626.437 -344.043)"/>
            <g id="Group_866" data-name="Group 866" transform="translate(4.926 83.42)">
              <path id="Path_1026" data-name="Path 1026" class="cls-7" d="M688.78,493.217a2.431,2.431,0,0,0-2.012-.44c-6.349.943-10.813,5.469-14.019,10.687a18.529,18.529,0,0,0-1.257-3.269c-.5-1.006-1.823-.251-1.7.692.44,2.829.44,7.67,2.7,9.807,1.635,1.572,4.086,1.446,6.161,1.006,5.218-1.069,7.418-5.846,9.241-10.373C688.655,499.441,690.918,495.04,688.78,493.217Z" transform="translate(-632.472 -442.359)"/>
              <path id="Path_1027" data-name="Path 1027" class="cls-8" d="M646.684,473.076a117.586,117.586,0,0,1-17.225,18.105c-.44-14.459,3.143-28.226,9.744-41.365-2.2-20.683,1.069-27.472,6.538-37.216-12.762,11.316-24.2,30.678-29.672,46.269-6.538,18.482-7.921,38.473-1.32,57.144a3.4,3.4,0,0,0,2.389,2.389c4.778.88,9.618-1.257,13.956-4.338a2.834,2.834,0,0,0,.88-.629c3.772-2.766,7.292-6.161,10.184-8.738A114.65,114.65,0,0,0,661.458,482,50.172,50.172,0,0,1,646.684,473.076Z" transform="translate(-610.43 -412.6)"/>
            </g>
            <g id="Group_867" data-name="Group 867" transform="translate(69.077 83.545)">
              <path id="Path_1028" data-name="Path 1028" class="cls-7" d="M713.371,493.217a2.431,2.431,0,0,1,2.012-.44c6.349.943,10.813,5.469,14.019,10.687a18.529,18.529,0,0,1,1.257-3.269c.5-1.006,1.823-.251,1.7.692-.44,2.829-.44,7.67-2.7,9.807-1.634,1.572-4.086,1.446-6.161,1.006-5.218-1.069-7.418-5.846-9.241-10.373C713.5,499.441,711.234,495.04,713.371,493.217Z" transform="translate(-712.476 -442.485)"/>
              <path id="Path_1029" data-name="Path 1029" class="cls-8" d="M738.91,473.213a117.585,117.585,0,0,0,17.225,18.105c.44-14.459-4.463-29.3-11-42.434,0,0,3.961-23.7-5.218-36.085,14.4,10.813,24.2,30.678,29.672,46.269,6.538,18.482,7.921,38.473,1.32,57.144a3.4,3.4,0,0,1-2.389,2.389c-4.778.88-9.618-1.257-13.956-4.338a2.833,2.833,0,0,1-.88-.629c-3.772-2.766-7.292-6.161-10.184-8.738A114.647,114.647,0,0,1,724.2,482.2,52.3,52.3,0,0,0,738.91,473.213Z" transform="translate(-716.83 -412.8)"/>
            </g>
            <g id="Group_871" data-name="Group 871" transform="translate(34.076 14.353)">
              <path id="Path_1030" data-name="Path 1030" class="cls-7" d="M708.271,318.309a28.6,28.6,0,0,0-3.583-5.092c-10.687-11.756-28.981-11.63-38.662,1.383-5.218,7.041-6.915,16.219-5.972,24.895.88,7.984,3.961,15.842,9.43,21.626,2.389,2.515,6.664,5.029,9.43,6.349.063,9.807-.063,19.991,8.738,19.991,13.139,0,9.178-14.27,10-20.243a32.3,32.3,0,0,0,10.373-10.624C714.18,345.4,714.495,329.624,708.271,318.309Z" transform="translate(-657.916 -303.432)"/>
              <g id="Group_870" data-name="Group 870" transform="translate(7.423 33.146)">
                <g id="Group_868" data-name="Group 868" transform="translate(9.652 19.878)">
                  <path id="Path_1031" data-name="Path 1031" class="cls-9" d="M706.932,388.35a4.314,4.314,0,0,0-3.458-.943c-2.075.251-4.149.943-6.224,1.006a28.468,28.468,0,0,1-6.1-.817c-1.823-.314-5.532-1.257-6.789.629-2.012,3.143,4.086,6.349,6.349,6.915,5.029,1.257,10.247,1.006,14.459-2.2C706.555,392,708.566,390.048,706.932,388.35Z" transform="translate(-683.962 -387.081)"/>
                  <path id="Path_1032" data-name="Path 1032" class="cls-1" d="M707.346,388.665a.627.627,0,0,0-.252-.314,4.314,4.314,0,0,0-3.458-.943c-2.075.251-4.149.943-6.224,1.006a28.468,28.468,0,0,1-6.1-.817c-1.823-.314-5.532-1.257-6.789.629-.063.126-.063.189-.126.314C692.007,390.991,699.8,390.613,707.346,388.665Z" transform="translate(-684.125 -387.081)"/>
                </g>
                <g id="Group_869" data-name="Group 869" transform="translate(0.068)">
                  <path id="Path_1033" data-name="Path 1033" class="cls-10" d="M683.794,359.572c-3.332-5.784-11.064-5.029-14.962-.44-.377.5.252,1.132.692.692,3.961-3.583,9.618-4.212,12.887.5A.788.788,0,0,0,683.794,359.572Z" transform="translate(-668.716 -355.461)"/>
                  <path id="Path_1034" data-name="Path 1034" class="cls-10" d="M710.134,359.572c3.332-5.784,11.064-5.029,14.962-.44.377.5-.251,1.132-.692.692-3.96-3.583-9.618-4.212-12.887.5A.788.788,0,0,1,710.134,359.572Z" transform="translate(-684.055 -355.461)"/>
                </g>
                <path id="Path_1035" data-name="Path 1035" class="cls-11" d="M701.922,371.507a12.154,12.154,0,0,0-.251-3.018c-.377-.691-1.383-1.76-1.949-.314-.88,2.263-1.509,4.589-2.515,6.789-.44.943.063,2.452,1.32,2.326,2.829-.251,3.52-2.515,3.395-4.966Z" transform="translate(-679.17 -359.916)"/>
                <path id="Path_1036" data-name="Path 1036" class="cls-12" d="M725.59,369.426a2.858,2.858,0,0,0-1.32-1.257,6.962,6.962,0,0,0-2.263-.5c-2.64-.189-11-.189-8.99,4.526.88,2.075,3.772,2.326,5.721,2.389,2.012.063,4.966-.189,6.412-1.823A2.868,2.868,0,0,0,725.59,369.426Z" transform="translate(-684.985 -359.972)"/>
                <path id="Path_1037" data-name="Path 1037" class="cls-12" d="M681.49,369.426a2.858,2.858,0,0,0-1.32-1.257,6.963,6.963,0,0,0-2.263-.5c-2.64-.189-11-.189-8.99,4.526.88,2.075,3.772,2.326,5.721,2.389,2.012.063,4.966-.189,6.412-1.823A2.868,2.868,0,0,0,681.49,369.426Z" transform="translate(-668.608 -359.972)"/>
              </g>
              <path id="Path_1038" data-name="Path 1038" class="cls-5" d="M695.211,315.1c3.52,8.864,10.31,13.893,18.231,17.225a40.826,40.826,0,0,0-4.526-14.836,29.907,29.907,0,0,0-3.9-5.469c-11.441-12.7-31.181-12.51-41.554,1.446-4.338,5.784-6.349,13.013-6.664,20.243C687.918,335.591,694.959,314.406,695.211,315.1Z" transform="translate(-656.8 -302.735)"/>
            </g>
          </g>
          <g id="Group_875" data-name="Group 875" transform="translate(0 201.857)">
            <g id="Group_873" data-name="Group 873">
              <path id="Path_1039" data-name="Path 1039" class="cls-5" d="M732.773,640.668C720.2,626.586,696.059,607.538,682.858,601h-68.9c-13.2,6.538-37.279,25.586-49.915,39.668a19.777,19.777,0,0,0-4.526,17.539c8.361,36.839,57.459,112.528,57.459,112.528h9.115c-2.7-4.966-33.381-102.281-25.838-115.357,4.966-8.675,32.753-15.025,45.137-16.031a2.7,2.7,0,0,0,1.006,0,9.7,9.7,0,0,1,1.509-.126h.88a9.028,9.028,0,0,1,1.509.126,2.7,2.7,0,0,0,1.006,0c12.384,1.006,40.171,7.355,45.137,16.031C703.98,668.517,673.3,765.769,670.6,770.736h9.115s49.1-75.69,57.459-112.528A19.357,19.357,0,0,0,732.773,640.668Z" transform="translate(-559.036 -601)"/>
              <path id="Path_1040" data-name="Path 1040" class="cls-4" d="M643,602.4h-6.475c-24.392,18.734-45.011,35.393-55.573,47.212a6.913,6.913,0,0,0-1.572,6.286c2.892,12.824,37.53,96.246,47.715,115.294-14.773-37.845-46.772-113.031-43.5-118.752C593.838,634.461,643,602.4,643,602.4Z" transform="translate(-566.514 -601.52)"/>
              <path id="Path_1041" data-name="Path 1041" class="cls-4" d="M723.3,602.4h6.475c24.392,18.734,45.011,35.393,55.573,47.212a6.913,6.913,0,0,1,1.572,6.286c-2.892,12.824-37.53,96.246-47.715,115.294,14.773-37.845,46.772-113.031,43.5-118.752C772.46,634.461,723.3,602.4,723.3,602.4Z" transform="translate(-620.036 -601.52)"/>
            </g>
            <g id="Group_874" data-name="Group 874" transform="translate(40.624 167.21)">
              <path id="Path_1042" data-name="Path 1042" class="cls-4" d="M649.9,867.874a3.357,3.357,0,0,0-.691-.314c-2.829-1.132-6.035-.314-8.927.063-5.658.754-12.322,2.263-16.093,6.978a2.008,2.008,0,0,0-.314,2.263c1.823,3.458,7.355,1.886,10.373,1.069a68.175,68.175,0,0,0,16.471-6.349C652.728,870.451,651.345,868.754,649.9,867.874Z" transform="translate(-623.657 -866.982)"/>
              <path id="Path_1043" data-name="Path 1043" class="cls-4" d="M736.522,867.874a3.358,3.358,0,0,1,.692-.314c2.829-1.132,6.035-.314,8.927.063,5.658.754,12.322,2.263,16.093,6.978a2.008,2.008,0,0,1,.314,2.263c-1.823,3.458-7.355,1.886-10.373,1.069a68.176,68.176,0,0,1-16.471-6.349C733.693,870.451,735.076,868.754,736.522,867.874Z" transform="translate(-664.891 -866.982)"/>
            </g>
          </g>
        </g>
      </g>
      <g id="Group_895" data-name="Group 895" transform="translate(537.391 151.625)">
        <g id="Group_880" data-name="Group 880" transform="translate(43.734 253.855)">
          <g id="Group_879" data-name="Group 879">
            <g id="Group_878" data-name="Group 878">
              <path id="Path_1044" data-name="Path 1044" class="cls-6" d="M983.569,707.2c1.446,24.58,3.206,110.768,5.721,116.237h-6.538S964.018,746.616,954.4,707.2Z" transform="translate(-954.4 -707.2)"/>
              <path id="Path_1045" data-name="Path 1045" class="cls-8" d="M982.078,707.2c4.589,39.479,14.71,114.226,14.71,114.226l-3.018-.063S983.524,749.068,977.3,707.2Z" transform="translate(-962.904 -707.2)"/>
            </g>
          </g>
          <path id="Path_1046" data-name="Path 1046" class="cls-4" d="M996.838,890.721a2.2,2.2,0,0,1-2.137,2.326,150.316,150.316,0,0,0-16.031,1.383c-1.949.314-7.292,1.823-6.978-2.012.251-3.269,5.155-3.269,7.418-3.269,4.778,0,10.876-.189,15.653-.251A1.816,1.816,0,0,1,996.838,890.721Z" transform="translate(-960.816 -774.672)"/>
        </g>
        <g id="Group_894" data-name="Group 894">
          <g id="Group_884" data-name="Group 884" transform="translate(57.627 247.191)">
            <g id="Group_882" data-name="Group 882" transform="translate(6.098 34.01)">
              <path id="Path_1047" data-name="Path 1047" class="cls-5" d="M1068.1,862.348l4.4-111.648h6.224l4.463,111.648Z" transform="translate(-1016.614 -750.7)"/>
              <g id="Group_881" data-name="Group 881" transform="translate(0 0.566)">
                <path id="Path_1048" data-name="Path 1048" class="cls-5" d="M1138.219,848.412,1119.8,752.92l6.035-1.32,27.975,96.812Z" transform="translate(-1035.812 -751.6)"/>
                <path id="Path_1049" data-name="Path 1049" class="cls-5" d="M986.2,848.412l27.975-96.812,6.1,1.32-18.419,95.492Z" transform="translate(-986.2 -751.6)"/>
              </g>
            </g>
            <g id="Group_883" data-name="Group 883">
              <path id="Path_1050" data-name="Path 1050" class="cls-4" d="M976.5,713.574c0-9.367,29.169-16.974,65.128-16.974s65.128,7.607,65.128,16.974v6.6c0,9.367-29.169,16.974-65.128,16.974S976.5,729.541,976.5,720.174Z" transform="translate(-976.5 -696.6)"/>
              <ellipse id="Ellipse_27" data-name="Ellipse 27" class="cls-5" cx="65.128" cy="16.974" rx="65.128" ry="16.974"/>
            </g>
          </g>
          <g id="Group_893" data-name="Group 893">
            <g id="Group_885" data-name="Group 885" transform="translate(0 190.298)">
              <path id="Path_1051" data-name="Path 1051" class="cls-8" d="M901.22,634.578c26.718-.943,60.79-4.338,75-6.035,1.132-3.458,5.406-18.922,6.412-22.443l45.892,6.664c8.675,11.881,21,31.5,23.009,46.08,1.635,12.133-4.9,26.089-19.111,26.718a34.569,34.569,0,0,0-9.053,1.823c-23.637,7.355-99.83-13.39-104.1-16.408,1.572,7.1,3.458,116.175,6.286,122.4h-6.538s-29.8-122.084-33.57-137.486C882.989,646.271,887.893,635.081,901.22,634.578Z" transform="translate(-884.833 -606.1)"/>
              <path id="Path_1052" data-name="Path 1052" class="cls-6" d="M1100.375,635.592a62.673,62.673,0,0,1,9.744,57.4c-.377,1.194-2.263.691-1.886-.5a62.428,62.428,0,0,0-8.675-56.453C1099.244,635.592,1100.061,635.152,1100.375,635.592Z" transform="translate(-964.545 -616.984)"/>
              <path id="Path_1053" data-name="Path 1053" class="cls-6" d="M915.64,650.9c5.532-.88,75.061,15.779,76.758,15.9,3.835.314,4.9-4.338,5.532-6.915,1.823-7.167,2.012-14.71,3.458-21.94.063-.377.189-.754.251-1.132h-.063a27.907,27.907,0,0,1-7.8-27.535.976.976,0,0,1,1.886.5,29.551,29.551,0,0,0,6.224,25.649,145,145,0,0,1,5.846-19.74c.189-.566,1.132-.314.943.251-4.338,13.579-5.658,27.095-7.8,41.051-.566,3.709-1.257,10.75-5.532,12.322-3.961,1.446-65.82-10.876-72.295-13.956-1.634-.754-3.52-1.572-5.469-1.132-1.949.377,16.785,138.052,16.785,138.052l-3.018-.063s-14.9-104.985-19.614-135.16C911.113,653.1,913.628,651.212,915.64,650.9Z" transform="translate(-894.789 -607.017)"/>
            </g>
            <g id="Group_892" data-name="Group 892" transform="translate(23.68)">
              <g id="Group_888" data-name="Group 888" transform="translate(79.545)">
                <g id="Group_887" data-name="Group 887" transform="translate(0.042 26.909)">
                  <g id="Group_886" data-name="Group 886">
                    <path id="Path_1054" data-name="Path 1054" class="cls-7" d="M1050.169,386.269c3.521-1.069,3.9-3.206,3.961-3.458.377-1.257.629,5.784.126,6.412a3.111,3.111,0,0,1-4.149.566C1048.786,388.846,1048.723,386.709,1050.169,386.269Z" transform="translate(-1049.1 -359.737)"/>
                    <path id="Path_1055" data-name="Path 1055" class="cls-7" d="M1076.554,407.681a25.941,25.941,0,0,1-11.316-6.538c2.2-1.383,4.086-5.469,4.086-8.047-3.583,2.137-5.406,2.263-8.424,2.829-9.744-12.95-6.412-30.238.314-41.868a18.885,18.885,0,0,1,4.966-5.909c.063-.063.126-.126.189-.126,5.532-3.9,12.322-.943,16.848,3.143a57.423,57.423,0,0,1,12.573,16.219c5.784,11.064,9.3,31.558-3.9,39.291-.126,7.67-.314,15.276-.5,22.946a3.4,3.4,0,0,1-1.7,1.32,35.487,35.487,0,0,1-19.111-4.463.841.841,0,0,1-.44-.5.989.989,0,0,1-.5-1.383C1072.719,419.122,1075.548,413.716,1076.554,407.681Z" transform="translate(-1051.219 -346.196)"/>
                    <path id="Path_1056" data-name="Path 1056" class="cls-12" d="M1067.657,396.141a18.3,18.3,0,0,1,2.2-.754,15.849,15.849,0,0,1,7.67-.377c2.64.692,5.721,2.515,4.463,5.658a5.954,5.954,0,0,1-3.332,3.08,18.393,18.393,0,0,1-6.664,1.194c-2.64,0-5.846-.88-7.1-3.458C1063.759,399.1,1065.52,397.084,1067.657,396.141Z" transform="translate(-1054.833 -364.203)"/>
                    <path id="Path_1057" data-name="Path 1057" class="cls-10" d="M1062.521,378.647a7.238,7.238,0,0,1,8.613-2.892,7.824,7.824,0,0,1,5.155,7.607h-.817a7.777,7.777,0,0,0-4.4-6.538c-2.263-.817-5.532.629-6.789,2.829A1.015,1.015,0,0,1,1062.521,378.647Z" transform="translate(-1054.034 -357.019)"/>
                  </g>
                </g>
                <path id="Path_1058" data-name="Path 1058" class="cls-8" d="M1138.218,367.393c-1.069-10.75-10.5-17.791-20.431-19.865,3.52-13.453-13.2-25.586-25.9-20.18.189-6.538-.817-13.579-5.658-17.1-3.08-2.263-7.8-1.7-9.681,1.006-5.532-7.858-15.591-11.819-23.2-2.263a20.607,20.607,0,0,0-2.955,19.991,17.056,17.056,0,0,0,6.161,7.921c3.583,2.515,8.613,2.2,12.573,4.275,7.607,3.9,10.687,10.247,13.767,17.791a12.389,12.389,0,0,0,2.766,4.526c2.012,1.76,4.589,1.257,6.978.817,5.155-.817,7.481,4.841,5.721,8.99-2.515,5.909-10.5,6.1-13.39,11.693-1.7,3.332-1.949,7.669.189,10.813,3.835,5.658,12.322,7.292,18.671,6.789,6.727-.5,31.5-9.618,22.694-19.8C1133.88,381.161,1139.1,376.572,1138.218,367.393Z" transform="translate(-1049.033 -303.391)"/>
              </g>
              <path id="Path_1059" data-name="Path 1059" class="cls-13" d="M1094.5,464.181c14.4,3.08,20.494,17.854,15.025,30.93-1.949,4.589-9.241.629-6.915-4.023,4.9-9.681.5-20.117-9.115-24.455C1092.047,466,1093.116,463.867,1094.5,464.181Z" transform="translate(-985.742 -363.089)"/>
              <g id="Group_891" data-name="Group 891" transform="translate(0 80.599)">
                <g id="Group_889" data-name="Group 889" transform="translate(68.369 17.6)">
                  <path id="Path_1060" data-name="Path 1060" class="cls-5" d="M1062.653,463.622c20.62-12.007,37.028,5.029,37.656,22.443.189,5.532-1.572,10.876-3.08,16.093-1.823,6.286-3.646,12.573-5.406,18.86-3.772,12.887-5.595,28.792-1.949,42.308-13.139,1.446-44.383-1.823-57.522-5.658l4.086-17.791a55.81,55.81,0,0,0,2.766-22.506,2.589,2.589,0,0,0-.063-.566c-10-14.4-10.687-27.849-.943-30.615C1053.035,481.979,1055.486,469.406,1062.653,463.622Z" transform="translate(-1031.255 -459.597)"/>
                </g>
                <g id="Group_890" data-name="Group 890">
                  <path id="Path_1061" data-name="Path 1061" class="cls-4" d="M955.63,431.6c27.975,33.318,21.248,67.831,21.06,68.02a60.959,60.959,0,0,1-19.865,10.5c-.629.189-13.013-45.64-34.324-61.231C925.14,447,946.955,433.549,955.63,431.6Z" transform="translate(-922.5 -431.6)"/>
                  <path id="Path_1062" data-name="Path 1062" class="cls-7" d="M940.069,488.939c.629-2.64,3.583-1.069,4.9-.126,2.2,1.509,3.646,3.835,5.092,6.035,1.006,1.509,3.52,6.224,5.909,5.092a2.722,2.722,0,0,0,1.069-1.76c.251-.754.5-2.515,2.263-3.018,1.949-.5,3.017,1.069,2.2,1.886-1.509,1.446-1.446,3.646-1.949,5.218-.566,1.823-.314,3.835-.251,5.721a34.8,34.8,0,0,1,.691,3.52c-1.572,2.7-5.658,2.2-6.852-.314-1.509-3.269-2.074-6.852-3.08-8.8a27.08,27.08,0,0,0-4.966-6.1C943.715,494.849,939.5,491.328,940.069,488.939Z" transform="translate(-929.005 -452.352)"/>
                  <path id="Path_1063" data-name="Path 1063" class="cls-4" d="M1057.644,466.394c-3.646-2.577-8.613-3.709-12.384-.943-5.218,3.9-7.8,13.013-11.379,18.419A78.906,78.906,0,0,1,1018.04,501.6c-10.624,8.738-27.786,22.883-41.994,12.636-4.4-3.206-6.852-8.361-7.67-13.83a20.232,20.232,0,0,0-9.43,2.515c-1.069,8.99,1.069,19.048,7.984,24.58.063.063.189.126.251.189a20.281,20.281,0,0,0,4.715,2.577c17.476,6.789,35.707,2.012,50.606-8.361,7.732-5.344,14.459-11.944,20.934-18.734,6.1-6.475,13.453-12.259,18.231-19.928,3.018-4.9,2.137-10.624-1.635-14.773A15.313,15.313,0,0,0,1057.644,466.394Z" transform="translate(-935.938 -443.574)"/>
                </g>
              </g>
            </g>
          </g>
        </g>
        <path id="Path_1064" data-name="Path 1064" class="cls-4" d="M938.938,902.72a2.2,2.2,0,0,1-2.137,2.326,150.315,150.315,0,0,0-16.031,1.383c-1.949.314-7.292,1.823-6.978-2.012.251-3.269,5.155-3.269,7.418-3.269,4.778,0,10.876-.189,15.653-.251A1.784,1.784,0,0,1,938.938,902.72Z" transform="translate(-895.582 -525.273)"/>
      </g>
      <g id="Group_913" data-name="Group 913" transform="translate(82.746 150.368)">
        <g id="Group_912" data-name="Group 912">
          <g id="Group_898" data-name="Group 898" transform="translate(136.134 255.112)">
            <g id="Group_897" data-name="Group 897" transform="translate(1.147)">
              <g id="Group_896" data-name="Group 896">
                <path id="Path_1065" data-name="Path 1065" class="cls-6" d="M385.721,707.2c-1.446,24.58-3.206,110.768-5.721,116.237h6.538S405.272,746.616,414.89,707.2Z" transform="translate(-380 -707.2)"/>
                <path id="Path_1066" data-name="Path 1066" class="cls-8" d="M396.41,707.2c-4.589,39.479-14.71,114.226-14.71,114.226l3.018-.063s10.247-72.295,16.471-114.163Z" transform="translate(-380.631 -707.2)"/>
              </g>
            </g>
            <path id="Path_1067" data-name="Path 1067" class="cls-4" d="M378.191,890.721a2.2,2.2,0,0,0,2.137,2.326,150.317,150.317,0,0,1,16.031,1.383c1.949.314,7.292,1.823,6.978-2.012-.251-3.269-5.155-3.269-7.418-3.269-4.778,0-10.876-.189-15.653-.251A1.816,1.816,0,0,0,378.191,890.721Z" transform="translate(-378.175 -774.672)"/>
          </g>
          <g id="Group_902" data-name="Group 902" transform="translate(28.085 248.448)">
            <g id="Group_900" data-name="Group 900" transform="translate(6.098 34.01)">
              <path id="Path_1068" data-name="Path 1068" class="cls-5" d="M312.988,862.348,308.524,750.7h-6.161L297.9,862.348Z" transform="translate(-246.414 -750.7)"/>
              <g id="Group_899" data-name="Group 899" transform="translate(0 0.566)">
                <path id="Path_1069" data-name="Path 1069" class="cls-5" d="M231.591,848.412l18.482-95.492-6.035-1.32L216,848.412Z" transform="translate(-216 -751.6)"/>
                <path id="Path_1070" data-name="Path 1070" class="cls-5" d="M383.61,848.412,355.635,751.6l-6.035,1.32,18.419,95.492Z" transform="translate(-265.612 -751.6)"/>
              </g>
            </g>
            <g id="Group_901" data-name="Group 901">
              <path id="Path_1071" data-name="Path 1071" class="cls-4" d="M336.556,713.574c0-9.367-29.169-16.974-65.128-16.974S206.3,704.207,206.3,713.574v6.6c0,9.367,29.169,16.974,65.128,16.974s65.128-7.607,65.128-16.974Z" transform="translate(-206.3 -696.6)"/>
              <ellipse id="Ellipse_28" data-name="Ellipse 28" class="cls-5" cx="65.128" cy="16.974" rx="65.128" ry="16.974" transform="translate(0)"/>
            </g>
          </g>
          <g id="Group_911" data-name="Group 911">
            <path id="Path_1072" data-name="Path 1072" class="cls-13" d="M284.352,464.181c-14.4,3.08-20.494,17.854-15.025,30.93,1.949,4.589,9.241.629,6.915-4.023-4.9-9.681-.5-20.117,9.115-24.455C286.8,466,285.8,463.867,284.352,464.181Z" transform="translate(-200.883 -361.832)"/>
            <g id="Group_903" data-name="Group 903" transform="translate(49.025 191.555)">
              <path id="Path_1073" data-name="Path 1073" class="cls-8" d="M390.165,634.578c-26.718-.943-60.79-4.338-75-6.035-1.132-3.458-5.406-18.922-6.412-22.443l-45.891,6.664c-8.675,11.881-21,31.5-23.009,46.08-1.634,12.133,4.9,26.089,19.111,26.718a34.569,34.569,0,0,1,9.053,1.823c23.637,7.355,99.83-13.39,104.1-16.408-1.572,7.1-3.458,116.175-6.286,122.4h6.538s29.8-122.084,33.57-137.486C408.4,646.271,403.43,635.081,390.165,634.578Z" transform="translate(-239.609 -606.1)"/>
              <path id="Path_1074" data-name="Path 1074" class="cls-6" d="M281.426,635.592a62.673,62.673,0,0,0-9.744,57.4c.377,1.194,2.263.691,1.886-.5a62.428,62.428,0,0,1,8.675-56.453C282.558,635.592,281.8,635.152,281.426,635.592Z" transform="translate(-250.376 -616.984)"/>
              <path id="Path_1075" data-name="Path 1075" class="cls-6" d="M417.026,650.9c-5.532-.88-75.061,15.779-76.758,15.9-3.835.314-4.9-4.338-5.532-6.915-1.823-7.167-2.012-14.71-3.458-21.94-.063-.377-.189-.754-.251-1.132h.063a27.907,27.907,0,0,0,7.8-27.535.976.976,0,0,0-1.886.5,29.551,29.551,0,0,1-6.224,25.649,145,145,0,0,0-5.846-19.74c-.189-.566-1.132-.314-.943.251,4.338,13.579,5.658,27.095,7.8,41.051.566,3.709,1.257,10.75,5.532,12.322,3.961,1.446,65.82-10.876,72.295-13.956,1.634-.754,3.52-1.572,5.469-1.132,1.949.377-16.785,138.052-16.785,138.052l3.018-.063s14.9-104.985,19.614-135.16C421.489,653.1,419.037,651.212,417.026,650.9Z" transform="translate(-270.933 -607.017)"/>
            </g>
            <g id="Group_907" data-name="Group 907" transform="translate(54.851 83.742)">
              <g id="Group_904" data-name="Group 904" transform="translate(0 14.37)">
                <path id="Path_1076" data-name="Path 1076" class="cls-5" d="M278.438,457.484c-17.477,3.458-28.918,10.373-29.547,27.786-.189,5.532,1.572,10.876,3.08,16.093,1.823,6.286,3.646,12.573,5.406,18.86,3.772,12.887,5.595,28.792,1.949,42.308,13.139,1.446,44.383-1.823,57.522-5.658l-4.086-17.791A55.807,55.807,0,0,1,310,516.578a2.593,2.593,0,0,1,.063-.566c10-14.4,10.687-27.849.943-30.615C296.1,481.185,283.153,456.541,278.438,457.484Z" transform="translate(-248.878 -457.458)"/>
              </g>
              <g id="Group_906" data-name="Group 906" transform="translate(11.644)">
                <path id="Path_1077" data-name="Path 1077" class="cls-4" d="M401.663,434.6c-27.975,33.318-21.248,67.831-21.06,68.02a60.96,60.96,0,0,0,19.865,10.5c.629.189,13.013-45.64,34.324-61.231C432.09,450,410.339,436.549,401.663,434.6Z" transform="translate(-309.126 -434.6)"/>
                <path id="Path_1078" data-name="Path 1078" class="cls-7" d="M436.873,491.839c-.629-2.64-3.583-1.069-4.9-.126-2.2,1.509-3.646,3.835-5.092,6.035-1.006,1.509-3.52,6.224-5.909,5.092a2.722,2.722,0,0,1-1.069-1.76c-.251-.754-.5-2.515-2.263-3.018-1.949-.5-3.018,1.069-2.2,1.886,1.509,1.446,1.446,3.646,1.949,5.218.566,1.823.314,3.835.251,5.721a34.806,34.806,0,0,0-.692,3.52,3.923,3.923,0,0,0,6.789-.314c1.509-3.269,2.075-6.852,3.08-8.8a27.08,27.08,0,0,1,4.966-6.1C433.227,497.749,437.439,494.228,436.873,491.839Z" transform="translate(-322.27 -455.315)"/>
                <g id="Group_905" data-name="Group 905" transform="translate(0 23.072)">
                  <path id="Path_1079" data-name="Path 1079" class="cls-4" d="M360.692,503.11c-.88,5.469-3.269,10.687-7.67,13.83-14.27,10.247-31.37-3.9-41.994-12.636a86.111,86.111,0,0,1-24.643-33A74.261,74.261,0,0,0,271.3,482.679c-1.32,1.194-2.577,2.452-3.9,3.772.377-.063.817-.189,1.194-.251,1.069-.189,7.167,8.612,8.11,9.744,2.955,3.52,6.035,6.978,9.178,10.31a130.66,130.66,0,0,0,20.745,18.357c14.9,10.31,33.13,15.151,50.606,8.361a16.368,16.368,0,0,0,4.715-2.577c.063-.063.189-.126.251-.189,6.915-5.532,9.053-15.591,7.984-24.58A21.277,21.277,0,0,0,360.692,503.11Z" transform="translate(-267.4 -471.3)"/>
                </g>
              </g>
            </g>
            <g id="Group_910" data-name="Group 910">
              <g id="Group_909" data-name="Group 909" transform="translate(62.896 28.166)">
                <g id="Group_908" data-name="Group 908">
                  <path id="Path_1080" data-name="Path 1080" class="cls-7" d="M336.62,386.269c-3.52-1.069-3.9-3.206-3.96-3.458-.377-1.257-.629,5.784-.126,6.412a3.111,3.111,0,0,0,4.149.566C337.94,388.846,338.066,386.709,336.62,386.269Z" transform="translate(-287.883 -359.737)"/>
                  <path id="Path_1081" data-name="Path 1081" class="cls-7" d="M286.082,407.681a25.941,25.941,0,0,0,11.316-6.538c-2.2-1.383-4.086-5.469-4.086-8.047,3.583,2.137,5.406,2.263,8.424,2.829,9.744-12.95,6.412-30.238-.314-41.868a18.885,18.885,0,0,0-4.966-5.909c-.063-.063-.126-.126-.189-.126-5.532-3.9-12.322-.943-16.848,3.143a57.421,57.421,0,0,0-12.573,16.219c-5.784,11.064-9.3,31.558,3.9,39.291.189,7.67.314,15.276.5,22.946a3.4,3.4,0,0,0,1.7,1.32,35.488,35.488,0,0,0,19.111-4.463.841.841,0,0,0,.44-.5.989.989,0,0,0,.5-1.383C289.917,419.122,287.088,413.716,286.082,407.681Z" transform="translate(-261.674 -346.196)"/>
                  <path id="Path_1082" data-name="Path 1082" class="cls-12" d="M311.762,396.141a18.3,18.3,0,0,0-2.2-.754,15.849,15.849,0,0,0-7.67-.377c-2.64.692-5.721,2.515-4.463,5.658a5.954,5.954,0,0,0,3.332,3.08,18.393,18.393,0,0,0,6.664,1.194c2.64,0,5.846-.88,7.1-3.458C315.66,399.1,313.962,397.084,311.762,396.141Z" transform="translate(-274.844 -364.203)"/>
                  <path id="Path_1083" data-name="Path 1083" class="cls-10" d="M319.167,378.647a7.238,7.238,0,0,0-8.613-2.892,7.825,7.825,0,0,0-5.155,7.607h.817a7.777,7.777,0,0,1,4.4-6.538c2.263-.817,5.532.629,6.789,2.829C318.1,380.784,319.859,379.778,319.167,378.647Z" transform="translate(-277.912 -357.019)"/>
                </g>
              </g>
              <path id="Path_1084" data-name="Path 1084" class="cls-8" d="M260.5,302.591c-7.481-3.395-16.345.943-21.563,6.412a29.157,29.157,0,0,0-7.1,13.642c-9.493-1.509-19.8,2.2-26.529,8.99-8.11,8.11-6.349,19.174-5.721,29.547.44,6.852.44,14.019-1.634,20.62-2.7,8.361-8.8,13.39-15.4,18.608-8.613,6.852-15.528,14.962-19.111,25.523-3.269,9.681-2.577,19.928,6.035,26.4,9.744,7.292,23.134,9.681,34.953,10.813,9.555.88,21.311.063,26.843-9.115,2.452-4.086,2.892-8.864,3.9-13.453.754-3.395,1.7-6.978,4.275-9.43,2.577-2.389,6.224-3.52,9.053-5.658,8.8-6.789,11.63-18.734,8.55-29.169a35.265,35.265,0,0,0-7.984-13.767c-4.526-4.9-10.247-8.675-15.339-13.013-1.383-1.194-3.583-3.269-1.823-5.092a3.143,3.143,0,0,1,4.526.314,4.461,4.461,0,0,1,.629.88,1.464,1.464,0,0,0,2.7-.754,35.067,35.067,0,0,1,17.476-27.409,1.583,1.583,0,0,0,1.006-.314c.314-.251.629-.5.88-.692a12.467,12.467,0,0,1,1.257-.692,1.244,1.244,0,0,0,.692-.817c5.406-3.96,10.121-6.915,10.121-15.088C271.309,313.09,266.846,305.483,260.5,302.591Z" transform="translate(-161.625 -301.392)"/>
            </g>
          </g>
        </g>
        <path id="Path_1085" data-name="Path 1085" class="cls-4" d="M435.591,902.714a2.2,2.2,0,0,0,2.137,2.326,150.316,150.316,0,0,1,16.031,1.383c1.949.314,7.292,1.823,6.978-2.012-.251-3.269-5.155-3.269-7.418-3.269-4.778,0-10.876-.189-15.653-.251A1.754,1.754,0,0,0,435.591,902.714Z" transform="translate(-263.357 -524.009)"/>
      </g>
      <g id="Group_918" data-name="Group 918" transform="translate(2.834 188.439)">
        <g id="Group_915" data-name="Group 915">
          <g id="Group_914" data-name="Group 914">
            <path id="Path_1086" data-name="Path 1086" class="cls-6" d="M134.961,536.181c-6.6-14.4-13.013-30.741-10.184-46.394,2.766-15.15,18.922-26.34,15.842-42.811-1.257-6.664-5.721-12.2-10.687-16.848-4.9-4.652-10.5-8.613-14.836-13.767-2.64-3.08-4.841-6.664-5.469-10.687-1.509-9.933,8.613-17.979,4.086-27.786-7.481-16.156-30.238-19.3-45.074-12.7C49.716,373.549,37.206,395.3,37.52,415.606c.377,26.592,20.62,41.3,27.723,64.5,2.263,7.355-1.509,12.824-5.846,18.231-8.424,10.624-15.968,22.506-17.6,36.273A37.668,37.668,0,0,0,43.3,550.7c2.389,7.292,8.172,14.208,6.664,22.191-2.2,11.819-14.27,18.985-15.339,31.558-2.2,25.9,26.089,37.782,47.589,36.587,22.506-1.194,48.909-9.493,61.922-29.3,14.333-21.877,3.395-48.595-6.538-69.843C136.784,540.079,135.841,538.13,134.961,536.181Z" transform="translate(-34.508 -361.952)"/>
            <path id="Path_1087" data-name="Path 1087" class="cls-8" d="M115.561,441.12c.943-.692,0-2.263-1.006-1.572a61.763,61.763,0,0,0-22.128,29.3c-.189-1.194-.44-2.326-.629-3.52-4.4-23.449-8.99-48.72,2.137-71.1a.789.789,0,0,0-1.383-.754C84,408.493,83,425.152,84.505,441.874c-8.55-9.43-16.219-19.551-19.614-32.061a.359.359,0,0,0-.692.126c2.137,15.088,11.441,26.655,20.683,38.222.126.126.189.251.314.314.126.88.251,1.823.377,2.7,3.395,24.455,7.921,48.658,10.31,73.238.817,8.675,1.509,17.288,2.075,25.963A59.4,59.4,0,0,1,78.47,522.342c-.063-.126-.314-.126-.314.063,2.075,13.2,9.493,24.455,20.054,32.313.88,15.528,1.32,31.118,1.132,46.646-.314,26.718.189,71.855-2.515,98.384-.377,3.709,5.029,5.281,5.784,1.383,7.167-36.776,4.4-94.675,2.2-132.645a47.986,47.986,0,0,1,2.452-4.715,62.445,62.445,0,0,1,7.732-10c1.194-1.257-.754-3.143-2.012-1.886a57.649,57.649,0,0,0-8.487,10.876c-.126-2.263-.314-4.463-.5-6.664a1.781,1.781,0,0,0-.126-1.383c-.5-6.727-1.069-13.453-1.76-20.054-1.949-19.362-4.778-38.6-8.172-57.773A57.048,57.048,0,0,1,115.561,441.12Z" transform="translate(-45.534 -373.51)"/>
          </g>
          <path id="Path_1088" data-name="Path 1088" class="cls-4" d="M57.92,850.4,56.6,873.534l10,2.892.629,56.893h61.231v-.063c1.509-13.39,4.526-57.647,4.526-57.647l12.51-1.32-.754-23.889Z" transform="translate(-42.712 -543.337)"/>
          <path id="Path_1089" data-name="Path 1089" class="cls-5" d="M56.6,887.2l65.757,7.167,6.035,52.681v-.063c1.509-13.39,4.526-57.647,4.526-57.647l12.51-1.32Z" transform="translate(-42.712 -557.002)"/>
        </g>
        <g id="Group_917" data-name="Group 917" transform="translate(718.757)">
          <g id="Group_916" data-name="Group 916">
            <path id="Path_1090" data-name="Path 1090" class="cls-6" d="M1193.908,536.181c6.6-14.4,13.013-30.741,10.184-46.394-2.766-15.15-18.922-26.34-15.842-42.811,1.257-6.664,5.721-12.2,10.687-16.848,4.9-4.652,10.5-8.613,14.836-13.767,2.64-3.08,4.841-6.664,5.469-10.687,1.509-9.933-8.613-17.979-4.086-27.786,7.481-16.156,30.238-19.3,45.074-12.7,18.922,8.361,31.433,30.112,31.118,50.418-.377,26.592-20.62,41.3-27.724,64.5-2.263,7.355,1.509,12.824,5.846,18.231,8.424,10.624,15.968,22.506,17.6,36.273a37.667,37.667,0,0,1-1.509,16.093c-2.389,7.292-8.172,14.208-6.664,22.191,2.2,11.819,14.27,18.985,15.339,31.558,2.2,25.9-26.089,37.782-47.589,36.587-22.506-1.194-48.909-9.493-61.922-29.3-14.333-21.877-3.395-48.595,6.538-69.843C1192.085,540.079,1192.965,538.13,1193.908,536.181Z" transform="translate(-1177.84 -361.952)"/>
            <path id="Path_1091" data-name="Path 1091" class="cls-8" d="M1251.57,441.12c-.943-.692,0-2.263,1.006-1.572a61.762,61.762,0,0,1,22.129,29.3c.189-1.194.44-2.326.629-3.52,4.4-23.449,8.99-48.72-2.137-71.1a.789.789,0,0,1,1.383-.754c8.55,15.025,9.556,31.684,8.047,48.406,8.55-9.43,16.219-19.551,19.614-32.061a.359.359,0,0,1,.692.126c-2.137,15.088-11.441,26.655-20.683,38.222-.126.126-.189.251-.314.314-.126.88-.251,1.823-.377,2.7-3.395,24.455-7.921,48.658-10.31,73.238-.817,8.675-1.509,17.288-2.075,25.963a59.4,59.4,0,0,0,19.488-28.038c.063-.126.314-.126.314.063-2.075,13.2-9.493,24.455-20.054,32.313-.88,15.528-1.32,31.118-1.132,46.646.314,26.718-.189,71.855,2.515,98.384.377,3.709-5.029,5.281-5.784,1.383-7.167-36.776-4.4-94.675-2.2-132.645a47.985,47.985,0,0,0-2.452-4.715,62.444,62.444,0,0,0-7.732-10c-1.194-1.257.754-3.143,2.012-1.886a57.654,57.654,0,0,1,8.487,10.876c.126-2.263.314-4.463.5-6.664a1.781,1.781,0,0,1,.126-1.383c.5-6.727,1.069-13.453,1.76-20.054,1.949-19.362,4.778-38.6,8.172-57.773A57.319,57.319,0,0,0,1251.57,441.12Z" transform="translate(-1205.075 -373.51)"/>
          </g>
          <path id="Path_1092" data-name="Path 1092" class="cls-4" d="M1287.271,850.4l1.32,23.134-10,2.892-.629,56.893h-61.231v-.063c-1.509-13.39-4.526-57.647-4.526-57.647l-12.51-1.32.754-23.889Z" transform="translate(-1185.958 -543.337)"/>
          <path id="Path_1093" data-name="Path 1093" class="cls-5" d="M1296.018,887.2l-67.517,7.607-4.275,52.178v-.063c-1.509-13.39-4.526-57.647-4.526-57.647Z" transform="translate(-1193.385 -557.002)"/>
        </g>
      </g>
      <path id="Path_1094" data-name="Path 1094" class="cls-5" d="M786.514,599.08,381.6,588.833V574.5H786.514Z" transform="translate(-160.566 -252.442)"/>
    </g>
  </g>
</svg>
