<?xml version="1.0" encoding="utf-8"?>
<!-- Generator: Adobe Illustrator 22.1.0, SVG Export Plug-In . SVG Version: 6.00 Build 0)  -->
<svg version="1.1" id="Warstwa_1" xmlns="http://www.w3.org/2000/svg" xmlns:xlink="http://www.w3.org/1999/xlink" x="0px" y="0px"
	 viewBox="0 0 1920 1080" style="enable-background:new 0 0 1920 1080;" xml:space="preserve">
<style type="text/css">
	.st0{fill:none;}
	.st1{fill:#3AE5B1;}
	.st2{fill:#39EAFD;}
	.st3{fill:#FFFFFF;}
	.st4{fill:#F2F1F9;}
	.st5{opacity:0.15;}
	.st6{fill:#4754FC;}
	.st7{fill:#5677FC;}
	.st8{fill:#39CDFD;}
	.st9{fill:#F9CDB9;}
	.st10{fill:#F4A480;}
	.st11{fill:#384C82;}
	.st12{fill:#F6B190;}
	.st13{fill:#F8C3A9;}
	.st14{fill:#F090A9;}
	.st15{fill:#F2F2F2;}
	.st16{opacity:0.11;}
	.st17{fill:#282F56;}
	.st18{fill:none;stroke:#282F56;stroke-miterlimit:10;}
	.st19{opacity:0.12;}
	.st20{fill:#F7D3A9;}
	.st21{fill:#DEE3FF;}
	.st22{fill:#D8F6FF;}
	.st23{fill:#405BFC;}
	.st24{opacity:0.14;fill:#5677FC;enable-background:new    ;}
	.st25{opacity:0.35;fill:#282F56;enable-background:new    ;}
	.st26{fill:#CC4444;}
	.st27{fill:#FBC4B6;}
	.st28{opacity:0.25;}
	.st29{fill:#39CEFD;}
</style>
<rect class="st0" width="1920" height="1080"/>
<g id="cloudy" transform="translate(-68 41.387)">
	<g id="Group_181" transform="translate(0 39.224)">
		<path id="Path_249" class="st1" d="M119.9,94.4H30.2C13.5,94.4,0,80.8,0,64.2c0-16.4,13.1-29.7,29.4-30.1
			c7.2-25,33.3-39.4,58.3-32.2c12.2,3.5,22.5,11.8,28.5,23c1.2-0.1,2.4-0.2,3.7-0.2c19.3,0,34.9,15.6,34.9,34.9
			S139.2,94.4,119.9,94.4L119.9,94.4z M30.2,38.7c-14.1,0-25.5,11.4-25.5,25.5s11.4,25.5,25.5,25.5h89.8c16.7,0,30.2-13.5,30.2-30.2
			s-13.5-30.2-30.2-30.2c-1.6,0-3.1,0.1-4.6,0.4c-1,0.1-2-0.4-2.4-1.3C102.5,7.4,77.1-1.3,56.1,9c-11.3,5.5-19.5,15.8-22.5,28
			c-0.3,1.1-1.2,1.8-2.3,1.8L30.2,38.7z"/>
		<path id="Path_250" class="st1" d="M119.9,94.4c-1.3,0-2.3-1-2.3-2.3s1-2.3,2.3-2.3c16.7,0,30.2-13.5,30.2-30.2
			c0-16.7-13.5-30.2-30.2-30.2c-8.7,0-17,3.8-22.7,10.3c-0.8,1-2.3,1.1-3.3,0.3c-1-0.8-1.1-2.3-0.3-3.3c0,0,0,0,0.1-0.1
			c12.7-14.5,34.7-16,49.2-3.4s16,34.7,3.4,49.2C139.6,90,130,94.4,119.9,94.4z"/>
	</g>
	<g id="Group_182" transform="translate(60.818 6.455)">
		<path id="Path_251" class="st1" d="M91.9,94.4c-1.3,0-2.3-1-2.3-2.3s1-2.3,2.3-2.3c16.7,0,30.2-13.5,30.2-30.2
			s-13.5-30.2-30.2-30.2c-1.6,0-3.1,0.1-4.6,0.4c-1,0.1-2-0.4-2.4-1.3C74.5,7.4,49.1-1.3,28,9C16.7,14.6,8.5,24.8,5.5,37
			c-0.3,1.1-1.2,1.8-2.3,1.8l-0.6,0c-1.3,0-2.5-1-2.6-2.4c-0.1-1,0.5-1.9,1.4-2.2C8.5,9.2,34.6-5.3,59.7,1.8
			c12.3,3.5,22.6,11.8,28.6,23.1c1.2-0.1,2.4-0.2,3.7-0.2c19.3-0.1,34.9,15.4,35,34.7s-15.4,34.9-34.7,35
			C92.2,94.4,92,94.4,91.9,94.4L91.9,94.4z"/>
		<path id="Path_252" class="st1" d="M91.9,94.4c-1.3,0-2.3-1-2.3-2.3s1-2.3,2.3-2.3c16.7,0,30.2-13.5,30.2-30.2
			s-13.5-30.2-30.2-30.2c-8.7,0-17,3.8-22.7,10.3c-0.8,1-2.3,1.1-3.3,0.3c-1-0.8-1.1-2.3-0.3-3.3c0,0,0,0,0.1-0.1
			c12.7-14.5,34.7-16,49.2-3.4s16,34.7,3.4,49.2C111.6,90,102,94.4,91.9,94.4z"/>
	</g>
</g>
<g id="cloudy-2" transform="translate(1780 187.387)">
	<g id="Group_181-2" transform="translate(0 39.224)">
		<path id="Path_249-2" class="st2" d="M119.9,94.4H30.2C13.5,94.4,0,80.8,0,64.2c0-16.4,13.1-29.7,29.4-30.1
			c7.2-25,33.3-39.4,58.3-32.2c12.2,3.5,22.5,11.8,28.5,23c1.2-0.1,2.4-0.2,3.7-0.2c19.3,0,34.9,15.6,34.9,34.9
			S139.2,94.4,119.9,94.4L119.9,94.4z M30.2,38.7c-14.1,0-25.5,11.4-25.5,25.5s11.4,25.5,25.5,25.5h89.8c16.7,0,30.2-13.5,30.2-30.2
			s-13.5-30.2-30.2-30.2c-1.6,0-3.1,0.1-4.6,0.4c-1,0.1-2-0.4-2.4-1.3C102.5,7.4,77.1-1.3,56.1,9c-11.3,5.5-19.5,15.8-22.5,28
			c-0.3,1.1-1.2,1.8-2.3,1.8L30.2,38.7z"/>
		<path id="Path_250-2" class="st2" d="M119.9,94.4c-1.3,0-2.3-1-2.3-2.3s1-2.3,2.3-2.3c16.7,0,30.2-13.5,30.2-30.2
			c0-16.7-13.5-30.2-30.2-30.2c-8.7,0-17,3.8-22.7,10.3c-0.8,1-2.3,1.1-3.3,0.3c-1-0.8-1.1-2.3-0.3-3.3c0,0,0,0,0.1-0.1
			c12.7-14.5,34.7-16,49.2-3.4s16,34.7,3.4,49.2C139.6,90,130,94.4,119.9,94.4z"/>
	</g>
	<g id="Group_182-2" transform="translate(60.818 6.455)">
		<path id="Path_251-2" class="st2" d="M91.9,94.4c-1.3,0-2.3-1-2.3-2.3s1-2.3,2.3-2.3c16.7,0,30.2-13.5,30.2-30.2
			s-13.5-30.2-30.2-30.2c-1.6,0-3.1,0.1-4.6,0.4c-1,0.1-2-0.4-2.4-1.3C74.5,7.4,49.1-1.3,28,9C16.7,14.6,8.5,24.8,5.5,37
			c-0.3,1.1-1.2,1.8-2.3,1.8l-0.6,0c-1.3,0-2.5-1-2.6-2.4c-0.1-1,0.5-1.9,1.4-2.2C8.5,9.2,34.6-5.3,59.7,1.8
			c12.3,3.5,22.6,11.8,28.6,23.1c1.2-0.1,2.4-0.2,3.7-0.2c19.3-0.1,34.9,15.4,35,34.7s-15.4,34.9-34.7,35
			C92.2,94.4,92,94.4,91.9,94.4L91.9,94.4z"/>
		<path id="Path_252-2" class="st2" d="M91.9,94.4c-1.3,0-2.3-1-2.3-2.3s1-2.3,2.3-2.3c16.7,0,30.2-13.5,30.2-30.2
			s-13.5-30.2-30.2-30.2c-8.7,0-17,3.8-22.7,10.3c-0.8,1-2.3,1.1-3.3,0.3c-1-0.8-1.1-2.3-0.3-3.3c0,0,0,0,0.1-0.1
			c12.7-14.5,34.7-16,49.2-3.4s16,34.7,3.4,49.2C111.6,90,102,94.4,91.9,94.4z"/>
	</g>
</g>
<g id="search-bcg-blue" transform="translate(-139 508.8)">
	<g id="BACKGROUND" transform="translate(457.482 205.407)">
		<rect id="Rectangle_34" x="0" y="0" class="st3" width="314.3" height="314.3"/>
	</g>
	<g id="OBJECTS" transform="translate(30 62.2)">
		<ellipse id="Ellipse_25" class="st4" cx="427.5" cy="554.4" rx="427.5" ry="80.6"/>
		<g id="Group_861" transform="translate(132.205)" class="st5">
			<g id="Group_850" transform="translate(425.534)">
				<g id="Group_848">
					<path id="Path_998" class="st6" d="M23.3,0C10.4,0,0,10.4,0,23.3s10.4,23.3,23.3,23.3s23.3-10.4,23.3-23.3l0,0
						C46.7,10.4,36.2,0,23.3,0C23.3,0,23.3,0,23.3,0z M23.3,39.4c-8.9,0-16.1-7.2-16.1-16.1c0-8.9,7.2-16.1,16.1-16.1
						c8.9,0,16.1,7.2,16.1,16.1C39.4,32.2,32.2,39.4,23.3,39.4C23.3,39.4,23.3,39.4,23.3,39.4z"/>
				</g>
				<g id="Group_849" transform="translate(23.826 0.063)">
					<path id="Path_999" class="st6" d="M15.6,23h7.2C22.7,10.4,12.6,0.2,0,0v7.2C8.6,7.5,15.5,14.4,15.6,23z"/>
				</g>
			</g>
			<g id="Group_851" transform="translate(395.861 133.903)">
				<rect id="Rectangle_35" x="0" y="0" class="st6" width="7.9" height="51.2"/>
				<rect id="Rectangle_36" x="12.4" y="17.2" class="st6" width="7.9" height="34"/>
				<rect id="Rectangle_37" x="24.8" y="33.4" class="st6" width="7.9" height="17.8"/>
			</g>
			<g id="Group_852" transform="translate(236.938 20.557)">
				<path id="Path_1000" class="st6" d="M113.3,0H41.4c-4,0-7.3,3.3-7.3,7.3v33.3c0,4,3.3,7.3,7.3,7.3h62.8l7.8,16.5V47.8h1.3
					c4,0,7.3-3.3,7.3-7.3V7.3C120.6,3.3,117.3,0,113.3,0z"/>
				<path id="Path_1001" class="st6" d="M7.3,21.8h71.9c4,0,7.3,3.3,7.3,7.3v33.3c0,4-3.3,7.3-7.3,7.3H16.4L8.6,86.2V69.7H7.3
					c-4,0-7.3-3.3-7.3-7.3V29.1C0,25.1,3.3,21.8,7.3,21.8z"/>
			</g>
			<g id="Group_855" transform="translate(0 55.007)">
				<g id="Group_853" transform="translate(0 19.802)">
					<path id="Path_1002" class="st6" d="M42.9,20.4L42,15.3l-5.2,0.9c-0.8-2.4-2.1-4.5-3.9-6.3L36,5.5l-4.3-3l-3.1,4.3
						c-2.2-1.1-4.7-1.7-7.2-1.6L20.4,0l-5.2,0.9l0.9,5.2c-2.4,0.8-4.5,2.1-6.3,3.9L5.5,6.9l-3,4.3l4.3,3.1c-1.1,2.2-1.7,4.7-1.6,7.2
						L0,22.4l0.9,5.2l5.2-0.9c0.8,2.4,2.1,4.5,3.9,6.3l-3.1,4.3l4.3,3l3.1-4.3c2.2,1.1,4.7,1.7,7.2,1.6l0.9,5.2l5.2-0.9l-0.9-5.2
						c2.4-0.8,4.5-2.1,6.3-3.9l4.3,3.1l3-4.3L36,28.6c1.1-2.2,1.7-4.7,1.6-7.2L42.9,20.4z M22.2,26.2c-2.7,0.5-5.2-1.3-5.7-4
						c-0.5-2.7,1.3-5.2,4-5.7c2.7-0.5,5.2,1.3,5.7,4c0.5,2.6-1.2,5.1-3.8,5.6C22.3,26.2,22.3,26.2,22.2,26.2z"/>
				</g>
				<g id="Group_854" transform="translate(39.291)">
					<path id="Path_1003" class="st6" d="M52.9,29.8v-6.5h-6.6c-0.5-3.1-1.7-6-3.5-8.5l4.7-4.7l-4.6-4.6l-4.7,4.7
						c-2.5-1.8-5.4-3-8.5-3.6V0h-6.5v6.6c-3.1,0.5-6,1.7-8.5,3.5l-4.7-4.7L5.5,10l4.7,4.7c-1.8,2.5-3,5.4-3.6,8.5H0v6.5h6.6
						c0.5,3.1,1.7,6,3.5,8.5l-4.7,4.7l4.6,4.6l4.7-4.7c2.5,1.8,5.4,3,8.5,3.6v6.6h6.5v-6.6c3.1-0.5,6-1.7,8.5-3.5l4.7,4.7l4.6-4.6
						l-4.7-4.7c1.8-2.5,3-5.4,3.6-8.5L52.9,29.8z M26.5,32.5c-3.3,0-6-2.7-6-6s2.7-6,6-6c3.3,0,6,2.7,6,6
						C32.5,29.8,29.8,32.5,26.5,32.5z"/>
				</g>
			</g>
			<g id="Group_858" transform="translate(488.839 55.007)">
				<g id="Group_856" transform="translate(49.349 19.802)">
					<path id="Path_1004" class="st6" d="M5.2,21.4c0,2.5,0.5,5,1.6,7.2l-4.3,3.1l3,4.3l4.3-3.1c1.7,1.8,3.9,3.1,6.3,3.9L15.3,42
						l5.2,0.9l0.9-5.2c2.5,0,5-0.5,7.2-1.6l3.1,4.3l4.3-3L32.9,33c1.8-1.7,3.1-3.9,3.9-6.3l5.2,0.9l0.9-5.2l-5.2-0.9
						c0-2.5-0.5-5-1.6-7.2l4.3-3.1l-3-4.3L33,10c-1.7-1.8-3.9-3.1-6.3-3.9l0.9-5.2L22.4,0l-0.9,5.2c-2.5,0-5,0.5-7.2,1.6l-3.1-4.3
						l-4.3,3L10,9.9c-1.8,1.7-3.1,3.9-3.9,6.3l-5.2-0.9L0,20.4L5.2,21.4z M16.7,20.6c0.5-2.7,3-4.4,5.7-4s4.4,3,4,5.7s-3,4.4-5.7,4
						c0,0,0,0,0,0C18,25.8,16.2,23.3,16.7,20.6L16.7,20.6z"/>
				</g>
				<g id="Group_857">
					<path id="Path_1005" class="st6" d="M6.6,29.8c0.5,3.1,1.7,6,3.6,8.5l-4.7,4.7l4.6,4.6l4.7-4.7c2.5,1.8,5.4,3,8.5,3.5v6.6h6.5
						v-6.6c3.1-0.5,6-1.7,8.5-3.6l4.7,4.7l4.6-4.6l-4.7-4.7c1.8-2.5,3-5.4,3.5-8.5h6.6v-6.5h-6.6c-0.5-3.1-1.7-6-3.6-8.5l4.7-4.7
						l-4.6-4.6l-4.7,4.7c-2.5-1.8-5.4-3-8.5-3.5V0h-6.5v6.6c-3.1,0.5-6,1.7-8.5,3.6L10,5.5l-4.6,4.6l4.7,4.7c-1.8,2.5-3,5.4-3.5,8.5
						H0v6.5H6.6z M20.4,26.5c0-3.3,2.7-6,6-6c3.3,0,6,2.7,6,6c0,3.3-2.7,6-6,6C23.1,32.5,20.4,29.8,20.4,26.5L20.4,26.5z"/>
				</g>
			</g>
			<path id="Path_1006" class="st6" d="M413.6,78.5l1.3,4.3c0.1,0.2,0.2,0.3,0.4,0.4l4.3,1.3c0.3,0.1,0.4,0.4,0.4,0.6
				c-0.1,0.2-0.2,0.3-0.4,0.4l-4.3,1.3c-0.2,0.1-0.3,0.2-0.4,0.4l-1.3,4.3c-0.1,0.3-0.4,0.4-0.6,0.4c-0.2-0.1-0.3-0.2-0.4-0.4
				l-1.3-4.3c-0.1-0.2-0.2-0.3-0.4-0.4l-4.3-1.3c-0.3-0.1-0.4-0.4-0.4-0.6c0.1-0.2,0.2-0.3,0.4-0.4l4.3-1.3c0.2-0.1,0.3-0.2,0.4-0.4
				l1.3-4.3c0.1-0.3,0.4-0.4,0.6-0.4C413.4,78.2,413.5,78.3,413.6,78.5z"/>
			<path id="Path_1007" class="st6" d="M150.4,21.1l1.8,6.2c0.1,0.2,0.3,0.4,0.5,0.5l6.2,1.8c0.4,0.1,0.6,0.5,0.5,0.9
				c-0.1,0.3-0.3,0.5-0.5,0.5l-6.2,1.8c-0.2,0.1-0.4,0.3-0.5,0.5l-1.8,6.2c-0.1,0.4-0.5,0.6-0.9,0.5c-0.3-0.1-0.5-0.3-0.5-0.5
				l-1.8-6.2c-0.1-0.2-0.3-0.4-0.5-0.5l-6.2-1.8c-0.4-0.1-0.6-0.5-0.5-0.9c0.1-0.3,0.3-0.5,0.5-0.5l6.2-1.8c0.2-0.1,0.4-0.3,0.5-0.5
				l1.8-6.2c0.1-0.4,0.6-0.6,1-0.5C150.1,20.7,150.3,20.8,150.4,21.1z"/>
			<path id="Path_1008" class="st6" d="M103.2,128.1l1.3,4.3c0.1,0.2,0.2,0.3,0.4,0.4l4.3,1.3c0.3,0.1,0.4,0.4,0.4,0.6
				c-0.1,0.2-0.2,0.3-0.4,0.4l-4.3,1.3c-0.2,0.1-0.3,0.2-0.4,0.4l-1.3,4.3c-0.1,0.3-0.4,0.4-0.6,0.4c-0.2-0.1-0.3-0.2-0.4-0.4
				l-1.3-4.3c-0.1-0.2-0.2-0.3-0.4-0.4l-4.3-1.3c-0.3-0.1-0.4-0.4-0.4-0.6c0.1-0.2,0.2-0.3,0.4-0.4l4.3-1.3c0.2-0.1,0.3-0.2,0.4-0.4
				l1.3-4.3c0.1-0.3,0.4-0.4,0.6-0.4C103,127.8,103.2,127.9,103.2,128.1z"/>
			<path id="Path_1009" class="st6" d="M400.3,224.3l1.3,4.3c0.1,0.2,0.2,0.3,0.4,0.4l4.3,1.3c0.3,0.1,0.4,0.4,0.4,0.6
				c-0.1,0.2-0.2,0.3-0.4,0.4l-4.3,1.3c-0.2,0.1-0.3,0.2-0.4,0.4l-1.3,4.3c-0.1,0.3-0.4,0.4-0.6,0.4c-0.2-0.1-0.3-0.2-0.4-0.4
				l-1.3-4.3c-0.1-0.2-0.2-0.3-0.4-0.4l-4.3-1.3c-0.3-0.1-0.4-0.4-0.4-0.6c0.1-0.2,0.2-0.3,0.4-0.4l4.3-1.3c0.2-0.1,0.3-0.2,0.4-0.4
				l1.3-4.3c0.1-0.3,0.4-0.4,0.6-0.4C400.1,224,400.3,224.1,400.3,224.3z"/>
			<path id="Path_1010" class="st6" d="M183.8,252.7l0.9,3c0,0.1,0.1,0.2,0.3,0.3l3,0.9c0.2,0,0.3,0.2,0.3,0.4
				c0,0.1-0.1,0.2-0.3,0.3l-3,0.9c-0.1,0-0.2,0.1-0.3,0.3l-0.9,3c0,0.2-0.2,0.3-0.4,0.3c-0.1,0-0.2-0.1-0.3-0.3l-0.9-3
				c0-0.1-0.1-0.2-0.3-0.3l-3-0.9c-0.2,0-0.3-0.2-0.3-0.4c0-0.1,0.1-0.2,0.3-0.3l3-0.9c0.1,0,0.2-0.1,0.3-0.3l0.9-3
				C183.2,252.4,183.7,252.4,183.8,252.7z"/>
			<path id="Path_1011" class="st6" d="M483.2,142.6l0.9,3c0,0.1,0.1,0.2,0.3,0.3l3,0.9c0.2,0,0.3,0.2,0.3,0.4
				c0,0.1-0.1,0.2-0.3,0.3l-3,0.9c-0.1,0-0.2,0.1-0.3,0.3l-0.9,3c0,0.2-0.2,0.3-0.4,0.3c-0.1,0-0.2-0.1-0.3-0.3l-0.9-3
				c0-0.1-0.1-0.2-0.3-0.3l-3-0.9c-0.2,0-0.3-0.2-0.3-0.4c0-0.1,0.1-0.2,0.3-0.3l3-0.9c0.1,0,0.2-0.1,0.3-0.3l0.9-3
				c0-0.2,0.2-0.3,0.4-0.3C483,142.4,483.2,142.5,483.2,142.6z"/>
			<path id="Path_1012" class="st6" d="M221.1,152.5l0.9,3c0,0.1,0.1,0.2,0.3,0.3l3,0.9c0.2,0,0.3,0.2,0.3,0.4
				c0,0.1-0.1,0.2-0.3,0.3l-3,0.9c-0.1,0-0.2,0.1-0.3,0.3l-0.9,3c0,0.2-0.2,0.3-0.4,0.3c-0.1,0-0.2-0.1-0.3-0.3l-0.9-3
				c0-0.1-0.1-0.2-0.3-0.3l-3-0.9c-0.2,0-0.3-0.2-0.3-0.4c0-0.1,0.1-0.2,0.3-0.3l3-0.9c0.1,0,0.2-0.1,0.3-0.3l0.9-3
				C220.5,152.2,221,152.2,221.1,152.5z"/>
			<path id="Path_1013" class="st6" d="M115.5,192.9l0.9,3c0,0.1,0.1,0.2,0.3,0.3l3,0.9c0.2,0,0.3,0.2,0.3,0.4
				c0,0.1-0.1,0.2-0.3,0.3l-3,0.9c-0.1,0-0.2,0.1-0.3,0.3l-0.9,3c0,0.2-0.2,0.3-0.4,0.3c-0.1,0-0.2-0.1-0.3-0.3l-0.9-3
				c0-0.1-0.1-0.2-0.3-0.3l-3-0.9c-0.2,0-0.3-0.2-0.3-0.4c0-0.1,0.1-0.2,0.3-0.3l3-0.9c0.1,0,0.2-0.1,0.3-0.3l0.9-3
				c0-0.2,0.2-0.3,0.4-0.3C115.4,192.6,115.5,192.7,115.5,192.9z"/>
			<g id="Group_860" transform="translate(149.662 117.708)">
				<g id="Group_859" transform="translate(5.392 12.577)">
					<path id="Path_1014" class="st6" d="M25.2,9.8C23.6,3,16.7-1.3,9.8,0.4C3,2-1.3,8.9,0.4,15.8c1.1,4.7,4.8,8.3,9.4,9.5
						c0.3,0.7,0.8,4.8,1.6,6.2c0.4,0.6,0.9,0.7,1.6,0.6c0.6,2.1,3.1,4.1,5.2,3.9c1.4-0.2,2.6-1.1,3-2.5c0.4-1.1,0.7-2.3,0.9-3.5
						c1,0,1.5-0.1,1.4-1.1c-0.1-1.6-1.8-6.1-1.9-6.8C24.9,18.9,26.3,14.3,25.2,9.8z"/>
					<path id="Path_1015" class="st6" d="M18.6,9.4c-0.2-0.7-0.9-1.1-1.6-1c-0.7,0.2-1.2,0.9-1,1.6c0.1,0.4,0.4,0.8,0.8,0.9
						c-0.3,1.8-0.6,3.6-0.8,5.4c-0.1,1.7-0.3,3.3-0.6,5c-2-3-4-6-6.2-8.9c0.4-0.4,0.4-1,0-1.4c-0.2-0.2-0.6-0.3-0.9-0.3
						c-1.2,0.3-0.8,2.2,0.4,1.9l0,0c2.4,3.2,4.5,6.6,6.4,10.1c0.1,0.2,0.4,0.3,0.7,0.2c0.1-0.1,0.2-0.1,0.2-0.3
						c0.5-1.8,0.8-3.7,0.9-5.6c0.1-2.1,0.6-4.1,0.7-6.1C18.3,10.8,18.7,10.1,18.6,9.4z"/>
				</g>
				<path id="Path_1016" class="st6" d="M8.5,10.7C5.9,9.5,3.3,8.1,0.7,6.9c-0.5-0.3-1,0.5-0.5,0.8c2.5,1.4,5.1,2.8,7.6,4.1
					C8.6,12.2,9.3,11.1,8.5,10.7z"/>
				<path id="Path_1017" class="st6" d="M13.4,0.9c-0.2-0.4-0.8-0.1-0.8,0.3c0.5,2.7,1.2,5.4,2.1,8c0.2,0.6,1.2,0.4,1-0.3
					C15.2,6.2,14.4,3.5,13.4,0.9z"/>
				<path id="Path_1018" class="st6" d="M25.5,0.1c-0.6,0.7-1.1,1.4-1.5,2.3c-0.4,0.8-0.8,1.6-1.2,2.5c-0.3,0.7,0.8,1.1,1.1,0.3
					c0.3-0.9,0.7-1.7,1.1-2.5c0.5-0.7,0.8-1.4,1.1-2.2C26.2,0.2,26,0,25.8,0C25.7,0,25.6,0,25.5,0.1z"/>
			</g>
		</g>
		<g id="Group_877" transform="translate(332.579 136.859)">
			<g id="Group_865" transform="translate(20.345 220.151)">
				<g id="Group_863" transform="translate(6.098 33.947)">
					<path id="Path_1019" class="st7" d="M66.6,111.6L62.1,0H56l-4.5,111.6H66.6z"/>
					<g id="Group_862" transform="translate(0 0.629)">
						<path id="Path_1020" class="st7" d="M15.6,96.8L34.1,1.3L28,0L0,96.8H15.6z"/>
						<path id="Path_1021" class="st7" d="M118,96.8L90,0l-6,1.3l18.4,95.5H118z"/>
					</g>
				</g>
				<g id="Group_864">
					<path id="Path_1022" class="st6" d="M130.3,17c0-9.4-29.2-17-65.1-17S0,7.6,0,17v6.6c0,9.4,29.2,17,65.1,17s65.1-7.6,65.1-17
						V17z"/>
					<ellipse id="Ellipse_26" class="st7" cx="65.1" cy="17" rx="65.1" ry="17"/>
				</g>
			</g>
			<g id="Group_876" transform="translate(0)">
				<g id="Group_872" transform="translate(27.383)">
					<path id="Path_1023" class="st7" d="M125,90.4c-0.7-9.3-4.1-18.2-9.7-25.5c-3.1-3.9-6.6-7.5-10.6-10.6c-2.3-1.8-6-4.1-7.5-6.9
						c-1.6-3.1,0.3-8,0.8-11.5c1.8-16.5-9.2-31.7-25.5-35c-1.8-0.4-3.6-0.6-5.4-0.8c-21.5-1.6-42.9,11.9-40,35.8
						c0.4,3.5,2.3,8.4,0.8,11.5c-1.4,2.8-5.2,5.1-7.5,6.9c-4,3-7.5,6.6-10.6,10.6c-5.7,7.4-9.1,16.2-9.7,25.5
						c-1.3,18.8,11,35.8,29.2,40.5c13,3.4,28.7,2.5,42.1,2.3c14-0.2,30.5-1.5,41.2-11.3C121.1,113.8,125.7,102.3,125,90.4z"/>
					<path id="Path_1024" class="st8" d="M96.9,122.8c0.6-3.5,1.2-7,1.8-10.6c1.5-9.4,2.3-21.6-6-28.4c-4.9-4-11.3-4.2-17.3-4.2
						H55.2c-3.2-0.1-6.4,0.1-9.5,0.8c-7.9,2.1-12.8,11.3-13.9,18.9c-1.8,12,2.8,23.1,4.7,34.7c2.3,14,2.1,28.4-0.7,42.3
						c-0.3,1.3-2.6,13.3-3.5,13.3c11.1,0,22.2-0.1,33.3-0.1s22.2,0.1,33.3,0.1c-1.8,0-4.5-19.6-4.8-21.7
						C92.2,152.4,94.4,137.8,96.9,122.8z"/>
					<path id="Path_1025" class="st3" d="M83.1,167c0,0,5.8-45.6,7.5-55.8c0.2-0.9-30.7-5.4-50.3,0c3.3,18.5,5.4,37.1,7.3,55.8
						C59.3,165,71.4,166.2,83.1,167z"/>
					<g id="Group_866" transform="translate(4.926 83.42)">
						<path id="Path_1026" class="st9" d="M56.3,50.9c-0.6-0.4-1.3-0.6-2-0.4c-6.3,0.9-10.8,5.5-14,10.7C40,60,39.5,58.9,39,57.8
							c-0.5-1-1.8-0.3-1.7,0.7c0.4,2.8,0.4,7.7,2.7,9.8c1.6,1.6,4.1,1.4,6.2,1c5.2-1.1,7.4-5.8,9.2-10.4
							C56.2,57.1,58.4,52.7,56.3,50.9z"/>
						<path id="Path_1027" class="st2" d="M36.3,60.5C31.2,67.1,25.4,73.2,19,78.6c-0.4-14.5,3.1-28.2,9.7-41.4
							C26.6,16.5,29.8,9.7,35.3,0C22.5,11.3,11.1,30.7,5.6,46.3c-6.5,18.5-7.9,38.5-1.3,57.1c0.3,1.2,1.2,2.1,2.4,2.4
							c4.8,0.9,9.6-1.3,14-4.3c0.3-0.2,0.6-0.4,0.9-0.6c3.8-2.8,7.3-6.2,10.2-8.7c7.4-6.7,13.9-14.3,19.3-22.7
							C45.6,67.3,40.6,64.3,36.3,60.5z"/>
					</g>
					<g id="Group_867" transform="translate(69.077 83.545)">
						<path id="Path_1028" class="st9" d="M0.9,50.7c0.6-0.4,1.3-0.6,2-0.4c6.3,0.9,10.8,5.5,14,10.7c0.3-1.1,0.7-2.2,1.3-3.3
							c0.5-1,1.8-0.3,1.7,0.7c-0.4,2.8-0.4,7.7-2.7,9.8c-1.6,1.6-4.1,1.4-6.2,1c-5.2-1.1-7.4-5.8-9.2-10.4C1,57-1.2,52.6,0.9,50.7z"
							/>
						<path id="Path_1029" class="st2" d="M22.1,60.4c5.1,6.6,10.9,12.7,17.2,18.1c0.4-14.5-4.5-29.3-11-42.4c0,0,4-23.7-5.2-36.1
							c14.4,10.8,24.2,30.7,29.7,46.3c6.5,18.5,7.9,38.5,1.3,57.1c-0.3,1.2-1.2,2.1-2.4,2.4c-4.8,0.9-9.6-1.3-14-4.3
							c-0.3-0.2-0.6-0.4-0.9-0.6c-3.8-2.8-7.3-6.2-10.2-8.7c-7.4-6.7-13.9-14.3-19.3-22.7C12.7,67.2,17.7,64.2,22.1,60.4z"/>
					</g>
					<g id="Group_871" transform="translate(34.076 14.353)">
						<path id="Path_1030" class="st9" d="M50.4,14.9c-1-1.8-2.2-3.5-3.6-5.1C36.1-2,17.8-1.8,8.1,11.2c-5.2,7-6.9,16.2-6,24.9
							c0.9,8,4,15.8,9.4,21.6c2.4,2.5,6.7,5,9.4,6.3c0.1,9.8-0.1,20,8.7,20c13.1,0,9.2-14.3,10-20.2c4.2-2.7,7.8-6.3,10.4-10.6
							C56.3,42,56.6,26.2,50.4,14.9z"/>
						<g id="Group_870" transform="translate(7.423 33.146)">
							<g id="Group_868" transform="translate(9.652 19.878)">
								<path id="Path_1031" class="st10" d="M23,1.3c-1-0.8-2.2-1.1-3.5-0.9c-2.1,0.3-4.1,0.9-6.2,1C11.2,1.3,9.2,1,7.2,0.5
									C5.4,0.2,1.7-0.7,0.4,1.1c-2,3.1,4.1,6.3,6.3,6.9c5,1.3,10.2,1,14.5-2.2C22.6,4.9,24.6,3,23,1.3z"/>
								<path id="Path_1032" class="st3" d="M23.2,1.6c0-0.1-0.1-0.2-0.3-0.3c-1-0.8-2.2-1.1-3.5-0.9c-2.1,0.3-4.1,0.9-6.2,1
									C11.2,1.3,9.2,1,7.2,0.5C5.4,0.2,1.7-0.7,0.4,1.1C0.3,1.3,0.3,1.3,0.3,1.5C7.9,3.9,15.7,3.5,23.2,1.6z"/>
							</g>
							<g id="Group_869" transform="translate(0.068)">
								<path id="Path_1033" class="st11" d="M15.1,4.1c-3.3-5.8-11.1-5-15-0.4c-0.4,0.5,0.3,1.1,0.7,0.7c4-3.6,9.6-4.2,12.9,0.5
									c0.2,0.4,0.7,0.5,1.1,0.3C15.1,4.9,15.3,4.5,15.1,4.1z"/>
								<path id="Path_1034" class="st11" d="M26.1,4.1c3.3-5.8,11.1-5,15-0.4c0.4,0.5-0.3,1.1-0.7,0.7c-4-3.6-9.6-4.2-12.9,0.5
									c-0.2,0.4-0.7,0.5-1.1,0.3C26,4.9,25.9,4.5,26.1,4.1z"/>
							</g>
							<path id="Path_1035" class="st12" d="M22.8,11.6c0-1,0-2-0.3-3c-0.4-0.7-1.4-1.8-1.9-0.3C19.7,10.5,19,12.8,18,15
								c-0.4,0.9,0.1,2.5,1.3,2.3c2.8-0.3,3.5-2.5,3.4-5L22.8,11.6z"/>
							<path id="Path_1036" class="st13" d="M40.6,9.5c-0.3-0.6-0.8-1-1.3-1.3c-0.7-0.3-1.5-0.5-2.3-0.5c-2.6-0.2-11-0.2-9,4.5
								c0.9,2.1,3.8,2.3,5.7,2.4c2,0.1,5-0.2,6.4-1.8C41,11.9,41.2,10.5,40.6,9.5z"/>
							<path id="Path_1037" class="st13" d="M12.9,9.5c-0.3-0.6-0.8-1-1.3-1.3c-0.7-0.3-1.5-0.5-2.3-0.5c-2.6-0.2-11-0.2-9,4.5
								c0.9,2.1,3.8,2.3,5.7,2.4c2,0.1,5-0.2,6.4-1.8C13.3,11.9,13.5,10.5,12.9,9.5z"/>
						</g>
						<path id="Path_1038" class="st7" d="M38.4,12.4c3.5,8.9,10.3,13.9,18.2,17.2c-0.5-5.2-2.1-10.2-4.5-14.8
							c-1.1-2-2.4-3.8-3.9-5.5C36.8-3.4,17-3.2,6.7,10.7C2.3,16.5,0.3,23.7,0,31C31.1,32.9,38.2,11.7,38.4,12.4z"/>
					</g>
				</g>
				<g id="Group_875" transform="translate(0 201.857)">
					<g id="Group_873">
						<path id="Path_1039" class="st7" d="M173.7,39.7C161.2,25.6,137,6.5,123.8,0H54.9C41.7,6.5,17.6,25.6,5,39.7
							C0.8,44.4-0.9,51,0.5,57.2C8.8,94,57.9,169.7,57.9,169.7h9.1c-2.7-5-33.4-102.3-25.8-115.4c5-8.7,32.8-15,45.1-16
							c0.3,0.1,0.7,0.1,1,0c0.5-0.1,1-0.1,1.5-0.1h0.9c0.5,0,1,0,1.5,0.1c0.3,0.1,0.7,0.1,1,0c12.4,1,40.2,7.4,45.1,16
							c7.5,13.1-23.1,110.4-25.8,115.4h9.1c0,0,49.1-75.7,57.5-112.5C179.7,51,178,44.4,173.7,39.7z"/>
						<path id="Path_1040" class="st6" d="M76.5,0.9H70C45.6,19.6,25,36.3,14.4,48.1c-1.5,1.7-2.1,4.1-1.6,6.3
							c2.9,12.8,37.5,96.2,47.7,115.3c-14.8-37.8-46.8-113-43.5-118.8C27.3,32.9,76.5,0.9,76.5,0.9z"/>
						<path id="Path_1041" class="st6" d="M103.3,0.9h6.5c24.4,18.7,45,35.4,55.6,47.2c1.5,1.7,2.1,4.1,1.6,6.3
							c-2.9,12.8-37.5,96.2-47.7,115.3c14.8-37.8,46.8-113,43.5-118.8C152.4,32.9,103.3,0.9,103.3,0.9z"/>
					</g>
					<g id="Group_874" transform="translate(40.624 167.21)">
						<path id="Path_1042" class="st6" d="M26.2,0.9c-0.2-0.1-0.4-0.2-0.7-0.3c-2.8-1.1-6-0.3-8.9,0.1C11,1.4,4.3,2.9,0.5,7.6
							C0,8.2-0.2,9.1,0.2,9.9C2,13.3,7.6,11.8,10.6,11c5.7-1.4,11.3-3.5,16.5-6.3C29.1,3.5,27.7,1.8,26.2,0.9z"/>
						<path id="Path_1043" class="st6" d="M71.6,0.9c0.2-0.1,0.5-0.2,0.7-0.3c2.8-1.1,6-0.3,8.9,0.1c5.7,0.8,12.3,2.3,16.1,7
							c0.6,0.6,0.7,1.5,0.3,2.3c-1.8,3.5-7.4,1.9-10.4,1.1C81.5,9.6,76,7.4,70.8,4.6C68.8,3.5,70.2,1.8,71.6,0.9z"/>
					</g>
				</g>
			</g>
		</g>
		<g id="Group_895" transform="translate(537.391 151.625)">
			<g id="Group_880" transform="translate(43.734 253.855)">
				<g id="Group_879">
					<g id="Group_878">
						<path id="Path_1044" class="st8" d="M29.2,0c1.4,24.6,3.2,110.8,5.7,116.2h-6.5C28.4,116.2,9.6,39.4,0,0H29.2z"/>
						<path id="Path_1045" class="st2" d="M19.2,0c4.6,39.5,14.7,114.2,14.7,114.2l-3-0.1c0,0-10.2-72.3-16.5-114.2H19.2z"/>
					</g>
				</g>
				<path id="Path_1046" class="st6" d="M36,116c0.1,1.2-0.9,2.3-2.1,2.3c0,0,0,0-0.1,0c-5.4,0.2-10.7,0.6-16,1.4
					c-1.9,0.3-7.3,1.8-7-2c0.3-3.3,5.2-3.3,7.4-3.3c4.8,0,10.9-0.2,15.7-0.3c1-0.1,1.9,0.5,2.1,1.5C36,115.9,36,116,36,116z"/>
			</g>
			<g id="Group_894">
				<g id="Group_884" transform="translate(57.627 247.191)">
					<g id="Group_882" transform="translate(6.098 34.01)">
						<path id="Path_1047" class="st7" d="M51.5,111.6L55.9,0h6.2l4.5,111.6H51.5z"/>
						<g id="Group_881" transform="translate(0 0.566)">
							<path id="Path_1048" class="st7" d="M102.4,96.8L84,1.3L90,0l28,96.8H102.4z"/>
							<path id="Path_1049" class="st7" d="M0,96.8L28,0l6.1,1.3L15.7,96.8H0z"/>
						</g>
					</g>
					<g id="Group_883">
						<path id="Path_1050" class="st6" d="M0,17C0,7.6,29.2,0,65.1,0c36,0,65.1,7.6,65.1,17v6.6c0,9.4-29.2,17-65.1,17
							S0,32.9,0,23.6V17z"/>
						<ellipse id="Ellipse_27" class="st7" cx="65.1" cy="17" rx="65.1" ry="17"/>
					</g>
				</g>
				<g id="Group_893">
					<g id="Group_885" transform="translate(0 190.298)">
						<path id="Path_1051" class="st2" d="M16.4,28.5c26.7-0.9,60.8-4.3,75-6C92.5,19,96.8,3.5,97.8,0l45.9,6.7
							c8.7,11.9,21,31.5,23,46.1c1.6,12.1-4.9,26.1-19.1,26.7c-3.1,0.2-6.1,0.8-9.1,1.8c-23.6,7.4-99.8-13.4-104.1-16.4
							c1.6,7.1,3.5,116.2,6.3,122.4h-6.5c0,0-29.8-122.1-33.6-137.5C-1.8,40.2,3.1,29,16.4,28.5z"/>
						<path id="Path_1052" class="st8" d="M135.8,18.6c12.5,16.4,16.1,37.8,9.7,57.4c-0.4,1.2-2.3,0.7-1.9-0.5
							c6.4-19.1,3.2-40.1-8.7-56.5C134.7,18.6,135.5,18.2,135.8,18.6z"/>
						<path id="Path_1053" class="st8" d="M20.9,43.9c5.5-0.9,75.1,15.8,76.8,15.9c3.8,0.3,4.9-4.3,5.5-6.9c1.8-7.2,2-14.7,3.5-21.9
							c0.1-0.4,0.2-0.8,0.3-1.1h-0.1c-7.5-7-10.5-17.6-7.8-27.5c0.2-0.5,0.7-0.8,1.2-0.7c0.5,0.1,0.8,0.7,0.7,1.2
							c-2.1,9.1,0.2,18.6,6.2,25.6c1.5-6.7,3.4-13.3,5.8-19.7c0.2-0.6,1.1-0.3,0.9,0.3c-4.3,13.6-5.7,27.1-7.8,41.1
							c-0.6,3.7-1.3,10.8-5.5,12.3c-4,1.4-65.8-10.9-72.3-14c-1.6-0.8-3.5-1.6-5.5-1.1c-1.9,0.4,16.8,138.1,16.8,138.1l-3-0.1
							c0,0-14.9-105-19.6-135.2C16.3,46.1,18.8,44.2,20.9,43.9z"/>
					</g>
					<g id="Group_892" transform="translate(23.68)">
						<g id="Group_888" transform="translate(79.545)">
							<g id="Group_887" transform="translate(0.042 26.909)">
								<g id="Group_886">
									<path id="Path_1054" class="st9" d="M1.1,26.5c3.5-1.1,3.9-3.2,4-3.5c0.4-1.3,0.6,5.8,0.1,6.4c-1,1.2-2.8,1.5-4.1,0.6
										C-0.3,29.1-0.4,27,1.1,26.5z"/>
									<path id="Path_1055" class="st9" d="M25.3,61.5c-4.3-1.2-8.2-3.4-11.3-6.5c2.2-1.4,4.1-5.5,4.1-8c-3.6,2.1-5.4,2.3-8.4,2.8
										c-9.7-13-6.4-30.2,0.3-41.9c1.2-2.3,2.9-4.3,5-5.9c0.1-0.1,0.1-0.1,0.2-0.1C20.7-2.1,27.5,0.9,32,5
										c5.1,4.6,9.4,10.1,12.6,16.2c5.8,11.1,9.3,31.6-3.9,39.3c-0.1,7.7-0.3,15.3-0.5,22.9c-0.4,0.6-1,1.1-1.7,1.3
										c-6.7,0.3-13.3-1.2-19.1-4.5c-0.2-0.1-0.4-0.3-0.4-0.5c-0.5-0.2-0.7-0.8-0.5-1.3c0,0,0-0.1,0-0.1
										C21.5,72.9,24.3,67.5,25.3,61.5z"/>
									<path id="Path_1056" class="st13" d="M12.8,31.9c0.7-0.3,1.5-0.5,2.2-0.8c2.5-0.8,5.1-0.9,7.7-0.4c2.6,0.7,5.7,2.5,4.5,5.7
										c-0.7,1.4-1.9,2.5-3.3,3.1c-2.1,0.8-4.4,1.2-6.7,1.2c-2.6,0-5.8-0.9-7.1-3.5C8.9,34.9,10.7,32.9,12.8,31.9z"/>
									<path id="Path_1057" class="st11" d="M8.5,21.6c1.8-2.9,5.4-4.1,8.6-2.9c3.2,1.2,5.3,4.2,5.2,7.6h-0.8
										c-0.2-2.8-1.9-5.3-4.4-6.5c-2.3-0.8-5.5,0.6-6.8,2.8C10,23.1,9.3,23.3,8.9,23C8.4,22.7,8.2,22.1,8.5,21.6z"/>
								</g>
							</g>
							<path id="Path_1058" class="st2" d="M89.2,64c-1.1-10.8-10.5-17.8-20.4-19.9C72.3,30.7,55.6,18.6,42.9,24
								C43,17.4,42,10.4,37.2,6.9c-3.1-2.3-7.8-1.7-9.7,1C22,0,11.9-4,4.3,5.6c-4.4,5.7-5.5,13.3-3,20c1.2,3.2,3.4,6,6.2,7.9
								c3.6,2.5,8.6,2.2,12.6,4.3c7.6,3.9,10.7,10.2,13.8,17.8c0.6,1.7,1.5,3.2,2.8,4.5c2,1.8,4.6,1.3,7,0.8c5.2-0.8,7.5,4.8,5.7,9
								c-2.5,5.9-10.5,6.1-13.4,11.7c-1.7,3.3-1.9,7.7,0.2,10.8c3.8,5.7,12.3,7.3,18.7,6.8c6.7-0.5,31.5-9.6,22.7-19.8
								C84.8,77.8,90.1,73.2,89.2,64z"/>
						</g>
						<path id="Path_1059" class="st14" d="M108.8,101.1c14.4,3.1,20.5,17.9,15,30.9c-1.9,4.6-9.2,0.6-6.9-4
							c4.9-9.7,0.5-20.1-9.1-24.5C106.3,102.9,107.4,100.8,108.8,101.1z"/>
						<g id="Group_891" transform="translate(0 80.599)">
							<g id="Group_889" transform="translate(68.369 17.6)">
								<path id="Path_1060" class="st7" d="M31.4,4c20.6-12,37,5,37.7,22.4c0.2,5.5-1.6,10.9-3.1,16.1c-1.8,6.3-3.6,12.6-5.4,18.9
									c-3.8,12.9-5.6,28.8-1.9,42.3c-13.1,1.4-44.4-1.8-57.5-5.7l4.1-17.8C7.6,73,8.6,65.4,7.9,57.8c0-0.2,0-0.4-0.1-0.6
									c-10-14.4-10.7-27.8-0.9-30.6C21.8,22.4,24.2,9.8,31.4,4z"/>
							</g>
							<g id="Group_890">
								<path id="Path_1061" class="st6" d="M33.1,0c28,33.3,21.2,67.8,21.1,68c-5.9,4.7-12.6,8.3-19.9,10.5
									c-0.6,0.2-13-45.6-34.3-61.2C2.6,15.4,24.5,1.9,33.1,0z"/>
								<path id="Path_1062" class="st9" d="M11.1,36.6c0.6-2.6,3.6-1.1,4.9-0.1c2.2,1.5,3.6,3.8,5.1,6c1,1.5,3.5,6.2,5.9,5.1
									c0.6-0.4,1-1.1,1.1-1.8c0.3-0.8,0.5-2.5,2.3-3c1.9-0.5,3,1.1,2.2,1.9c-1.5,1.4-1.4,3.6-1.9,5.2c-0.6,1.8-0.3,3.8-0.3,5.7
									c0.3,1.2,0.5,2.3,0.7,3.5c-1.6,2.7-5.7,2.2-6.9-0.3c-1.5-3.3-2.1-6.9-3.1-8.8c-1.3-2.3-3-4.3-5-6.1
									C14.7,42.5,10.5,39,11.1,36.6z"/>
								<path id="Path_1063" class="st6" d="M121.7,22.8c-3.6-2.6-8.6-3.7-12.4-0.9c-5.2,3.9-7.8,13-11.4,18.4
									C93.6,47,88.2,53,82.1,58c-10.6,8.7-27.8,22.9-42,12.6c-4.4-3.2-6.9-8.4-7.7-13.8c-3.3,0.1-6.5,0.9-9.4,2.5
									c-1.1,9,1.1,19,8,24.6c0.1,0.1,0.2,0.1,0.3,0.2c1.5,1.1,3,1.9,4.7,2.6c17.5,6.8,35.7,2,50.6-8.4
									c7.7-5.3,14.5-11.9,20.9-18.7c6.1-6.5,13.5-12.3,18.2-19.9c3-4.9,2.1-10.6-1.6-14.8C123.4,24.1,122.6,23.4,121.7,22.8z"/>
							</g>
						</g>
					</g>
				</g>
			</g>
			<path id="Path_1064" class="st6" d="M43.4,377.4c0.1,1.2-0.9,2.3-2.1,2.3c0,0,0,0-0.1,0c-5.4,0.2-10.7,0.6-16,1.4
				c-1.9,0.3-7.3,1.8-7-2c0.3-3.3,5.2-3.3,7.4-3.3c4.8,0,10.9-0.2,15.7-0.3c1-0.2,1.9,0.5,2.1,1.5C43.4,377.2,43.4,377.3,43.4,377.4
				z"/>
		</g>
		<g id="Group_913" transform="translate(82.746 150.368)">
			<g id="Group_912">
				<g id="Group_898" transform="translate(136.134 255.112)">
					<g id="Group_897" transform="translate(1.147)">
						<g id="Group_896">
							<path id="Path_1065" class="st8" d="M5.7,0C4.3,24.6,2.5,110.8,0,116.2h6.5c0,0,18.7-76.8,28.4-116.2H5.7z"/>
							<path id="Path_1066" class="st2" d="M15.8,0C11.2,39.5,1.1,114.2,1.1,114.2l3-0.1c0,0,10.2-72.3,16.5-114.2H15.8z"/>
						</g>
					</g>
					<path id="Path_1067" class="st6" d="M0,116c-0.1,1.2,0.9,2.3,2.1,2.3c0,0,0,0,0.1,0c5.4,0.2,10.7,0.6,16,1.4
						c1.9,0.3,7.3,1.8,7-2c-0.3-3.3-5.2-3.3-7.4-3.3c-4.8,0-10.9-0.2-15.7-0.3c-1-0.1-1.9,0.5-2.1,1.5C0,115.9,0,116,0,116z"/>
				</g>
				<g id="Group_902" transform="translate(28.085 248.448)">
					<g id="Group_900" transform="translate(6.098 34.01)">
						<path id="Path_1068" class="st7" d="M66.6,111.6L62.1,0h-6.2l-4.5,111.6H66.6z"/>
						<g id="Group_899" transform="translate(0 0.566)">
							<path id="Path_1069" class="st7" d="M15.6,96.8L34.1,1.3L28,0L0,96.8H15.6z"/>
							<path id="Path_1070" class="st7" d="M118,96.8L90,0l-6,1.3l18.4,95.5H118z"/>
						</g>
					</g>
					<g id="Group_901">
						<path id="Path_1071" class="st6" d="M130.3,17c0-9.4-29.2-17-65.1-17S0,7.6,0,17v6.6c0,9.4,29.2,17,65.1,17s65.1-7.6,65.1-17
							V17z"/>
						<ellipse id="Ellipse_28" class="st7" cx="65.1" cy="17" rx="65.1" ry="17"/>
					</g>
				</g>
				<g id="Group_911">
					<path id="Path_1072" class="st14" d="M83.5,102.3c-14.4,3.1-20.5,17.9-15,30.9c1.9,4.6,9.2,0.6,6.9-4
						c-4.9-9.7-0.5-20.1,9.1-24.5C85.9,104.2,84.9,102,83.5,102.3z"/>
					<g id="Group_903" transform="translate(49.025 191.555)">
						<path id="Path_1073" class="st2" d="M150.6,28.5c-26.7-0.9-60.8-4.3-75-6C74.4,19,70.2,3.5,69.1,0L23.3,6.7
							c-8.7,11.9-21,31.5-23,46.1c-1.6,12.1,4.9,26.1,19.1,26.7c3.1,0.2,6.1,0.8,9.1,1.8c23.6,7.4,99.8-13.4,104.1-16.4
							c-1.6,7.1-3.5,116.2-6.3,122.4h6.5c0,0,29.8-122.1,33.6-137.5C168.8,40.2,163.8,29,150.6,28.5z"/>
						<path id="Path_1074" class="st8" d="M31,18.6C18.6,35,14.9,56.4,21.3,76c0.4,1.2,2.3,0.7,1.9-0.5c-6.4-19.1-3.2-40.1,8.7-56.5
							C32.2,18.6,31.4,18.2,31,18.6z"/>
						<path id="Path_1075" class="st8" d="M146.1,43.9C140.6,43,71,59.7,69.3,59.8c-3.8,0.3-4.9-4.3-5.5-6.9
							c-1.8-7.2-2-14.7-3.5-21.9c-0.1-0.4-0.2-0.8-0.3-1.1h0.1c7.5-7,10.5-17.6,7.8-27.5c-0.2-0.5-0.7-0.8-1.2-0.7
							c-0.5,0.1-0.8,0.7-0.7,1.2c2.1,9.1-0.2,18.6-6.2,25.6c-1.5-6.7-3.4-13.3-5.8-19.7c-0.2-0.6-1.1-0.3-0.9,0.3
							C57.4,22.5,58.7,36,60.9,50c0.6,3.7,1.3,10.8,5.5,12.3c4,1.4,65.8-10.9,72.3-14c1.6-0.8,3.5-1.6,5.5-1.1
							c1.9,0.4-16.8,138.1-16.8,138.1l3-0.1c0,0,14.9-105,19.6-135.2C150.6,46.1,148.1,44.2,146.1,43.9z"/>
					</g>
					<g id="Group_907" transform="translate(54.851 83.742)">
						<g id="Group_904" transform="translate(0 14.37)">
							<path id="Path_1076" class="st7" d="M29.6,0C12.1,3.5,0.6,10.4,0,27.8c-0.2,5.5,1.6,10.9,3.1,16.1c1.8,6.3,3.6,12.6,5.4,18.9
								c3.8,12.9,5.6,28.8,1.9,42.3c13.1,1.4,44.4-1.8,57.5-5.7l-4.1-17.8c-2.5-7.2-3.4-14.9-2.8-22.5c0-0.2,0-0.4,0.1-0.6
								c10-14.4,10.7-27.8,0.9-30.6C47.2,23.7,34.3-0.9,29.6,0z"/>
						</g>
						<g id="Group_906" transform="translate(11.644)">
							<path id="Path_1077" class="st6" d="M92.5,0c-28,33.3-21.2,67.8-21.1,68c5.9,4.7,12.6,8.3,19.9,10.5
								c0.6,0.2,13-45.6,34.3-61.2C123,15.4,101.2,1.9,92.5,0z"/>
							<path id="Path_1078" class="st9" d="M114.6,36.5c-0.6-2.6-3.6-1.1-4.9-0.1c-2.2,1.5-3.6,3.8-5.1,6c-1,1.5-3.5,6.2-5.9,5.1
								c-0.6-0.4-1-1.1-1.1-1.8c-0.3-0.8-0.5-2.5-2.3-3c-1.9-0.5-3,1.1-2.2,1.9c1.5,1.4,1.4,3.6,1.9,5.2c0.6,1.8,0.3,3.8,0.3,5.7
								c-0.3,1.2-0.5,2.3-0.7,3.5c1.2,1.8,3.6,2.4,5.4,1.2c0.6-0.4,1.1-0.9,1.4-1.5c1.5-3.3,2.1-6.9,3.1-8.8c1.3-2.3,3-4.3,5-6.1
								C111,42.4,115.2,38.9,114.6,36.5z"/>
							<g id="Group_905" transform="translate(0 23.072)">
								<path id="Path_1079" class="st6" d="M93.3,31.8c-0.9,5.5-3.3,10.7-7.7,13.8c-14.3,10.2-31.4-3.9-42-12.6
									C32.9,24.2,24.4,12.8,19,0C13.5,3.1,8.4,7,3.9,11.4c-1.3,1.2-2.6,2.5-3.9,3.8c0.4-0.1,0.8-0.2,1.2-0.3
									c1.1-0.2,7.2,8.6,8.1,9.7c3,3.5,6,7,9.2,10.3c6.2,6.8,13.2,13,20.7,18.4c14.9,10.3,33.1,15.2,50.6,8.4
									c1.7-0.6,3.3-1.5,4.7-2.6c0.1-0.1,0.2-0.1,0.3-0.2c6.9-5.5,9.1-15.6,8-24.6C99.9,32.8,96.6,31.9,93.3,31.8z"/>
							</g>
						</g>
					</g>
					<g id="Group_910">
						<g id="Group_909" transform="translate(62.896 28.166)">
							<g id="Group_908">
								<path id="Path_1080" class="st9" d="M48.7,26.5c-3.5-1.1-3.9-3.2-4-3.5c-0.4-1.3-0.6,5.8-0.1,6.4c1,1.2,2.8,1.5,4.1,0.6
									C50.1,29.1,50.2,27,48.7,26.5z"/>
								<path id="Path_1081" class="st9" d="M24.4,61.5c4.3-1.2,8.2-3.4,11.3-6.5c-2.2-1.4-4.1-5.5-4.1-8c3.6,2.1,5.4,2.3,8.4,2.8
									c9.7-13,6.4-30.2-0.3-41.9c-1.2-2.3-2.9-4.3-5-5.9c-0.1-0.1-0.1-0.1-0.2-0.1C29.1-2.1,22.3,0.9,17.7,5
									C12.6,9.6,8.4,15.1,5.2,21.2c-5.8,11.1-9.3,31.6,3.9,39.3c0.2,7.7,0.3,15.3,0.5,22.9c0.4,0.6,1,1.1,1.7,1.3
									c6.7,0.3,13.3-1.2,19.1-4.5c0.2-0.1,0.4-0.3,0.4-0.5c0.5-0.2,0.7-0.8,0.5-1.3c0,0,0-0.1,0-0.1
									C28.2,72.9,25.4,67.5,24.4,61.5z"/>
								<path id="Path_1082" class="st13" d="M36.9,31.9c-0.7-0.3-1.5-0.5-2.2-0.8c-2.5-0.8-5.1-0.9-7.7-0.4
									c-2.6,0.7-5.7,2.5-4.5,5.7c0.7,1.4,1.9,2.5,3.3,3.1c2.1,0.8,4.4,1.2,6.7,1.2c2.6,0,5.8-0.9,7.1-3.5
									C40.8,34.9,39.1,32.9,36.9,31.9z"/>
								<path id="Path_1083" class="st11" d="M41.3,21.6c-1.8-2.9-5.4-4.1-8.6-2.9c-3.2,1.2-5.3,4.2-5.2,7.6h0.8
									c0.2-2.8,1.9-5.3,4.4-6.5c2.3-0.8,5.5,0.6,6.8,2.8C40.2,23.8,41.9,22.8,41.3,21.6z"/>
							</g>
						</g>
						<path id="Path_1084" class="st2" d="M98.9,1.2c-7.5-3.4-16.3,0.9-21.6,6.4c-3.5,3.8-6,8.5-7.1,13.6c-9.5-1.5-19.8,2.2-26.5,9
							c-8.1,8.1-6.3,19.2-5.7,29.5c0.4,6.9,0.4,14-1.6,20.6c-2.7,8.4-8.8,13.4-15.4,18.6c-8.6,6.9-15.5,15-19.1,25.5
							c-3.3,9.7-2.6,19.9,6,26.4c9.7,7.3,23.1,9.7,35,10.8c9.6,0.9,21.3,0.1,26.8-9.1c2.5-4.1,2.9-8.9,3.9-13.5
							c0.8-3.4,1.7-7,4.3-9.4c2.6-2.4,6.2-3.5,9.1-5.7c8.8-6.8,11.6-18.7,8.5-29.2c-1.6-5.1-4.3-9.8-8-13.8
							c-4.5-4.9-10.2-8.7-15.3-13c-1.4-1.2-3.6-3.3-1.8-5.1c1.3-1.2,3.3-1.1,4.4,0.2c0,0,0.1,0.1,0.1,0.1c0.2,0.3,0.5,0.6,0.6,0.9
							c0.4,0.7,1.3,0.9,2,0.5c0.4-0.3,0.7-0.7,0.7-1.2c1-11.4,7.5-21.7,17.5-27.4c0.4,0,0.7-0.1,1-0.3c0.3-0.3,0.6-0.5,0.9-0.7
							c0.4-0.3,0.8-0.5,1.3-0.7c0.3-0.2,0.6-0.5,0.7-0.8c5.4-4,10.1-6.9,10.1-15.1C109.7,11.7,105.2,4.1,98.9,1.2z"/>
					</g>
				</g>
			</g>
			<path id="Path_1085" class="st6" d="M172.2,378.7c-0.1,1.2,0.9,2.3,2.1,2.3c0,0,0,0,0.1,0c5.4,0.2,10.7,0.6,16,1.4
				c1.9,0.3,7.3,1.8,7-2c-0.3-3.3-5.2-3.3-7.4-3.3c-4.8,0-10.9-0.2-15.7-0.3c-1-0.2-1.9,0.4-2,1.4
				C172.2,378.4,172.2,378.6,172.2,378.7z"/>
		</g>
		<g id="Group_918" transform="translate(2.834 188.439)">
			<g id="Group_915">
				<g id="Group_914">
					<path id="Path_1086" class="st8" d="M100.5,174.2c-6.6-14.4-13-30.7-10.2-46.4c2.8-15.1,18.9-26.3,15.8-42.8
						c-1.3-6.7-5.7-12.2-10.7-16.8c-4.9-4.7-10.5-8.6-14.8-13.8c-2.6-3.1-4.8-6.7-5.5-10.7c-1.5-9.9,8.6-18,4.1-27.8
						C71.7-0.2,49-3.4,34.1,3.2C15.2,11.6,2.7,33.3,3,53.7C3.4,80.2,23.6,95,30.7,118.2c2.3,7.4-1.5,12.8-5.8,18.2
						c-8.4,10.6-16,22.5-17.6,36.3c-0.7,5.4-0.2,10.9,1.5,16.1c2.4,7.3,8.2,14.2,6.7,22.2c-2.2,11.8-14.3,19-15.3,31.6
						c-2.2,25.9,26.1,37.8,47.6,36.6c22.5-1.2,48.9-9.5,61.9-29.3c14.3-21.9,3.4-48.6-6.5-69.8C102.3,178.1,101.3,176.2,100.5,174.2
						z"/>
					<path id="Path_1087" class="st2" d="M70,67.6c0.9-0.7,0-2.3-1-1.6c-10.2,7.3-17.9,17.5-22.1,29.3c-0.2-1.2-0.4-2.3-0.6-3.5
						c-4.4-23.4-9-48.7,2.1-71.1c0.2-0.4,0-0.9-0.4-1c-0.4-0.2-0.8,0-1,0.3c-8.6,15-9.6,31.7-8,48.4c-8.6-9.4-16.2-19.6-19.6-32.1
						c-0.1-0.2-0.3-0.3-0.5-0.2c-0.1,0.1-0.2,0.2-0.2,0.3c2.1,15.1,11.4,26.7,20.7,38.2c0.1,0.1,0.2,0.3,0.3,0.3
						c0.1,0.9,0.3,1.8,0.4,2.7c3.4,24.5,7.9,48.7,10.3,73.2c0.8,8.7,1.5,17.3,2.1,26c-9.1-7.2-15.9-17-19.5-28
						c-0.1-0.1-0.3-0.1-0.3,0.1c2.1,13.2,9.5,24.5,20.1,32.3c0.9,15.5,1.3,31.1,1.1,46.6c-0.3,26.7,0.2,71.9-2.5,98.4
						c-0.4,3.7,5,5.3,5.8,1.4c7.2-36.8,4.4-94.7,2.2-132.6c0.7-1.6,1.5-3.2,2.5-4.7c2.2-3.6,4.8-6.9,7.7-10c1.2-1.3-0.8-3.1-2-1.9
						c-3.3,3.3-6.1,6.9-8.5,10.9c-0.1-2.3-0.3-4.5-0.5-6.7c0.1-0.5,0.1-1-0.1-1.4c-0.5-6.7-1.1-13.5-1.8-20.1
						c-1.9-19.4-4.8-38.6-8.2-57.8C50.8,89.1,58.6,76.4,70,67.6z"/>
				</g>
				<path id="Path_1088" class="st6" d="M15.2,307.1l-1.3,23.1l10,2.9l0.6,56.9h61.2v-0.1c1.5-13.4,4.5-57.6,4.5-57.6l12.5-1.3
					l-0.8-23.9L15.2,307.1z"/>
				<path id="Path_1089" class="st7" d="M13.9,330.2l65.8,7.2l6,52.7V390c1.5-13.4,4.5-57.6,4.5-57.6l12.5-1.3L13.9,330.2z"/>
			</g>
			<g id="Group_917" transform="translate(718.757)">
				<g id="Group_916">
					<path id="Path_1090" class="st8" d="M16.1,174.2c6.6-14.4,13-30.7,10.2-46.4C23.5,112.7,7.3,101.5,10.4,85
						c1.3-6.7,5.7-12.2,10.7-16.8c4.9-4.7,10.5-8.6,14.8-13.8c2.6-3.1,4.8-6.7,5.5-10.7c1.5-9.9-8.6-18-4.1-27.8
						C44.8-0.2,67.6-3.4,82.4,3.2c18.9,8.4,31.4,30.1,31.1,50.4c-0.4,26.6-20.6,41.3-27.7,64.5c-2.3,7.4,1.5,12.8,5.8,18.2
						c8.4,10.6,16,22.5,17.6,36.3c0.7,5.4,0.2,10.9-1.5,16.1c-2.4,7.3-8.2,14.2-6.7,22.2c2.2,11.8,14.3,19,15.3,31.6
						c2.2,25.9-26.1,37.8-47.6,36.6c-22.5-1.2-48.9-9.5-61.9-29.3c-14.3-21.9-3.4-48.6,6.5-69.8C14.2,178.1,15.1,176.2,16.1,174.2z"
						/>
					<path id="Path_1091" class="st2" d="M46.5,67.6c-0.9-0.7,0-2.3,1-1.6c10.2,7.3,17.9,17.5,22.1,29.3c0.2-1.2,0.4-2.3,0.6-3.5
						c4.4-23.4,9-48.7-2.1-71.1c-0.2-0.4,0-0.9,0.4-1c0.4-0.2,0.8,0,1,0.3c8.6,15,9.6,31.7,8,48.4c8.6-9.4,16.2-19.6,19.6-32.1
						c0.1-0.2,0.3-0.3,0.5-0.2c0.1,0.1,0.2,0.2,0.2,0.3c-2.1,15.1-11.4,26.7-20.7,38.2C77,74.8,77,74.9,76.9,75
						c-0.1,0.9-0.3,1.8-0.4,2.7c-3.4,24.5-7.9,48.7-10.3,73.2c-0.8,8.7-1.5,17.3-2.1,26c9.1-7.2,15.9-17,19.5-28
						c0.1-0.1,0.3-0.1,0.3,0.1c-2.1,13.2-9.5,24.5-20.1,32.3c-0.9,15.5-1.3,31.1-1.1,46.6c0.3,26.7-0.2,71.9,2.5,98.4
						c0.4,3.7-5,5.3-5.8,1.4c-7.2-36.8-4.4-94.7-2.2-132.6c-0.7-1.6-1.5-3.2-2.5-4.7c-2.2-3.6-4.8-6.9-7.7-10
						c-1.2-1.3,0.8-3.1,2-1.9c3.3,3.3,6.1,6.9,8.5,10.9c0.1-2.3,0.3-4.5,0.5-6.7c-0.1-0.5-0.1-1,0.1-1.4c0.5-6.7,1.1-13.5,1.8-20.1
						c1.9-19.4,4.8-38.6,8.2-57.8C65.7,89.2,57.9,76.4,46.5,67.6z"/>
				</g>
				<path id="Path_1092" class="st6" d="M101.3,307.1l1.3,23.1l-10,2.9L92,390H30.8v-0.1c-1.5-13.4-4.5-57.6-4.5-57.6L13.7,331
					l0.8-23.9L101.3,307.1z"/>
				<path id="Path_1093" class="st7" d="M102.6,330.2l-67.5,7.6L30.8,390v-0.1c-1.5-13.4-4.5-57.6-4.5-57.6L102.6,330.2z"/>
			</g>
		</g>
		<path id="Path_1094" class="st7" d="M625.9,346.6L221,336.4v-14.3h404.9V346.6z"/>
	</g>
</g>
<g id="search-bcg-key-blue" transform="translate(1461.3 369.5)">
	<path id="Path_1095" class="st0" d="M0.7,19.5h534v534H0.7"/>
	<g id="Group_925" transform="translate(60.828 231.391)">
		<g id="Group_919" transform="translate(0.64)">
			<path id="Path_1096" class="st2" d="M76.7,36.8L349.4,36l0.1,24.5h-8.2l1.8,43.5h-18.8l0.7-13h-9.7V104h-12.3V89.3l-9,0.1v19.5
				h-11.4l-0.1-52.2L76.7,57.4V36.8z"/>
			<path id="Path_1097" class="st2" d="M55.3,0C27.9,0.1,5.8,22.4,5.9,49.8C6,77.2,28.2,99.3,55.6,99.2
				c27.4-0.1,49.5-22.4,49.4-49.8c0,0,0,0,0,0C105,22.1,82.8-0.1,55.4,0C55.4,0,55.4,0,55.3,0z M37.4,62.4c-7,0-12.7-5.7-12.7-12.7
				c0-7,5.7-12.7,12.7-12.7s12.7,5.7,12.7,12.7c0,0,0,0,0,0C50.1,56.7,44.5,62.4,37.4,62.4C37.4,62.4,37.4,62.4,37.4,62.4z"/>
			<path id="Path_1098" class="st15" d="M72.1,36.8L345,36l0.1,24.5h-8.2l1.8,43.5h-18.8l0.7-13h-9.8l0.1,13.1h-12.3V89.3l-9.1,0.1
				l0.1,19.5l-11.4,0.1L278,56.7L72.2,57.4L72.1,36.8z"/>
			<path id="Path_1099" class="st3" d="M49.4,0C22,0.1-0.1,22.4,0,49.8c0.1,27.4,22.4,49.5,49.8,49.4c27.4-0.1,49.5-22.4,49.4-49.8
				c0,0,0,0,0,0C99.2,22.1,76.9-0.1,49.6,0C49.5,0,49.5,0,49.4,0z M31.5,62.4c-7,0-12.7-5.7-12.7-12.7c0-7,5.7-12.7,12.7-12.7
				s12.7,5.7,12.7,12.7c0,0,0,0,0,0C44.1,56.6,38.5,62.3,31.5,62.4z"/>
			<path id="Path_1100" class="st15" d="M49.4,0C22,0.1-0.1,22.4,0,49.8c0.1,27.4,22.4,49.5,49.8,49.4c27.4-0.1,49.5-22.4,49.4-49.8
				c0,0,0,0,0,0C99.2,22.1,76.9-0.1,49.6,0C49.5,0,49.5,0,49.4,0z M31.5,62.4c-7,0-12.7-5.7-12.7-12.7c0-7,5.7-12.7,12.7-12.7
				s12.7,5.7,12.7,12.7c0,0,0,0,0,0C44.1,56.6,38.5,62.3,31.5,62.4z"/>
			<path id="Path_1101" class="st2" d="M345,36c0,0-11.3,9.5,0.1,24.5C345.1,60.4,355.1,46.1,345,36z"/>
		</g>
		<g id="Group_920" transform="translate(329.051 92.73)" class="st16">
			<path id="Path_1102" class="st17" d="M0,11.6c0-3.5,1.7-6.7,4.5-8.8c1-0.6,2-1.2,3-1.6c1.1-0.5,2.2-0.9,3.4-1.2
				c1.2-0.2,2.5,0,3.5,0.6l0.3,10.5L0,11.6z"/>
		</g>
		<path id="Path_1103" class="st18" d="M334.6,89.1"/>
		<g id="Group_921" transform="translate(344.274 36.337)" class="st16">
			<path id="Path_1104" class="st17" d="M5.1,23.3c-1.5-1.7-3.1-3.4-3.8-5.4c-0.4-1.5-0.7-3-0.9-4.5c-0.5-3-0.5-6.1,0-9.1
				c0.1-1.4,0.8-2.7,1.8-3.6c1.1-0.9,2.7-0.8,3.7,0.2L5.1,23.3z"/>
		</g>
		<g id="Group_922" transform="translate(28.831 46.774)" class="st16">
			<path id="Path_1105" class="st17" d="M17.5,0c0.7-0.1,1.6,1.6,1.9,4.5c0.2,1.7,0.1,3.4-0.2,5.1c-0.4,2.5-1.7,4.7-3.6,6.3
				c-3.1,2.5-7,3.9-11,4c-3-0.1-4.7-1-4.6-1.7c0-0.7,1.7-1.3,4.1-2.1c1.4-0.5,2.7-1,4-1.7c1.5-0.7,2.9-1.6,4.2-2.7
				c1.1-0.9,1.9-2.1,2.3-3.4c0.5-1.4,0.9-2.8,1.2-4.2C16.3,1.7,16.8,0,17.5,0z"/>
		</g>
		<g id="Group_923" transform="translate(183.696 39.429)" class="st19">
			<path id="Path_1106" class="st17" d="M3.4,0.4c4.3-1,8.8,0,12.2,2.8c4.1,3.4,6.1,9.1,10.7,11.6c4.4,2.4,9.7,1.3,14.3-0.5
				s9.1-4.4,14-4.8s10.6,2.1,11.5,6.9C44.5,17.7,21.6,17.3,0,18.6"/>
		</g>
		<g id="Group_924" transform="translate(0 37.808)" class="st16">
			<path id="Path_1107" class="st17" d="M1.7,0C7.6,0.2,9.9,4.2,13,9.2s4.2,11.1,4,17c-0.2,3.5-0.7,7.2-0.3,10.7
				c1.3,8,7.8,14.2,15.9,15c2.5,0.1,5-0.1,7.5-0.6c3.2-0.5,6.3-1,9.5-1.5c4.5-0.6,9.6-1.3,12.6,3.7c0.8,1.5,1.3,3.2,1.5,4.9
				c0.2,3.1,1.1,0.1,0.2,3.1L47.4,61C22.6,60.3,2.3,41.2,0,16.6L1.7,0z"/>
		</g>
	</g>
	<g id="Group_946" transform="translate(38.036 270.301)">
		<path id="Path_1108" class="st20" d="M69.3,60.4c0.2-0.4,0.7-0.6,1.2-0.4c0.4,0.1,0.8,0.3,1.2,0.6c3.7,2.3,8.4,2.2,11.9-0.4
			c-3.2-1.3-6.5-2.5-9.8-3.4c1.2-0.2,2.3-0.9,3-1.9c0.1-0.1,0.2-0.3,0.1-0.4c-0.1-0.1-0.2-0.1-0.3-0.1c-0.9,0-1.7,0.1-2.5,0.5
			c-1.6,0.6-3.2,1.4-4.8,2c-0.2,0.1-0.4,0.2-0.5,0.3c-0.1,0.2-0.1,0.5-0.1,0.7c0.1,0.7,0.2,1.4,0.2,2.1"/>
		<path id="Path_1109" class="st21" d="M24,185.6l-1.2,6.3l3.3-0.2l1.6-6.4L24,185.6z"/>
		<path id="Path_1110" class="st21" d="M49.5,183.9l-0.4,6.3l3.3-0.5l0.9-6.4L49.5,183.9z"/>
		<path id="Path_1111" class="st20" d="M29.3,7l4.3,11.4c1,2.5-0.3,5.3-2.8,6.3c0,0,0,0-0.1,0l-1.5,0.5l0.6,8.3l-11.6,0.9L16.4,11
			L29.3,7z"/>
		<path id="Path_1112" class="st7" d="M28.8,0.3c0,0-2.3-1.5-5.2,2.3c-2.9,3.9-9.6,1.3-11.7,6.1c-2.2,4.8-0.5,10.5,2.5,14.7l2.1,3.3
			l6-0.4c0,0,2.6-5.8,1.5-7.4c0,0-6.6-1-4.6-4.5s5.2,1.5,5.2,1.5l1.7-0.2l-2-6.6c0,0,5.9-1.2,6.6-4.8C31.4,0.5,28.8,0.3,28.8,0.3z"
			/>
		<path id="Path_1113" class="st7" d="M8.4,97.3l15.1,35.4c1.4,3.3,1.9,6.8,1.6,10.4l-3.8,44.4l8-0.5c0,0,10.9-39.8,11-50
			c0-4.8-5.7-25.5-5.7-25.5s9.5,15.7,9.6,24.4s3.4,49.9,3.4,49.9l6.4-0.4c0,0,10.6-44.5,0.4-69.5C45.5,93.6,41,80.4,41,80.4
			L8.4,97.3z"/>
		<path id="Path_1114" class="st22" d="M17.2,29.7C7.1,33.7,0.3,43.3,0,54.2c-0.7,19,8.3,43.1,8.3,43.1l33.1-12.8l-1-10.5l-5.9-36
			c-0.3-1.8-1.6-3.4-3.4-4L17.2,29.7z"/>
		<g id="Group_926" transform="translate(30.161 36.278)">
			<path id="Path_1115" class="st23" d="M7.2,46.9C7.1,46.8,7,46.6,7,46.5c-0.1-0.4-0.1-0.9-0.2-1.4c-0.2-1.4-0.5-3.1-0.9-5
				c-0.7-4.6-1.6-10.3-2.6-16.6S1.6,11.5,1,6.9C0.6,5,0.4,3.3,0.2,1.9C0.1,1.4,0.1,1,0,0.5V0c0.1,0.1,0.1,0.3,0.1,0.4
				c0.1,0.4,0.1,0.9,0.2,1.4c0.2,1.4,0.5,3.1,0.9,5c0.7,4.6,1.6,10.3,2.6,16.6s1.8,12,2.5,16.6c0.3,1.9,0.5,3.6,0.7,5
				c0.1,0.5,0.1,1,0.2,1.4C7.2,46.8,7.3,46.9,7.2,46.9z"/>
		</g>
		<path id="Path_1116" class="st23" d="M17.2,29.7l12.6,3.4l-0.4,3.3l-15-5.4L17.2,29.7z"/>
		<path id="Path_1117" class="st23" d="M29.6,33l2.5,3.3l-0.2-2.8l-2.3-2.6L29.6,33z"/>
		<path id="Path_1118" class="st2" d="M29.8,33.2l-0.4,3.2l2.1,3.1l0.3-3.4l-1.9-2.7"/>
		<path id="Path_1119" class="st2" d="M31.2,38.9c0,0,3.4,22.5-6.4,26.7s-13.5,4.9-13.5,4.9l-3.3,6.3L16,78c0,0,23-5.5,21.9-20.1
			c-1.1-14.5-6.2-20.3-6.2-20.3L31.2,38.9z"/>
		<path id="Path_1120" class="st22" d="M9.5,50.7L39.9,65l29.5-2.1l-0.5-8.2l-24.4-0.2L16.6,36.2"/>
		<g id="Group_927" transform="translate(9.64 51.977)">
			<path id="Path_1121" class="st23" d="M0,0c0,0,0.4,0.2,1.2,0.5S3,1.4,4.4,2c2.7,1.2,6.5,2.7,10.8,4.3s8.1,3.2,10.8,4.5
				c1.4,0.6,2.5,1.2,3.2,1.6c0.7,0.4,1.1,0.6,1.1,0.6s-0.4-0.2-1.2-0.5s-1.8-0.9-3.2-1.5c-2.7-1.2-6.5-2.7-10.8-4.3S7,3.5,4.3,2.2
				C2.9,1.6,1.8,1.1,1.1,0.6C0.3,0.3-0.1,0,0,0z"/>
		</g>
		<g id="Group_928" transform="translate(20.443 38.627)">
			<path id="Path_1122" class="st23" d="M22.7,15.2c-0.3-0.1-0.6-0.3-1-0.4c-0.6-0.3-1.5-0.9-2.6-1.5c-2.1-1.3-4.9-3.2-8-5.4
				S5.3,3.6,3.3,2.2C2.5,1.7,1.6,1.2,0.9,0.6C0.3,0.3,0,0.1,0,0c0.3,0.1,0.6,0.3,1,0.4c0.6,0.3,1.5,0.9,2.6,1.5
				c2.1,1.3,4.9,3.2,8,5.4s5.9,4.2,7.9,5.6c0.9,0.5,1.7,1.1,2.5,1.6C22.4,15,22.7,15.2,22.7,15.2z"/>
		</g>
		<g id="Group_929" transform="translate(63.824 54.754)">
			<path id="Path_1123" class="st23" d="M1.2,8.4C0.8,7.1,0.5,5.7,0.4,4.3C0.1,1.9-0.1,0,0.1,0c0.4,1.4,0.6,2.8,0.7,4.2
				C1.1,5.6,1.2,7,1.2,8.4z"/>
		</g>
		<g id="Group_930" transform="translate(64.978 59.745)">
			<path id="Path_1124" class="st23" d="M4.2,0c-0.6,0.4-1.3,0.7-2,0.7C1.4,1,0.7,1,0,0.9c0.6-0.3,1.3-0.5,2-0.5
				C2.7,0.2,3.4,0,4.2,0z"/>
		</g>
		<path id="Path_1125" class="st7" d="M22.8,191.9c-0.6,1.1-0.8,2.3-0.7,3.5l17.3-1.3c0,0,1.5-3.5-13.1-2.6L22.8,191.9z"/>
		<path id="Path_1126" class="st7" d="M49.1,190c-0.6,1.1-0.8,2.3-0.7,3.5l18.4-1.4c0,0,0.5-3.2-14.3-2.5L49.1,190z"/>
		<g id="Group_931" transform="translate(28.116 190.691)">
			<path id="Path_1127" class="st23" d="M2.8,0c0.1,0.1-0.6,0.5-1.4,1.3C1,1.7,0.5,2.1,0,2.5C-0.1,2.4,0.3,1.6,1.2,1
				C1.9,0.2,2.7-0.1,2.8,0z"/>
		</g>
		<g id="Group_932" transform="translate(29.721 191.011)">
			<path id="Path_1128" class="st23" d="M2.7,0c0.1,0.1-0.5,0.5-1.3,1.2C0.7,1.7,0,2.3,0,2.2C-0.1,2,0.4,1.4,1.2,0.8
				C1.8,0.2,2.6-0.1,2.7,0z"/>
		</g>
		<g id="Group_933" transform="translate(31.534 190.994)">
			<path id="Path_1129" class="st23" d="M2.8,0C2.4,0.4,1.9,0.7,1.4,1C0.7,1.5,0.1,2.1,0,2c-0.1-0.1,0.3-0.7,1.2-1.4
				C1.6,0.2,2.2,0,2.8,0z"/>
		</g>
		<g id="Group_934" transform="translate(25.766 188.981)">
			<path id="Path_1130" class="st23" d="M2.4,3.3C2.1,2.7,2,2.1,2,1.4c0-0.3,0-0.7,0.2-1C2.3,0.3,2.5,0.1,2.7,0C3,0,3.3,0.1,3.3,0.4
				c0,0,0,0,0,0c0,0.4-0.1,0.9-0.2,1.3L2.9,2.4L2.8,2.7c0,0.1,0,0.2-0.1,0.2C2.6,3,2.5,3.1,2.4,3C1.5,2.7,0.7,2.3,0.1,1.6
				C0,1.4-0.1,1.1,0.1,0.9s0.4-0.3,0.6-0.2C1.1,0.7,1.5,1,1.6,1.3C2,1.8,2.2,2.5,2.2,3.1C2.1,2.5,1.8,1.9,1.4,1.4C1.3,1.2,1,1,0.8,1
				C0.4,1,0.3,1.2,0.5,1.4c0.6,0.5,1.2,0.9,1.9,1.2c-0.1,0.2,0-0.2,0.1-0.3l0.2-0.6C2.9,1.3,3,0.9,3,0.6c0-0.3-0.2-0.1-0.4,0.1
				C2.4,0.9,2.4,1.2,2.4,1.5C2.3,2.6,2.5,3.3,2.4,3.3z"/>
		</g>
		<g id="Group_935" transform="translate(54.7 188.361)">
			<path id="Path_1131" class="st23" d="M2.7,0.1c0-0.1,0-0.1,0.1-0.1c0,0,0,0,0,0l0.1,0.1c-0.5,0.4-1,0.8-1.5,1.2
				C0.6,2,0.1,2.9,0,2.8C0.1,2,0.5,1.4,1.1,1c0.5-0.5,1.1-0.8,1.8-1L3,0.1C2.8,0.2,2.7,0.2,2.7,0.1z"/>
		</g>
		<g id="Group_936" transform="translate(56.195 188.751)">
			<path id="Path_1132" class="st23" d="M2.6,0c0,0.1-0.7,0.4-1.4,1C0.5,1.6,0.1,2.3,0,2.2c-0.1,0,0.1-0.9,1-1.6
				C1.7,0,2.6-0.1,2.6,0z"/>
		</g>
		<g id="Group_937" transform="translate(57.802 188.965)">
			<path id="Path_1133" class="st23" d="M2.4,0C2,0.4,1.6,0.7,1.2,0.9c-0.6,0.4-1.1,1-1.2,1s0.2-0.7,0.9-1.3C1.6,0,2.3-0.1,2.4,0z"
				/>
		</g>
		<g id="Group_938" transform="translate(51.868 187.276)">
			<path id="Path_1134" class="st23" d="M2.3,2.9C2.2,2.8,2.1,2.7,2,2.6C1.9,2.2,1.9,1.7,1.9,1.3c0-0.3,0-0.6,0.1-0.9
				C2.1,0.3,2.1,0,2.4,0C2.8-0.1,3,0.3,3,0.6c0.1,0.4,0.1,0.8,0,1.2c0,0.2-0.1,0.4-0.1,0.6c0,0.1-0.1,0.2-0.1,0.3
				C2.6,2.8,2.5,2.9,2.3,2.9C1.9,2.9,1.5,2.8,1,2.7c-0.4-0.1-0.7-0.4-1-0.7C0,1.7,0,1.5,0.1,1.3c0-0.2,0.4-0.2,0.4-0.1l0.2,0.1
				C1,1.5,1.2,1.6,1.5,1.8c0.7,0.7,1.1,1.4,1,1.4S2,2.7,1.3,2C1,1.9,0.8,1.7,0.6,1.6L0.4,1.5V1.4h0.1c0,0.1,0,0.2,0.1,0.3
				c0.2,0.5,1.2,0.7,1.7,0.9C2.4,2.7,2.5,2,2.6,1.8V0.8c0-0.2-0.1-0.2-0.1-0.2c-0.1,0-0.1,0.1-0.1,0.2C2.3,1,2.3,1.3,2.3,1.6
				C2.2,2,2.2,2.4,2.2,2.8C2.3,2.8,2.3,2.8,2.3,2.9C2.3,2.9,2.3,2.9,2.3,2.9z"/>
		</g>
		<g id="Group_939" transform="translate(21.083 183.207)">
			<path id="Path_1135" class="st23" d="M8.7,0C7.3,0.5,5.8,0.7,4.4,0.9C2.9,1.2,1.5,1.3,0,1.3c1.4-0.4,2.8-0.7,4.3-0.9
				C5.7,0.2,7.2,0.1,8.7,0z"/>
		</g>
		<g id="Group_940" transform="translate(46.395 182.31)">
			<path id="Path_1136" class="st23" d="M9,0.1C7.5,0.4,6,0.5,4.5,0.6C3,0.8,1.5,0.8,0,0.7c1.5-0.3,3-0.5,4.5-0.5C6,0,7.5-0.1,9,0.1
				z"/>
		</g>
		<g id="Group_941" transform="translate(13.815 98.325)">
			<path id="Path_1137" class="st23" d="M1.4,0c0.7,1.6,1,3.4,0.6,5.1C1.8,6.9,1.1,8.6,0,9.9C1.7,6.9,2.1,3.4,1.4,0z"/>
		</g>
		<g id="Group_942" transform="translate(37.931 87.859)">
			<path id="Path_1138" class="st23" d="M8.9,8.3C8.3,8.2,7.7,8,7.1,7.8C5.7,7.2,4.4,6.4,3.3,5.3c-1.1-1.1-2-2.3-2.7-3.6
				C0.1,0.6-0.1,0,0,0c1,1.8,2.2,3.5,3.6,5C5.2,6.5,6.9,7.6,8.9,8.3z"/>
		</g>
		<g id="Group_943" transform="translate(27.79 92.561)">
			<path id="Path_1139" class="st23" d="M8.1,14.2c-0.7,0.5-1.4,0.9-2.1,1.3l-0.1,0.1l-0.1-0.1c-1.1-2.1-2.1-4.2-3-6.4
				C1.8,6.6,1,4.4,0.6,2.8C0.3,1.9,0.1,1.3,0,0.7C-0.1,0.5,0,0.2,0.2,0c-0.1,0.2-0.1,0.5,0,0.7c0.1,0.4,0.4,1.1,0.6,1.9
				C1.4,4.3,2.3,6.5,3.3,9c1.1,2.6,2.1,4.8,2.9,6.4L6,15.3C7.2,14.5,8,14.1,8.1,14.2z"/>
		</g>
		<g id="Group_944" transform="translate(34.54 92.775)">
			<path id="Path_1140" class="st23" d="M16.3,89.9v-3.7c0-2.6,0.1-6,0.2-10.1c0.2-8.7,0.4-20.4,0.7-33.3
				c-0.2-6.1-1.3-12.1-3.4-17.8c-1.7-4.7-3.8-9.2-6.3-13.5C5.9,8.5,4.1,5.7,2.1,3C1.5,2.1,1,1.4,0.5,0.7C0.3,0.5,0.2,0.3,0,0
				c0,0,0.2,0.2,0.6,0.7s1,1.2,1.7,2.1c2,2.7,3.9,5.5,5.6,8.4c2.6,4.3,4.7,8.9,6.4,13.6c2.2,5.7,3.3,11.8,3.5,17.9
				c-0.3,12.9-0.6,24.6-0.9,33.3c-0.1,4.2-0.2,7.6-0.3,10c0,1.1-0.1,2-0.1,2.8C16.4,89.3,16.4,89.6,16.3,89.9z"/>
		</g>
		<g id="Group_945" transform="translate(20.549 98.008)">
			<path id="Path_1141" class="st23" d="M4.9,86.3c0-0.3,0-0.6,0.1-0.9c0.1-0.7,0.3-1.6,0.5-2.6c0.5-2.4,1.2-5.6,2-9.4
				c0.9-4.1,1.8-8.8,2.9-14c0.5-2.7,1.1-5.4,1.6-8.2c0.6-2.9,1-5.9,1.3-8.9c-0.1-5.8-1-11.6-2.8-17.1c-1.4-4.5-3-9-4.9-13.4
				c-1.6-3.7-3-6.7-4.1-8.8c-0.4-1-0.9-1.7-1.2-2.4C0.3,0.6,0.1,0.3,0,0c0.2,0.2,0.3,0.5,0.4,0.7c0.3,0.6,0.7,1.4,1.3,2.4
				c1.1,2,2.6,4.9,4.2,8.7c1.9,4.4,3.6,8.8,5,13.4c1.8,5.6,2.7,11.4,2.8,17.2c-0.3,3-0.7,6-1.3,9c-0.5,2.9-1.1,5.7-1.6,8.2
				c-1.1,5.2-2.1,9.9-3,14c-0.9,3.8-1.6,6.9-2.1,9.4c-0.2,1-0.4,1.8-0.6,2.6C5,85.7,5,86,4.9,86.3z"/>
		</g>
		<path id="Path_1142" class="st24" d="M9.7,52c0,0,2.1,17.1,28.9,14.4l0.7-0.1l-0.2-2.5L9.7,52z"/>
		<path id="Path_1143" class="st24" d="M8.1,77l6.6,1.8c1.7,0.4,3.4,0.4,5.1,0c4.6-1.3,13.5-4.6,15-11.1
			c-4.7,5.4-11.3,8.4-18.8,10.6L8.1,77z"/>
		<path id="Path_1144" class="st23" d="M31.3,93.3c0,0.6-0.4,1-1,1.1c-0.6,0-1-0.4-1.1-1c0-0.6,0.4-1,1-1.1c0,0,0,0,0,0
			C30.8,92.3,31.3,92.7,31.3,93.3C31.3,93.3,31.3,93.3,31.3,93.3z"/>
	</g>
	<g id="Group_967" transform="translate(396.821 254.891)">
		<path id="Path_1145" class="st20" d="M9.2,83.2c0.3-1.2,1-2.3,2-3.1c-0.6-0.7-1.3-1.3-2-1.8"/>
		<g id="Group_966">
			<path id="Path_1146" class="st20" d="M9.4,77.4c-0.9,0.5-1.9,0-2.9-0.3c-1.2-0.4-2.5-0.5-3.7-0.3c-0.2,0-0.3,0-0.4,0.1
				c-0.4,0.3-0.1,1,0.3,1.2s1,0.2,1.5,0.4c0.1,0.1,0.2,0.1,0.2,0.2c0.1,0.2-0.2,0.5-0.4,0.6c-1.4,1-2.5,2.2-3.5,3.5
				c-0.2,0.2-0.4,0.5-0.4,0.9c0,0.3,0.1,0.7,0.4,0.9c0.6,0.3,1.6-1.2,2.4-1c-0.2,0.7-0.3,1.4-0.4,2.1c0,0.2,0,0.5,0.2,0.6
				c0.1,0,0.2,0,0.3-0.1c0.5-0.3,1.2-1.4,1.7-1.8c0.2,0.4-0.1,1.7,0,2.1c0,0.4,0.4,1.1,0.9,1c0.6-0.1,0.6-1.6,1.1-2.1
				c0.4-0.3,0,1,0.3,2c0,0,0.7,1.1,1.5-1.2c0.4-1.1,0.7-2.3,1-3.4"/>
			<path id="Path_1147" class="st20" d="M13.6,27.1c-1.1-1.8-2-3.8-2.8-5.8c-0.1-0.3-0.2-0.6,0-0.9s0.5,0,0.7,0.2s0.4,0.5,0.6,0.5
				c0.1-0.8,0.1-1.7-0.1-2.5c-0.2-0.8,0.1-1.6,0.7-2.1c0.6,1.4,1.2,2.8,1.7,4.2c-0.1-0.9-0.1-1.8-0.1-2.7c0-0.3,0-0.5,0.1-0.7
				c0.1-0.2,0.3-0.3,0.5-0.2c0,0,0,0,0,0c0.2,0.1,0.2,0.4,0.2,0.7c0,3.1,0.6,6.2,1.9,9.1c-0.3-0.4-0.8-0.5-1.3-0.3
				C15.3,26.8,14.4,27,13.6,27.1"/>
			<g id="Group_951" transform="translate(31.92 162.866)">
				<path id="Path_1148" class="st21" d="M15.8,0.1l1.4,6.3l-3.4-0.1L12,0L15.8,0.1z"/>
				<path id="Path_1149" class="st7" d="M17.1,6.2c0.7,1,1.1,2.2,1.3,3.4L0,11c0,0-1-3.1,13.8-4.5L17.1,6.2z"/>
				<g id="Group_947" transform="translate(8.45 5.847)">
					<path id="Path_1150" class="st23" d="M0.2,0L0.2,0C0.9,0,1.5,0.3,2,0.7c1.1,0.6,1.4,1.6,1.3,1.7S2.7,1.6,1.7,1.1
						C1,0.6,0.2,0.3,0,0.1L0.2,0L0.2,0z"/>
				</g>
				<g id="Group_948" transform="translate(7.275 6.352)">
					<path id="Path_1151" class="st23" d="M0,0.1c0-0.1,0.9-0.1,1.8,0.4C2.7,1,3.1,1.9,3,1.9C2.9,2,2.5,1.3,1.6,0.8
						C1.1,0.6,0.5,0.3,0,0.1z"/>
				</g>
				<g id="Group_949" transform="translate(5.994 6.776)">
					<path id="Path_1152" class="st23" d="M0,0.1c0-0.1,0.7-0.1,1.5,0.3s1.2,1.1,1.1,1.2S2,1.2,1.3,0.8C0.6,0.4,0,0.2,0,0.1z"/>
				</g>
				<g id="Group_950" transform="translate(10.8 4.272)">
					<path id="Path_1153" class="st23" d="M1.3,2.9c0-0.1,0-0.3,0.1-0.4c0-0.4-0.1-0.8-0.2-1.2C1.1,1.1,1,0.7,0.9,0.5
						C0.7,0.4,0.7,0.3,0.6,0.3v0.2c0,0.4,0,0.7,0.1,1.1c0.1,0.3,0.3,0.9,0.4,0.7c0.5-0.2,1.5-0.5,1.6-1.1V1l0,0L2.6,1.1
						C2.3,1.3,2.1,1.4,1.9,1.6C1.5,2,1.2,2.5,1,3c0.1-0.6,0.4-1.1,0.7-1.6l0.6-0.6l0.2-0.1C2.6,0.5,3,0.5,3,0.8
						c0.1,0.2,0.1,0.4,0,0.6c-0.1,0.4-0.4,0.8-0.9,1C1.8,2.6,1.4,2.7,1,2.8c-0.2,0-0.3-0.1-0.4-0.2C0.4,2.5,0.4,2.4,0.3,2.2
						C0.2,2,0.2,1.8,0.1,1.7C0,1.3,0,0.9,0,0.5C0,0.4,0.1,0,0.4,0S0.9,0.2,1,0.4C1.1,0.7,1.1,1,1.2,1.3c0.1,0.4,0.2,0.9,0.1,1.3
						C1.4,2.8,1.3,2.9,1.3,2.9z"/>
				</g>
			</g>
			<g id="Group_956" transform="translate(52.319 161.05)">
				<path id="Path_1154" class="st21" d="M15.8,0.1l1.4,6.3l-3.3-0.1L12.1,0L15.8,0.1z"/>
				<path id="Path_1155" class="st7" d="M17.1,6.1c0.7,1,1.1,2.2,1.3,3.4L0,10.9c0,0-1-3.1,13.8-4.5L17.1,6.1z"/>
				<g id="Group_952" transform="translate(8.45 5.847)">
					<path id="Path_1156" class="st23" d="M0.2,0L0.2,0C0.9,0,1.5,0.3,2,0.7c1.1,0.6,1.4,1.6,1.3,1.7S2.7,1.6,1.7,1.1
						C1,0.6,0.2,0.3,0,0.1L0.2,0L0.2,0z"/>
				</g>
				<g id="Group_953" transform="translate(7.373 6.352)">
					<path id="Path_1157" class="st23" d="M0,0.1c0-0.1,0.9-0.1,1.8,0.4C2.7,1,3.1,1.9,3,1.9C2.9,2,2.5,1.3,1.6,0.8S-0.1,0.2,0,0.1z
						"/>
				</g>
				<g id="Group_954" transform="translate(6.089 6.776)">
					<path id="Path_1158" class="st23" d="M0,0.1c0-0.1,0.7-0.1,1.5,0.3s1.2,1.1,1.1,1.2S2,1.2,1.3,0.8S-0.1,0.2,0,0.1z"/>
				</g>
				<g id="Group_955" transform="translate(10.8 4.272)">
					<path id="Path_1159" class="st23" d="M1.3,2.9c0-0.1,0-0.3,0.1-0.4c0-0.4-0.1-0.8-0.2-1.2C1.1,1.1,1,0.7,0.9,0.5
						C0.7,0.4,0.7,0.3,0.6,0.3v0.2c0,0.4,0,0.7,0.1,1.1c0.1,0.3,0.3,0.9,0.4,0.7c0.5-0.2,1.5-0.5,1.6-1.1V1l0,0L2.6,1.1
						C2.3,1.3,2.1,1.4,1.9,1.6C1.5,2,1.2,2.5,1,3c0.1-0.6,0.4-1.1,0.7-1.6l0.6-0.6l0.2-0.1C2.6,0.5,3,0.5,3,0.8
						c0.1,0.2,0.1,0.4,0,0.6c-0.1,0.4-0.4,0.8-0.9,1C1.8,2.6,1.4,2.7,1,2.8c-0.2,0-0.3-0.1-0.4-0.2C0.4,2.5,0.4,2.4,0.3,2.2
						C0.2,2,0.2,1.8,0.1,1.7C0,1.3,0,0.9,0,0.5C0,0.4,0.1,0,0.4,0S0.9,0.2,1,0.4C1.1,0.7,1.1,1,1.2,1.3c0.1,0.4,0.2,0.9,0.1,1.3
						C1.4,2.8,1.3,2.9,1.3,2.9z"/>
				</g>
			</g>
			<path id="Path_1160" class="st7" d="M56.1,22c0,0,13-4.1,19.3,21.5C81.7,68.9,77.8,76,77.8,76L45.1,72c0,0,4.5-13.4,3.2-21.6
				s-6.2-23.8-6.2-23.8S49.1,20.9,56.1,22z"/>
			<path id="Path_1161" class="st7" d="M12.5,26.8c0,0,8.2,28.1,18.7,22.5s24-16.4,24-16.4l-11.6-8.3c0,0-13,15.8-16,13.4
				c-2.9-2.5-9.7-11.5-9.7-11.5L12.5,26.8z"/>
			<path id="Path_1162" class="st25" d="M43.6,24.6L31.8,49l15.6-10.4l-0.6-12.4L43.6,24.6z"/>
			<path id="Path_1163" class="st7" d="M50.6,69c0,0-26.2,29.8-28.2,38.9c-2,9,21.3,58.4,21.3,58.4l5.8-0.4c0,0-12.6-47.8-11.3-53.4
				s14.1-21.1,14.1-21.1s-8.8,17-5.4,32.8c3.6,17.3,16.9,38.3,16.9,38.3l5.4-0.4c0,0-12.6-42.7-7.6-52c5.2-9.8,16.6-34.2,16.6-34.2
				L50.6,69z"/>
			<g id="Group_957" transform="translate(52.005 76.999)">
				<path id="Path_1164" class="st23" d="M14,0c-0.1,0.3-0.2,0.6-0.2,0.9c-0.2,0.6-0.5,1.4-0.9,2.4c-0.9,2.2-1.9,5.1-3.2,8.7
					c-1.4,3.7-3,8-4.7,12.7C4.2,27,3.2,29.5,2.3,32c-0.5,1.3-0.9,2.7-1.2,4.1c-0.2,1.4-0.4,2.9-0.5,4.3c0,5.5,0.8,11,2.4,16.3
					c1.2,4.4,2.7,8.6,4.4,12.8c1.4,3.6,2.7,6.4,3.6,8.4c0.4,0.9,0.7,1.6,1.1,2.2c0.2,0.5,0.3,0.7,0.3,0.7c-0.2-0.2-0.3-0.5-0.4-0.7
					c-0.4-0.8-0.7-1.5-1.2-2.2c-1-1.9-2.2-4.8-3.7-8.3c-1.7-4.2-3.2-8.5-4.5-12.8C0.8,51.5,0,45.9,0,40.4c0.1-1.5,0.2-2.9,0.5-4.4
					c0.3-1.4,0.7-2.7,1.3-4.1c1-2.6,1.9-5.1,2.9-7.5c1.8-4.7,3.4-9.1,4.8-12.7c1.4-3.5,2.5-6.4,3.3-8.5c0.3-0.9,0.6-1.7,1-2.4
					C13.8,0.6,13.9,0.3,14,0z"/>
			</g>
			<g id="Group_958" transform="translate(28.804 77.96)">
				<path id="Path_1165" class="st23" d="M23.2,0c-0.2,0.3-0.4,0.5-0.6,0.7C22,1.3,21.4,2,20.6,2.9c-1.6,1.8-4.1,4.5-6.8,7.9
					c-3.4,3.9-6.5,8-9.5,12.2c-0.7,1.2-1.6,2.5-2.4,3.7C1.1,28,0.6,29.5,0.4,31c-0.4,3.2-0.2,6.5,0.4,9.7C2,46.9,3.7,52.9,5.9,58.8
					c1.9,5.4,3.8,10.4,5.6,14.4s3.1,7.4,4.1,9.6c0.4,1.1,0.9,1.9,1.2,2.6c0.1,0.3,0.2,0.7,0.4,1c-0.2-0.3-0.3-0.6-0.4-0.9
					c-0.3-0.7-0.7-1.5-1.2-2.6c-1.1-2.2-2.5-5.4-4.2-9.5s-3.6-9-5.6-14.4c-2.2-5.9-3.9-12-5.1-18.3C0,37.6-0.1,34.2,0.2,31
					c0.3-1.6,0.9-3,1.7-4.4c0.7-1.4,1.6-2.6,2.4-3.8c3-4.2,6.2-8.3,9.6-12.2c2.9-3.3,5.2-6,6.9-7.8c0.7-0.9,1.4-1.5,1.9-2
					C22.9,0.5,23,0.2,23.2,0z"/>
			</g>
			<g id="Group_959" transform="translate(42.72 164.174)">
				<path id="Path_1166" class="st23" d="M6.2,0.1c-1,0.3-2.1,0.4-3.1,0.4C2.1,0.6,1,0.6,0,0.5C1,0.2,2,0.1,3.1,0.1
					C4.1,0,5.2,0,6.2,0.1z"/>
			</g>
			<g id="Group_960" transform="translate(61.944 158.78)">
				<path id="Path_1167" class="st23" d="M7.2,0C6,0.5,4.8,0.8,3.6,0.9C2.4,1.1,1.2,1.3,0,1.3c1.1-0.4,2.3-0.7,3.5-0.9
					C4.7,0.2,5.9,0,7.2,0z"/>
			</g>
			<g id="Group_961" transform="translate(69.561 75.393)">
				<path id="Path_1168" class="st23" d="M3.4,10.5c-0.6,0.1-1.3-0.2-1.7-0.6c-0.9-1.1-1.5-2.5-1.6-4c-0.3-2,0.1-4.1,1.2-5.9
					C0.6,1.8,0.3,3.8,0.5,5.8c0.1,1.4,0.6,2.7,1.4,3.8C2.3,10,2.8,10.3,3.4,10.5z"/>
			</g>
			<g id="Group_962" transform="translate(44.108 71.976)">
				<path id="Path_1169" class="st23" d="M12.1,0c-0.3,0.6-0.7,1.1-1.2,1.6c-1.2,1.1-2.5,2-4.1,2.7C5.3,4.9,3.7,5.2,2,5.1
					c-1.3,0-2-0.2-2-0.3c2.2,0.1,4.5-0.2,6.6-1C8.7,3,10.6,1.7,12.1,0z"/>
			</g>
			<g id="Group_963" transform="translate(54.458 72.083)">
				<path id="Path_1170" class="st23" d="M5.8,0C5.6,0.6,5.3,1.2,5,1.7c-0.6,1.4-1.3,2.7-2.1,4C2.1,7,1.3,8.2,0.4,9.4
					c-0.2,0.4,0.2,0.7,0.4,1c0.2,0,0.3,0.1,0.4,0.2c-0.2,0-0.4,0-0.5-0.1c-0.2,0-0.4-0.2-0.5-0.3C0,9.9-0.1,9.6,0.1,9.3
					c0.6-1.1,1.5-2.4,2.4-3.8C4.3,2.5,5.7-0.1,5.8,0z"/>
			</g>
			<path id="Path_1171" class="st23" d="M61.9,73.2c-0.3,0.2-0.6,0.5-0.6,0.9c0,0.3,0.3,0.7,0.6,0.6c0.1,0,0.2-0.1,0.3-0.2
				C62.5,74,62.4,73.4,61.9,73.2"/>
			<path id="Path_1172" class="st25" d="M48,72.1l30.1,3.8L76.7,79l-29.5-6L48,72.1z"/>
			<g id="Group_964" transform="translate(24.363)">
				<path id="Path_1173" class="st20" d="M4.7,10.8l5.2,11c1.1,2.4,4,3.5,6.5,2.4c0,0,0,0,0,0l1.5-0.6l5.6,6.3l8.8-7.7L16.5,4.4
					L4.7,10.8z"/>
				<path id="Path_1174" class="st7" d="M0.4,6.6c0,0,0.5-2.8,5.3-2.1c4.7,0.6,7.6-6,12.6-4.2s7.8,6.9,8.8,12.1l1,3.8l-4.5,4
					c0,0-6-2.2-6.3-4.2c0,0,4-5.3,0-6.4s-2.6,4.7-2.6,4.7l-1.4,1.1L10,9.3c0,0-4.9,3.4-8.1,1.4C-1.2,8.5,0.4,6.6,0.4,6.6z"/>
			</g>
			<path id="Path_1175" class="st23" d="M47.8,31.6c0.1-0.4-0.3-4.3-0.3-4.3l7.6-7.2L59,22"/>
			<line id="Line_9" class="st0" x1="59" y1="22.1" x2="47.8" y2="31.6"/>
			<path id="Path_1176" class="st23" d="M47.1,43.1l-1.7-16.2l2.9,2.9l-1,14.1"/>
			<path id="Path_1177" class="st23" d="M47.7,29.3l3,9.3l-3.4,6.9L47.7,29.3z"/>
			<path id="Path_1178" class="st23" d="M47.1,45.1L44,33.4l1.4-6.5L47.1,45.1z"/>
			<path id="Path_1179" class="st2" d="M45.6,26.9l2.1,2.4L47.5,34l-1.7-1.2l-0.5-5.3"/>
			<path id="Path_1180" class="st26" d="M45.8,32.8"/>
			<path id="Path_1181" class="st2" d="M46.9,33.4c0,0,2.2,23.5-7.9,23.7s-11.9-1.9-11.9-1.9l-5.9,3.2l3.2,6.2
				c0,0,13.8,4.6,22.2-0.9c13.9-9,1.1-29.8,1.1-29.8L46.9,33.4z"/>
			<path id="Path_1182" class="st7" d="M53.3,40.3C52.3,40.7,7.6,77,7.6,77l3.7,3.8c0,0,39.9-23,42.9-28
				C57.2,47.7,53.3,40.3,53.3,40.3z"/>
			<g id="Group_965" transform="translate(47.419 39.505)">
				<path id="Path_1183" class="st23" d="M4.5,15.5c0,0,0.4-0.2,1.3-0.7c1.2-0.6,2.4-1.3,3.5-2c1.7-1.1,3.3-2.3,4.8-3.5
					c0.9-0.7,1.7-1.6,2.4-2.6c0.7-1,0.8-2.3,0.2-3.4c-0.7-1-1.8-1.7-3-2c-1.1-0.5-2.2-0.7-3.4-0.7c-2,0-3.9,0.7-5.6,1.8
					C3.4,3,2.4,3.7,1.3,4.4C0.4,4.9,0,5.1,0,5.1s0.4-0.3,1.2-0.9c1-0.6,2.1-1.5,3.4-2.4C6.3,0.7,8.3,0,10.4,0c1.2,0,2.4,0.3,3.5,0.7
					c1.3,0.4,2.4,1.2,3.2,2.2c0.6,1.2,0.5,2.7-0.2,3.8c-0.6,1-1.5,1.9-2.5,2.6c-1.5,1.3-3.2,2.5-4.9,3.5c-1.5,0.9-2.8,1.5-3.6,1.9
					c-0.3,0.2-0.7,0.3-1.1,0.4C4.7,15.3,4.6,15.4,4.5,15.5z"/>
			</g>
			<path id="Path_1184" class="st23" d="M40.8,59.7c0.9,1.2-0.5,3.6-3.1,5.3s-5.3,2.1-6.1,1c-0.9-1.2,0.5-3.6,3.1-5.3
				S40.1,58.5,40.8,59.7z"/>
			<path id="Path_1185" class="st25" d="M46.7,65.8c0,0,18.7-11.2,17.5-19.7L47,58.7C47,58.7,48.1,60.9,46.7,65.8z"/>
		</g>
	</g>
	<path id="Path_1186" class="st24" d="M121.5,464c0,2.2-18.8,4.1-42.1,4.1c-23.2,0-42.1-1.8-42.1-4.1s18.8-4.1,42.1-4.1
		S121.5,461.8,121.5,464z"/>
	<path id="Path_1187" class="st24" d="M290.6,459.1c0,2.2-18.8,4.1-42.1,4.1c-23.2,0-42.1-1.8-42.1-4.1s18.8-4.1,42.1-4.1
		S290.6,456.8,290.6,459.1z"/>
	<path id="Path_1188" class="st24" d="M489.2,426.3c0,2.2-18.8,4.1-42.1,4.1c-23.2,0-42.1-1.8-42.1-4.1s18.8-4.1,42.1-4.1
		C470.3,422.2,489.2,424.1,489.2,426.3z"/>
	<g id="Group_976" transform="translate(191.743 265.495)">
		<path id="Path_1189" class="st20" d="M62.4,7l4.3,11.5c1,2.5-0.3,5.3-2.7,6.2c0,0-0.1,0-0.1,0.1l-1.5,0.5l0.6,8.4l-11.7,0.9
			L49.5,11L62.4,7z"/>
		<path id="Path_1190" class="st7" d="M62,0.3c0,0-2.4-1.5-5.2,2.4c-2.9,3.8-9.6,1.3-11.9,6.1s-0.5,10.5,2.5,14.8l2.1,3.4l6-0.4
			c0,0,2.6-5.9,1.5-7.5c0,0-6.6-1-4.6-4.5s5.2,1.5,5.2,1.5l1.7-0.2l-2-6.6c0,0,5.9-1.2,6.6-4.9C64.5,0.5,62,0.3,62,0.3z"/>
		<path id="Path_1191" class="st27" d="M41.6,116.8l1.5,17.1c0.4,4.9,0.2,9.9-0.5,14.7L35.9,191h3.7l12.3-32.7
			c2.3-6.1,3.6-12.4,4-18.9l1.3-22.5L41.6,116.8z"/>
		<path id="Path_1192" class="st27" d="M55.6,110.7l3,21.7c1,6.2,1.5,12.4,1.4,18.7l-1,41.1l3.2-1.3l6.6-26.8
			c2.7-10.9,3.4-22.2,2.2-33.4l-1.4-20H55.6z"/>
		<path id="Path_1193" class="st7" d="M52.1,34.5c0,0-10.1-2.4-7.8,12.8s5,23.3,5,23.3S31.5,91.2,37,118.7l1.4,15.4h37.1l-4.7-72.8
			l1.2-1.4c2-2.3,2.7-5.4,2.1-8.3l-1.8-9.3l24.9-3.8l20.2-17.5l-4.7-3.8L96,29.3L52.1,34.5z"/>
		<path id="Path_1194" class="st7" d="M53.9,7c-3.5,4.1-5.6,9-1.4,12.3c0.7,0.4,1.3,1.1,1.6,1.8c0.2,0.4,2.7,1,2.7,1.4
			c-0.3,5.3-3.2,10.8-3.5,16.1c0,2.1-0.4,4.2-1.4,6.1c-1.6,2.6-4.8,3.6-7,5.7c-2.5,2.1-3.8,5.2-6,7.8c-3.5,3.7-8.1,6-13.1,6.5
			c-6.3,0.8-12.6-0.7-17.7-4.4C2.8,56.5-0.2,50.5,0,44.1C0.5,35,8.5,27.4,17.3,25.5c3.7-0.7,7.7-0.7,11.3-1.7c3.7-1,7.5-3.3,8.5-6.9
			c0.6-2,0.3-4.3,1.2-6.3c0,0,2.1-8.3,15.8-6"/>
		<path id="Path_1195" class="st7" d="M40.6,190.8c0,0,6.8,1.1,7.2,2.6c0.3,1.4-12.5-0.7-12.5-0.7l0.2-1.6"/>
		<path id="Path_1196" class="st7" d="M62.3,190.6c0,0,8.3,0.4,8.8,1.8c0.5,1.4-12.4,1.1-12.4,1.1v-1.6"/>
		<g id="Group_969" transform="translate(40.072 86.784)">
			<line id="Line_10" class="st0" x1="0.1" y1="0" x2="32.6" y2="4"/>
			<g id="Group_968">
				<path id="Path_1197" class="st23" d="M32.6,4c0,0.1-7.4-0.6-16.3-1.7S0,0.1,0,0s7.4,0.6,16.3,1.7C25.4,2.8,32.7,3.9,32.6,4z"/>
			</g>
		</g>
		<g id="Group_970" transform="translate(49.47 68.45)">
			<path id="Path_1198" class="st23" d="M9.1,0.1c-1.5,0.5-3,0.9-4.5,1.1C3.1,1.5,1.5,1.6,0,1.7c1.5-0.5,3-0.9,4.5-1.1
				C6.9,0.1,9-0.1,9.1,0.1z"/>
		</g>
		<g id="Group_971" transform="translate(51.286 70.841)">
			<path id="Path_1199" class="st23" d="M8.4,1.3C7,1.4,5.6,1.3,4.2,1C1.8,0.7,0,0.3,0,0c1.4,0,2.9,0.1,4.3,0.3
				C5.7,0.6,7.1,0.9,8.4,1.3z"/>
		</g>
		<g id="Group_972" transform="translate(60.463 40.828)">
			<path id="Path_1200" class="st23" d="M18.6,0c-0.9,0.3-1.8,0.5-2.7,0.6C14.2,1,11.9,1.4,9.3,1.9s-4.9,0.7-6.6,1
				C1.8,3,0.9,3.2,0,3.5c-0.1-0.1,0.9-0.7,2.6-1.1s4.1-0.7,6.6-1.2s4.9-0.7,6.6-1C16.7,0.1,17.7,0,18.6,0z"/>
		</g>
		<path id="Path_1201" class="st23" d="M92.7,38.9c2-2.7,5.3-4,8.7-4.3c-1.1,1-2.2,2-3.4,2.9c-0.2,0.2-0.5,0.6-0.9,0.7
			c-0.2,0.1-0.4,0-0.7,0.1c-1.4,0.3-2.7,0.3-3.8,0.6"/>
		<g id="Group_973" transform="translate(43.694 31.365)">
			<path id="Path_1202" class="st23" d="M10.5,0c0.1,0,0.1,1.3-0.6,3.3c-0.7,1.9-1.9,4.5-3.3,7.4c-1.2,2.4-2.6,4.7-4.3,6.8
				C1.6,18.4,0.8,19.2,0,20c0.6-0.9,1.2-1.8,1.9-2.7c1.5-2.2,2.9-4.5,4.1-6.8c1.4-2.8,2.6-5.3,3.4-7.3C9.9,2.2,10.3,1.1,10.5,0z"/>
		</g>
		<g id="Group_975" transform="translate(64.62 92.134)">
			<path id="Path_1203" class="st23" d="M0.6,0.1C0,14.3,0.5,28.4,1.9,42.5"/>
			<g id="Group_974">
				<path id="Path_1204" class="st23" d="M1.9,42.5l-0.3-1.6c-0.1-1.1-0.3-2.6-0.5-4.5c-0.4-3.8-0.7-9.2-1-15.1S0,10.1,0.1,6.3
					c0.1-1.9,0.1-3.5,0.2-4.6S0.4,0,0.6,0c0.1,0.6,0.1,1.1,0,1.7v4.6c0,3.8,0,9.2,0.2,15.1s0.5,11.1,0.9,15c0.1,1.8,0.2,3.4,0.3,4.6
					C1.9,42,2,42.5,1.9,42.5z"/>
			</g>
		</g>
		<path id="Path_1205" class="st20" d="M113.3,18.3c0.7-2.7,1.7-5.6,3.7-7.5c0.6,1-0.4,2.2,0,3.3c1.1-1.1,2.5-2.1,4-1.8
			c-0.4,0.9-1.1,1.6-1.9,2.1c1-0.7,2.3-0.9,3.5-0.6c-1.1,0.9-2.1,1.6-3.2,2.4c1.2-0.2,2.3-0.3,3.5-0.3c0.2,0.2-0.1,0.5-0.3,0.6
			c-0.8,0.5-1.7,0.9-2.6,1.2c0.5,0,1,0.1,1.5,0.1c0.2,0,0.4,0,0.5,0.2s-0.1,0.5-0.3,0.7c-0.7,0.5-1.6,0.8-2.5,1c-1,0.3-2,0.5-3,0.9
			h-0.2c-0.1,0-0.2-0.1-0.2-0.2c-0.9-1-2-1.7-3.3-2"/>
	</g>
	<g id="Group_987" transform="translate(63.926 81.124)" class="st28">
		<g id="Group_977" transform="translate(397.723 32.04)">
			<path id="Path_1206" class="st7" d="M7,0l2.5,4.6L14.1,7L9.5,9.5L7,14.1L4.6,9.5L0,7l4.6-2.5L7,0z"/>
		</g>
		<g id="Group_978" transform="translate(0 25.098)">
			<path id="Path_1207" class="st7" d="M6.9,0l2.6,4.5L14,6.9L9.5,9.5L6.9,14L4.5,9.5L0,6.9l4.5-2.5L6.9,0z"/>
		</g>
		<g id="Group_979" transform="translate(181.774 110.645)">
			<path id="Path_1208" class="st7" d="M10.7,0l3.8,6.9l6.9,3.7l-6.9,3.8l-3.8,6.9l-3.7-6.9L0,10.7l6.9-3.7L10.7,0z"/>
		</g>
		<g id="Group_980" transform="translate(19.438 56.468)">
			<path id="Path_1209" class="st7" d="M22.6,0c0.3,0.2,0,1.4-0.7,3.5c-0.4,1.1-1,2.3-1.6,3.8c-0.3,0.7-0.6,1.5-1.1,2.4L18.6,11
				c-0.1,0.2-0.2,0.5-0.3,0.7c-0.2,0.4-0.4,0.8-0.5,1.2c-1.7,1.1-3.6,2.2-5.7,3.4c-0.4,0.3-1,0.5-1.4,0.9l-0.3,0.2l-0.1,0.1
				l-0.3,0.3c0.1,0,0.3,0.1,0.4,0.1h0.2l0.3,0.2l0.7,0.4c1,0.5,1.9,1.1,3,1.6c1.3,0.6,2.5,1.3,3.7,2c1.2,2,2.3,4.2,3.5,6.3
				c0.2,0.4,0.5,1,0.7,1.4l0,0c0.2-0.4,0.5-1,0.7-1.4c1.2-2.1,2.3-4.3,3.5-6.3c1.3-0.6,2.6-1.4,3.7-2c1-0.5,2-1.1,3-1.6l0.7-0.4
				l0.3-0.2h0.2c0.1,0,0.3-0.1,0.4-0.1L35,17.5l-0.1-0.1c-0.1,0,0,0-0.3-0.2c-0.5-0.3-0.9-0.5-1.4-0.9c-2-1.3-4-2.4-5.7-3.4
				c-0.2-0.4-0.4-0.8-0.5-1.2c-0.1-0.2-0.2-0.5-0.3-0.7l-0.6-1.3c-0.4-0.9-0.7-1.6-1.1-2.4c-0.6-1.5-1.2-2.8-1.6-3.8
				C22.6,1.4,22.3,0.2,22.6,0c0.3-0.2,1.2,0.7,2.6,2.6c0.6,1,1.5,2,2.3,3.4c0.4,0.6,1,1.4,1.4,2.1c0.2,0.4,0.5,0.7,0.7,1.2
				c0.1,0.2,0.2,0.5,0.4,0.6l0.2,0.2l0.2,0.1l0.2,0.1l0.3,0.1c0.4,0.2,0.9,0.4,1.4,0.6c1,0.4,1.8,1,2.9,1.4c0.5,0.2,1,0.5,1.5,0.7
				c0.9,0.4,1.7,0.9,2.6,1.4c1.9,1.1,4,2.1,6.1,3.2c-4.5,2.6-9.4,5.3-14.5,8.3l0,0l-0.3,0.6c-0.2,0.4-0.5,1-0.7,1.4
				c-0.5,1-1.1,1.9-1.5,2.9c-1.8,3.4-3.7,6.8-5.7,10.4c-1.9-3.5-3.8-6.9-5.7-10.4c-0.5-1-1.1-1.9-1.5-2.9c-0.2-0.4-0.5-1-0.7-1.4
				l-0.3-0.6l0,0c-5.2-3-10.1-5.8-14.5-8.3l6.1-3.2c0.9-0.4,1.7-0.9,2.6-1.4c0.5-0.2,1-0.5,1.5-0.7c1-0.5,1.9-1,2.9-1.4
				c0.4-0.2,0.9-0.4,1.4-0.6l0.3-0.1c0.1,0,0.2,0,0.2-0.1l0.2-0.1l0.2-0.2c0.1-0.2,0.2-0.5,0.4-0.6c0.2-0.4,0.5-0.8,0.7-1.2
				c0.5-0.7,1-1.5,1.4-2.1c0.9-1.4,1.7-2.5,2.3-3.4C21.5,0.8,22.3-0.2,22.6,0z"/>
		</g>
		<g id="Group_981" transform="translate(277.68 143.005)">
			<path id="Path_1210" class="st7" d="M7.3,0l2.6,4.7l4.7,2.6L9.8,9.8l-2.6,4.7L4.7,9.8L0,7.3l4.7-2.6L7.3,0z"/>
		</g>
		<g id="Group_982" transform="translate(140.122 154.006)">
			<path id="Path_1211" class="st7" d="M3.5,0l1.2,2.2l2.2,1.3L4.7,4.7L3.5,6.9L2.2,4.7L0,3.5l2.2-1.3L3.5,0z"/>
		</g>
		<g id="Group_983" transform="translate(377.645)">
			<path id="Path_1212" class="st7" d="M3.5,0l1.2,2.2l2.2,1.2L4.7,4.7L3.5,6.9L2.2,4.7L0,3.4l2.2-1.2L3.5,0z"/>
		</g>
		<g id="Group_984" transform="translate(106.586 46.138)">
			<path id="Path_1213" class="st7" d="M3.4,0l1.3,2.2l2.2,1.2L4.7,4.7L3.4,6.9L2.2,4.7L0,3.4l2.2-1.2L3.4,0z"/>
		</g>
		<g id="Group_985" transform="translate(62.692 262.621)">
			<path id="Path_1214" class="st7" d="M6.9,0l2.6,4.5L14,6.9L9.5,9.4L6.9,14L4.5,9.4L0,6.9l4.5-2.5L6.9,0z"/>
		</g>
		<g id="Group_986" transform="translate(124.422 277.787)">
			<path id="Path_1215" class="st7" d="M3.5,0l1.2,2.2l2.2,1.2L4.7,4.7L3.5,6.9L2.2,4.7L0,3.4l2.2-1.2L3.5,0z"/>
		</g>
	</g>
	<g id="Group_992" transform="translate(41.604 65.21)" class="st28">
		<g id="Group_988" transform="translate(264.757 80.42)">
			<path id="Path_1216" class="st7" d="M42.8,42.8c-0.5,0-1-4-1.4-11c-0.2-3.5-0.4-7.8-0.5-12.6c-0.1-2.5-0.1-5-0.2-7.8
				c0-1.4-0.1-2.8-0.1-4.2v-2h-2.1c-1.5,0-3.1,0-4.6,0.1c-3.2,0-6.4,0.1-9.8,0.1c-5.9,0-12,0.1-18.4,0.1c0,6.4-0.1,12.5-0.1,18.4
				c0,3.3-0.1,6.6-0.1,9.8c0,1.6,0,3.1-0.1,4.6v2.1h2c1.4,0,2.9,0.1,4.2,0.1c2.8,0.1,5.3,0.2,7.8,0.2c4.9,0.2,9.1,0.3,12.6,0.5
				C38.8,41.9,42.8,42.3,42.8,42.8c0,0.5-4,1-11,1.4c-3.5,0.2-7.8,0.4-12.6,0.5c-2.5,0.1-5,0.1-7.8,0.2c-1.4,0-2.8,0.1-4.2,0.1
				c-2.2,0-4.5,0.1-6.8,0.1c-0.1-6.5-0.2-13.7-0.3-21.3c0-3.3,0-6.8-0.1-10.4V0h13.6c3.5,0,6.9,0,10.4,0.1
				c7.6,0.1,14.7,0.2,21.3,0.3c0,2.4-0.1,4.6-0.1,6.8c0,1.4-0.1,2.9-0.1,4.2c-0.1,2.8-0.2,5.3-0.2,7.8c-0.2,4.9-0.3,9.1-0.5,12.6
				C43.8,38.9,43.4,42.8,42.8,42.8z"/>
		</g>
		<g id="Group_989" transform="translate(143.966 90.353)">
			<path id="Path_1217" class="st7" d="M22.2,22.2c-0.5,0-1-1.9-1.4-5.3c-0.2-1.7-0.4-3.7-0.5-6.1c-0.1-1.2-0.1-2.5-0.2-3.7
				c0-0.3,0-0.6-0.1-1V5.8l0,0V5.7c0-0.1,0-0.2-0.1-0.2c-0.1,0-0.2,0.1-0.3,0.1h-1.8c-1.5,0-3.1,0.1-4.7,0.1s-3.3,0-5,0.1H5.6v2.5
				c0,1.7,0,3.4-0.1,5c0,1.6-0.1,3.2-0.1,4.7v1.8c0,0.1-0.1,0.2-0.1,0.3c0.1,0,0.1,0.1,0.2,0.1h0.4c0.3,0,0.6,0,1,0.1
				c1.3,0.1,2.6,0.2,3.7,0.2c2.4,0.2,4.4,0.3,6.1,0.5C20.3,21.1,22.2,21.7,22.2,22.2c0,0.5-1.9,1-5.3,1.4c-1.7,0.2-3.7,0.4-6.1,0.5
				c-1.2,0.1-2.5,0.1-3.7,0.2c-0.3,0-0.6,0-1,0.1H4.5c-1.3,0-2.7,0.1-4.1,0.1C0.3,21,0.2,17.1,0.1,13c0-1.6,0-3.3-0.1-5V0h8
				c1.7,0,3.4,0,5,0.1c4.2,0.1,8,0.2,11.5,0.3c0,1.4-0.1,2.7-0.1,4.1v1.6c0,0.3,0,0.6-0.1,1c-0.1,1.3-0.2,2.6-0.2,3.7
				c-0.2,2.4-0.3,4.4-0.5,6.1C23.2,20.2,22.7,22.2,22.2,22.2z"/>
		</g>
		<g id="Group_990" transform="translate(57.138)">
			<path id="Path_1218" class="st7" d="M42.8,42.8c-0.5,0-1-4-1.4-11c-0.2-3.5-0.4-7.8-0.5-12.6c-0.1-2.5-0.1-5-0.2-7.8
				c0-1.4-0.1-2.8-0.1-4.2v-2h-2.1c-1.5,0-3.1,0-4.6,0.1c-3.2,0-6.4,0.1-9.8,0.1c-5.9,0-12,0.1-18.4,0.1c0,6.4-0.1,12.5-0.1,18.4
				c0,3.3-0.1,6.6-0.1,9.8c0,1.6,0,3.1-0.1,4.6v2.1h2c1.4,0,2.9,0.1,4.2,0.1c2.8,0.1,5.3,0.2,7.8,0.2c4.9,0.2,9.1,0.3,12.6,0.5
				C38.9,41.9,42.8,42.3,42.8,42.8c0,0.5-4,1-11,1.4c-3.5,0.2-7.8,0.4-12.6,0.5c-2.5,0.1-5,0.1-7.8,0.2c-1.4,0-2.8,0.1-4.2,0.1
				c-2.2,0-4.5,0.1-6.8,0.1c-0.1-6.5-0.2-13.7-0.3-21.3c0-3.3,0-6.8-0.1-10.4V0h13.6c3.5,0,6.9,0,10.4,0.1
				c7.6,0.1,14.7,0.2,21.3,0.3c0,2.3-0.1,4.6-0.1,6.8c0,1.4-0.1,2.9-0.1,4.2c-0.1,2.8-0.2,5.3-0.2,7.8c-0.2,4.9-0.3,9.1-0.5,12.6
				C43.8,38.9,43.4,42.8,42.8,42.8z"/>
		</g>
		<g id="Group_991" transform="translate(0 137.558)">
			<path id="Path_1219" class="st7" d="M17.8,17.9c-0.5,0-1-1.5-1.4-4.2c-0.3-1.6-0.4-3.1-0.5-4.7c-0.1-1-0.1-1.9-0.2-2.9V5.6
				c0-0.1-0.1-0.1-0.1-0.2c-0.1,0-0.2,0-0.2,0.1h-0.7c-1.2,0-2.5,0.1-3.6,0.1c-1.3,0-2.6,0-3.8,0.1H6v1.2c0,1.3,0,2.6-0.1,3.8
				c0,1.3-0.1,2.5-0.1,3.6V15l0,0v0.1c0,0.1-0.1,0.1-0.1,0.2c0.1,0.1,0.1,0.1,0.2,0.1h0.6c1.1,0.1,2,0.2,2.9,0.2
				c1.8,0.2,3.4,0.3,4.7,0.5C16.3,16.9,17.8,17.4,17.8,17.9c0,0.5-1.5,1-4.2,1.4c-1.6,0.3-3.1,0.4-4.7,0.5C8,20,7,20,6.1,20.1H3.5
				c-1.1,0-2,0.1-3.1,0.1c-0.1-2.9-0.2-6.1-0.3-9.5c0-1.3,0-2.6-0.1-3.8V0h6.8c1.3,0,2.6,0,3.8,0.1c3.4,0.1,6.5,0.2,9.5,0.3
				c0,1.1-0.1,2.1-0.1,3.1v2.6c-0.1,1.1-0.2,2-0.2,2.9c-0.2,1.8-0.3,3.4-0.5,4.7C18.8,16.4,18.3,17.9,17.8,17.9z"/>
		</g>
	</g>
	<g id="Group_1001" transform="translate(293.305 330.731)">
		<g id="Group_994" transform="translate(27.251 23.57)">
			<g id="Group_993">
				<path id="Path_1220" class="st2" d="M12.7,72.3c5,1.7,11,1.3,14.7-2.6c3.8-4,4.7-9.9,2.2-14.8c-1.2-2.4-3.1-4.5-3-7
					c0.2-1.4,0.7-2.7,1.5-3.8c1.5-2.2,3.5-4.2,4.9-6.4c1.4-2.4,2.2-5.2,1.2-7.7c-2.1-4.8-9.7-5-12-9.8c-1.1-2.2-0.6-4.9-0.4-7.4
					c0.2-3,0.1-6.1-1.3-8.8c-1.4-2.6-4.5-4.5-7.4-3.8C9.8,0.9,8,4.7,6.7,8c-0.9,2.2-1.7,4.4-2.6,6.6c-2.4,6.1-4.7,12.7-3.1,19.1
					C2.4,38.9,6,43.1,9,47.4c0.7,0.8,1,1.8,1.1,2.8c-0.1,1.5-1.7,2.6-3.3,2.9c-1.5,0.3-3.2,0.3-4.5,1.2c-1.6,1.1-2.4,3-2.2,4.9
					c0.2,1.9,1,3.7,2.1,5.1C2.1,64.2,7.2,70.4,12.7,72.3z"/>
			</g>
		</g>
		<g id="Group_1000">
			<g id="Group_995">
				<path id="Path_1221" class="st29" d="M17.3,98.3c6.8,2.4,15.1,1.7,20.1-3.5c5.1-5.4,6.3-13.5,3-20.2c-1.6-3.1-4.3-6.1-4.2-9.6
					c0.2-1.9,0.9-3.7,2-5.2c2-3,4.8-5.7,6.7-8.8s3-7.2,1.6-10.5c-2.9-6.5-13.2-6.8-16.3-13.4c-1.5-3.1-0.9-6.6-0.5-9.9
					C30,13.2,29.9,9,27.9,5.4c-1.9-3.5-6.1-6.2-10-5.2C13.2,1.3,10.7,6.4,9,11c-1.2,3-2.2,6-3.4,9c-3.2,8.3-6.4,17.3-4.3,26
					C3,52.9,7.9,58.6,12.1,64.5c0.9,1,1.4,2.4,1.5,3.7c-0.2,2.1-2.4,3.4-4.5,3.8c-2,0.4-4.3,0.4-6.1,1.6c-2.1,1.5-3.3,4-3,6.6
					c0.3,2.5,1.3,4.9,2.9,6.9C2.9,87.3,9.7,95.7,17.3,98.3z"/>
			</g>
			<g id="Group_996" transform="translate(19.892 36.83)">
				<path id="Path_1222" class="st2" d="M2.8,62.2C1.3,62.2,0,48.3,0,31.1S1.3,0,2.8,0s2.8,13.9,2.8,31.1S4.3,62.2,2.8,62.2z"/>
			</g>
			<g id="Group_997" transform="translate(21.896 46.729)">
				<path id="Path_1223" class="st2" d="M13.7,0.2c0.5,0.6,0.1,1.8-0.6,3.5c-1,2.3-2.4,4.5-4,6.5c-3.6,4.7-7.5,7.8-8.8,6.8
					c-1.2-1,0.7-5.6,4.3-10.3C6.1,4.8,7.9,2.9,10,1.3C11.7,0,13.2-0.3,13.7,0.2z"/>
			</g>
			<g id="Group_998" transform="translate(12.189 78.192)">
				<path id="Path_1224" class="st2" d="M10.3,12c-0.4,0-0.7-0.2-1.2-0.2c-0.5-0.1-0.9-0.3-1.4-0.5c-1.5-1-2.9-2.2-4.1-3.5
					C0.9,4.7-0.7,1.5,0.3,0.4C1.4-0.8,4.8,0.7,7.8,4c1.3,1.4,2.3,3,3,4.8c0.4,0.7,0.5,1.5,0.3,2.2C11.1,11.8,10.7,12,10.3,12z"/>
			</g>
			<g id="Group_999" transform="translate(12.945 35.152)">
				<path id="Path_1225" class="st2" d="M9.3,14.7c-0.6,0.4-1.8,0-3-1.1c-1.5-1.4-2.8-3-3.7-4.8c-1-1.7-1.8-3.6-2.4-5.6
					c-0.3-1.5-0.3-2.7,0.2-3.1c0.6-0.4,1.8-0.1,3.1,1c1.5,1.4,2.8,3,3.8,4.8C9.7,10.1,10.6,13.7,9.3,14.7z"/>
			</g>
		</g>
	</g>
	<g id="Group_1010" transform="translate(120.733 377.69)">
		<g id="Group_1003">
			<g id="Group_1002">
				<path id="Path_1226" class="st2" d="M12.7,72.3c5,1.7,11.1,1.3,14.7-2.6c3.8-4,4.7-9.9,2.2-14.8c-1.2-2.4-3.1-4.5-3-7
					c0.2-1.4,0.7-2.7,1.5-3.8c1.5-2.2,3.5-4.2,4.9-6.4s2.2-5.2,1.2-7.7c-2.1-4.8-9.7-5-12-9.8c-1.1-2.2-0.6-4.9-0.4-7.4
					c0.2-3,0.1-6.1-1.3-8.8c-1.4-2.6-4.5-4.5-7.4-3.8C9.8,0.9,8,4.7,6.7,8c-0.9,2.2-1.7,4.4-2.6,6.6c-2.3,6.1-4.7,12.7-3.1,19.1
					C2.4,38.9,6,43,9,47.4c0.7,0.8,1,1.8,1.1,2.8c-0.1,1.5-1.7,2.6-3.3,2.9c-1.5,0.3-3.2,0.3-4.5,1.2c-1.6,1.1-2.4,3-2.2,4.9
					c0.2,1.9,1,3.7,2.1,5.1C2.1,64.2,7.2,70.4,12.7,72.3z"/>
			</g>
		</g>
		<g id="Group_1009" transform="translate(13.91 15.326)">
			<g id="Group_1004">
				<path id="Path_1227" class="st29" d="M33.6,54.6c5.9-3.2,11.9-6.6,16.1-11.7c1-1,1.7-2.3,2-3.7c0.3-1.4-0.2-2.9-1.4-3.8
					c-1-0.6-2.2-0.7-3.3-0.4c-2.6,0.3-5.1,1-7.6,1.9c3.4-3.5,6.1-7.6,8-12.2c0.5-1.4,1-3.2-0.2-4.1c-0.4-0.3-1-0.5-1.5-0.4
					c-6.4-0.7-12.2,4.1-16.3,9c1.8-8.7,2.3-17.6,1.6-26.4c-0.1-1.1-0.3-2.4-1.4-2.7c-0.7-0.1-1.3,0-1.9,0.3
					c-5,2.5-8.5,7.3-10.7,12.5s-2.9,10.8-3.6,16.3c-1.6-5.7-4-11.1-7.2-16.1c-0.2-0.3-0.4-0.6-0.6-0.7c-0.5-0.2-1.2,0.2-1.6,0.7
					C0,17.8-0.6,24.6,0.4,30.8c1.1,7.1,3.9,13.7,8.2,19.4c1.6,2.1,4.1,6.2,9.2,6.2L33.6,54.6z"/>
			</g>
			<g id="Group_1005" transform="translate(15.014 13.832)">
				<path id="Path_1228" class="st2" d="M9.7,0c1.5,0.5-1.1,10-3.1,21.8C4.5,33.5,3.5,43.3,1.9,43.4c-0.7,0-1.5-2.5-1.8-6.6
					c-0.3-5.3,0-10.7,1-15.9C2,15.6,3.5,10.4,5.7,5.6C7.5,1.8,9-0.2,9.7,0z"/>
			</g>
			<g id="Group_1006" transform="translate(16.756 30.467)">
				<path id="Path_1229" class="st2" d="M20,0.1c1.2,1.1-2.9,7.3-8.2,14.6C6.4,22,1.6,27.8,0.3,27c-1.3-0.7,1.4-7.9,6.9-15.5
					S18.9-0.9,20,0.1z"/>
			</g>
			<g id="Group_1007" transform="translate(17.607 41.236)">
				<path id="Path_1230" class="st2" d="M25.1,0.1c0.2-0.1,0.4-0.1,0.6,0.3c0.2,0.5,0.2,1,0,1.5c-0.1,0.3-0.2,0.5-0.4,0.7
					c-0.2,0.2-0.3,0.4-0.5,0.6c-0.4,0.5-0.8,1-1.3,1.5c-2.7,2.4-5.8,4.4-9.2,5.9c-3.7,1.7-7.2,3-9.6,3.8s-4.2,1.3-4.6,0.6
					s0.4-2.2,2.7-4.1c2.8-2.2,5.9-4,9.2-5.4c3.7-1.7,6.9-3.1,9.3-4.1c0.5-0.2,1.2-0.4,1.6-0.6c0.2-0.1,0.4-0.2,0.6-0.2
					c0.1,0,0.3-0.1,0.4-0.1c0.2-0.1,0.4,0,0.6-0.1C24.7,0.3,24.9,0.2,25.1,0.1z"/>
			</g>
			<g id="Group_1008" transform="translate(5.848 29.937)">
				<path id="Path_1231" class="st2" d="M11.3,25.5c-0.1,0.2-0.3,0.4-0.5,0.3c-0.4,0-0.8-0.2-1.2-0.4c-0.8-0.7-1.5-1.6-2-2.6
					C5.8,20,4.4,17,3.2,13.9C0.3,6.8-0.8,0.6,0.6,0C2-0.5,5.6,4.7,8.4,11.9c1.3,3,2.2,6.2,2.9,9.4c0.2,0.9,0.3,1.9,0.2,2.9
					c0,0.3,0,0.5-0.1,0.7C11.5,25.1,11.4,25.3,11.3,25.5z"/>
			</g>
		</g>
	</g>
</g>
</svg>
