<svg xmlns="http://www.w3.org/2000/svg" viewBox="0 0 534 534">
  <defs>
    <style>
      .cls-1, .cls-7 {
        fill: none;
      }

      .cls-2 {
        fill: #39eafd;
      }

      .cls-3 {
        fill: #f2f2f2;
      }

      .cls-4 {
        fill: #fff;
      }

      .cls-5 {
        opacity: 0.11;
      }

      .cls-15, .cls-6 {
        fill: #282f56;
      }

      .cls-7 {
        stroke: #282f56;
        stroke-miterlimit: 10;
      }

      .cls-8 {
        opacity: 0.12;
      }

      .cls-9 {
        fill: #f7d3a9;
      }

      .cls-10 {
        fill: #dee3ff;
      }

      .cls-11, .cls-14 {
        fill: #5677fc;
      }

      .cls-12 {
        fill: #d8f6ff;
      }

      .cls-13 {
        fill: #405bfc;
      }

      .cls-14 {
        opacity: 0.14;
      }

      .cls-15 {
        opacity: 0.35;
      }

      .cls-16 {
        fill: #c44;
      }

      .cls-17 {
        fill: #fbc4b6;
      }

      .cls-18 {
        opacity: 0.25;
      }

      .cls-19 {
        fill: #39cefd;
      }
    </style>
  </defs>
  <g id="search-bcg-key-blue" transform="translate(-0.7 -19.5)">
    <path id="Path_1095" data-name="Path 1095" class="cls-1" d="M.7,19.5h534v534H.7" transform="translate(0 0)"/>
    <g id="Group_925" data-name="Group 925" transform="translate(60.828 231.391)">
      <g id="Group_919" data-name="Group 919" transform="translate(0.64)">
        <path id="Path_1096" data-name="Path 1096" class="cls-2" d="M129.4,252.454l272.767-.854.107,24.457H394.05l1.816,43.468h-18.8l.748-13.03H368.1v13.136H355.816V304.893l-8.971.107v19.544H335.417l-.107-52.225-205.91.641Z" transform="translate(-52.717 -215.608)"/>
        <path id="Path_1097" data-name="Path 1097" class="cls-2" d="M112.548,217.9a49.609,49.609,0,1,0,49.769,49.448A49.546,49.546,0,0,0,112.548,217.9ZM94.606,280.271a12.709,12.709,0,1,1,12.709-12.709A12.671,12.671,0,0,1,94.606,280.271Z" transform="translate(-57.226 -217.9)"/>
        <path id="Path_1098" data-name="Path 1098" class="cls-3" d="M125.1,252.454l272.874-.854.107,24.457h-8.224l1.816,43.468h-18.8l.748-13.03H363.8l.107,13.136H351.623V304.893l-9.078.107.107,19.544-11.428.107-.214-52.332-205.8.641Z" transform="translate(-53.01 -215.608)"/>
        <path id="Path_1099" data-name="Path 1099" class="cls-4" d="M107.048,217.9a49.609,49.609,0,1,0,49.769,49.448A49.546,49.546,0,0,0,107.048,217.9ZM89.106,280.271a12.709,12.709,0,1,1,12.709-12.709A12.88,12.88,0,0,1,89.106,280.271Z" transform="translate(-57.6 -217.9)"/>
        <path id="Path_1100" data-name="Path 1100" class="cls-3" d="M107.048,217.9a49.609,49.609,0,1,0,49.769,49.448A49.546,49.546,0,0,0,107.048,217.9ZM89.106,280.271a12.709,12.709,0,1,1,12.709-12.709A12.88,12.88,0,0,1,89.106,280.271Z" transform="translate(-57.6 -217.9)"/>
        <path id="Path_1101" data-name="Path 1101" class="cls-2" d="M380.918,251.6s-11.321,9.505.107,24.457C381.025,276.057,391.064,261.746,380.918,251.6Z" transform="translate(-35.954 -215.608)"/>
      </g>
      <g id="Group_920" data-name="Group 920" class="cls-5" transform="translate(329.051 92.73)">
        <path id="Path_1102" data-name="Path 1102" class="cls-6" d="M365.1,316.339a10.977,10.977,0,0,1,4.486-8.758,20.4,20.4,0,0,1,2.99-1.6,12.955,12.955,0,0,1,3.418-1.175,5.136,5.136,0,0,1,3.524.641l.32,10.466Z" transform="translate(-365.1 -304.725)"/>
      </g>
      <path id="Path_1103" data-name="Path 1103" class="cls-7" d="M370.3,301.3" transform="translate(-35.696 -212.228)"/>
      <g id="Group_921" data-name="Group 921" class="cls-5" transform="translate(344.274 36.337)">
        <path id="Path_1104" data-name="Path 1104" class="cls-6" d="M384.423,275.181c-1.5-1.709-3.1-3.418-3.845-5.447a20.825,20.825,0,0,1-.854-4.486,28.76,28.76,0,0,1,0-9.078,5.664,5.664,0,0,1,1.816-3.631,2.781,2.781,0,0,1,3.738.214Z" transform="translate(-379.354 -251.923)"/>
      </g>
      <g id="Group_922" data-name="Group 922" class="cls-5" transform="translate(28.831 46.774)">
        <path id="Path_1105" data-name="Path 1105" class="cls-6" d="M101.515,261.7c.748-.107,1.6,1.6,1.922,4.486a17.146,17.146,0,0,1-.214,5.126,10.7,10.7,0,0,1-3.631,6.3,17.6,17.6,0,0,1-11,3.952c-2.99-.107-4.7-.961-4.592-1.709,0-.748,1.709-1.282,4.058-2.136a29.46,29.46,0,0,0,3.952-1.709,21.265,21.265,0,0,0,4.165-2.67,8.211,8.211,0,0,0,2.35-3.418,42.232,42.232,0,0,0,1.175-4.165C100.341,263.409,100.768,261.7,101.515,261.7Z" transform="translate(-83.996 -261.696)"/>
      </g>
      <g id="Group_923" data-name="Group 923" class="cls-8" transform="translate(183.696 39.429)">
        <path id="Path_1106" data-name="Path 1106" class="cls-6" d="M232.418,255.226A13.937,13.937,0,0,1,244.593,258c4.058,3.418,6.088,9.078,10.68,11.641,4.379,2.35,9.719,1.282,14.311-.534s9.078-4.379,13.991-4.806,10.573,2.136,11.534,6.942c-21.574,1.282-44.536.854-66.109,2.136" transform="translate(-229 -254.818)"/>
      </g>
      <g id="Group_924" data-name="Group 924" class="cls-5" transform="translate(0 37.808)">
        <path id="Path_1107" data-name="Path 1107" class="cls-6" d="M58.709,253.3c5.874.214,8.224,4.165,11.321,9.185s4.165,11.107,3.952,16.981c-.214,3.524-.748,7.156-.32,10.68A17.91,17.91,0,0,0,89.574,305.1a29.1,29.1,0,0,0,7.476-.641c3.2-.534,6.3-.961,9.505-1.5,4.486-.641,9.612-1.282,12.6,3.738a13.145,13.145,0,0,1,1.5,4.913c.214,3.1,1.068.107.214,3.1l-16.447-.427A48.9,48.9,0,0,1,57,269.854Z" transform="translate(-57 -253.3)"/>
      </g>
    </g>
    <g id="Group_946" data-name="Group 946" transform="translate(38.036 270.301)">
      <path id="Path_1108" data-name="Path 1108" class="cls-9" d="M100.548,311.289a1.014,1.014,0,0,1,1.175-.427,3.208,3.208,0,0,1,1.175.641,10.461,10.461,0,0,0,11.855-.427c-3.2-1.282-6.515-2.456-9.826-3.418a4.37,4.37,0,0,0,2.99-1.922c.107-.107.214-.32.107-.427a.392.392,0,0,0-.32-.107,4.868,4.868,0,0,0-2.456.534c-1.6.641-3.2,1.388-4.806,2.029a2.336,2.336,0,0,0-.534.32,1.584,1.584,0,0,0-.107.748,16.05,16.05,0,0,1,.214,2.136" transform="translate(-31.297 -250.874)"/>
      <path id="Path_1109" data-name="Path 1109" class="cls-10" d="M58.175,428.12,57,434.422l3.311-.214,1.6-6.408Z" transform="translate(-34.208 -242.536)"/>
      <path id="Path_1110" data-name="Path 1110" class="cls-10" d="M82.027,426.541l-.427,6.3,3.311-.534.854-6.408Z" transform="translate(-32.535 -242.665)"/>
      <path id="Path_1111" data-name="Path 1111" class="cls-9" d="M63.923,260.9l4.272,11.428a4.861,4.861,0,0,1-2.884,6.3l-1.5.534.641,8.33-11.641.854L51,264.852Z" transform="translate(-34.616 -253.885)"/>
      <path id="Path_1112" data-name="Path 1112" class="cls-11" d="M63.747,254.618s-2.35-1.5-5.233,2.35-9.612,1.282-11.748,6.088c-2.243,4.806-.534,10.466,2.456,14.738l2.136,3.311,5.981-.427s2.563-5.767,1.5-7.369c0,0-6.622-.961-4.592-4.486s5.233,1.5,5.233,1.5l1.709-.214-2.029-6.622s5.874-1.175,6.622-4.806C66.417,254.832,63.747,254.618,63.747,254.618Z" transform="translate(-34.974 -254.332)"/>
      <path id="Path_1113" data-name="Path 1113" class="cls-11" d="M43.5,346.474l15.059,35.351a21.4,21.4,0,0,1,1.6,10.36l-3.845,44.429,8.01-.534s10.894-39.836,11-49.982c0-4.806-5.66-25.525-5.66-25.525s9.505,15.7,9.612,24.35S82.7,434.8,82.7,434.8l6.408-.427s10.573-44.536.427-69.527c-8.864-22-13.457-35.244-13.457-35.244Z" transform="translate(-35.126 -249.214)"/>
      <path id="Path_1114" data-name="Path 1114" class="cls-12" d="M52.9,282.1A27.221,27.221,0,0,0,35.7,306.664c-.748,19.01,8.33,43.147,8.33,43.147L77.141,337l-.961-10.466-5.874-35.992a5.146,5.146,0,0,0-3.418-3.952Z" transform="translate(-35.659 -252.444)"/>
      <g id="Group_926" data-name="Group 926" transform="translate(30.161 36.278)">
        <path id="Path_1115" data-name="Path 1115" class="cls-13" d="M71.056,335.185a.624.624,0,0,1-.107-.427c-.107-.427-.107-.854-.214-1.388-.214-1.388-.534-3.1-.854-5.02-.748-4.592-1.6-10.253-2.563-16.554s-1.816-11.962-2.456-16.554c-.32-1.922-.534-3.631-.748-5.02-.107-.534-.107-.961-.214-1.388V288.3a.624.624,0,0,1,.107.427c.107.427.107.854.214,1.388.214,1.388.534,3.1.854,5.02.748,4.592,1.6,10.253,2.563,16.554s1.816,11.962,2.456,16.554c.32,1.922.534,3.631.748,5.02.107.534.107.961.214,1.388C71.056,335.078,71.162,335.185,71.056,335.185Z" transform="translate(-63.9 -288.3)"/>
      </g>
      <path id="Path_1116" data-name="Path 1116" class="cls-13" d="M51.977,282.1l12.6,3.418-.427,3.311L49.2,283.382Z" transform="translate(-34.738 -252.444)"/>
      <path id="Path_1117" data-name="Path 1117" class="cls-13" d="M63.407,285.329l2.456,3.311-.214-2.777L63.3,283.3Z" transform="translate(-33.779 -252.362)"/>
      <path id="Path_1118" data-name="Path 1118" class="cls-2" d="M63.627,285.4l-.427,3.2,2.136,3.1.32-3.418-1.922-2.67" transform="translate(-33.786 -252.219)"/>
      <path id="Path_1119" data-name="Path 1119" class="cls-2" d="M66.376,290.882s3.418,22.535-6.408,26.7-13.457,4.913-13.457,4.913L43.2,328.8l7.9,1.175S74.065,324.524,73,309.892C71.929,295.367,66.8,289.6,66.8,289.6Z" transform="translate(-35.146 -251.934)"/>
      <path id="Path_1120" data-name="Path 1120" class="cls-12" d="M44.6,302.725l30.331,14.311,29.477-2.136-.534-8.224-24.35-.214L51.649,288.2" transform="translate(-35.051 -252.029)"/>
      <g id="Group_927" data-name="Group 927" transform="translate(9.64 51.977)">
        <path id="Path_1121" data-name="Path 1121" class="cls-13" d="M44.7,303s.427.214,1.175.534,1.816.854,3.2,1.5c2.67,1.175,6.515,2.67,10.787,4.272s8.117,3.2,10.787,4.486q2.083.961,3.2,1.6c.748.427,1.068.641,1.068.641s-.427-.214-1.175-.534-1.816-.854-3.2-1.5c-2.67-1.175-6.515-2.67-10.787-4.272s-8.117-3.2-10.787-4.486q-2.083-.961-3.2-1.6C45.021,303.32,44.594,303,44.7,303Z" transform="translate(-44.685 -303)"/>
      </g>
      <g id="Group_928" data-name="Group 928" transform="translate(20.443 38.627)">
        <path id="Path_1122" data-name="Path 1122" class="cls-13" d="M77.548,305.666a8.391,8.391,0,0,1-.961-.427c-.641-.32-1.5-.854-2.563-1.5-2.136-1.282-4.913-3.2-8.01-5.447s-5.874-4.165-7.9-5.554c-.854-.534-1.709-1.068-2.456-1.6-.534-.32-.854-.534-.854-.641a8.4,8.4,0,0,1,.961.427c.641.32,1.5.854,2.563,1.5,2.136,1.282,4.913,3.2,8.01,5.447s5.874,4.165,7.9,5.554c.854.534,1.709,1.068,2.456,1.6C77.228,305.452,77.548,305.666,77.548,305.666Z" transform="translate(-54.8 -290.5)"/>
      </g>
      <g id="Group_929" data-name="Group 929" transform="translate(63.824 54.754)">
        <path id="Path_1123" data-name="Path 1123" class="cls-13" d="M96.573,314.037a24.138,24.138,0,0,1-.748-4.165c-.32-2.35-.534-4.272-.32-4.272a24.138,24.138,0,0,1,.748,4.165A20.284,20.284,0,0,1,96.573,314.037Z" transform="translate(-95.419 -305.6)"/>
      </g>
      <g id="Group_930" data-name="Group 930" transform="translate(64.978 59.745)">
        <path id="Path_1124" data-name="Path 1124" class="cls-13" d="M100.665,310.3a4.378,4.378,0,0,1-2.029.748,4.888,4.888,0,0,1-2.136.107,7.5,7.5,0,0,1,2.029-.534A9.024,9.024,0,0,1,100.665,310.3Z" transform="translate(-96.5 -310.273)"/>
      </g>
      <path id="Path_1125" data-name="Path 1125" class="cls-11" d="M57.05,434.031a6.929,6.929,0,0,0-.748,3.524l17.3-1.282s1.5-3.524-13.136-2.563Z" transform="translate(-34.257 -242.146)"/>
      <path id="Path_1126" data-name="Path 1126" class="cls-11" d="M81.65,432.228a6.929,6.929,0,0,0-.748,3.524l18.37-1.388s.534-3.2-14.311-2.456Z" transform="translate(-32.585 -242.265)"/>
      <g id="Group_931" data-name="Group 931" transform="translate(28.116 190.691)">
        <path id="Path_1127" data-name="Path 1127" class="cls-13" d="M64.778,432.9c.107.107-.641.534-1.388,1.282A10.214,10.214,0,0,1,62,435.358c-.107-.107.32-.854,1.175-1.5C63.923,433.115,64.671,432.794,64.778,432.9Z" transform="translate(-61.985 -432.881)"/>
      </g>
      <g id="Group_932" data-name="Group 932" transform="translate(29.721 191.011)">
        <path id="Path_1128" data-name="Path 1128" class="cls-13" d="M66.171,433.2c.107.107-.534.534-1.282,1.175-.748.534-1.388,1.068-1.388.961-.107-.107.427-.748,1.175-1.388C65.316,433.415,66.064,433.094,66.171,433.2Z" transform="translate(-63.487 -433.181)"/>
      </g>
      <g id="Group_933" data-name="Group 933" transform="translate(31.534 190.994)">
        <path id="Path_1129" data-name="Path 1129" class="cls-13" d="M67.978,433.2a10.954,10.954,0,0,1-1.388.961c-.748.534-1.282,1.068-1.388.961s.32-.748,1.175-1.388A2.139,2.139,0,0,1,67.978,433.2Z" transform="translate(-65.185 -433.165)"/>
      </g>
      <g id="Group_934" data-name="Group 934" transform="translate(25.766 188.981)">
        <path id="Path_1130" data-name="Path 1130" class="cls-13" d="M62.151,434.612a4.651,4.651,0,0,1-.32-1.922,1.587,1.587,0,0,1,.214-.961.834.834,0,0,1,.427-.427.526.526,0,0,1,.641.427,4.59,4.59,0,0,1-.214,1.282l-.214.641-.107.32a.331.331,0,0,1-.107.214c-.107.107-.214.214-.32.107a5.337,5.337,0,0,1-2.243-1.388c-.107-.214-.214-.534,0-.748s.427-.32.641-.214a1.108,1.108,0,0,1,.854.641,3.033,3.033,0,0,1,.534,1.816,3.086,3.086,0,0,0-.748-1.709.878.878,0,0,0-.641-.427c-.32,0-.427.214-.214.427a5.814,5.814,0,0,0,1.922,1.175c-.107.214,0-.214.107-.32l.214-.641a6.146,6.146,0,0,0,.214-1.068c0-.32-.214-.107-.427.107a2.012,2.012,0,0,0-.214.854C62.044,433.865,62.257,434.612,62.151,434.612Z" transform="translate(-59.785 -431.28)"/>
      </g>
      <g id="Group_935" data-name="Group 935" transform="translate(54.7 188.361)">
        <path id="Path_1131" data-name="Path 1131" class="cls-13" d="M89.572,430.807a.1.1,0,0,1,.107-.107l.107.107a15.825,15.825,0,0,0-1.5,1.175c-.854.748-1.282,1.6-1.388,1.5a2.388,2.388,0,0,1,1.068-1.816,3.682,3.682,0,0,1,1.816-.961l.107.107Q89.572,430.967,89.572,430.807Z" transform="translate(-86.877 -430.7)"/>
      </g>
      <g id="Group_936" data-name="Group 936" transform="translate(56.195 188.751)">
        <path id="Path_1132" data-name="Path 1132" class="cls-13" d="M90.865,431.1c0,.107-.748.427-1.388.961-.748.641-1.068,1.282-1.175,1.175-.107,0,.107-.854.961-1.6C90.01,431.1,90.865,431,90.865,431.1Z" transform="translate(-88.276 -431.065)"/>
      </g>
      <g id="Group_937" data-name="Group 937" transform="translate(57.802 188.965)">
        <path id="Path_1133" data-name="Path 1133" class="cls-13" d="M92.151,431.3a5.2,5.2,0,0,1-1.175.854c-.641.427-1.068.961-1.175.961s.214-.748.854-1.282C91.4,431.3,92.044,431.2,92.151,431.3Z" transform="translate(-89.781 -431.265)"/>
      </g>
      <g id="Group_938" data-name="Group 938" transform="translate(51.868 187.276)">
        <path id="Path_1134" data-name="Path 1134" class="cls-13" d="M86.548,432.585a.8.8,0,0,1-.32-.32,4.4,4.4,0,0,1-.107-1.282,2.351,2.351,0,0,1,.107-.854c.107-.107.107-.427.427-.427.32-.107.534.32.534.534a2.184,2.184,0,0,1,0,1.175c0,.214-.107.427-.107.641,0,.107-.107.214-.107.32a.555.555,0,0,1-.427.214,4.589,4.589,0,0,1-1.282-.214,1.7,1.7,0,0,1-.961-.748.672.672,0,0,1,0-.641c0-.214.427-.214.427-.107l.214.107a4.523,4.523,0,0,1,.748.534c.748.748,1.068,1.388.961,1.388s-.427-.534-1.175-1.175c-.214-.107-.427-.32-.641-.427l-.214-.107v-.107h.107a.527.527,0,0,0,.107.32c.214.534,1.175.748,1.709.854.107.107.214-.534.32-.748v-1.068c0-.214-.107-.214-.107-.214-.107,0-.107.107-.107.214a2.082,2.082,0,0,0-.107.854,5.751,5.751,0,0,0-.107,1.175A.1.1,0,0,1,86.548,432.585Z" transform="translate(-84.225 -429.684)"/>
      </g>
      <g id="Group_939" data-name="Group 939" transform="translate(21.083 183.207)">
        <path id="Path_1135" data-name="Path 1135" class="cls-13" d="M64.051,425.9a21.131,21.131,0,0,1-4.272.854,17.529,17.529,0,0,1-4.379.427,21.131,21.131,0,0,1,4.272-.854A28.407,28.407,0,0,1,64.051,425.9Z" transform="translate(-55.4 -425.874)"/>
      </g>
      <g id="Group_940" data-name="Group 940" transform="translate(46.395 182.31)">
        <path id="Path_1136" data-name="Path 1136" class="cls-13" d="M88.071,425.1a30.834,30.834,0,0,1-4.486.534,21.352,21.352,0,0,1-4.486.107,30.842,30.842,0,0,1,4.486-.534A21.355,21.355,0,0,1,88.071,425.1Z" transform="translate(-79.1 -425.034)"/>
      </g>
      <g id="Group_941" data-name="Group 941" transform="translate(13.815 98.325)">
        <path id="Path_1137" data-name="Path 1137" class="cls-13" d="M49.989,346.4a8.365,8.365,0,0,1,.641,5.126,9.3,9.3,0,0,1-2.029,4.806,14.32,14.32,0,0,0,1.388-9.932Z" transform="translate(-48.595 -346.397)"/>
      </g>
      <g id="Group_942" data-name="Group 942" transform="translate(37.931 87.859)">
        <path id="Path_1138" data-name="Path 1138" class="cls-13" d="M80.066,344.931a8.77,8.77,0,0,1-1.816-.534,13.111,13.111,0,0,1-3.738-2.456,14.175,14.175,0,0,1-2.67-3.631c-.534-1.068-.748-1.709-.641-1.709a26.411,26.411,0,0,0,3.631,5.02A16.092,16.092,0,0,0,80.066,344.931Z" transform="translate(-71.175 -336.597)"/>
      </g>
      <g id="Group_943" data-name="Group 943" transform="translate(27.79 92.561)">
        <path id="Path_1139" data-name="Path 1139" class="cls-13" d="M69.818,355.2a21.905,21.905,0,0,1-2.136,1.282l-.107.107-.107-.107a54.2,54.2,0,0,1-2.99-6.408c-.961-2.456-1.816-4.7-2.243-6.3-.214-.854-.427-1.5-.534-2.029a.7.7,0,0,1,.214-.748,1.28,1.28,0,0,0,0,.748c.107.427.427,1.068.641,1.922.534,1.6,1.388,3.845,2.456,6.3,1.068,2.563,2.136,4.806,2.884,6.408l-.214-.107C68.857,355.525,69.711,355.1,69.818,355.2Z" transform="translate(-61.68 -341)"/>
      </g>
      <g id="Group_944" data-name="Group 944" transform="translate(34.54 92.775)">
        <path id="Path_1140" data-name="Path 1140" class="cls-13" d="M84.34,431.126v-3.738c0-2.563.107-5.981.214-10.146.214-8.651.427-20.4.748-33.322a57.546,57.546,0,0,0-3.418-17.836,89.244,89.244,0,0,0-6.3-13.457,92.371,92.371,0,0,0-5.447-8.437q-.961-1.282-1.6-2.243A5.218,5.218,0,0,1,68,341.2s.214.214.641.748.961,1.175,1.709,2.136a89.192,89.192,0,0,1,5.554,8.437,81.008,81.008,0,0,1,6.408,13.564,55.821,55.821,0,0,1,3.524,17.942c-.32,12.923-.641,24.564-.854,33.322-.107,4.165-.214,7.583-.32,10.039,0,1.068-.107,2.029-.107,2.777A3.455,3.455,0,0,0,84.34,431.126Z" transform="translate(-68 -341.2)"/>
      </g>
      <g id="Group_945" data-name="Group 945" transform="translate(20.549 98.008)">
        <path id="Path_1141" data-name="Path 1141" class="cls-13" d="M59.813,432.394a4.838,4.838,0,0,1,.107-.854c.107-.748.32-1.6.534-2.563.534-2.35,1.175-5.554,2.029-9.4.854-4.058,1.816-8.758,2.884-13.991.534-2.67,1.068-5.447,1.6-8.224A80.51,80.51,0,0,0,68.25,388.5a57.266,57.266,0,0,0-2.777-17.088,115.946,115.946,0,0,0-4.913-13.35c-1.6-3.738-2.99-6.728-4.058-8.758-.427-.961-.854-1.709-1.175-2.35a4.87,4.87,0,0,1-.427-.854,2.369,2.369,0,0,1,.427.748c.32.641.748,1.388,1.282,2.35,1.068,2.029,2.563,4.913,4.165,8.651a138.214,138.214,0,0,1,5.02,13.35,57.988,57.988,0,0,1,2.777,17.195,78.853,78.853,0,0,1-1.282,8.971c-.534,2.884-1.068,5.66-1.6,8.224-1.068,5.233-2.136,9.932-2.99,13.991-.854,3.845-1.6,6.942-2.136,9.4q-.32,1.442-.641,2.563A2.955,2.955,0,0,1,59.813,432.394Z" transform="translate(-54.9 -346.1)"/>
      </g>
      <path id="Path_1142" data-name="Path 1142" class="cls-14" d="M44.7,303s2.136,17.088,28.943,14.418l.748-.107-.214-2.456Z" transform="translate(-35.044 -251.023)"/>
      <path id="Path_1143" data-name="Path 1143" class="cls-14" d="M43.2,326.992l6.622,1.816a10.413,10.413,0,0,0,5.126,0C59.54,327.526,68.4,324.215,69.9,317.7c-4.7,5.447-11.321,8.437-18.8,10.573Z" transform="translate(-35.146 -250.023)"/>
      <path id="Path_1144" data-name="Path 1144" class="cls-13" d="M65.129,341.762a1.016,1.016,0,1,1-1.068-.961A.982.982,0,0,1,65.129,341.762Z" transform="translate(-33.793 -248.453)"/>
    </g>
    <g id="Group_967" data-name="Group 967" transform="translate(396.821 254.891)">
      <path id="Path_1145" data-name="Path 1145" class="cls-9" d="M380.2,318.113a5.478,5.478,0,0,1,2.029-3.1A16.416,16.416,0,0,0,380.2,313.2" transform="translate(-371.015 -234.92)"/>
      <g id="Group_966" data-name="Group 966">
        <path id="Path_1146" data-name="Path 1146" class="cls-9" d="M381,312.448c-.854.534-1.922,0-2.884-.32a7.366,7.366,0,0,0-3.738-.32.642.642,0,0,0-.427.107c-.427.32-.107.961.32,1.175s.961.214,1.5.427c.107.107.214.107.214.214.107.214-.214.534-.427.641a15.761,15.761,0,0,0-3.524,3.524,2.146,2.146,0,0,0-.427.854.971.971,0,0,0,.427.854c.641.32,1.6-1.175,2.35-.961a12.6,12.6,0,0,0-.427,2.136c0,.214,0,.534.214.641a.392.392,0,0,0,.32-.107c.534-.32,1.175-1.388,1.709-1.816.214.427-.107,1.709,0,2.136,0,.427.427,1.068.854.961.641-.107.641-1.6,1.068-2.136.427-.32,0,.961.32,2.029,0,0,.748,1.068,1.5-1.175a28.1,28.1,0,0,0,.961-3.418" transform="translate(-371.6 -235.022)"/>
        <path id="Path_1147" data-name="Path 1147" class="cls-9" d="M384.485,265.966a35.883,35.883,0,0,1-2.777-5.767c-.107-.32-.214-.641,0-.854s.534,0,.748.214.427.534.641.534a6.438,6.438,0,0,0-.107-2.456,2.089,2.089,0,0,1,.748-2.136c.641,1.388,1.175,2.777,1.709,4.165a22.328,22.328,0,0,1-.107-2.67,1.818,1.818,0,0,1,.107-.748.39.39,0,0,1,.534-.214c.214.107.214.427.214.748a21.631,21.631,0,0,0,1.922,9.078,1.171,1.171,0,0,0-1.282-.32c-.641.107-1.5.32-2.35.427" transform="translate(-370.921 -238.843)"/>
        <g id="Group_951" data-name="Group 951" transform="translate(31.92 162.866)">
          <path id="Path_1148" data-name="Path 1148" class="cls-10" d="M416.545,392.507l1.388,6.3-3.418-.107-1.816-6.3Z" transform="translate(-400.726 -392.4)"/>
          <path id="Path_1149" data-name="Path 1149" class="cls-11" d="M418.589,398.2a7.339,7.339,0,0,1,1.282,3.418l-18.37,1.388s-.961-3.1,13.777-4.486Z" transform="translate(-401.488 -392.006)"/>
          <g id="Group_947" data-name="Group 947" transform="translate(8.45 5.847)">
            <path id="Path_1150" data-name="Path 1150" class="cls-13" d="M409.614,397.9h0a2.929,2.929,0,0,1,1.816.641c1.068.641,1.388,1.6,1.282,1.709s-.641-.748-1.6-1.282c-.748-.534-1.5-.748-1.709-.961l.214-.107Z" transform="translate(-409.4 -397.875)"/>
          </g>
          <g id="Group_948" data-name="Group 948" transform="translate(7.275 6.352)">
            <path id="Path_1151" data-name="Path 1151" class="cls-13" d="M408.3,398.4c0-.107.854-.107,1.816.427.854.534,1.282,1.388,1.175,1.388-.107.107-.534-.534-1.388-1.068A12.507,12.507,0,0,1,408.3,398.4Z" transform="translate(-408.3 -398.348)"/>
          </g>
          <g id="Group_949" data-name="Group 949" transform="translate(5.994 6.776)">
            <path id="Path_1152" data-name="Path 1152" class="cls-13" d="M407.1,398.8c0-.107.748-.107,1.5.32s1.175,1.068,1.068,1.175-.534-.32-1.282-.748C407.741,399.124,407.1,398.911,407.1,398.8Z" transform="translate(-407.1 -398.744)"/>
          </g>
          <g id="Group_950" data-name="Group 950" transform="translate(10.8 4.272)">
            <path id="Path_1153" data-name="Path 1153" class="cls-13" d="M412.882,399.284a1.064,1.064,0,0,1,.107-.427,6.973,6.973,0,0,0-.214-1.175c-.107-.214-.214-.534-.32-.748-.107-.107-.107-.214-.214-.214v.214a4.006,4.006,0,0,0,.107,1.068c.107.32.32.854.427.748.534-.214,1.5-.534,1.6-1.068v-.32h0l-.214.107c-.214.214-.427.32-.641.534a4.007,4.007,0,0,0-.961,1.388,3.876,3.876,0,0,1,.748-1.6l.641-.641.214-.107c0-.107.427-.107.427.107a.672.672,0,0,1,0,.641,1.516,1.516,0,0,1-.854.961,3.826,3.826,0,0,1-1.175.427.809.809,0,0,1-.427-.214c-.107-.107-.107-.214-.214-.32-.107-.214-.107-.427-.214-.534a4.381,4.381,0,0,1-.107-1.175c0-.107.107-.534.427-.534s.427.214.534.427a3.3,3.3,0,0,1,.214.854,2.812,2.812,0,0,1,.107,1.282C412.988,399.177,412.882,399.284,412.882,399.284Z" transform="translate(-411.6 -396.4)"/>
          </g>
        </g>
        <g id="Group_956" data-name="Group 956" transform="translate(52.319 161.05)">
          <path id="Path_1154" data-name="Path 1154" class="cls-10" d="M435.638,390.807l1.388,6.3L433.716,397l-1.816-6.3Z" transform="translate(-419.819 -390.7)"/>
          <path id="Path_1155" data-name="Path 1155" class="cls-11" d="M437.689,396.4a7.339,7.339,0,0,1,1.282,3.418l-18.37,1.388s-.961-3.1,13.777-4.486Z" transform="translate(-420.588 -390.312)"/>
          <g id="Group_952" data-name="Group 952" transform="translate(8.45 5.847)">
            <path id="Path_1156" data-name="Path 1156" class="cls-13" d="M428.714,396.2h0a2.929,2.929,0,0,1,1.816.641c1.068.641,1.388,1.6,1.282,1.709s-.641-.748-1.6-1.282c-.748-.534-1.5-.748-1.709-.961l.214-.107Z" transform="translate(-428.5 -396.175)"/>
          </g>
          <g id="Group_953" data-name="Group 953" transform="translate(7.373 6.352)">
            <path id="Path_1157" data-name="Path 1157" class="cls-13" d="M427.5,396.7c0-.107.854-.107,1.816.427.854.534,1.282,1.388,1.175,1.388-.107.107-.534-.534-1.388-1.068S427.394,396.81,427.5,396.7Z" transform="translate(-427.491 -396.648)"/>
          </g>
          <g id="Group_954" data-name="Group 954" transform="translate(6.089 6.776)">
            <path id="Path_1158" data-name="Path 1158" class="cls-13" d="M426.3,397.1c0-.107.748-.107,1.5.32s1.175,1.068,1.068,1.175-.534-.32-1.282-.748S426.194,397.211,426.3,397.1Z" transform="translate(-426.289 -397.044)"/>
          </g>
          <g id="Group_955" data-name="Group 955" transform="translate(10.8 4.272)">
            <path id="Path_1159" data-name="Path 1159" class="cls-13" d="M431.982,397.584a1.064,1.064,0,0,1,.107-.427,6.975,6.975,0,0,0-.214-1.175c-.107-.214-.214-.534-.32-.748-.107-.107-.107-.214-.214-.214v.214a4.006,4.006,0,0,0,.107,1.068c.107.32.32.854.427.748.534-.214,1.5-.534,1.6-1.068v-.32h0l-.214.107c-.214.214-.427.32-.641.534a4.007,4.007,0,0,0-.961,1.388,3.876,3.876,0,0,1,.748-1.6l.641-.641.214-.107c0-.107.427-.107.427.107a.672.672,0,0,1,0,.641,1.516,1.516,0,0,1-.854.961,3.826,3.826,0,0,1-1.175.427.809.809,0,0,1-.427-.214c-.107-.107-.107-.214-.214-.32-.107-.214-.107-.427-.214-.534a4.381,4.381,0,0,1-.107-1.175c0-.107.107-.534.427-.534s.427.214.534.427a3.3,3.3,0,0,1,.214.854,2.812,2.812,0,0,1,.107,1.282C432.088,397.477,431.982,397.584,431.982,397.584Z" transform="translate(-430.7 -394.7)"/>
          </g>
        </g>
        <path id="Path_1160" data-name="Path 1160" class="cls-11" d="M424.991,260.515s13.03-4.058,19.331,21.467c6.3,25.418,2.35,32.574,2.35,32.574L413.99,310.5s4.486-13.35,3.2-21.574S411,265.107,411,265.107,418.049,259.447,424.991,260.515Z" transform="translate(-368.921 -238.518)"/>
        <path id="Path_1161" data-name="Path 1161" class="cls-11" d="M383.3,265.143s8.224,28.088,18.69,22.535,24.03-16.447,24.03-16.447l-11.641-8.33s-13.03,15.806-16.02,13.35c-2.884-2.456-9.719-11.534-9.719-11.534Z" transform="translate(-370.804 -238.34)"/>
        <path id="Path_1162" data-name="Path 1162" class="cls-15" d="M413.148,262.9,401.4,287.357,416.993,277l-.641-12.389Z" transform="translate(-369.574 -238.34)"/>
        <path id="Path_1163" data-name="Path 1163" class="cls-11" d="M420.8,304.5s-26.166,29.8-28.2,38.875c-2.029,8.971,21.253,58.42,21.253,58.42l5.767-.427s-12.6-47.846-11.321-53.4,14.1-21.146,14.1-21.146-8.758,16.981-5.447,32.788c3.631,17.3,16.874,38.341,16.874,38.341l5.447-.427s-12.6-42.72-7.583-52.012c5.233-9.826,16.554-34.176,16.554-34.176Z" transform="translate(-370.18 -235.511)"/>
        <g id="Group_957" data-name="Group 957" transform="translate(52.005 76.999)">
          <path id="Path_1164" data-name="Path 1164" class="cls-13" d="M434.291,312a7.847,7.847,0,0,0-.214.854c-.214.641-.534,1.388-.854,2.35q-1.282,3.364-3.2,8.651c-1.388,3.738-2.99,8.01-4.7,12.709-.854,2.456-1.816,4.913-2.777,7.476a25.382,25.382,0,0,0-1.175,4.058c-.214,1.388-.427,2.884-.534,4.272a60.331,60.331,0,0,0,2.35,16.34,110.717,110.717,0,0,0,4.379,12.816c1.388,3.631,2.67,6.408,3.631,8.437.427.854.748,1.6,1.068,2.243.214.534.32.748.32.748a2.368,2.368,0,0,1-.427-.748,23.553,23.553,0,0,0-1.175-2.243c-.961-1.922-2.243-4.806-3.738-8.33a116.859,116.859,0,0,1-4.486-12.816A57.118,57.118,0,0,1,420.3,352.37a28.875,28.875,0,0,1,.534-4.379,25.641,25.641,0,0,1,1.282-4.058c.961-2.563,1.922-5.126,2.884-7.476,1.816-4.7,3.418-9.078,4.806-12.709,1.388-3.524,2.456-6.408,3.311-8.544.32-.854.641-1.709.961-2.35A7.843,7.843,0,0,1,434.291,312Z" transform="translate(-420.294 -312)"/>
        </g>
        <g id="Group_958" data-name="Group 958" transform="translate(28.804 77.96)">
          <path id="Path_1165" data-name="Path 1165" class="cls-13" d="M421.778,312.9a5.524,5.524,0,0,1-.641.748c-.534.534-1.175,1.282-1.922,2.136-1.6,1.816-4.058,4.486-6.835,7.9a153.059,153.059,0,0,0-9.505,12.175c-.748,1.175-1.6,2.456-2.35,3.738a11.44,11.44,0,0,0-1.6,4.272,30.015,30.015,0,0,0,.427,9.719,114.261,114.261,0,0,0,5.126,18.156c1.922,5.447,3.845,10.36,5.554,14.418s3.1,7.369,4.058,9.612c.427,1.068.854,1.922,1.175,2.563a4.385,4.385,0,0,0,.427.961,5.088,5.088,0,0,1-.427-.854c-.32-.748-.748-1.5-1.175-2.563-1.068-2.243-2.456-5.447-4.165-9.505s-3.631-8.971-5.554-14.418a115.663,115.663,0,0,1-5.126-18.263,30.545,30.545,0,0,1-.427-9.826,12.108,12.108,0,0,1,1.709-4.379c.748-1.388,1.6-2.563,2.35-3.845a135.135,135.135,0,0,1,9.612-12.175c2.884-3.311,5.233-5.981,6.942-7.8.748-.854,1.388-1.5,1.922-2.029A2.369,2.369,0,0,1,421.778,312.9Z" transform="translate(-398.57 -312.9)"/>
        </g>
        <g id="Group_959" data-name="Group 959" transform="translate(42.72 164.174)">
          <path id="Path_1166" data-name="Path 1166" class="cls-13" d="M417.794,393.705a11.715,11.715,0,0,1-3.1.427,12.465,12.465,0,0,1-3.1,0,11.715,11.715,0,0,1,3.1-.427A12.462,12.462,0,0,1,417.794,393.705Z" transform="translate(-411.6 -393.625)"/>
        </g>
        <g id="Group_960" data-name="Group 960" transform="translate(61.944 158.78)">
          <path id="Path_1167" data-name="Path 1167" class="cls-13" d="M436.756,388.6a13.443,13.443,0,0,1-3.524.854,18.024,18.024,0,0,1-3.631.427,13.443,13.443,0,0,1,3.524-.854A18.026,18.026,0,0,1,436.756,388.6Z" transform="translate(-429.6 -388.574)"/>
        </g>
        <g id="Group_961" data-name="Group 961" transform="translate(69.561 75.393)">
          <path id="Path_1168" data-name="Path 1168" class="cls-13" d="M440.115,320.967a1.956,1.956,0,0,1-1.709-.641,7.051,7.051,0,0,1-1.6-3.952,9.15,9.15,0,0,1,1.175-5.874,13.113,13.113,0,0,0-.748,5.767,8.066,8.066,0,0,0,1.388,3.845A2.929,2.929,0,0,0,440.115,320.967Z" transform="translate(-436.732 -310.497)"/>
        </g>
        <g id="Group_962" data-name="Group 962" transform="translate(44.108 71.976)">
          <path id="Path_1169" data-name="Path 1169" class="cls-13" d="M424.968,307.3a5.755,5.755,0,0,1-1.175,1.6,12.69,12.69,0,0,1-4.058,2.67,10.651,10.651,0,0,1-4.806.854c-1.282,0-2.029-.214-2.029-.32a16.467,16.467,0,0,0,6.622-.961A15.035,15.035,0,0,0,424.968,307.3Z" transform="translate(-412.9 -307.297)"/>
        </g>
        <g id="Group_963" data-name="Group 963" transform="translate(54.458 72.083)">
          <path id="Path_1170" data-name="Path 1170" class="cls-13" d="M428.368,307.4a14.619,14.619,0,0,1-.748,1.709,38.632,38.632,0,0,1-2.136,3.952,38.028,38.028,0,0,1-2.456,3.738c-.214.427.214.748.427.961a1.169,1.169,0,0,1,.427.214,1.869,1.869,0,0,1-.534-.107.976.976,0,0,1-.534-.32.646.646,0,0,1-.107-.854c.641-1.068,1.5-2.35,2.35-3.845C426.873,309.857,428.261,307.293,428.368,307.4Z" transform="translate(-422.591 -307.397)"/>
        </g>
        <path id="Path_1171" data-name="Path 1171" class="cls-13" d="M429.641,308.4a1.326,1.326,0,0,0-.641.854c0,.32.32.748.641.641.107,0,.214-.107.32-.214a.958.958,0,0,0-.32-1.282" transform="translate(-367.697 -235.246)"/>
        <path id="Path_1172" data-name="Path 1172" class="cls-15" d="M416.548,307.4l30.118,3.845-1.388,3.1L415.8,308.361Z" transform="translate(-368.594 -235.314)"/>
        <g id="Group_964" data-name="Group 964" transform="translate(24.363)">
          <path id="Path_1173" data-name="Path 1173" class="cls-9" d="M398.8,250.408l5.233,11a4.874,4.874,0,0,0,6.515,2.35l1.5-.641,5.554,6.3,8.758-7.69L410.655,244Z" transform="translate(-394.114 -239.625)"/>
          <path id="Path_1174" data-name="Path 1174" class="cls-11" d="M394.826,246.521s.534-2.777,5.34-2.136c4.7.641,7.583-5.981,12.6-4.165s7.8,6.942,8.758,12.068l.961,3.845L418,260.085s-5.981-2.243-6.3-4.165c0,0,3.952-5.34,0-6.408s-2.563,4.7-2.563,4.7l-1.388,1.068-3.311-6.088s-4.913,3.418-8.117,1.388C393.224,248.444,394.826,246.521,394.826,246.521Z" transform="translate(-394.412 -239.904)"/>
        </g>
        <path id="Path_1175" data-name="Path 1175" class="cls-13" d="M416.42,270.228c.107-.427-.32-4.272-.32-4.272l7.583-7.156,3.845,1.816" transform="translate(-368.574 -238.619)"/>
        <line id="Line_9" data-name="Line 9" class="cls-1" x1="11.107" y2="9.505" transform="translate(47.846 22.103)"/>
        <path id="Path_1176" data-name="Path 1176" class="cls-13" d="M415.809,281.334,414.1,265.1l2.884,2.884-.961,14.1" transform="translate(-368.71 -238.191)"/>
        <path id="Path_1177" data-name="Path 1177" class="cls-13" d="M416.327,267.3l2.99,9.292-3.418,6.942Z" transform="translate(-368.588 -238.041)"/>
        <path id="Path_1178" data-name="Path 1178" class="cls-13" d="M415.9,283.256l-3.1-11.641,1.388-6.515Z" transform="translate(-368.798 -238.191)"/>
        <path id="Path_1179" data-name="Path 1179" class="cls-2" d="M414.32,265.1l2.136,2.35-.214,4.7-1.709-1.175-.534-5.34" transform="translate(-368.717 -238.191)"/>
        <path id="Path_1180" data-name="Path 1180" class="cls-16" d="M414.5,270.6" transform="translate(-368.683 -237.817)"/>
        <path id="Path_1181" data-name="Path 1181" class="cls-2" d="M417.132,271.2s2.243,23.5-7.9,23.71-11.855-1.922-11.855-1.922l-5.874,3.2,3.2,6.194s13.777,4.592,22.214-.854c13.884-8.971,1.068-29.8,1.068-29.8Z" transform="translate(-370.247 -237.776)"/>
        <path id="Path_1182" data-name="Path 1182" class="cls-11" d="M424.41,277.6c-.961.427-45.71,36.739-45.71,36.739l3.738,3.845s39.943-22.962,42.934-27.982C428.362,285.076,424.41,277.6,424.41,277.6Z" transform="translate(-371.117 -237.341)"/>
        <g id="Group_965" data-name="Group 965" transform="translate(47.419 39.505)">
          <path id="Path_1183" data-name="Path 1183" class="cls-13" d="M420.486,292.386s.427-.214,1.282-.748a37.681,37.681,0,0,0,3.524-2.029,54.159,54.159,0,0,0,4.806-3.524,8.988,8.988,0,0,0,2.35-2.563,3.281,3.281,0,0,0,.214-3.418,5.4,5.4,0,0,0-2.99-2.029,9.85,9.85,0,0,0-3.418-.748,10.119,10.119,0,0,0-5.554,1.816c-1.282.748-2.35,1.5-3.418,2.136-.854.534-1.282.748-1.282.748s.427-.32,1.175-.854c.961-.641,2.136-1.5,3.418-2.35a10.02,10.02,0,0,1,5.767-1.922,10.427,10.427,0,0,1,3.524.748,6.106,6.106,0,0,1,3.2,2.243,3.8,3.8,0,0,1-.214,3.845,9.415,9.415,0,0,1-2.456,2.563,30.692,30.692,0,0,1-4.913,3.524c-1.5.854-2.777,1.5-3.631,1.922a7.359,7.359,0,0,1-1.068.427A1.321,1.321,0,0,0,420.486,292.386Z" transform="translate(-416 -276.894)"/>
        </g>
        <path id="Path_1184" data-name="Path 1184" class="cls-13" d="M410.4,295.842c.854,1.175-.534,3.631-3.1,5.34s-5.34,2.136-6.088.961c-.854-1.175.534-3.631,3.1-5.34S409.653,294.667,410.4,295.842Z" transform="translate(-369.603 -236.145)"/>
        <path id="Path_1185" data-name="Path 1185" class="cls-15" d="M415.3,302.751s18.69-11.214,17.515-19.651L415.62,295.7S416.688,297.838,415.3,302.751Z" transform="translate(-368.628 -236.967)"/>
      </g>
    </g>
    <path id="Path_1186" data-name="Path 1186" class="cls-14" d="M119.158,435.958c0,2.243-18.8,4.058-42.079,4.058C53.9,440.017,35,438.2,35,435.958S53.8,431.9,77.079,431.9,119.158,433.716,119.158,435.958Z" transform="translate(2.332 28.043)"/>
    <path id="Path_1187" data-name="Path 1187" class="cls-14" d="M277.458,431.358c0,2.243-18.8,4.058-42.079,4.058-23.176,0-42.079-1.816-42.079-4.058s18.8-4.058,42.079-4.058S277.458,429.116,277.458,431.358Z" transform="translate(13.097 27.73)"/>
    <path id="Path_1188" data-name="Path 1188" class="cls-14" d="M463.458,400.658c0,2.243-18.8,4.058-42.079,4.058-23.176,0-42.079-1.816-42.079-4.058s18.8-4.058,42.079-4.058C444.555,396.6,463.458,398.416,463.458,400.658Z" transform="translate(25.745 25.643)"/>
    <g id="Group_976" data-name="Group 976" transform="translate(191.743 265.495)">
      <path id="Path_1189" data-name="Path 1189" class="cls-9" d="M238.823,256.4l4.272,11.534a4.822,4.822,0,0,1-2.884,6.3l-1.5.534.641,8.437-11.748.854-1.709-23.71Z" transform="translate(-176.43 -249.385)"/>
      <path id="Path_1190" data-name="Path 1190" class="cls-11" d="M238.753,250.118s-2.35-1.5-5.233,2.35-9.612,1.282-11.855,6.088-.534,10.466,2.456,14.845l2.136,3.418,5.981-.427s2.563-5.874,1.5-7.476c0,0-6.622-.961-4.592-4.486s5.233,1.5,5.233,1.5l1.709-.214-2.029-6.622s5.874-1.175,6.622-4.913C241.317,250.332,238.753,250.118,238.753,250.118Z" transform="translate(-176.787 -249.832)"/>
      <path id="Path_1191" data-name="Path 1191" class="cls-17" d="M218.86,359.2l1.5,17.088a61.974,61.974,0,0,1-.534,14.738l-6.622,42.4h3.738l12.282-32.681a63.5,63.5,0,0,0,3.952-18.9l1.282-22.535L218.86,359.2Z" transform="translate(-177.293 -242.395)"/>
      <path id="Path_1192" data-name="Path 1192" class="cls-17" d="M231.6,353.5l2.99,21.68a99.486,99.486,0,0,1,1.388,18.69l-.961,41.118,3.2-1.282,6.622-26.807a97.717,97.717,0,0,0,2.243-33.428L245.7,353.5Z" transform="translate(-176.042 -242.783)"/>
      <path id="Path_1193" data-name="Path 1193" class="cls-11" d="M229.431,283.208s-10.146-2.35-7.8,12.816,5.02,23.282,5.02,23.282-17.836,20.612-12.389,48.167l1.388,15.379h37.06l-4.7-72.838,1.175-1.388a9.826,9.826,0,0,0,2.136-8.33L249.51,291l24.884-3.845,20.185-17.515-4.7-3.845-16.554,12.282Z" transform="translate(-177.291 -248.746)"/>
      <path id="Path_1194" data-name="Path 1194" class="cls-11" d="M233.429,256.583c-3.524,4.058-5.554,8.971-1.388,12.282a4.314,4.314,0,0,1,1.6,1.816c.214.427,2.67.961,2.67,1.388-.32,5.34-3.2,10.787-3.524,16.127a13.075,13.075,0,0,1-1.388,6.088c-1.6,2.563-4.806,3.631-7.049,5.66-2.456,2.136-3.845,5.233-5.981,7.8a20.942,20.942,0,0,1-13.136,6.515,24.845,24.845,0,0,1-17.729-4.379,19.456,19.456,0,0,1-7.9-16.234c.427-9.078,8.437-16.661,17.3-18.583,3.738-.748,7.69-.748,11.321-1.709,3.738-.961,7.476-3.311,8.544-6.942.641-2.029.32-4.272,1.175-6.3,0,0,2.136-8.33,15.806-5.981" transform="translate(-179.579 -249.568)"/>
      <path id="Path_1195" data-name="Path 1195" class="cls-11" d="M217.94,428.5s6.835,1.068,7.156,2.563c.32,1.388-12.5-.748-12.5-.748l.214-1.6" transform="translate(-177.334 -237.683)"/>
      <path id="Path_1196" data-name="Path 1196" class="cls-11" d="M238.131,428.3s8.33.427,8.758,1.816c.534,1.388-12.389,1.068-12.389,1.068v-1.6" transform="translate(-175.845 -237.696)"/>
      <g id="Group_969" data-name="Group 969" transform="translate(40.072 86.784)">
        <line id="Line_10" data-name="Line 10" class="cls-1" x2="32.467" y2="3.952" transform="translate(0.107 0.01)"/>
        <g id="Group_968" data-name="Group 968">
          <path id="Path_1197" data-name="Path 1197" class="cls-13" d="M249.674,335.052c0,.107-7.369-.641-16.34-1.709S217.1,331.207,217.1,331.1s7.369.641,16.34,1.709C242.518,333.877,249.781,334.945,249.674,335.052Z" transform="translate(-217.1 -331.09)"/>
        </g>
      </g>
      <g id="Group_970" data-name="Group 970" transform="translate(49.47 68.45)">
        <path id="Path_1198" data-name="Path 1198" class="cls-13" d="M234.978,314.005a23.188,23.188,0,0,1-4.486,1.068,25.024,25.024,0,0,1-4.592.534,23.188,23.188,0,0,1,4.486-1.068C232.842,314.005,234.871,313.792,234.978,314.005Z" transform="translate(-225.9 -313.923)"/>
      </g>
      <g id="Group_971" data-name="Group 971" transform="translate(51.286 70.841)">
        <path id="Path_1199" data-name="Path 1199" class="cls-13" d="M236.037,317.484a20.283,20.283,0,0,1-4.272-.32c-2.35-.32-4.165-.748-4.165-.961a20.284,20.284,0,0,1,4.272.32A23.4,23.4,0,0,1,236.037,317.484Z" transform="translate(-227.6 -316.162)"/>
      </g>
      <g id="Group_972" data-name="Group 972" transform="translate(60.463 40.828)">
        <path id="Path_1200" data-name="Path 1200" class="cls-13" d="M254.784,288.1a12.256,12.256,0,0,1-2.67.641c-1.709.32-4.058.748-6.622,1.175s-4.913.748-6.622.961a22.363,22.363,0,0,0-2.67.641c-.107-.107.854-.748,2.563-1.068s4.058-.748,6.622-1.175,4.913-.748,6.622-.961A10.8,10.8,0,0,1,254.784,288.1Z" transform="translate(-236.192 -288.061)"/>
      </g>
      <path id="Path_1201" data-name="Path 1201" class="cls-13" d="M266.414,286.572c2.029-2.67,5.34-3.952,8.651-4.272a44.317,44.317,0,0,1-3.418,2.884c-.214.214-.534.641-.854.748-.214.107-.427,0-.748.107-1.388.32-2.67.32-3.845.641" transform="translate(-173.689 -247.624)"/>
      <g id="Group_973" data-name="Group 973" transform="translate(43.694 31.365)">
        <path id="Path_1202" data-name="Path 1202" class="cls-13" d="M230.967,279.2c.107,0,.107,1.282-.641,3.311-.748,1.922-1.922,4.486-3.311,7.369a40.415,40.415,0,0,1-4.272,6.835,21.739,21.739,0,0,1-2.243,2.456,17.388,17.388,0,0,1,1.922-2.67,57.771,57.771,0,0,0,4.058-6.835c1.388-2.777,2.563-5.34,3.418-7.262A9.805,9.805,0,0,0,230.967,279.2Z" transform="translate(-220.492 -279.2)"/>
      </g>
      <g id="Group_975" data-name="Group 975" transform="translate(64.62 92.134)">
        <path id="Path_1203" data-name="Path 1203" class="cls-13" d="M240.614,336.2A295.148,295.148,0,0,0,242,378.6" transform="translate(-240.063 -336.093)"/>
        <g id="Group_974" data-name="Group 974">
          <path id="Path_1204" data-name="Path 1204" class="cls-13" d="M242.023,378.606l-.32-1.6c-.107-1.068-.32-2.563-.534-4.486-.427-3.845-.748-9.185-.961-15.059s-.107-11.214,0-15.059c.107-1.922.107-3.524.214-4.592s.107-1.709.214-1.709a7.142,7.142,0,0,1,0,1.709V342.4c0,3.845,0,9.185.214,15.059s.534,11.107.854,14.952c.107,1.816.214,3.418.32,4.592C242.023,378.072,242.13,378.606,242.023,378.606Z" transform="translate(-240.085 -336.1)"/>
        </g>
      </g>
      <path id="Path_1205" data-name="Path 1205" class="cls-9" d="M285.748,267.476c.748-2.67,1.709-5.554,3.738-7.476.641.961-.427,2.243,0,3.311,1.068-1.068,2.456-2.136,3.952-1.816a4.675,4.675,0,0,1-1.922,2.136,4.614,4.614,0,0,1,3.524-.641c-1.068.854-2.136,1.6-3.2,2.35a19.662,19.662,0,0,1,3.524-.32c.214.214-.107.534-.32.641a13.679,13.679,0,0,1-2.563,1.175c.534,0,.961.107,1.5.107.214,0,.427,0,.534.214s-.107.534-.32.748a6.939,6.939,0,0,1-2.456.961c-.961.32-2.029.534-2.99.854h-.214a.23.23,0,0,1-.214-.214A6.675,6.675,0,0,0,285,267.476" transform="translate(-172.411 -249.141)"/>
    </g>
    <g id="Group_987" data-name="Group 987" class="cls-18" transform="translate(63.926 81.124)">
      <g id="Group_977" data-name="Group 977" transform="translate(397.723 32.04)">
        <path id="Path_1206" data-name="Path 1206" class="cls-11" d="M439.349,107.2l2.456,4.592,4.592,2.456-4.592,2.456-2.456,4.592-2.456-4.592-4.592-2.456,4.592-2.456Z" transform="translate(-432.3 -107.2)"/>
      </g>
      <g id="Group_978" data-name="Group 978" transform="translate(0 25.098)">
        <path id="Path_1207" data-name="Path 1207" class="cls-11" d="M66.842,100.7l2.563,4.486,4.486,2.456-4.486,2.563-2.563,4.486-2.456-4.486L59.9,107.642l4.486-2.456Z" transform="translate(-59.9 -100.7)"/>
      </g>
      <g id="Group_979" data-name="Group 979" transform="translate(181.774 110.645)">
        <path id="Path_1208" data-name="Path 1208" class="cls-11" d="M240.78,180.8l3.845,6.942,6.942,3.738-6.942,3.845-3.845,6.942-3.738-6.942L230.1,191.48l6.942-3.738Z" transform="translate(-230.1 -180.8)"/>
      </g>
      <g id="Group_980" data-name="Group 980" transform="translate(19.438 56.468)">
        <path id="Path_1209" data-name="Path 1209" class="cls-11" d="M100.742,130.1c.32.214,0,1.388-.748,3.524q-.641,1.6-1.6,3.845c-.32.748-.641,1.5-1.068,2.35l-.641,1.282a5.208,5.208,0,0,0-.32.748,3.948,3.948,0,0,0-.534,1.175c-1.709,1.068-3.631,2.243-5.66,3.418-.427.32-.961.534-1.388.854l-.32.214-.107.107-.32.32c.107,0,.32.107.427.107h.214l.32.214.748.427c.961.534,1.922,1.068,2.99,1.6,1.282.641,2.456,1.282,3.738,2.029,1.175,2.029,2.35,4.165,3.524,6.3.214.427.534.961.748,1.388h0c.214-.427.534-.961.748-1.388,1.175-2.136,2.35-4.272,3.524-6.3,1.282-.641,2.563-1.388,3.738-2.029.961-.534,2.029-1.068,2.99-1.6l.748-.427.32-.214h.214c.107,0,.32-.107.427-.107l-.32-.32-.107-.107c-.107,0,0,0-.32-.214a15.81,15.81,0,0,1-1.388-.854c-2.029-1.282-3.952-2.35-5.66-3.418a5.724,5.724,0,0,1-.534-1.175,5.207,5.207,0,0,1-.32-.748l-.641-1.282c-.427-.854-.748-1.6-1.068-2.35q-.961-2.243-1.6-3.845c-.748-2.136-1.068-3.311-.748-3.524s1.175.748,2.563,2.563c.641.961,1.5,2.029,2.35,3.418.427.641.961,1.388,1.388,2.136.214.427.534.748.748,1.175a2.235,2.235,0,0,0,.427.641l.214.214.214.107.214.107.32.107c.427.214.854.427,1.388.641.961.427,1.816.961,2.884,1.388.534.214.961.534,1.5.748.854.427,1.709.854,2.563,1.388q2.884,1.6,6.088,3.2c-4.486,2.563-9.4,5.34-14.525,8.33h0l-.32.641c-.214.427-.534.961-.748,1.388-.534.961-1.068,1.922-1.5,2.884-1.816,3.418-3.738,6.835-5.66,10.36-1.922-3.524-3.845-6.942-5.66-10.36-.534-.961-1.068-1.922-1.5-2.884-.214-.427-.534-.961-.748-1.388l-.32-.641h0c-5.233-2.99-10.146-5.767-14.525-8.33l6.088-3.2c.854-.427,1.709-.854,2.563-1.388.534-.214.961-.534,1.5-.748.961-.534,1.922-.961,2.884-1.388.427-.214.854-.427,1.388-.641l.32-.107a.373.373,0,0,0,.214-.107l.214-.107.214-.214a2.234,2.234,0,0,1,.427-.641,11.257,11.257,0,0,1,.748-1.175c.534-.748.961-1.5,1.388-2.136.854-1.388,1.709-2.456,2.35-3.418C99.567,130.849,100.421,129.888,100.742,130.1Z" transform="translate(-78.1 -130.073)"/>
      </g>
      <g id="Group_981" data-name="Group 981" transform="translate(277.68 143.005)">
        <path id="Path_1210" data-name="Path 1210" class="cls-11" d="M327.162,211.1l2.563,4.7,4.7,2.563-4.7,2.563-2.563,4.7-2.563-4.7-4.7-2.563,4.7-2.563Z" transform="translate(-319.9 -211.1)"/>
      </g>
      <g id="Group_982" data-name="Group 982" transform="translate(140.122 154.006)">
        <path id="Path_1211" data-name="Path 1211" class="cls-11" d="M194.624,221.4l1.175,2.243,2.243,1.282L195.8,226.1l-1.175,2.243-1.282-2.243-2.243-1.175,2.243-1.282Z" transform="translate(-191.1 -221.4)"/>
      </g>
      <g id="Group_983" data-name="Group 983" transform="translate(377.645)">
        <path id="Path_1212" data-name="Path 1212" class="cls-11" d="M417.024,77.2l1.175,2.243,2.243,1.175L418.2,81.9l-1.175,2.243L415.743,81.9,413.5,80.618l2.243-1.175Z" transform="translate(-413.5 -77.2)"/>
      </g>
      <g id="Group_984" data-name="Group 984" transform="translate(106.586 46.138)">
        <path id="Path_1213" data-name="Path 1213" class="cls-11" d="M163.118,120.4l1.282,2.243,2.243,1.175L164.4,125.1l-1.282,2.243-1.175-2.243-2.243-1.282,2.243-1.175Z" transform="translate(-159.7 -120.4)"/>
      </g>
      <g id="Group_985" data-name="Group 985" transform="translate(62.692 262.621)">
        <path id="Path_1214" data-name="Path 1214" class="cls-11" d="M125.542,323.1l2.563,4.486,4.486,2.456-4.486,2.456-2.563,4.592-2.456-4.592-4.486-2.456,4.486-2.456Z" transform="translate(-118.6 -323.1)"/>
      </g>
      <g id="Group_986" data-name="Group 986" transform="translate(124.422 277.787)">
        <path id="Path_1215" data-name="Path 1215" class="cls-11" d="M179.924,337.3l1.175,2.243,2.243,1.175L181.1,342l-1.175,2.243L178.643,342l-2.243-1.282,2.243-1.175Z" transform="translate(-176.4 -337.3)"/>
      </g>
    </g>
    <g id="Group_992" data-name="Group 992" class="cls-18" transform="translate(41.604 65.21)">
      <g id="Group_988" data-name="Group 988" transform="translate(264.757 80.42)">
        <path id="Path_1216" data-name="Path 1216" class="cls-11" d="M329.727,180.427c-.534,0-.961-3.952-1.388-11-.214-3.524-.427-7.8-.534-12.6-.107-2.456-.107-5.02-.214-7.8,0-1.388-.107-2.777-.107-4.165v-2.029h-2.136c-1.5,0-3.1,0-4.592.107-3.2,0-6.408.107-9.826.107-5.874,0-11.962.107-18.37.107,0,6.408-.107,12.5-.107,18.37,0,3.311-.107,6.622-.107,9.826,0,1.6,0,3.1-.107,4.592v2.136h2.029c1.388,0,2.884.107,4.165.107,2.777.107,5.34.214,7.8.214,4.913.214,9.078.32,12.6.534,6.835.534,10.894.961,10.894,1.5s-3.952.961-11,1.388c-3.524.214-7.8.427-12.6.534-2.456.107-5.02.107-7.8.214-1.388,0-2.777.107-4.165.107-2.243,0-4.486.107-6.835.107-.107-6.515-.214-13.67-.32-21.253,0-3.311,0-6.835-.107-10.36V137.6h13.564c3.524,0,6.942,0,10.36.107,7.583.107,14.738.214,21.253.32,0,2.35-.107,4.592-.107,6.835,0,1.388-.107,2.884-.107,4.165-.107,2.777-.214,5.34-.214,7.8-.214,4.913-.32,9.078-.534,12.6C330.688,176.475,330.261,180.427,329.727,180.427Z" transform="translate(-286.9 -137.6)"/>
      </g>
      <g id="Group_989" data-name="Group 989" transform="translate(143.966 90.353)">
        <path id="Path_1217" data-name="Path 1217" class="cls-11" d="M196.014,169.114c-.534,0-.961-1.922-1.388-5.34-.214-1.709-.427-3.738-.534-6.088-.107-1.175-.107-2.456-.214-3.738a2.957,2.957,0,0,0-.107-.961v-.32h0v-.107a.373.373,0,0,0-.107-.214c-.107,0-.214.107-.32.107h-1.816c-1.5,0-3.1.107-4.7.107s-3.311,0-5.02.107h-2.456v2.456c0,1.709,0,3.418-.107,5.02,0,1.6-.107,3.2-.107,4.7v1.816c0,.107-.107.214-.107.32.107,0,.107.107.214.107h.427a2.957,2.957,0,0,1,.961.107c1.282.107,2.563.214,3.738.214,2.35.214,4.379.32,6.088.534,3.631.107,5.554.641,5.554,1.175s-1.922.961-5.34,1.388c-1.709.214-3.738.427-6.088.534-1.175.107-2.456.107-3.738.214a2.957,2.957,0,0,0-.961.107h-1.6c-1.282,0-2.67.107-4.058.107-.107-3.524-.214-7.476-.32-11.534,0-1.6,0-3.311-.107-5.02V146.9h8.01c1.709,0,3.418,0,5.02.107q6.248.16,11.534.32c0,1.388-.107,2.67-.107,4.058v1.6a2.956,2.956,0,0,1-.107.961c-.107,1.282-.214,2.563-.214,3.738-.214,2.35-.32,4.379-.534,6.088C196.976,167.085,196.548,169.114,196.014,169.114Z" transform="translate(-173.8 -146.9)"/>
      </g>
      <g id="Group_990" data-name="Group 990" transform="translate(57.138)">
        <path id="Path_1218" data-name="Path 1218" class="cls-11" d="M135.327,105.127c-.534,0-.961-3.952-1.388-11-.214-3.524-.427-7.8-.534-12.6-.107-2.456-.107-5.02-.214-7.8,0-1.388-.107-2.777-.107-4.165V67.533h-2.136c-1.5,0-3.1,0-4.592.107-3.2,0-6.408.107-9.826.107-5.874,0-11.962.107-18.37.107,0,6.408-.107,12.5-.107,18.37,0,3.311-.107,6.622-.107,9.826,0,1.6,0,3.1-.107,4.592v2.136h2.029c1.388,0,2.884.107,4.165.107,2.777.107,5.34.214,7.8.214,4.913.214,9.078.32,12.6.534,6.942.534,10.894.961,10.894,1.5s-3.952.961-11,1.388c-3.524.214-7.8.427-12.6.534-2.456.107-5.02.107-7.8.214-1.388,0-2.777.107-4.165.107-2.243,0-4.486.107-6.835.107-.107-6.515-.214-13.67-.32-21.253,0-3.311,0-6.835-.107-10.36V62.3h13.564c3.524,0,6.942,0,10.36.107,7.583.107,14.738.214,21.253.32,0,2.35-.107,4.592-.107,6.835,0,1.388-.107,2.884-.107,4.165-.107,2.777-.214,5.34-.214,7.8-.214,4.913-.32,9.078-.534,12.6C136.288,101.175,135.861,105.127,135.327,105.127Z" transform="translate(-92.5 -62.3)"/>
      </g>
      <g id="Group_991" data-name="Group 991" transform="translate(0 137.558)">
        <path id="Path_1219" data-name="Path 1219" class="cls-11" d="M56.836,209.042c-.534,0-.961-1.5-1.388-4.165a44.531,44.531,0,0,1-.534-4.7c-.107-.961-.107-1.922-.214-2.884v-.641c0-.107-.107-.107-.107-.214a.373.373,0,0,0-.214.107h-.748c-1.175,0-2.456.107-3.631.107-1.282,0-2.563,0-3.845.107H44.981v1.175c0,1.282,0,2.563-.107,3.845,0,1.282-.107,2.456-.107,3.631v.641h0v.107c0,.107-.107.107-.107.214a.373.373,0,0,0,.214.107h.641c1.068.107,2.029.214,2.884.214,1.816.214,3.418.32,4.7.534,2.243.748,3.738,1.282,3.738,1.816s-1.5.961-4.165,1.388a44.533,44.533,0,0,1-4.7.534c-.961.107-1.922.107-2.884.214H42.524c-1.068,0-2.029.107-3.1.107-.107-2.884-.214-6.088-.32-9.505,0-1.282,0-2.563-.107-3.845V191.1h6.835c1.282,0,2.563,0,3.845.107,3.418.107,6.515.214,9.505.32,0,1.068-.107,2.136-.107,3.1v2.563c-.107,1.068-.214,2.029-.214,2.884-.214,1.816-.32,3.418-.534,4.7C57.8,207.547,57.263,209.042,56.836,209.042Z" transform="translate(-39 -191.1)"/>
      </g>
    </g>
    <g id="Group_1001" data-name="Group 1001" transform="translate(293.305 330.731)">
      <g id="Group_994" data-name="Group 994" transform="translate(27.251 23.57)">
        <g id="Group_993" data-name="Group 993">
          <path id="Path_1220" data-name="Path 1220" class="cls-2" d="M312.91,405.3c5.02,1.709,11,1.282,14.738-2.563a13.189,13.189,0,0,0,2.243-14.845c-1.175-2.35-3.1-4.486-2.99-7.049A8.535,8.535,0,0,1,328.4,377c1.5-2.243,3.524-4.165,4.913-6.408,1.388-2.35,2.243-5.233,1.175-7.69-2.136-4.806-9.719-5.02-11.962-9.826-1.068-2.243-.641-4.913-.427-7.369.214-2.99.107-6.088-1.282-8.758-1.388-2.563-4.486-4.486-7.369-3.845-3.418.748-5.233,4.592-6.515,7.9-.854,2.243-1.709,4.379-2.563,6.622-2.35,6.088-4.7,12.709-3.1,19.117,1.282,5.126,4.913,9.292,7.9,13.67a4.5,4.5,0,0,1,1.068,2.777c-.107,1.5-1.709,2.563-3.311,2.884-1.5.32-3.2.32-4.486,1.175a5.34,5.34,0,0,0-2.243,4.913,9.974,9.974,0,0,0,2.136,5.126C302.337,397.188,307.356,403.382,312.91,405.3Z" transform="translate(-300.191 -332.984)"/>
        </g>
      </g>
      <g id="Group_1000" data-name="Group 1000">
        <g id="Group_995" data-name="Group 995">
          <path id="Path_1221" data-name="Path 1221" class="cls-19" d="M292,409.262c6.835,2.35,15.059,1.709,20.078-3.524a17.891,17.891,0,0,0,2.99-20.185c-1.6-3.1-4.272-6.088-4.165-9.612a10.566,10.566,0,0,1,2.029-5.233c2.029-2.99,4.806-5.66,6.728-8.758s2.99-7.156,1.6-10.466c-2.884-6.515-13.243-6.835-16.34-13.35-1.5-3.1-.854-6.622-.534-9.932.32-4.058.214-8.33-1.816-11.855-1.922-3.524-6.088-6.194-10.039-5.233-4.7,1.068-7.156,6.194-8.864,10.787-1.175,2.99-2.243,5.981-3.418,8.971-3.2,8.33-6.408,17.3-4.272,25.952,1.709,6.942,6.622,12.709,10.787,18.583a6.093,6.093,0,0,1,1.5,3.738c-.214,2.136-2.35,3.418-4.486,3.845-2.029.427-4.272.427-6.088,1.6a7.2,7.2,0,0,0-2.99,6.622,13.826,13.826,0,0,0,2.884,6.942C277.585,398.261,284.421,406.592,292,409.262Z" transform="translate(-274.675 -310.915)"/>
        </g>
        <g id="Group_996" data-name="Group 996" transform="translate(19.892 36.83)">
          <path id="Path_1222" data-name="Path 1222" class="cls-2" d="M296.077,407.558c-1.5,0-2.777-13.884-2.777-31.079s1.282-31.079,2.777-31.079,2.777,13.884,2.777,31.079S297.572,407.558,296.077,407.558Z" transform="translate(-293.3 -345.4)"/>
        </g>
        <g id="Group_997" data-name="Group 997" transform="translate(21.896 46.729)">
          <path id="Path_1223" data-name="Path 1223" class="cls-2" d="M308.872,354.916c.534.641.107,1.816-.641,3.524a30.24,30.24,0,0,1-3.952,6.515c-3.631,4.7-7.476,7.8-8.758,6.835-1.175-.961.748-5.554,4.272-10.253a29.757,29.757,0,0,1,5.34-5.554C306.843,354.7,308.338,354.382,308.872,354.916Z" transform="translate(-295.177 -354.669)"/>
        </g>
        <g id="Group_998" data-name="Group 998" transform="translate(12.189 78.192)">
          <path id="Path_1224" data-name="Path 1224" class="cls-2" d="M296.354,396.166c-.427,0-.748-.214-1.175-.214a5.92,5.92,0,0,1-1.388-.534,19.446,19.446,0,0,1-4.058-3.524c-2.777-3.1-4.379-6.3-3.311-7.369,1.068-1.175,4.486.32,7.476,3.631a15.194,15.194,0,0,1,2.99,4.806,3.417,3.417,0,0,1,.32,2.243C297.208,395.953,296.781,396.166,296.354,396.166Z" transform="translate(-286.088 -384.128)"/>
        </g>
        <g id="Group_999" data-name="Group 999" transform="translate(12.945 35.152)">
          <path id="Path_1225" data-name="Path 1225" class="cls-2" d="M296.092,358.536c-.641.427-1.816,0-2.99-1.068a18.316,18.316,0,0,1-3.738-4.806,23.148,23.148,0,0,1-2.35-5.554c-.32-1.5-.32-2.67.214-3.1.641-.427,1.816-.107,3.1.961a18.465,18.465,0,0,1,3.845,4.806C296.519,353.944,297.374,357.575,296.092,358.536Z" transform="translate(-286.795 -343.829)"/>
        </g>
      </g>
    </g>
    <g id="Group_1010" data-name="Group 1010" transform="translate(120.733 377.69)">
      <g id="Group_1003" data-name="Group 1003">
        <g id="Group_1002" data-name="Group 1002">
          <path id="Path_1226" data-name="Path 1226" class="cls-2" d="M125.81,427.2c5.02,1.709,11.107,1.282,14.738-2.563a13.189,13.189,0,0,0,2.243-14.845c-1.175-2.35-3.1-4.486-2.99-7.049a8.535,8.535,0,0,1,1.5-3.845c1.5-2.243,3.524-4.165,4.913-6.408s2.243-5.233,1.175-7.69c-2.136-4.806-9.719-5.02-11.962-9.826-1.068-2.243-.641-4.913-.427-7.369.214-2.99.107-6.088-1.282-8.758-1.388-2.563-4.486-4.486-7.369-3.845-3.418.748-5.233,4.592-6.515,7.9-.854,2.243-1.709,4.379-2.563,6.622-2.35,6.088-4.7,12.709-3.1,19.117,1.282,5.126,4.913,9.292,7.9,13.67a4.5,4.5,0,0,1,1.068,2.777c-.107,1.5-1.709,2.563-3.311,2.884-1.5.32-3.2.32-4.486,1.175a5.34,5.34,0,0,0-2.243,4.913,9.974,9.974,0,0,0,2.136,5.126C115.237,419.088,120.256,425.282,125.81,427.2Z" transform="translate(-113.091 -354.884)"/>
        </g>
      </g>
      <g id="Group_1009" data-name="Group 1009" transform="translate(13.91 15.326)">
        <g id="Group_1004" data-name="Group 1004">
          <path id="Path_1227" data-name="Path 1227" class="cls-19" d="M159.741,423.879c5.874-3.2,11.855-6.622,16.127-11.748a7.6,7.6,0,0,0,2.029-3.738,3.806,3.806,0,0,0-1.388-3.845,4.408,4.408,0,0,0-3.311-.427,30.406,30.406,0,0,0-7.583,1.922,38.9,38.9,0,0,0,8.01-12.175c.534-1.388.961-3.2-.214-4.058a2.452,2.452,0,0,0-1.5-.427c-6.408-.748-12.175,4.058-16.34,8.971a95.165,95.165,0,0,0,1.6-26.38c-.107-1.068-.32-2.35-1.388-2.67a3.081,3.081,0,0,0-1.922.32c-5.02,2.456-8.544,7.262-10.68,12.5s-2.884,10.787-3.631,16.34a64.1,64.1,0,0,0-7.156-16.127,2.174,2.174,0,0,0-.641-.748c-.534-.214-1.175.214-1.6.748-4.058,4.7-4.592,11.534-3.631,17.729A43.178,43.178,0,0,0,134.75,419.5c1.6,2.136,4.058,6.194,9.185,6.194Z" transform="translate(-126.115 -369.234)"/>
        </g>
        <g id="Group_1005" data-name="Group 1005" transform="translate(15.014 13.832)">
          <path id="Path_1228" data-name="Path 1228" class="cls-2" d="M149.921,382.2c1.5.534-1.068,10.039-3.1,21.787-2.136,11.748-3.1,21.467-4.7,21.574-.748,0-1.5-2.456-1.816-6.622a66.63,66.63,0,0,1,.961-15.913,63.763,63.763,0,0,1,4.592-15.272C147.678,384.017,149.173,381.987,149.921,382.2Z" transform="translate(-140.172 -382.186)"/>
        </g>
        <g id="Group_1006" data-name="Group 1006" transform="translate(16.756 30.467)">
          <path id="Path_1229" data-name="Path 1229" class="cls-2" d="M161.771,397.909c1.175,1.068-2.884,7.262-8.224,14.632-5.34,7.262-10.146,13.03-11.428,12.175-1.282-.748,1.388-7.9,6.942-15.486S160.7,396.841,161.771,397.909Z" transform="translate(-141.804 -397.761)"/>
        </g>
        <g id="Group_1007" data-name="Group 1007" transform="translate(17.607 41.236)">
          <path id="Path_1230" data-name="Path 1230" class="cls-2" d="M167.7,407.9c.214-.107.427-.107.641.32a1.806,1.806,0,0,1,0,1.5,2.677,2.677,0,0,1-.427.748c-.214.214-.32.427-.534.641a13.871,13.871,0,0,1-1.282,1.5,33.253,33.253,0,0,1-9.185,5.874c-3.738,1.709-7.156,2.99-9.612,3.845s-4.165,1.282-4.592.641.427-2.243,2.67-4.058a44.309,44.309,0,0,1,9.185-5.447c3.738-1.709,6.942-3.1,9.292-4.058.534-.214,1.175-.427,1.6-.641a2.214,2.214,0,0,1,.641-.214c.107,0,.32-.107.427-.107.214-.107.427,0,.641-.107A1.875,1.875,0,0,1,167.7,407.9Z" transform="translate(-142.6 -407.844)"/>
        </g>
        <g id="Group_1008" data-name="Group 1008" transform="translate(5.848 29.937)">
          <path id="Path_1231" data-name="Path 1231" class="cls-2" d="M142.921,422.721a.493.493,0,0,1-.534.32,1.989,1.989,0,0,1-1.175-.427,9.786,9.786,0,0,1-2.029-2.563,48.823,48.823,0,0,1-4.379-8.864c-2.884-7.156-4.058-13.35-2.563-13.884,1.388-.534,4.913,4.7,7.8,11.855a52.78,52.78,0,0,1,2.884,9.4,10.179,10.179,0,0,1,.214,2.884,1.584,1.584,0,0,1-.107.748A.8.8,0,0,1,142.921,422.721Z" transform="translate(-131.591 -397.265)"/>
        </g>
      </g>
    </g>
  </g>
</svg>
