<?xml version="1.0" encoding="utf-8"?>
<!-- Generator: Adobe Illustrator 22.1.0, SVG Export Plug-In . SVG Version: 6.00 Build 0)  -->
<svg version="1.1" id="Layer_1" xmlns="http://www.w3.org/2000/svg" xmlns:xlink="http://www.w3.org/1999/xlink" x="0px" y="0px"
	 viewBox="0 0 388.1 388.1" style="enable-background:new 0 0 388.1 388.1;" xml:space="preserve">
<style type="text/css">
	.st0{fill:#000054;}
</style>
<path class="st0" d="M276,146.9c-24.4-30.4-51.6-64.4-55.6-122c-34.4,31.2-62,88.8-52.4,157.2c0.8,6.4-2,12.4-7.2,15.6
	c-5.2,3.2-11.6,3.2-16.8,0c-18.4-10.8-29.2-27.6-40-44.4c-0.8-1.6-2-2.8-2.8-4.4C83.6,177.3,68,210.1,68,244.1c0,74,52,128,124,128
	c72.8,0,128-55.2,128-128C320,201.3,299.6,176.1,276,146.9z"/>
<path d="M336,244.1c0-48.4-24-78.4-47.6-107.6c-26-32.4-53.2-66.4-52.4-128.4c0-3.2-1.6-5.6-4.4-7.2c-2.8-1.2-6-1.2-8.4,0.4
	c-43.6,31.2-82.4,99.6-71.2,182.8c-15.2-8.8-24.4-23.6-34.8-39.2c-3.2-5.2-6.4-10.4-10-15.2c-1.6-2-4-3.6-6.8-3.2
	c-2.8,0-5.2,1.6-6.4,3.6c-20.8,32.4-42,71.6-42,114c0,83.6,58.8,144,140,144C274,388.1,336,326.1,336,244.1z M192,372.1
	c-72,0-124-54-124-128c0-34,15.6-66.8,33.2-95.2c0.8,1.6,2,2.8,2.8,4.4c10.8,16.8,21.6,33.6,40,44.4c5.2,3.2,11.6,3.2,16.8,0
	c5.2-3.2,8-9.2,7.2-15.6c-9.6-68.4,18-126,52.4-157.2c4,57.6,31.2,91.6,55.6,122c23.6,29.2,44,54.4,44,97.2
	C320,316.9,264.8,372.1,192,372.1z"/>
</svg>
