<svg xmlns="http://www.w3.org/2000/svg" viewBox="0 0 200 62.223">
  <defs>
    <style>
      .cls-1 {
        fill: #5677fc;
      }
    </style>
  </defs>
  <g id="logo" transform="translate(-79.4 -59.578)">
    <g id="Group_1" data-name="Group 1" transform="translate(79.4 59.578)">
      <path id="Path_1" data-name="Path 1" class="cls-1" d="M79.4,129.9v-7.931h1.678a1.592,1.592,0,0,0,1.558-.69c.359-.282.509-.878.509-1.787V78.426h4.7a4.256,4.256,0,0,1,3.146,1.379A4.605,4.605,0,0,1,92.312,83.1v37.929c0,3.1-.869,5.36-2.606,6.834-1.738,1.379-4.614,2.038-8.6,2.038Zm3.775-62.1h4.7a4.256,4.256,0,0,1,3.146,1.379,4.605,4.605,0,0,1,1.318,3.291v2.853H83.175Z" transform="translate(-79.4 -67.675)"/>
      <path id="Path_2" data-name="Path 2" class="cls-1" d="M131.493,132.841a13.6,13.6,0,0,1-3.925-6.614,32.082,32.082,0,0,1-1.168-8.683,28.311,28.311,0,0,1,.989-7.366,15.749,15.749,0,0,1,3.056-6.144,13.393,13.393,0,0,1,8.748-4.859,19.181,19.181,0,0,1,9.646.878,13.638,13.638,0,0,1,7.31,7.084,23.715,23.715,0,0,1,2.217,10.5,27.251,27.251,0,0,1-.9,7.492,19.475,19.475,0,0,1-2.337,5.329,13.12,13.12,0,0,1-7.969,5.611,17.352,17.352,0,0,1-8.688.219A14.083,14.083,0,0,1,131.493,132.841Zm6.261-24.011c-1.827,2.1-2.666,5.2-2.487,9.341s.9,7.022,2.217,8.683a5.882,5.882,0,0,0,2.726,1.849,5.994,5.994,0,0,0,3.984.125,6.792,6.792,0,0,0,3.595-3.072c1.049-1.63,1.618-4.263,1.708-7.931,0-3.291-.509-5.736-1.5-7.366a6.828,6.828,0,0,0-3.445-3.135,6.227,6.227,0,0,0-3.924-.063A6.669,6.669,0,0,0,137.754,108.83Z" transform="translate(-112.32 -89.05)"/>
      <path id="Path_3" data-name="Path 3" class="cls-1" d="M246.7,72.039V82.948a10.757,10.757,0,0,1,9.916-5.611,11.986,11.986,0,0,1,10.036,5.329c2.606,3.542,3.924,8.15,3.924,13.792s-1.318,10.25-3.924,13.792a11.1,11.1,0,0,1-5.273,3.762,19.61,19.61,0,0,1-6.591,1.16,21.137,21.137,0,0,1-11.624-3.417c-3.565-2.288-5.362-6.645-5.362-13.1V67.4h4.434a4.256,4.256,0,0,1,3.146,1.379A4.481,4.481,0,0,1,246.7,72.039Zm14.859,24.011c0-3.291-.659-5.83-1.947-7.649a6.152,6.152,0,0,0-5.363-2.853,6.463,6.463,0,0,0-5.6,2.727,13.521,13.521,0,0,0-1.947,7.774c0,3.824.6,6.614,1.827,8.338a6.283,6.283,0,0,0,5.482,2.853,6.348,6.348,0,0,0,5.6-2.853C260.9,102.477,261.557,99.687,261.557,96.051Z" transform="translate(-190.346 -67.4)"/>
      <path id="Path_4" data-name="Path 4" class="cls-1" d="M352.4,138.1V120.483a23.623,23.623,0,0,1,1.5-8.934,14.547,14.547,0,0,1,4.1-5.8,15.992,15.992,0,0,1,5.812-3.009,25.035,25.035,0,0,1,6.86-.94h1.318v9.686h-3c-2.516,0-4.4.627-5.6,1.912-1.228,1.285-1.827,3.291-1.827,6.019v18.714H352.4Z" transform="translate(-270.614 -91.017)"/>
      <path id="Path_5" data-name="Path 5" class="cls-1" d="M423.4,67.8h4.673a4.256,4.256,0,0,1,3.146,1.379,4.605,4.605,0,0,1,1.318,3.291v2.853H423.4Zm0,10.658h4.673a4.256,4.256,0,0,1,3.146,1.379,4.605,4.605,0,0,1,1.318,3.291v31.66H423.4Z" transform="translate(-320.344 -67.675)"/>
      <path id="Path_6" data-name="Path 6" class="cls-1" d="M476.59,138.031h-9.257l-12.133-36.3h9.647l6.92,25.516,6.141-22.256c.689-2.194,2.1-3.291,4.164-3.291h6.771Z" transform="translate(-342.618 -90.948)"/>
      <path id="Path_7" data-name="Path 7" class="cls-1" d="M594.955,125.124h6.5a15,15,0,0,1-5.482,8.746A16.05,16.05,0,0,1,585.788,137c-4.943,0-8.838-1.693-11.624-5.047C571.378,128.666,570,124,570,117.883q0-8.746,4.044-13.636c2.786-3.354,6.651-5.047,11.624-5.047,5.213,0,9.257,1.63,12.133,4.921,2.786,3.354,4.164,8.056,4.164,14.075v1.473a2.875,2.875,0,0,1-.12.94H579.287c.09,2.821.749,4.921,1.947,6.269a6.088,6.088,0,0,0,5.093,2.194,7.224,7.224,0,0,0,3.775-.94,1.812,1.812,0,0,0,.719-.47l.719-.752a3.034,3.034,0,0,1,.989-1.1A3.713,3.713,0,0,1,594.955,125.124Zm-15.668-10.658h13.3a9.133,9.133,0,0,0-1.827-5.454,6.068,6.068,0,0,0-4.823-1.912,6.2,6.2,0,0,0-4.7,1.912A8.186,8.186,0,0,0,579.287,114.466Z" transform="translate(-423.026 -89.232)"/>
      <path id="Path_8" data-name="Path 8" class="cls-1" d="M681.6,138.1V120.483a23.618,23.618,0,0,1,1.5-8.934,14.546,14.546,0,0,1,4.1-5.8,15.993,15.993,0,0,1,5.812-3.009,25.034,25.034,0,0,1,6.86-.94h1.318v9.686h-3c-2.517,0-4.4.627-5.6,1.912-1.228,1.285-1.827,3.291-1.827,6.019v18.714H681.6Z" transform="translate(-501.192 -91.017)"/>
    </g>
  </g>
</svg>
