<?xml version="1.0" encoding="utf-8"?>
<!-- Generator: Adobe Illustrator 22.1.0, SVG Export Plug-In . SVG Version: 6.00 Build 0)  -->
<svg version="1.1" id="Capa_1" xmlns="http://www.w3.org/2000/svg" xmlns:xlink="http://www.w3.org/1999/xlink" x="0px" y="0px"
	 viewBox="0 0 512 512" style="enable-background:new 0 0 512 512;" xml:space="preserve">
<style type="text/css">
	.st0{fill:#FFFFFF;}
</style>
<g>
	<g id="Magnifying_x5F_Glass">
		<g>
			<path class="st0" d="M0,184.1c0,101.4,82.5,183.8,184,183.8c33.3,0,64.5-9,91.5-24.6l154.5,154.4c9.4,9.4,21.6,14,33.9,14
				c12.3,0,24.6-4.7,33.9-14c18.7-18.7,18.7-49.1,0-67.8L343.4,275.5c15.6-27,24.6-58.1,24.6-91.4C368,82.7,285.5,0.3,184,0.3
				C82.6,0.3,0,82.7,0,184.1z M302.2,324.8c8.2-6.9,15.7-14.4,22.6-22.6l150.5,150.4c4.1,4.1,4.7,8.8,4.7,11.3s-0.6,7.2-4.7,11.3
				c-4.1,4.1-8.9,4.7-11.3,4.7c-2.5,0-7.2-0.6-11.3-4.7L302.2,324.8z M32,184.1c0-83.7,68.2-151.8,152-151.8
				c83.8,0,152,68.1,152,151.8s-68.2,151.8-152,151.8C100.2,335.9,32.1,267.8,32,184.1z M99.8,270.4c3.1,3.1,7.2,4.7,11.3,4.7
				c4.1,0,8.2-1.6,11.3-4.7c6.3-6.2,6.3-16.4,0-22.6c-35.1-35.1-35.1-92.3,0-127.4c6.3-6.2,6.3-16.4,0-22.6
				c-6.3-6.2-16.4-6.2-22.6,0C52.2,145.4,52.2,222.8,99.8,270.4z"/>
		</g>
	</g>
</g>
</svg>
